<?xml version="1.0" encoding="utf-8"?>
<!-- Generator: Adobe Illustrator 22.0.1, SVG Export Plug-In . SVG Version: 6.00 Build 0)  -->
<svg version="1.1" id="Layer_1" xmlns:xml="http://www.w3.org/XML/1998/namespace"
	 xmlns="http://www.w3.org/2000/svg" xmlns:xlink="http://www.w3.org/1999/xlink" x="0px" y="0px" viewBox="0 0 58 50"
	 style="enable-background:new 0 0 58 50;" height="0.694444in" width="0.805556in" xml:space="preserve">
<style type="text/css">
	.st0{fill:#231F20;}
	.st1{font-family:DroidSans;}
	.st2{font-size:3.5px;}
	.st3{fill:none;stroke:#231F20;stroke-width:0.7;stroke-miterlimit:10;}
	.st4{fill:none;stroke:#231F20;stroke-miterlimit:10;}
	.st5{font-size:4.25px;}
</style>
<desc>
	<referenceFile>SSD1306_I2C_128x64Schema.svg</referenceFile>
</desc>
<g transform="matrix(1 0 0 1 9.5669 37.1494)">
	<g>
		<g>
			<text transform="matrix(1 0 0 1 2.504883e-05 1.506250e-05)" class="st0 st1 st2" font-family="'DroidSans'" font-size="3.5">SDA</text>
		</g>
	</g>
</g>
<g transform="matrix(1 0 0 1 9.5659 30.0791)">
	<g>
		<g>
			<text transform="matrix(1 0 0 1 1.796875e-05 0)" class="st0 st1 st2" font-family="'DroidSans'" font-size="3.5">SCL</text>
		</g>
	</g>
</g>
<g transform="matrix(1 0 0 1 25.0835 41.4521)">
	<g>
		<g>
			<text transform="matrix(1 0 0 1 0.5816 -29.8334)" class="st0 st1 st2" font-family="'DroidSans'" font-size="3.5">GND</text>
		</g>
	</g>
</g>
<g transform="matrix(1 0 0 1 25.6655 11)">
	<g>
		<g>
			<text transform="matrix(1 0 0 1 2.634375e-05 29.6667)" class="st0 st1 st2" font-family="'DroidSans'" font-size="3.5">VCC</text>
		</g>
	</g>
</g>
<rect x="7.3" y="7.2" class="st3" width="50.4" height="35.7"/>
<line id="connector1pin" class="st4" x1="28.9" y1="7.3" x2="28.9" y2="0"/>
<line id="connector3pin" class="st4" x1="0.1" y1="28.8" x2="7.3" y2="28.8"/>
<line id="connector4pin" class="st4" x1="0" y1="36" x2="7.3" y2="36"/>
<g transform="matrix(1 0 0 1 21.6719 22.0322)">
	<g>
		<g>
			<text transform="matrix(1 0 0 1 3.603516e-05 2.656250e-05)" class="st1 st5" font-family="'DroidSans'" font-size="4.25">OLED 128x64 </text>
		</g>
	</g>
</g>
<g transform="matrix(1 0 0 1 21.6719 27.1318)">
	<g>
		<g>
			<text transform="matrix(1 0 0 1 3.603516e-05 -2.509766e-05)" class="st1 st5" font-family="'DroidSans'" font-size="4.25">SSD1306 </text>
		</g>
	</g>
</g>
<g transform="matrix(1 0 0 1 21.6719 32.2324)">
	<g>
		<g>
			<text transform="matrix(1 0 0 1 3.603516e-05 2.287500e-05)" class="st1 st5" font-family="'DroidSans'" font-size="4.25">I2C </text>
		</g>
	</g>
</g>
<line id="connector2pin" class="st4" x1="28.9" y1="50.4" x2="28.9" y2="43.1"/>
</svg>
