<?xml version='1.0' encoding='utf-8'?>
<!DOCTYPE svg>
<!-- Generator: Adobe Illustrator 15.0.0, SVG Export Plug-In . SVG Version: 6.00 Build 0)  -->
<svg xmlns="http://www.w3.org/2000/svg" id="Layer_1"  version="1.1" xml:space="preserve" enable-background="new 0 0 82 82" height="1.13889in" gorn="0" xmlns:xml="http://www.w3.org/XML/1998/namespace" viewBox="0 0 82 82" x="0px" y="0px" width="1.13889in">
    <desc >
        <referenceFile >SSD1306_I2C_128x64BB.svg</referenceFile>
    </desc>
    <g >
        <path  d="M77.363,0.153H3.946c-1.66,0-4.006,2.571-4.006,5.745v70.205c0,3.171,2.346,5.743,4.006,5.743H78.05c1.66,0,4.009-2.572,4.009-5.743V5.897C82.059,2.724,79.023,0.153,77.363,0.153z M13.052,80.501v0.006h-0.047c-0.094,0.006-0.183,0.026-0.276,0.026c-0.112,0-0.22-0.021-0.328-0.026H8.052c-0.108,0.008-0.215,0.026-0.327,0.026c-2.313,0-4.188-1.875-4.188-4.188c0-2.312,1.875-4.188,4.188-4.188h5.327v0.033c2.158,0.168,3.863,1.953,3.863,4.154C16.915,78.548,15.212,80.333,13.052,80.501z M13.677,10.626v0.005H13.63c-0.094,0.006-0.183,0.028-0.276,0.028c-0.112,0-0.22-0.019-0.328-0.028H8.677c-0.108,0.009-0.215,0.028-0.327,0.028c-2.313,0-4.188-1.875-4.188-4.188S6.036,2.283,8.35,2.283h5.327v0.033c2.158,0.168,3.863,1.953,3.863,4.155C17.54,8.673,15.837,10.458,13.677,10.626z M74.177,80.251v0.006H74.13c-0.094,0.006-0.183,0.026-0.276,0.026c-0.112,0-0.22-0.021-0.328-0.026h-4.349c-0.108,0.008-0.215,0.026-0.327,0.026c-2.313,0-4.188-1.875-4.188-4.188c0-2.312,1.875-4.188,4.188-4.188h5.327v0.033c2.158,0.168,3.863,1.953,3.863,4.154C78.04,78.298,76.337,80.083,74.177,80.251z M75.177,11v0.006H75.13c-0.094,0.006-0.183,0.027-0.276,0.027c-0.112,0-0.22-0.02-0.328-0.027h-4.349c-0.108,0.008-0.215,0.027-0.327,0.027c-2.313,0-4.188-1.875-4.188-4.188s1.875-4.188,4.188-4.188h5.327V2.69c2.158,0.168,3.863,1.953,3.863,4.155C79.04,9.047,77.337,10.833,75.177,11z" fill="#006699"/>
        <rect  height="7.427" x="28.021" y="1.473" width="3.713" fill="#454545"/>
        <polygon  points="26.163,3.328 28.021,1.473 28.021,8.899 26.163,7.041 " fill="#454545"/>
        <polygon  points="31.732,1.473 33.593,3.328 33.593,7.041 31.732,8.899 " fill="#454545"/>
        <rect id="connector1pin"  height="1.668" gorn="0.1.4" x="29.223" y="4.349" width="1.312" fill="#B68B2D"/>
        <rect  height="7.427" x="35.223" y="1.473" width="3.713" fill="#454545"/>
        <polygon  points="33.363,3.328 35.223,1.473 35.223,8.899 33.363,7.041 " fill="#454545"/>
        <polygon  points="38.934,1.473 40.792,3.328 40.792,7.041 38.934,8.899 " fill="#454545"/>
        <rect id="connector2pin"  height="1.668" gorn="0.1.8" x="36.421" y="4.349" width="1.312" fill="#B68B2D"/>
        <rect  height="7.427" x="42.421" y="1.473" width="3.713" fill="#454545"/>
        <polygon  points="40.564,3.328 42.421,1.473 42.421,8.899 40.564,7.041 " fill="#454545"/>
        <polygon  points="46.134,1.473 47.992,3.328 47.992,7.041 46.134,8.899 " fill="#454545"/>
        <rect id="connector3pin"  height="1.668" gorn="0.1.12" x="43.622" y="4.349" width="1.312" fill="#B68B2D"/>
        <rect  height="7.427" x="49.622" y="1.473" width="3.713" fill="#454545"/>
        <polygon  points="47.764,3.328 49.622,1.473 49.622,8.899 47.764,7.041 " fill="#454545"/>
        <polygon  points="53.333,1.473 55.191,3.328 55.191,7.041 53.333,8.899 " fill="#454545"/>
        <rect id="connector4pin"  height="1.668" gorn="0.1.16" x="50.82" y="4.349" width="1.312" fill="#B68B2D"/>
        <g  transform="matrix(1 0 0 1 27.165 12.1396)">
            <g >
                <g >
                    <text font-size="2.5" font-family="OCRA"  fill="#FFFFFF">VCC</text>
                </g>
            </g>
        </g>
        <g  transform="matrix(1 0 0 1 34.4883 12.1377)">
            <g >
                <g >
                    <text font-size="2.5" font-family="OCRA"  fill="#FFFFFF">GND</text>
                </g>
            </g>
        </g>
        <g  transform="matrix(1 0 0 1 41.8115 12.1396)">
            <g >
                <g >
                    <text font-size="2.5" font-family="OCRA"  fill="#FFFFFF">SCL</text>
                </g>
            </g>
        </g>
        <g  transform="matrix(1 0 0 1 49.1348 12.1377)">
            <g >
                <g >
                    <text font-size="2.5" font-family="OCRA"  fill="#FFFFFF">SDA</text>
                </g>
            </g>
        </g>
        <rect  height="46" x="1.238" y="12.726" width="79.125" fill="#231F20"/>
        <rect  height="43.5" x="3.113" y="14.101" width="76.125" fill="#00435E"/>
        <rect  height="23.375" x="25.988" y="57.726" width="30" fill="#231F20"/>
        <g  transform="matrix(1 0 0 1 30.7334 64.6006)">
            <g >
                <g >
                    <text font-size="2.5" font-family="OCRA"  fill="#FFFFFF">OLED 128x64 </text>
                </g>
            </g>
        </g>
        <g  transform="matrix(1 0 0 1 34.3076 67.6006)">
            <g >
                <g >
                    <text font-size="2.5" font-family="OCRA"  fill="#FFFFFF">SSD1306 </text>
                </g>
            </g>
        </g>
        <g  transform="matrix(1 0 0 1 37.8823 70.6006)">
            <g >
                <g >
                    <text font-size="2.5" font-family="OCRA"  fill="#FFFFFF">I2C</text>
                </g>
            </g>
        </g>
        <g  transform="matrix(1 0 0 1 29.2227 77.0986)">
            <g >
                <g >
                    <text font-size="2.5" font-family="OCRA"  fill="#FFFFFF">blog.squix.ch</text>
                </g>
            </g>
        </g>
    </g>
</svg>
