<?xml version="1.0" encoding="utf-8"?>
<!-- Generator: Adobe Illustrator 22.0.1, SVG Export Plug-In . SVG Version: 6.00 Build 0)  -->
<svg version="1.1" id="Layer_1" xmlns:xml="http://www.w3.org/XML/1998/namespace"
	 xmlns="http://www.w3.org/2000/svg" xmlns:xlink="http://www.w3.org/1999/xlink" x="0px" y="0px" viewBox="0 0 82 82"
	 style="enable-background:new 0 0 82 82;" xml:space="preserve" height="1.13889in" width="1.13889in">
<style type="text/css">
	.st0{fill:#006699;}
	.st1{fill:#454545;}
	.st2{fill:#B68B2D;}
	.st3{fill:#FFFFFF;}
	.st4{font-family:'ArialMT';}
	.st5{font-size:2.5px;}
	.st6{fill:#231F20;}
	.st7{fill:#00435E;}
</style>
<desc>
	<referenceFile>SSD1306_I2C_128x64BB.svg</referenceFile>
</desc>
<g>
	<path class="st0" d="M77.4,0.2H3.9c-1.7,0-4,2.6-4,5.7v70.2c0,3.2,2.3,5.7,4,5.7h74.1c1.7,0,4-2.6,4-5.7V5.9
		C82.1,2.7,79,0.2,77.4,0.2z M13.1,80.5L13.1,80.5L13.1,80.5c-0.1,0-0.2,0-0.3,0c-0.1,0-0.2,0-0.3,0H8.1c-0.1,0-0.2,0-0.3,0
		c-2.3,0-4.2-1.9-4.2-4.2c0-2.3,1.9-4.2,4.2-4.2h5.3v0c2.2,0.2,3.9,2,3.9,4.2C16.9,78.5,15.2,80.3,13.1,80.5z M13.7,10.6L13.7,10.6
		L13.7,10.6c-0.1,0-0.2,0-0.3,0c-0.1,0-0.2,0-0.3,0H8.7c-0.1,0-0.2,0-0.3,0c-2.3,0-4.2-1.9-4.2-4.2S6,2.3,8.4,2.3h5.3v0
		c2.2,0.2,3.9,2,3.9,4.2S15.8,10.5,13.7,10.6z M74.2,80.3L74.2,80.3L74.2,80.3c-0.1,0-0.2,0-0.3,0c-0.1,0-0.2,0-0.3,0h-4.3
		c-0.1,0-0.2,0-0.3,0c-2.3,0-4.2-1.9-4.2-4.2c0-2.3,1.9-4.2,4.2-4.2h5.3v0c2.2,0.2,3.9,2,3.9,4.2C78,78.3,76.3,80.1,74.2,80.3z
		 M75.2,11L75.2,11L75.2,11c-0.1,0-0.2,0-0.3,0c-0.1,0-0.2,0-0.3,0h-4.3c-0.1,0-0.2,0-0.3,0c-2.3,0-4.2-1.9-4.2-4.2s1.9-4.2,4.2-4.2
		h5.3v0c2.2,0.2,3.9,2,3.9,4.2C79,9,77.3,10.8,75.2,11z"/>
	<rect x="28" y="1.5" class="st1" width="3.7" height="7.4"/>
	<polygon class="st1" points="26.2,3.3 28,1.5 28,8.9 26.2,7 	"/>
	<polygon class="st1" points="31.7,1.5 33.6,3.3 33.6,7 31.7,8.9 	"/>
	<rect id="connector1pin" x="29.2" y="4.3" class="st2" width="1.3" height="1.7"/>
	<rect x="35.2" y="1.5" class="st1" width="3.7" height="7.4"/>
	<polygon class="st1" points="33.4,3.3 35.2,1.5 35.2,8.9 33.4,7 	"/>
	<polygon class="st1" points="38.9,1.5 40.8,3.3 40.8,7 38.9,8.9 	"/>
	<rect id="connector2pin" x="36.4" y="4.3" class="st2" width="1.3" height="1.7"/>
	<rect x="42.4" y="1.5" class="st1" width="3.7" height="7.4"/>
	<polygon class="st1" points="40.6,3.3 42.4,1.5 42.4,8.9 40.6,7 	"/>
	<polygon class="st1" points="46.1,1.5 48,3.3 48,7 46.1,8.9 	"/>
	<rect id="connector3pin" x="43.6" y="4.3" class="st2" width="1.3" height="1.7"/>
	<rect x="49.6" y="1.5" class="st1" width="3.7" height="7.4"/>
	<polygon class="st1" points="47.8,3.3 49.6,1.5 49.6,8.9 47.8,7 	"/>
	<polygon class="st1" points="53.3,1.5 55.2,3.3 55.2,7 53.3,8.9 	"/>
	<rect id="connector4pin" x="50.8" y="4.3" class="st2" width="1.3" height="1.7"/>
	<g transform="matrix(1 0 0 1 27.165 12.1396)">
		<g>
			<g>
				<text transform="matrix(1 0 0 1 6.875 -1.691064e-03)" class="st3 st4 st5">VCC</text>
			</g>
		</g>
	</g>
	<g transform="matrix(1 0 0 1 34.4883 12.1377)">
		<g>
			<g>
				<text transform="matrix(1 0 0 1 -7.625 0)" class="st3 st4 st5">GND</text>
			</g>
		</g>
	</g>
	<g transform="matrix(1 0 0 1 41.8115 12.1396)">
		<g>
			<g>
				<text transform="matrix(1 0 0 1 -8.080078e-06 -1.259766e-05)" class="st3 st4 st5">SCL</text>
			</g>
		</g>
	</g>
	<g transform="matrix(1 0 0 1 49.1348 12.1377)">
		<g>
			<g>
				<text class="st3 st4 st5">SDA</text>
			</g>
		</g>
	</g>
	<rect x="1.2" y="12.7" class="st6" width="79.1" height="46"/>
	<rect x="3.1" y="14.1" class="st7" width="76.1" height="43.5"/>
	<rect x="26" y="57.7" class="st6" width="30" height="23.4"/>
	<g transform="matrix(1 0 0 1 30.7334 64.6006)">
		<g>
			<g>
				<text transform="matrix(1 0 0 1 0 -1.506250e-05)" class="st3 st4 st5">OLED 128x64 </text>
			</g>
		</g>
	</g>
	<g transform="matrix(1 0 0 1 34.3076 67.6006)">
		<g>
			<g>
				<text transform="matrix(1 0 0 1 -1.133008e-05 -1.506250e-05)" class="st3 st4 st5">SSD1306 </text>
			</g>
		</g>
	</g>
	<g transform="matrix(1 0 0 1 37.8823 70.6006)">
		<g>
			<g>
				<text transform="matrix(1 0 0 1 -7.298828e-06 -1.506250e-05)" class="st3 st4 st5">I2C</text>
			</g>
		</g>
	</g>
	<g transform="matrix(1 0 0 1 29.2227 77.0986)">
		<g>
			<g>
				<text transform="matrix(1 0 0 1 -1.323242e-05 -3.022266e-05)" class="st3 st4 st5">blog.squix.ch</text>
			</g>
		</g>
	</g>
</g>
</svg>
