<?xml version="1.0" encoding="UTF-8" standalone="no"?>
<!-- Generator: Adobe Illustrator 15.0.0, SVG Export Plug-In . SVG Version: 6.00 Build 0)  -->

<svg
   xmlns:dc="http://purl.org/dc/elements/1.1/"
   xmlns:cc="http://creativecommons.org/ns#"
   xmlns:rdf="http://www.w3.org/1999/02/22-rdf-syntax-ns#"
   xmlns:svg="http://www.w3.org/2000/svg"
   xmlns="http://www.w3.org/2000/svg"
   xmlns:sodipodi="http://sodipodi.sourceforge.net/DTD/sodipodi-0.dtd"
   xmlns:inkscape="http://www.inkscape.org/namespaces/inkscape"
   version="1.1"
   id="Layer_1"
   x="0px"
   y="0px"
   width="104.04828"
   height="103.51501"
   viewBox="-46.775 16.925 104.04829 103.51501"
   enable-background="new -46.775 16.925 79.95 72.75"
   xml:space="preserve"
   sodipodi:docname="SSD1306_I2C_GND_VCC_128x64_Fritzing_PCB.svg"
   inkscape:version="0.92.2 (5c3e80d, 2017-08-06)"><metadata
     id="metadata25"><rdf:RDF><cc:Work
         rdf:about=""><dc:format>image/svg+xml</dc:format><dc:type
           rdf:resource="http://purl.org/dc/dcmitype/StillImage" /><dc:title /></cc:Work></rdf:RDF></metadata><defs
     id="defs23" /><sodipodi:namedview
     pagecolor="#ffffff"
     bordercolor="#666666"
     borderopacity="1"
     objecttolerance="10"
     gridtolerance="10"
     guidetolerance="10"
     inkscape:pageopacity="0"
     inkscape:pageshadow="2"
     inkscape:window-width="2560"
     inkscape:window-height="1377"
     id="namedview21"
     showgrid="false"
     fit-margin-top="0"
     fit-margin-left="0"
     fit-margin-right="0"
     fit-margin-bottom="0"
     inkscape:zoom="8.2560545"
     inkscape:cx="39.862267"
     inkscape:cy="65.907785"
     inkscape:window-x="-8"
     inkscape:window-y="-8"
     inkscape:window-maximized="1"
     inkscape:current-layer="Layer_1" /><g
     id="keepout"
     transform="translate(0.5599987,30.419015)" /><g
     id="soldermask"
     transform="translate(0.5599987,30.419015)" /><g
     id="outline"
     transform="translate(0.5599987,30.419015)" /><g
     id="silkscreen"><path
       style="fill:none;stroke:#000000;stroke-width:1.25179899;stroke-opacity:1"
       inkscape:connector-curvature="0"
       d="m 50.768932,17.5509 h -91.903327 c -2.077987,0 -5.014707,3.218375 -5.014707,7.191585 v 87.882545 c 0,3.96946 2.93672,7.18909 5.014707,7.18909 h 92.763313 c 2.077986,0 5.018462,-3.21963 5.018462,-7.18909 V 24.741234 c 0,-3.971959 -3.800462,-7.190334 -5.878448,-7.190334 z m -80.504446,100.57955 v 0.008 h -0.05883 c -0.117669,0.008 -0.22908,0.0325 -0.345497,0.0325 -0.140201,0 -0.275396,-0.0263 -0.41059,-0.0325 h -5.444074 c -0.135194,0.01 -0.269137,0.0325 -0.409338,0.0325 -2.895411,0 -5.242534,-2.34712 -5.242534,-5.24253 0,-2.89416 2.347123,-5.24253 5.242534,-5.24253 h 6.668333 v 0.0413 c 2.701383,0.21031 4.8357,2.44477 4.8357,5.19998 0,2.75896 -2.131814,4.99342 -4.8357,5.20373 z m 0.782375,-87.469459 v 0.0063 h -0.05883 c -0.117669,0.0075 -0.229079,0.03505 -0.345496,0.03505 -0.140202,0 -0.275396,-0.02378 -0.410591,-0.03505 h -5.444073 c -0.135195,0.01127 -0.269137,0.03505 -0.409339,0.03505 -2.895411,0 -5.242534,-2.347123 -5.242534,-5.242534 0,-2.895411 2.345871,-5.242534 5.242534,-5.242534 h 6.668334 v 0.04131 c 2.701382,0.210303 4.835699,2.444764 4.835699,5.201225 0,2.756462 -2.131814,4.990923 -4.835699,5.201225 z M 46.7807,117.8175 v 0.008 h -0.05883 c -0.11767,0.008 -0.22908,0.0325 -0.345497,0.0325 -0.140201,0 -0.275396,-0.0263 -0.41059,-0.0325 h -5.444074 c -0.135194,0.01 -0.269137,0.0325 -0.409338,0.0325 -2.895411,0 -5.242534,-2.34712 -5.242534,-5.24253 0,-2.89416 2.347123,-5.24253 5.242534,-5.24253 H 46.7807 v 0.0413 c 2.701382,0.21031 4.8357,2.44477 4.8357,5.19998 0,2.75896 -2.131814,4.99342 -4.8357,5.20373 z m 1.251799,-86.688336 v 0.0075 h -0.05883 c -0.11767,0.0075 -0.22908,0.0338 -0.345497,0.0338 -0.140201,0 -0.275396,-0.02504 -0.41059,-0.0338 h -5.444074 c -0.135194,0.01001 -0.269137,0.0338 -0.409338,0.0338 -2.895411,0 -5.242534,-2.347123 -5.242534,-5.242534 0,-2.895411 2.347123,-5.242534 5.242534,-5.242534 h 6.668333 v 0.04131 c 2.701382,0.210302 4.8357,2.444764 4.8357,5.201225 0,2.756461 -2.131814,4.992174 -4.8357,5.201225 z"
       id="path2" /><text
       y="32.555714"
       x="-14.068873"
       style="font-style:normal;font-variant:normal;font-weight:normal;font-stretch:normal;font-size:4px;font-family:OCRA;-inkscape-font-specification:'OCRA, Normal';font-variant-ligatures:normal;font-variant-caps:normal;font-variant-numeric:normal;font-feature-settings:normal;text-align:start;writing-mode:lr-tb;text-anchor:start;fill:#000000;stroke-width:1.25179899"
       font-size="2.5"
       id="text36"><tspan
         style="font-style:normal;font-variant:normal;font-weight:normal;font-stretch:normal;font-size:4px;font-family:OCRA;-inkscape-font-specification:'OCRA, Normal';font-variant-ligatures:normal;font-variant-caps:normal;font-variant-numeric:normal;font-feature-settings:normal;text-align:start;writing-mode:lr-tb;text-anchor:start;stroke-width:1.25179899"
         sodipodi:role="line"
         id="tspan1025"
         x="-14.068873"
         y="32.555714">GND</tspan></text>
<text
       y="32.553337"
       x="-3.8705604"
       style="font-style:normal;font-variant:normal;font-weight:normal;font-stretch:normal;font-size:4px;font-family:OCRA;-inkscape-font-specification:'OCRA, Normal';font-variant-ligatures:normal;font-variant-caps:normal;font-variant-numeric:normal;font-feature-settings:normal;text-align:start;writing-mode:lr-tb;text-anchor:start;fill:#000000;stroke-width:1.25179899"
       font-size="2.5"
       id="text38"><tspan
         style="font-style:normal;font-variant:normal;font-weight:normal;font-stretch:normal;font-size:4px;font-family:OCRA;-inkscape-font-specification:'OCRA, Normal';font-variant-ligatures:normal;font-variant-caps:normal;font-variant-numeric:normal;font-feature-settings:normal;text-align:start;writing-mode:lr-tb;text-anchor:start;stroke-width:1.25179899"
         sodipodi:role="line"
         id="tspan1027"
         x="-3.8705604"
         y="32.553337">VCC</tspan></text>
<text
       y="32.555714"
       x="6.2655997"
       style="font-size:4px;font-family:OCRA;fill:#000000;stroke-width:1.25179899;-inkscape-font-specification:'OCRA, Normal';font-weight:normal;font-style:normal;font-stretch:normal;font-variant:normal;text-anchor:start;text-align:start;writing-mode:lr;font-variant-ligatures:normal;font-variant-caps:normal;font-variant-numeric:normal;font-feature-settings:normal;"
       font-size="2.5"
       id="text40">SCL</text>
<text
       y="32.553337"
       x="15.675146"
       style="font-style:normal;font-variant:normal;font-weight:normal;font-stretch:normal;font-size:4px;font-family:OCRA;-inkscape-font-specification:'OCRA, Normal';font-variant-ligatures:normal;font-variant-caps:normal;font-variant-numeric:normal;font-feature-settings:normal;text-align:start;writing-mode:lr-tb;text-anchor:start;fill:#000000;stroke-width:1.25179899"
       font-size="2.5"
       id="text42">SDA</text>
<path
       id="rect44"
       d="M -44.52323,33.28885 V 90.871604 H 54.525365 V 33.28885 Z m 2.347123,1.721224 H 53.117092 V 89.46333 h -95.293199 z"
       style="fill:#231f20;stroke-width:1.25179899"
       inkscape:connector-curvature="0" /></g><g
     id="copper1"><g
       id="copper0"><path
         d="m -8.5356684,21.467583 c 1.3564306,0 2.4560343,1.099603 2.4560343,2.456024 0,1.356431 -1.0996037,2.45603 -2.4560343,2.45603 -1.3564306,0 -2.4560356,-1.099599 -2.4560356,-2.45603 0,-1.356421 1.099605,-2.456024 2.4560356,-2.456024 z"
         style="fill:none;stroke:#ffbf00;stroke-width:1.75752664;stroke-linecap:butt;stroke-linejoin:miter;stroke-miterlimit:4;stroke-dasharray:none;stroke-opacity:1"
         id="path3278"
         inkscape:connector-curvature="0" /><path
         inkscape:connector-curvature="0"
         id="path3280"
         style="fill:none;stroke:#ffbf00;stroke-width:1.75752664;stroke-linecap:butt;stroke-linejoin:miter;stroke-miterlimit:4;stroke-dasharray:none;stroke-opacity:1"
         d="m 0.47728441,21.467583 c 1.35643059,0 2.45603429,1.099603 2.45603429,2.456024 0,1.356431 -1.0996037,2.45603 -2.45603429,2.45603 -1.35643062,0 -2.45603531,-1.099599 -2.45603531,-2.45603 0,-1.356421 1.09960469,-2.456024 2.45603531,-2.456024 z" /><path
         d="m 9.4902372,21.467583 c 1.3564308,0 2.4560348,1.099603 2.4560348,2.456024 0,1.356431 -1.099604,2.45603 -2.4560348,2.45603 -1.3564306,0 -2.4560353,-1.099599 -2.4560353,-2.45603 0,-1.356421 1.0996047,-2.456024 2.4560353,-2.456024 z"
         style="fill:none;stroke:#ffbf00;stroke-width:1.75752664;stroke-linecap:butt;stroke-linejoin:miter;stroke-miterlimit:4;stroke-dasharray:none;stroke-opacity:1"
         id="path3282"
         inkscape:connector-curvature="0" /><path
         inkscape:connector-curvature="0"
         id="path3284"
         style="fill:none;stroke:#ffbf00;stroke-width:1.75752664;stroke-linecap:butt;stroke-linejoin:miter;stroke-miterlimit:4;stroke-dasharray:none;stroke-opacity:1"
         d="m 18.503188,21.467583 c 1.356431,0 2.456039,1.099603 2.456039,2.456024 0,1.356431 -1.099608,2.45603 -2.456039,2.45603 -1.35643,0 -2.45603,-1.099599 -2.45603,-2.45603 0,-1.356421 1.0996,-2.456024 2.45603,-2.456024 z" /></g></g></svg>