<?xml version="1.0" encoding="UTF-8" standalone="no"?>
<!-- Generator: Adobe Illustrator 15.0.0, SVG Export Plug-In . SVG Version: 6.00 Build 0)  -->

<svg
   xmlns:dc="http://purl.org/dc/elements/1.1/"
   xmlns:cc="http://creativecommons.org/ns#"
   xmlns:rdf="http://www.w3.org/1999/02/22-rdf-syntax-ns#"
   xmlns:svg="http://www.w3.org/2000/svg"
   xmlns="http://www.w3.org/2000/svg"
   xmlns:sodipodi="http://sodipodi.sourceforge.net/DTD/sodipodi-0.dtd"
   xmlns:inkscape="http://www.inkscape.org/namespaces/inkscape"
   version="1.1"
   id="Layer_1"
   x="0px"
   y="0px"
   width="82px"
   height="82px"
   viewBox="0 0 82 82"
   enable-background="new 0 0 82 82"
   xml:space="preserve"
   sodipodi:docname="SSD1306_I2C_GND_VCC_128x64BB.svg"
   inkscape:version="0.92.1 r15371"><metadata
     id="metadata65"><rdf:RDF><cc:Work
         rdf:about=""><dc:format>image/svg+xml</dc:format><dc:type
           rdf:resource="http://purl.org/dc/dcmitype/StillImage" /><dc:title></dc:title></cc:Work></rdf:RDF></metadata><defs
     id="defs63" /><sodipodi:namedview
     pagecolor="#ffffff"
     bordercolor="#666666"
     borderopacity="1"
     objecttolerance="10"
     gridtolerance="10"
     guidetolerance="10"
     inkscape:pageopacity="0"
     inkscape:pageshadow="2"
     inkscape:window-width="1920"
     inkscape:window-height="1017"
     id="namedview61"
     showgrid="false"
     inkscape:zoom="8.0641235"
     inkscape:cx="44.482112"
     inkscape:cy="43.809618"
     inkscape:window-x="-8"
     inkscape:window-y="-8"
     inkscape:window-maximized="1"
     inkscape:current-layer="Layer_1" /><g
     id="g4598"><path
       d="M 77.363,0.153 H 3.946 c -1.66,0 -4.006,2.571 -4.006,5.745 v 70.205 c 0,3.171 2.346,5.743 4.006,5.743 H 78.05 c 1.66,0 4.009,-2.572 4.009,-5.743 V 5.897 c 0,-3.173 -3.036,-5.744 -4.696,-5.744 z M 13.052,80.501 v 0.006 h -0.047 c -0.094,0.006 -0.183,0.026 -0.276,0.026 -0.112,0 -0.22,-0.021 -0.328,-0.026 H 8.052 c -0.108,0.008 -0.215,0.026 -0.327,0.026 -2.313,0 -4.188,-1.875 -4.188,-4.188 0,-2.312 1.875,-4.188 4.188,-4.188 h 5.327 v 0.033 c 2.158,0.168 3.863,1.953 3.863,4.154 0,2.204 -1.703,3.989 -3.863,4.157 z m 0.625,-69.875 v 0.005 H 13.63 c -0.094,0.006 -0.183,0.028 -0.276,0.028 -0.112,0 -0.22,-0.019 -0.328,-0.028 H 8.677 C 8.569,10.64 8.462,10.659 8.35,10.659 6.037,10.659 4.162,8.784 4.162,6.471 4.162,4.158 6.036,2.283 8.35,2.283 h 5.327 v 0.033 c 2.158,0.168 3.863,1.953 3.863,4.155 0,2.202 -1.703,3.987 -3.863,4.155 z m 60.5,69.625 v 0.006 H 74.13 c -0.094,0.006 -0.183,0.026 -0.276,0.026 -0.112,0 -0.22,-0.021 -0.328,-0.026 h -4.349 c -0.108,0.008 -0.215,0.026 -0.327,0.026 -2.313,0 -4.188,-1.875 -4.188,-4.188 0,-2.312 1.875,-4.188 4.188,-4.188 h 5.327 v 0.033 c 2.158,0.168 3.863,1.953 3.863,4.154 0,2.204 -1.703,3.989 -3.863,4.157 z m 1,-69.251 v 0.006 H 75.13 c -0.094,0.006 -0.183,0.027 -0.276,0.027 -0.112,0 -0.22,-0.02 -0.328,-0.027 h -4.349 c -0.108,0.008 -0.215,0.027 -0.327,0.027 -2.313,0 -4.188,-1.875 -4.188,-4.188 0,-2.313 1.875,-4.188 4.188,-4.188 h 5.327 V 2.69 c 2.158,0.168 3.863,1.953 3.863,4.155 0,2.202 -1.703,3.988 -3.863,4.155 z"
       id="path2"
       inkscape:connector-curvature="0"
       style="fill:#006699" /><rect
       x="28.021"
       y="1.473"
       width="3.7130001"
       height="7.427"
       id="rect4"
       style="fill:#454545" /><polygon
       points="28.021,8.899 26.163,7.041 26.163,3.328 28.021,1.473 "
       id="polygon6"
       style="fill:#454545" /><polygon
       points="33.593,7.041 31.732,8.899 31.732,1.473 33.593,3.328 "
       id="polygon8"
       style="fill:#454545" /><rect
       x="29.223"
       y="4.349"
       width="1.312"
       height="1.668"
       id="rect10"
       style="fill:#b68b2d" /><rect
       x="35.223"
       y="1.473"
       width="3.7130001"
       height="7.427"
       id="rect12"
       style="fill:#454545" /><polygon
       points="35.223,8.899 33.363,7.041 33.363,3.328 35.223,1.473 "
       id="polygon14"
       style="fill:#454545" /><polygon
       points="40.792,7.041 38.934,8.899 38.934,1.473 40.792,3.328 "
       id="polygon16"
       style="fill:#454545" /><rect
       x="36.421001"
       y="4.349"
       width="1.312"
       height="1.668"
       id="rect18"
       style="fill:#b68b2d" /><rect
       x="42.421001"
       y="1.473"
       width="3.7130001"
       height="7.427"
       id="rect20"
       style="fill:#454545" /><polygon
       points="42.421,8.899 40.564,7.041 40.564,3.328 42.421,1.473 "
       id="polygon22"
       style="fill:#454545" /><polygon
       points="47.992,7.041 46.134,8.899 46.134,1.473 47.992,3.328 "
       id="polygon24"
       style="fill:#454545" /><rect
       x="43.622002"
       y="4.349"
       width="1.312"
       height="1.668"
       id="rect26"
       style="fill:#b68b2d" /><rect
       x="49.622002"
       y="1.473"
       width="3.7130001"
       height="7.427"
       id="rect28"
       style="fill:#454545" /><polygon
       points="49.622,8.899 47.764,7.041 47.764,3.328 49.622,1.473 "
       id="polygon30"
       style="fill:#454545" /><polygon
       points="55.191,7.041 53.333,8.899 53.333,1.473 55.191,3.328 "
       id="polygon32"
       style="fill:#454545" /><rect
       x="50.82"
       y="4.349"
       width="1.312"
       height="1.668"
       id="rect34"
       style="fill:#b68b2d" /><text
       y="12.1396"
       x="27.165001"
       font-size="2.5"
       id="text36"
       style="font-size:2.5px;font-family:OCRA;fill:#ffffff">GND</text>
<text
       y="12.1377"
       x="34.4883"
       font-size="2.5"
       id="text38"
       style="font-size:2.5px;font-family:OCRA;fill:#ffffff">VCC</text>
<text
       y="12.1396"
       x="41.811501"
       font-size="2.5"
       id="text40"
       style="font-size:2.5px;font-family:OCRA;fill:#ffffff">SCL</text>
<text
       y="12.1377"
       x="49.1348"
       font-size="2.5"
       id="text42"
       style="font-size:2.5px;font-family:OCRA;fill:#ffffff">SDA</text>
<rect
       x="1.238"
       y="12.726"
       width="79.125"
       height="46"
       id="rect44"
       style="fill:#231f20" /><rect
       x="3.1129999"
       y="14.101"
       width="76.125"
       height="43.5"
       id="rect46"
       style="fill:#00435e" /><rect
       x="25.988001"
       y="57.726002"
       width="30"
       height="23.375"
       id="rect48"
       style="fill:#231f20" /><text
       y="64.600601"
       x="30.7334"
       font-size="2.5"
       id="text50"
       style="font-size:2.5px;font-family:OCRA;fill:#ffffff">OLED 128x64 </text>
<text
       y="67.600601"
       x="34.307598"
       font-size="2.5"
       id="text52"
       style="font-size:2.5px;font-family:OCRA;fill:#ffffff">SSD1306 </text>
<text
       y="70.600601"
       x="37.882301"
       font-size="2.5"
       id="text54"
       style="font-size:2.5px;font-family:OCRA;fill:#ffffff">I2C</text>
<text
       y="77.098602"
       x="29.2227"
       font-size="2.5"
       id="text56"
       style="font-size:2.5px;font-family:OCRA;fill:#ffffff">blog.squix.ch</text>
</g></svg>