<?xml version="1.0" encoding="UTF-8" standalone="no"?>
<!-- Generator: Adobe Illustrator 15.0.0, SVG Export Plug-In . SVG Version: 6.00 Build 0)  -->

<svg
   xmlns:dc="http://purl.org/dc/elements/1.1/"
   xmlns:cc="http://creativecommons.org/ns#"
   xmlns:rdf="http://www.w3.org/1999/02/22-rdf-syntax-ns#"
   xmlns:svg="http://www.w3.org/2000/svg"
   xmlns="http://www.w3.org/2000/svg"
   xmlns:sodipodi="http://sodipodi.sourceforge.net/DTD/sodipodi-0.dtd"
   xmlns:inkscape="http://www.inkscape.org/namespaces/inkscape"
   version="1.1"
   id="Layer_1"
   x="0px"
   y="0px"
   width="103.92906"
   height="103.39641"
   viewBox="-46.775 16.925 103.92907 103.39641"
   enable-background="new -46.775 16.925 79.95 72.75"
   xml:space="preserve"
   sodipodi:docname="SSD1306_I2C_GND_VCC_128x64_Fritzing_PCB.svg"
   inkscape:version="0.92.2 (5c3e80d, 2017-08-06)"><metadata
     id="metadata25"><rdf:RDF><cc:Work
         rdf:about=""><dc:format>image/svg+xml</dc:format><dc:type
           rdf:resource="http://purl.org/dc/dcmitype/StillImage" /><dc:title></dc:title></cc:Work></rdf:RDF></metadata><defs
     id="defs23" /><sodipodi:namedview
     pagecolor="#ffffff"
     bordercolor="#666666"
     borderopacity="1"
     objecttolerance="10"
     gridtolerance="10"
     guidetolerance="10"
     inkscape:pageopacity="0"
     inkscape:pageshadow="2"
     inkscape:window-width="1920"
     inkscape:window-height="1017"
     id="namedview21"
     showgrid="false"
     fit-margin-top="0"
     fit-margin-left="0"
     fit-margin-right="0"
     fit-margin-bottom="0"
     inkscape:zoom="5"
     inkscape:cx="91.142385"
     inkscape:cy="38.852434"
     inkscape:window-x="-8"
     inkscape:window-y="-8"
     inkscape:window-maximized="1"
     inkscape:current-layer="Layer_1" /><g
     id="keepout"
     transform="translate(0.55999595,30.300416)" /><g
     id="soldermask"
     transform="translate(0.55999595,30.300416)" /><g
     id="outline"
     transform="translate(0.55999595,30.300416)" /><g
     id="silkscreen"
     transform="matrix(1.2503647,0,0,1.2503647,12.335991,-3.6122402)"><path
       style="fill:none;stroke:#000000;stroke-opacity:1"
       inkscape:connector-curvature="0"
       d="m 30.648,16.925 h -73.417 c -1.66,0 -4.006,2.571 -4.006,5.745 v 70.205 c 0,3.171 2.346,5.743 4.006,5.743 h 74.104 c 1.66,0 4.009,-2.572 4.009,-5.743 V 22.669 c 0,-3.173 -3.036,-5.744 -4.696,-5.744 z m -64.311,80.348 v 0.006 h -0.047 c -0.094,0.006 -0.183,0.026 -0.276,0.026 -0.112,0 -0.22,-0.021 -0.328,-0.026 h -4.349 c -0.108,0.008 -0.215,0.026 -0.327,0.026 -2.313,0 -4.188,-1.875 -4.188,-4.188 0,-2.312 1.875,-4.188 4.188,-4.188 h 5.327 v 0.033 c 2.158,0.168 3.863,1.953 3.863,4.154 0,2.204 -1.703,3.989 -3.863,4.157 z m 0.625,-69.875 v 0.005 h -0.047 c -0.094,0.006 -0.183,0.028 -0.276,0.028 -0.112,0 -0.22,-0.019 -0.328,-0.028 h -4.349 c -0.108,0.009 -0.215,0.028 -0.327,0.028 -2.313,0 -4.188,-1.875 -4.188,-4.188 0,-2.313 1.874,-4.188 4.188,-4.188 h 5.327 v 0.033 c 2.158,0.168 3.863,1.953 3.863,4.155 0,2.202 -1.703,3.987 -3.863,4.155 z m 60.5,69.625 v 0.006 h -0.047 c -0.094,0.006 -0.183,0.026 -0.276,0.026 -0.112,0 -0.22,-0.021 -0.328,-0.026 h -4.349 c -0.108,0.008 -0.215,0.026 -0.327,0.026 -2.313,0 -4.188,-1.875 -4.188,-4.188 0,-2.312 1.875,-4.188 4.188,-4.188 h 5.327 v 0.033 c 2.158,0.168 3.863,1.953 3.863,4.154 0,2.204 -1.703,3.989 -3.863,4.157 z m 1,-69.251 v 0.006 h -0.047 c -0.094,0.006 -0.183,0.027 -0.276,0.027 -0.112,0 -0.22,-0.02 -0.328,-0.027 h -4.349 c -0.108,0.008 -0.215,0.027 -0.327,0.027 -2.313,0 -4.188,-1.875 -4.188,-4.188 0,-2.313 1.875,-4.188 4.188,-4.188 h 5.327 v 0.033 c 2.158,0.168 3.863,1.953 3.863,4.155 0,2.202 -1.703,3.988 -3.863,4.155 z"
       id="path2" /><text
       y="28.9116"
       x="-19.549999"
       style="font-size:2.5px;font-family:OCRA;fill:#000000"
       font-size="2.5"
       id="text36">GND</text>
<text
       y="28.9097"
       x="-12.2267"
       style="font-size:2.5px;font-family:OCRA;fill:#000000"
       font-size="2.5"
       id="text38">VCC</text>
<text
       y="28.9116"
       x="-4.9035001"
       style="font-size:2.5px;font-family:OCRA;fill:#000000"
       font-size="2.5"
       id="text40">SCL</text>
<text
       y="28.9097"
       x="2.4198"
       style="font-size:2.5px;font-family:OCRA;fill:#000000"
       font-size="2.5"
       id="text42">SDA</text>
<path
       id="rect44"
       transform="translate(-46.775,16.925)"
       d="m 1.2988281,12.572266 v 46 H 80.423828 v -46 z m 1.875,1.375 H 79.298828 v 43.5 H 3.1738281 Z"
       style="fill:#231f20"
       inkscape:connector-curvature="0" /></g><g
     id="copper1"
     transform="matrix(1.2503647,0,0,1.2503647,12.335991,-3.6122402)"><g
       id="copper0"><circle
         id="connector1pin_3_"
         cx="4.8440008"
         cy="22.013"
         r="1.584"
         style="fill:none;stroke:#ffbf00;stroke-width:1.15199995" /><circle
         id="connector2pin_5_"
         cx="-2.3239992"
         cy="22.005001"
         r="1.584"
         style="fill:none;stroke:#ffbf00;stroke-width:1.15199995" /><circle
         id="connector3pin_5_"
         cx="-9.5559988"
         cy="22.013"
         r="1.584"
         style="fill:none;stroke:#ffbf00;stroke-width:1.15199995" /><circle
         id="connector4pin_7_"
         cx="-16.756001"
         cy="22.013"
         r="1.584"
         style="fill:none;stroke:#ffbf00;stroke-width:1.15199995" /></g></g></svg>