<?xml version="1.0" encoding="UTF-8" standalone="no"?>
<!-- Generator: Adobe Illustrator 15.0.0, SVG Export Plug-In . SVG Version: 6.00 Build 0)  -->

<svg
   xmlns:dc="http://purl.org/dc/elements/1.1/"
   xmlns:cc="http://creativecommons.org/ns#"
   xmlns:rdf="http://www.w3.org/1999/02/22-rdf-syntax-ns#"
   xmlns:svg="http://www.w3.org/2000/svg"
   xmlns="http://www.w3.org/2000/svg"
   xmlns:sodipodi="http://sodipodi.sourceforge.net/DTD/sodipodi-0.dtd"
   xmlns:inkscape="http://www.inkscape.org/namespaces/inkscape"
   version="1.1"
   id="Layer_1"
   x="0px"
   y="0px"
   width="110.82533"
   height="110.25733"
   viewBox="-46.775 16.925 110.82534 110.25733"
   enable-background="new -46.775 16.925 79.95 72.75"
   xml:space="preserve"
   sodipodi:docname="SSD1306_I2C_GND_VCC_128x64PCB.svg"
   inkscape:version="0.92.2 (5c3e80d, 2017-08-06)"><metadata
     id="metadata25"><rdf:RDF><cc:Work
         rdf:about=""><dc:format>image/svg+xml</dc:format><dc:type
           rdf:resource="http://purl.org/dc/dcmitype/StillImage" /><dc:title /></cc:Work></rdf:RDF></metadata><defs
     id="defs23" /><sodipodi:namedview
     pagecolor="#ffffff"
     bordercolor="#666666"
     borderopacity="1"
     objecttolerance="10"
     gridtolerance="10"
     guidetolerance="10"
     inkscape:pageopacity="0"
     inkscape:pageshadow="2"
     inkscape:window-width="2560"
     inkscape:window-height="1377"
     id="namedview21"
     showgrid="false"
     fit-margin-top="0"
     fit-margin-left="0"
     fit-margin-right="0"
     fit-margin-bottom="0"
     inkscape:zoom="13.763784"
     inkscape:cx="54.469999"
     inkscape:cy="95.939999"
     inkscape:window-x="-8"
     inkscape:window-y="-8"
     inkscape:window-maximized="1"
     inkscape:current-layer="Layer_1" /><g
     id="keepout"
     transform="translate(0.55999876,37.161334)" /><g
     id="soldermask"
     transform="translate(0.55999876,37.161334)" /><g
     id="outline"
     transform="translate(0.55999876,37.161334)" /><g
     id="g982"><g
       transform="matrix(1.3333333,0,0,1.3333333,16.258332,-4.9749995)"
       id="silkscreen"><path
         id="path2"
         d="m 30.648,16.925 h -73.417 c -1.66,0 -4.006,2.571 -4.006,5.745 v 70.205 c 0,3.171 2.346,5.743 4.006,5.743 h 74.104 c 1.66,0 4.009,-2.572 4.009,-5.743 V 22.669 c 0,-3.173 -3.036,-5.744 -4.696,-5.744 z m -64.311,80.348 v 0.006 h -0.047 c -0.094,0.006 -0.183,0.026 -0.276,0.026 -0.112,0 -0.22,-0.021 -0.328,-0.026 h -4.349 c -0.108,0.008 -0.215,0.026 -0.327,0.026 -2.313,0 -4.188,-1.875 -4.188,-4.188 0,-2.312 1.875,-4.188 4.188,-4.188 h 5.327 v 0.033 c 2.158,0.168 3.863,1.953 3.863,4.154 0,2.204 -1.703,3.989 -3.863,4.157 z m 0.625,-69.875 v 0.005 h -0.047 c -0.094,0.006 -0.183,0.028 -0.276,0.028 -0.112,0 -0.22,-0.019 -0.328,-0.028 h -4.349 c -0.108,0.009 -0.215,0.028 -0.327,0.028 -2.313,0 -4.188,-1.875 -4.188,-4.188 0,-2.313 1.874,-4.188 4.188,-4.188 h 5.327 v 0.033 c 2.158,0.168 3.863,1.953 3.863,4.155 0,2.202 -1.703,3.987 -3.863,4.155 z m 60.5,69.625 v 0.006 h -0.047 c -0.094,0.006 -0.183,0.026 -0.276,0.026 -0.112,0 -0.22,-0.021 -0.328,-0.026 h -4.349 c -0.108,0.008 -0.215,0.026 -0.327,0.026 -2.313,0 -4.188,-1.875 -4.188,-4.188 0,-2.312 1.875,-4.188 4.188,-4.188 h 5.327 v 0.033 c 2.158,0.168 3.863,1.953 3.863,4.154 0,2.204 -1.703,3.989 -3.863,4.157 z m 1,-69.251 v 0.006 h -0.047 c -0.094,0.006 -0.183,0.027 -0.276,0.027 -0.112,0 -0.22,-0.02 -0.328,-0.027 h -4.349 c -0.108,0.008 -0.215,0.027 -0.327,0.027 -2.313,0 -4.188,-1.875 -4.188,-4.188 0,-2.313 1.875,-4.188 4.188,-4.188 h 5.327 v 0.033 c 2.158,0.168 3.863,1.953 3.863,4.155 0,2.202 -1.703,3.988 -3.863,4.155 z"
         inkscape:connector-curvature="0"
         style="fill:none;stroke:#000000;stroke-opacity:1" /><text
         id="text36"
         font-size="2.5"
         style="font-style:normal;font-variant:normal;font-weight:normal;font-stretch:normal;font-size:3.5px;font-family:OCRA;-inkscape-font-specification:'OCRA, Normal';font-variant-ligatures:normal;font-variant-caps:normal;font-variant-numeric:normal;font-feature-settings:normal;text-align:start;writing-mode:lr-tb;text-anchor:start;fill:#000000"
         x="-22.928431"
         y="28.9116">GND</text>
<text
         id="text38"
         font-size="2.5"
         style="font-style:normal;font-variant:normal;font-weight:normal;font-stretch:normal;font-size:3.5px;font-family:OCRA;-inkscape-font-specification:'OCRA, Normal';font-variant-ligatures:normal;font-variant-caps:normal;font-variant-numeric:normal;font-feature-settings:normal;text-align:start;writing-mode:lr-tb;text-anchor:start;fill:#000000"
         x="-13.479989"
         y="28.9097">VCC</text>
<text
         id="text40"
         font-size="2.5"
         style="font-style:normal;font-variant:normal;font-weight:normal;font-stretch:normal;font-size:3.5px;font-family:OCRA;-inkscape-font-specification:'OCRA, Normal';font-variant-ligatures:normal;font-variant-caps:normal;font-variant-numeric:normal;font-feature-settings:normal;text-align:start;writing-mode:lr-tb;text-anchor:start;fill:#000000"
         x="-4.6855369"
         y="28.9116">SCL</text>
<text
         id="text42"
         font-size="2.5"
         style="font-style:normal;font-variant:normal;font-weight:normal;font-stretch:normal;font-size:3.5px;font-family:OCRA;-inkscape-font-specification:'OCRA, Normal';font-variant-ligatures:normal;font-variant-caps:normal;font-variant-numeric:normal;font-feature-settings:normal;text-align:start;writing-mode:lr-tb;text-anchor:start;fill:#000000"
         x="4.2724881"
         y="28.9097">SDA</text>
<path
         inkscape:connector-curvature="0"
         style="fill:#231f20"
         d="m 1.2988281,12.572266 v 46 H 80.423828 v -46 z m 1.875,1.375 H 79.298828 v 43.5 H 3.1738281 Z"
         transform="translate(-46.775,16.925)"
         id="rect44" /></g><g
       id="copper1"><g
         id="copper0"
         transform="translate(-84.07,-31.01)"><path
           inkscape:connector-curvature="0"
           id="path3278"
           style="fill:none;stroke:#ffbf00;stroke-width:1.87200093;stroke-linecap:butt;stroke-linejoin:miter;stroke-miterlimit:4;stroke-dasharray:none;stroke-opacity:1"
           d="m 78.025002,52.773459 c 1.44478,0 2.616005,1.171224 2.616005,2.615994 0,1.44478 -1.171225,2.616 -2.616005,2.616 -1.44478,0 -2.616006,-1.17122 -2.616006,-2.616 0,-1.44477 1.171226,-2.615994 2.616006,-2.615994 z" /><path
           d="m 87.625002,52.773459 c 1.44478,0 2.616005,1.171224 2.616005,2.615994 0,1.44478 -1.171225,2.616 -2.616005,2.616 -1.44478,0 -2.616006,-1.17122 -2.616006,-2.616 0,-1.44477 1.171226,-2.615994 2.616006,-2.615994 z"
           style="fill:none;stroke:#ffbf00;stroke-width:1.87200093;stroke-linecap:butt;stroke-linejoin:miter;stroke-miterlimit:4;stroke-dasharray:none;stroke-opacity:1"
           id="path3280"
           inkscape:connector-curvature="0" /><path
           inkscape:connector-curvature="0"
           id="path3282"
           style="fill:none;stroke:#ffbf00;stroke-width:1.87200093;stroke-linecap:butt;stroke-linejoin:miter;stroke-miterlimit:4;stroke-dasharray:none;stroke-opacity:1"
           d="m 97.225002,52.773459 c 1.44478,0 2.616005,1.171224 2.616005,2.615994 0,1.44478 -1.171225,2.616 -2.616005,2.616 -1.44478,0 -2.616006,-1.17122 -2.616006,-2.616 0,-1.44477 1.171226,-2.615994 2.616006,-2.615994 z" /><path
           d="m 106.825,52.773459 c 1.44478,0 2.61601,1.171224 2.61601,2.615994 0,1.44478 -1.17123,2.616 -2.61601,2.616 -1.44478,0 -2.616,-1.17122 -2.616,-2.616 0,-1.44477 1.17122,-2.615994 2.616,-2.615994 z"
           style="fill:none;stroke:#ffbf00;stroke-width:1.87200093;stroke-linecap:butt;stroke-linejoin:miter;stroke-miterlimit:4;stroke-dasharray:none;stroke-opacity:1"
           id="path3284"
           inkscape:connector-curvature="0" /></g></g></g></svg>