<?xml version="1.0" encoding="UTF-8" standalone="no"?>
<!-- Generator: Adobe Illustrator 15.0.0, SVG Export Plug-In . SVG Version: 6.00 Build 0)  -->

<svg
   xmlns:dc="http://purl.org/dc/elements/1.1/"
   xmlns:cc="http://creativecommons.org/ns#"
   xmlns:rdf="http://www.w3.org/1999/02/22-rdf-syntax-ns#"
   xmlns:svg="http://www.w3.org/2000/svg"
   xmlns="http://www.w3.org/2000/svg"
   xmlns:sodipodi="http://sodipodi.sourceforge.net/DTD/sodipodi-0.dtd"
   xmlns:inkscape="http://www.inkscape.org/namespaces/inkscape"
   version="1.1"
   id="Layer_1"
   x="0px"
   y="0px"
   width="110.82533"
   height="110.25733"
   viewBox="-46.775 16.925 110.82534 110.25733"
   enable-background="new -46.775 16.925 79.95 72.75"
   xml:space="preserve"
   sodipodi:docname="SSD1306_I2C_GND_VCC_128x64PCB.svg"
   inkscape:version="0.92.2 (5c3e80d, 2017-08-06)"><metadata
     id="metadata25"><rdf:RDF><cc:Work
         rdf:about=""><dc:format>image/svg+xml</dc:format><dc:type
           rdf:resource="http://purl.org/dc/dcmitype/StillImage" /><dc:title /></cc:Work></rdf:RDF></metadata><defs
     id="defs23" /><sodipodi:namedview
     pagecolor="#ffffff"
     bordercolor="#666666"
     borderopacity="1"
     objecttolerance="10"
     gridtolerance="10"
     guidetolerance="10"
     inkscape:pageopacity="0"
     inkscape:pageshadow="2"
     inkscape:window-width="1920"
     inkscape:window-height="1017"
     id="namedview21"
     showgrid="false"
     fit-margin-top="0"
     fit-margin-left="0"
     fit-margin-right="0"
     fit-margin-bottom="0"
     inkscape:zoom="5.6568543"
     inkscape:cx="76.939687"
     inkscape:cy="57.535063"
     inkscape:window-x="2552"
     inkscape:window-y="355"
     inkscape:window-maximized="1"
     inkscape:current-layer="Layer_1" /><g
     id="keepout"
     transform="translate(0.55999876,37.161334)" /><g
     id="soldermask"
     transform="translate(0.55999876,37.161334)" /><g
     id="outline"
     transform="translate(0.55999876,37.161334)" /><g
     id="copper1"><g
       transform="translate(-84.07,-31.01)"
       id="copper0"><path
         d="m 78.025002,52.773459 c 1.44478,0 2.616005,1.171224 2.616005,2.615994 0,1.44478 -1.171225,2.616 -2.616005,2.616 -1.44478,0 -2.616006,-1.17122 -2.616006,-2.616 0,-1.44477 1.171226,-2.615994 2.616006,-2.615994 z"
         style="fill:none;stroke:#ffbf00;stroke-width:1.87200093;stroke-linecap:butt;stroke-linejoin:miter;stroke-miterlimit:4;stroke-dasharray:none;stroke-opacity:1"
         id="path3278"
         inkscape:connector-curvature="0" /><path
         inkscape:connector-curvature="0"
         id="path3280"
         style="fill:none;stroke:#ffbf00;stroke-width:1.87200093;stroke-linecap:butt;stroke-linejoin:miter;stroke-miterlimit:4;stroke-dasharray:none;stroke-opacity:1"
         d="m 87.625002,52.773459 c 1.44478,0 2.616005,1.171224 2.616005,2.615994 0,1.44478 -1.171225,2.616 -2.616005,2.616 -1.44478,0 -2.616006,-1.17122 -2.616006,-2.616 0,-1.44477 1.171226,-2.615994 2.616006,-2.615994 z" /><path
         d="m 97.225002,52.773459 c 1.44478,0 2.616005,1.171224 2.616005,2.615994 0,1.44478 -1.171225,2.616 -2.616005,2.616 -1.44478,0 -2.616006,-1.17122 -2.616006,-2.616 0,-1.44477 1.171226,-2.615994 2.616006,-2.615994 z"
         style="fill:none;stroke:#ffbf00;stroke-width:1.87200093;stroke-linecap:butt;stroke-linejoin:miter;stroke-miterlimit:4;stroke-dasharray:none;stroke-opacity:1"
         id="path3282"
         inkscape:connector-curvature="0" /><path
         inkscape:connector-curvature="0"
         id="path3284"
         style="fill:none;stroke:#ffbf00;stroke-width:1.87200093;stroke-linecap:butt;stroke-linejoin:miter;stroke-miterlimit:4;stroke-dasharray:none;stroke-opacity:1"
         d="m 106.825,52.773459 c 1.44478,0 2.61601,1.171224 2.61601,2.615994 0,1.44478 -1.17123,2.616 -2.61601,2.616 -1.44478,0 -2.616,-1.17122 -2.616,-2.616 0,-1.44477 1.17122,-2.615994 2.616,-2.615994 z" /></g></g><g
     id="silkscreen"><g
       transform="matrix(1.3333333,0,0,1.3333333,16.258332,-4.9749995)"
       aria-label="GND"
       style="font-style:normal;font-variant:normal;font-weight:normal;font-stretch:normal;font-size:3.5px;font-family:OCRA;-inkscape-font-specification:'OCRA, Normal';font-variant-ligatures:normal;font-variant-caps:normal;font-variant-numeric:normal;font-feature-settings:normal;text-align:start;writing-mode:lr-tb;text-anchor:start;fill:#000000"
       id="text36"><path
         d="m -22.532931,28.3796 v -0.9485 q 0,-0.2415 0.147,-0.4305 l 0.476,-0.616 q 0.1575,-0.203 0.42,-0.203 h 0.5215 q 0.0735,0 0.126,0.0525 0.0525,0.0525 0.0525,0.1225 0,0.0735 -0.0525,0.126 -0.0525,0.0525 -0.126,0.0525 h -0.5215 q -0.0875,0 -0.14,0.07 l -0.476,0.609 q -0.0735,0.098 -0.0735,0.217 v 0.9485 q 0,0.0735 0.0525,0.126 0.0525,0.0525 0.1225,0.0525 h 0.6825 q 0.07,0 0.1225,-0.0525 0.056,-0.0525 0.056,-0.126 v -0.3605 h -0.3465 q -0.0735,0 -0.126,-0.049 -0.049,-0.0525 -0.049,-0.126 0,-0.0735 0.049,-0.126 0.0525,-0.0525 0.126,-0.0525 h 0.7 v 0.714 q 0,0.217 -0.1575,0.3745 -0.1575,0.1575 -0.3745,0.1575 h -0.6825 q -0.2205,0 -0.3745,-0.154 -0.154,-0.1575 -0.154,-0.378 z"
         style="font-style:normal;font-variant:normal;font-weight:normal;font-stretch:normal;font-size:3.5px;font-family:OCRA;-inkscape-font-specification:'OCRA, Normal';font-variant-ligatures:normal;font-variant-caps:normal;font-variant-numeric:normal;font-feature-settings:normal;text-align:start;writing-mode:lr-tb;text-anchor:start;fill:#000000"
         id="path844"
         inkscape:connector-curvature="0" /><path
         d="m -20.003634,28.7331 v -2.5515 h 0.4655 l 0.924,2.107 v -1.932 q 0,-0.07 0.049,-0.1225 0.0525,-0.0525 0.126,-0.0525 0.0735,0 0.126,0.0525 0.0525,0.0525 0.0525,0.1225 v 2.555 h -0.469 l -0.9205,-2.1 v 1.9215 q 0,0.0735 -0.0525,0.126 -0.0525,0.0525 -0.126,0.0525 -0.0735,0 -0.126,-0.0525 -0.049,-0.0525 -0.049,-0.126 z"
         style="font-style:normal;font-variant:normal;font-weight:normal;font-stretch:normal;font-size:3.5px;font-family:OCRA;-inkscape-font-specification:'OCRA, Normal';font-variant-ligatures:normal;font-variant-caps:normal;font-variant-numeric:normal;font-feature-settings:normal;text-align:start;writing-mode:lr-tb;text-anchor:start;fill:#000000"
         id="path846"
         inkscape:connector-curvature="0" /><path
         d="m -17.474337,28.7331 q 0,-0.07 0.049,-0.1225 0.0525,-0.0525 0.126,-0.0525 h 0.1715 v -2.023 h -0.1715 q -0.0735,0 -0.126,-0.0525 -0.049,-0.0525 -0.049,-0.126 0,-0.07 0.049,-0.1225 0.0525,-0.0525 0.126,-0.0525 h 0.651 q 0.154,0 0.28,0.084 0.1295,0.084 0.1925,0.21 l 0.357,0.7105 q 0.0875,0.182 0.0875,0.3605 0,0.1785 -0.0875,0.3605 l -0.3535,0.714 q -0.056,0.126 -0.189,0.21 -0.1295,0.0805 -0.287,0.0805 h -0.651 q -0.0735,0 -0.126,-0.0525 -0.049,-0.0525 -0.049,-0.126 z m 0.7,-0.175 h 0.126 q 0.1085,0 0.154,-0.098 l 0.3605,-0.7105 q 0.049,-0.119 0.049,-0.203 0,-0.105 -0.049,-0.203 l -0.3605,-0.7105 q -0.0455,-0.098 -0.154,-0.098 h -0.126 z"
         style="font-style:normal;font-variant:normal;font-weight:normal;font-stretch:normal;font-size:3.5px;font-family:OCRA;-inkscape-font-specification:'OCRA, Normal';font-variant-ligatures:normal;font-variant-caps:normal;font-variant-numeric:normal;font-feature-settings:normal;text-align:start;writing-mode:lr-tb;text-anchor:start;fill:#000000"
         id="path848"
         inkscape:connector-curvature="0" /></g><g
       transform="matrix(1.3333333,0,0,1.3333333,16.258332,-4.9749995)"
       aria-label="VCC"
       style="font-style:normal;font-variant:normal;font-weight:normal;font-stretch:normal;font-size:3.5px;font-family:OCRA;-inkscape-font-specification:'OCRA, Normal';font-variant-ligatures:normal;font-variant-caps:normal;font-variant-numeric:normal;font-feature-settings:normal;text-align:start;writing-mode:lr-tb;text-anchor:start;fill:#000000"
       id="text38"><path
         d="m -13.084489,26.9882 v -0.6335 q 0,-0.07 0.049,-0.1225 0.0525,-0.0525 0.126,-0.0525 0.0735,0 0.126,0.0525 0.0525,0.0525 0.0525,0.1225 v 0.5635 l 0.518,1.323 0.518,-1.323 v -0.5635 q 0,-0.07 0.049,-0.1225 0.0525,-0.0525 0.126,-0.0525 0.0735,0 0.126,0.0525 0.0525,0.0525 0.0525,0.1225 v 0.63 l -0.707,1.813 q -0.0455,0.112 -0.1645,0.112 -0.1225,0 -0.168,-0.112 z"
         style="font-style:normal;font-variant:normal;font-weight:normal;font-stretch:normal;font-size:3.5px;font-family:OCRA;-inkscape-font-specification:'OCRA, Normal';font-variant-ligatures:normal;font-variant-caps:normal;font-variant-numeric:normal;font-feature-settings:normal;text-align:start;writing-mode:lr-tb;text-anchor:start;fill:#000000"
         id="path851"
         inkscape:connector-curvature="0" /><path
         d="m -10.555192,27.5447 q 0,-0.1855 0.084,-0.3605 l 0.3535,-0.714 q 0.056,-0.126 0.1854998,-0.2065 0.133,-0.084 0.2905,-0.084 h 0.651 q 0.0735,0 0.126,0.0525 0.0525,0.0525 0.0525,0.1225 0,0.0735 -0.0525,0.126 -0.0525,0.0525 -0.126,0.0525 h -0.651 q -0.1085,0 -0.154,0.098 l -0.3604998,0.7105 q -0.0455,0.098 -0.0455,0.203 0,0.105 0.0455,0.203 l 0.3604998,0.7105 q 0.0455,0.098 0.154,0.098 h 0.651 q 0.0735,0 0.126,0.0525 0.0525,0.0525 0.0525,0.1225 0,0.0735 -0.0525,0.126 -0.0525,0.0525 -0.126,0.0525 h -0.651 q -0.154,0 -0.2835,-0.084 -0.1259998,-0.084 -0.1889998,-0.21 -0.259,-0.4935 -0.357,-0.7105 -0.084,-0.1785 -0.084,-0.3605 z"
         style="font-style:normal;font-variant:normal;font-weight:normal;font-stretch:normal;font-size:3.5px;font-family:OCRA;-inkscape-font-specification:'OCRA, Normal';font-variant-ligatures:normal;font-variant-caps:normal;font-variant-numeric:normal;font-feature-settings:normal;text-align:start;writing-mode:lr-tb;text-anchor:start;fill:#000000"
         id="path853"
         inkscape:connector-curvature="0" /><path
         d="m -8.0258953,27.5447 q 0,-0.1855 0.084,-0.3605 l 0.3535,-0.714 q 0.056,-0.126 0.1855,-0.2065 0.133,-0.084 0.2905,-0.084 h 0.651 q 0.0735,0 0.126,0.0525 0.0525,0.0525 0.0525,0.1225 0,0.0735 -0.0525,0.126 -0.0525,0.0525 -0.126,0.0525 h -0.651 q -0.1085,0 -0.154,0.098 l -0.3605,0.7105 q -0.0455,0.098 -0.0455,0.203 0,0.105 0.0455,0.203 l 0.3605,0.7105 q 0.0455,0.098 0.154,0.098 h 0.651 q 0.0735,0 0.126,0.0525 0.0525,0.0525 0.0525,0.1225 0,0.0735 -0.0525,0.126 -0.0525,0.0525 -0.126,0.0525 h -0.651 q -0.154,0 -0.2835,-0.084 -0.126,-0.084 -0.189,-0.21 -0.259,-0.4935 -0.357,-0.7105 -0.084,-0.1785 -0.084,-0.3605 z"
         style="font-style:normal;font-variant:normal;font-weight:normal;font-stretch:normal;font-size:3.5px;font-family:OCRA;-inkscape-font-specification:'OCRA, Normal';font-variant-ligatures:normal;font-variant-caps:normal;font-variant-numeric:normal;font-feature-settings:normal;text-align:start;writing-mode:lr-tb;text-anchor:start;fill:#000000"
         id="path855"
         inkscape:connector-curvature="0" /></g><g
       transform="matrix(1.3333333,0,0,1.3333333,16.258332,-4.9749995)"
       aria-label="SCL"
       style="font-style:normal;font-variant:normal;font-weight:normal;font-stretch:normal;font-size:3.5px;font-family:OCRA;-inkscape-font-specification:'OCRA, Normal';font-variant-ligatures:normal;font-variant-caps:normal;font-variant-numeric:normal;font-feature-settings:normal;text-align:start;writing-mode:lr-tb;text-anchor:start;fill:#000000"
       id="text40"><path
         d="m -4.2900369,28.4391 q 0,-0.0735 0.049,-0.126 0.0525,-0.0525 0.126,-0.0525 0.0735,0 0.126,0.0525 0.0525,0.0525 0.0525,0.126 0,0.049 0.035,0.084 0.035,0.035 0.084,0.035 h 0.8715 q 0.0455,0 0.0455,-0.0455 l -1.309,-1.687 q -0.0805,-0.112 -0.0805,-0.245 v -0.0105 q 0,-0.1575 0.1155,-0.273 0.119,-0.1155 0.28,-0.1155 h 0.8715 q 0.1925,0 0.3325,0.14 0.1435,0.14 0.1435,0.3325 0,0.0735 -0.0525,0.126 -0.0525,0.0525 -0.126,0.0525 -0.0735,0 -0.126,-0.0525 -0.049,-0.0525 -0.049,-0.126 0,-0.0455 -0.0385,-0.0805 -0.035,-0.0385 -0.084,-0.0385 h -0.8715 q -0.042,0 -0.042,0.035 v 0.0105 0.014 l 1.302,1.673 q 0.0875,0.105 0.0875,0.245 -0.007,0.1645 -0.1225,0.2835 -0.112,0.1155 -0.2765,0.1155 h -0.8715 q -0.1925,0 -0.3325,-0.14 -0.14,-0.14 -0.14,-0.3325 z"
         style="font-style:normal;font-variant:normal;font-weight:normal;font-stretch:normal;font-size:3.5px;font-family:OCRA;-inkscape-font-specification:'OCRA, Normal';font-variant-ligatures:normal;font-variant-caps:normal;font-variant-numeric:normal;font-feature-settings:normal;text-align:start;writing-mode:lr-tb;text-anchor:start;fill:#000000"
         id="path858"
         inkscape:connector-curvature="0" /><path
         d="m -1.76074,27.5466 q 0,-0.1855 0.084,-0.3605 l 0.3535,-0.714 q 0.056,-0.126 0.1855,-0.2065 0.133,-0.084 0.29050001,-0.084 h 0.651 q 0.0735,0 0.126,0.0525 0.0525,0.0525 0.0525,0.1225 0,0.0735 -0.0525,0.126 -0.0525,0.0525 -0.126,0.0525 h -0.651 q -0.1085,0 -0.15400001,0.098 l -0.3605,0.7105 q -0.0455,0.098 -0.0455,0.203 0,0.105 0.0455,0.203 l 0.3605,0.7105 q 0.0455,0.098 0.15400001,0.098 h 0.651 q 0.0735,0 0.126,0.0525 0.0525,0.0525 0.0525,0.1225 0,0.0735 -0.0525,0.126 -0.0525,0.0525 -0.126,0.0525 h -0.651 q -0.15400001,0 -0.28350001,-0.084 -0.126,-0.084 -0.189,-0.21 -0.259,-0.4935 -0.357,-0.7105 -0.084,-0.1785 -0.084,-0.3605 z"
         style="font-style:normal;font-variant:normal;font-weight:normal;font-stretch:normal;font-size:3.5px;font-family:OCRA;-inkscape-font-specification:'OCRA, Normal';font-variant-ligatures:normal;font-variant-caps:normal;font-variant-numeric:normal;font-feature-settings:normal;text-align:start;writing-mode:lr-tb;text-anchor:start;fill:#000000"
         id="path860"
         inkscape:connector-curvature="0" /><path
         d="m 0.76855689,28.9116 v -2.555 q 0,-0.07 0.049,-0.1225 0.0525,-0.0525 0.126,-0.0525 0.0735,0 0.12600001,0.0525 0.0525,0.0525 0.0525,0.1225 v 2.2015 h 1.211 q 0.0735,0 0.126,0.0525 0.0525,0.0525 0.0525,0.1225 0,0.0735 -0.0525,0.126 -0.0525,0.0525 -0.126,0.0525 z"
         style="font-style:normal;font-variant:normal;font-weight:normal;font-stretch:normal;font-size:3.5px;font-family:OCRA;-inkscape-font-specification:'OCRA, Normal';font-variant-ligatures:normal;font-variant-caps:normal;font-variant-numeric:normal;font-feature-settings:normal;text-align:start;writing-mode:lr-tb;text-anchor:start;fill:#000000"
         id="path862"
         inkscape:connector-curvature="0" /></g><g
       transform="matrix(1.3333333,0,0,1.3333333,16.258332,-4.9749995)"
       aria-label="SDA"
       style="font-style:normal;font-variant:normal;font-weight:normal;font-stretch:normal;font-size:3.5px;font-family:OCRA;-inkscape-font-specification:'OCRA, Normal';font-variant-ligatures:normal;font-variant-caps:normal;font-variant-numeric:normal;font-feature-settings:normal;text-align:start;writing-mode:lr-tb;text-anchor:start;fill:#000000"
       id="text42"><path
         d="m 4.6679881,28.4372 q 0,-0.0735 0.049,-0.126 0.0525,-0.0525 0.126,-0.0525 0.0735,0 0.126,0.0525 0.0525,0.0525 0.0525,0.126 0,0.049 0.035,0.084 0.035,0.035 0.084,0.035 h 0.8715 q 0.0455,0 0.0455,-0.0455 l -1.309,-1.687 q -0.0805,-0.112 -0.0805,-0.245 v -0.0105 q 0,-0.1575 0.1155,-0.273 0.119,-0.1155 0.28,-0.1155 h 0.8715 q 0.1925,0 0.3325,0.14 0.1435,0.14 0.1435,0.3325 0,0.0735 -0.0525,0.126 -0.0525,0.0525 -0.126,0.0525 -0.0735,0 -0.126,-0.0525 -0.049,-0.0525 -0.049,-0.126 0,-0.0455 -0.0385,-0.0805 -0.035,-0.0385 -0.084,-0.0385 h -0.8715 q -0.042,0 -0.042,0.035 v 0.0105 0.014 l 1.302,1.673 q 0.0875,0.105 0.0875,0.245 -0.007,0.1645 -0.1225,0.2835 -0.112,0.1155 -0.2765,0.1155 h -0.8715 q -0.1925,0 -0.3325,-0.14 -0.14,-0.14 -0.14,-0.3325 z"
         style="font-style:normal;font-variant:normal;font-weight:normal;font-stretch:normal;font-size:3.5px;font-family:OCRA;-inkscape-font-specification:'OCRA, Normal';font-variant-ligatures:normal;font-variant-caps:normal;font-variant-numeric:normal;font-feature-settings:normal;text-align:start;writing-mode:lr-tb;text-anchor:start;fill:#000000"
         id="path865"
         inkscape:connector-curvature="0" /><path
         d="m 7.197285,28.7312 q 0,-0.07 0.049,-0.1225 0.0525,-0.0525 0.126,-0.0525 h 0.1715 v -2.023 h -0.1715 q -0.0735,0 -0.126,-0.0525 -0.049,-0.0525 -0.049,-0.126 0,-0.07 0.049,-0.1225 0.0525,-0.0525 0.126,-0.0525 h 0.651 q 0.154,0 0.28,0.084 0.1295,0.084 0.1925,0.21 l 0.357,0.7105 q 0.0875,0.182 0.0875,0.3605 0,0.1785 -0.0875,0.3605 l -0.3535,0.714 q -0.056,0.126 -0.189,0.21 -0.1295,0.0805 -0.287,0.0805 h -0.651 q -0.0735,0 -0.126,-0.0525 -0.049,-0.0525 -0.049,-0.126 z m 0.7,-0.175 h 0.126 q 0.1085,0 0.154,-0.098 l 0.3605,-0.7105 q 0.049,-0.119 0.049,-0.203 0,-0.105 -0.049,-0.203 l -0.3605,-0.7105 q -0.0455,-0.098 -0.154,-0.098 h -0.126 z"
         style="font-style:normal;font-variant:normal;font-weight:normal;font-stretch:normal;font-size:3.5px;font-family:OCRA;-inkscape-font-specification:'OCRA, Normal';font-variant-ligatures:normal;font-variant-caps:normal;font-variant-numeric:normal;font-feature-settings:normal;text-align:start;writing-mode:lr-tb;text-anchor:start;fill:#000000"
         id="path867"
         inkscape:connector-curvature="0" /><path
         d="m 9.7160819,28.7312 0.7105001,-2.4255 q 0.0175,-0.056 0.063,-0.091 0.0455,-0.035 0.105,-0.035 0.0595,0 0.1085,0.035 0.049,0.035 0.063,0.091 l 0.707,2.4255 q 0,0.0735 -0.056,0.126 -0.0525,0.0525 -0.126,0.0525 -0.0595,0 -0.105,-0.035 -0.0455,-0.035 -0.063,-0.091 l -0.1365,-0.469 h -0.7805 l -0.1365,0.469 q -0.0175,0.056 -0.0665,0.091 -0.0455,0.035 -0.1050001,0.035 -0.0735,0 -0.1295,-0.0525 -0.0525,-0.0525 -0.0525,-0.126 z m 0.5950001,-0.77 h 0.5705 l -0.287,-0.973 z"
         style="font-style:normal;font-variant:normal;font-weight:normal;font-stretch:normal;font-size:3.5px;font-family:OCRA;-inkscape-font-specification:'OCRA, Normal';font-variant-ligatures:normal;font-variant-caps:normal;font-variant-numeric:normal;font-feature-settings:normal;text-align:start;writing-mode:lr-tb;text-anchor:start;fill:#000000"
         id="path869"
         inkscape:connector-curvature="0" /></g><g
       id="g910"><path
         id="path2"
         d="M 57.122331,17.591667 H -40.767 c -2.213333,0 -5.341333,3.428 -5.341333,7.659999 v 93.606664 c 0,4.228 3.128,7.65733 5.341333,7.65733 h 98.805331 c 2.213333,0 5.345333,-3.42933 5.345333,-7.65733 V 25.250333 c 0,-4.230666 -4.048,-7.658666 -6.261333,-7.658666 z"
         inkscape:connector-curvature="0"
         style="fill:none;stroke:#000000;stroke-width:1.33333325;stroke-opacity:1"
         sodipodi:nodetypes="sssssssss" /><path
         inkscape:connector-curvature="0"
         style="fill:#231f20;stroke-width:1.33333325"
         d="M -44.376562,34.354688 V 95.68802 H 61.123435 V 34.354688 Z m 2.5,1.833333 H 59.623435 V 94.18802 H -41.876562 Z"
         id="rect44" /><rect
         style="fill:none;fill-opacity:1;stroke:#000000;stroke-width:1;stroke-miterlimit:4;stroke-dasharray:none;stroke-opacity:1"
         id="rect892"
         width="17.844437"
         height="11.21875"
         x="-40.463188"
         y="20.369833"
         ry="6.0472441" /><rect
         ry="6.0472441"
         y="20.369833"
         x="41.561199"
         height="11.21875"
         width="17.844437"
         id="rect894"
         style="fill:none;fill-opacity:1;stroke:#000000;stroke-width:1;stroke-miterlimit:4;stroke-dasharray:none;stroke-opacity:1" /><rect
         ry="6.0472441"
         y="113.1776"
         x="-40.463188"
         height="11.21875"
         width="17.844437"
         id="rect900"
         style="fill:none;fill-opacity:1;stroke:#000000;stroke-width:1;stroke-miterlimit:4;stroke-dasharray:none;stroke-opacity:1" /><rect
         style="fill:none;fill-opacity:1;stroke:#000000;stroke-width:1;stroke-miterlimit:4;stroke-dasharray:none;stroke-opacity:1"
         id="rect902"
         width="17.844437"
         height="11.21875"
         x="41.561199"
         y="113.1776"
         ry="6.0472441" /></g></g></svg>