<?xml version="1.0" encoding="UTF-8" standalone="no"?>
<!-- Generator: Adobe Illustrator 15.0.0, SVG Export Plug-In . SVG Version: 6.00 Build 0)  -->

<svg
   xmlns:dc="http://purl.org/dc/elements/1.1/"
   xmlns:cc="http://creativecommons.org/ns#"
   xmlns:rdf="http://www.w3.org/1999/02/22-rdf-syntax-ns#"
   xmlns:svg="http://www.w3.org/2000/svg"
   xmlns="http://www.w3.org/2000/svg"
   xmlns:sodipodi="http://sodipodi.sourceforge.net/DTD/sodipodi-0.dtd"
   xmlns:inkscape="http://www.inkscape.org/namespaces/inkscape"
   version="1.1"
   id="Layer_1"
   x="0px"
   y="0px"
   width="188.43764"
   height="95.907837"
   viewBox="0 0 188.43764 95.907837"
   enable-background="new 0 0 141 72"
   xml:space="preserve"
   sodipodi:docname="NodeMCUPCB.svg"
   inkscape:version="0.92.2 (5c3e80d, 2017-08-06)"><metadata
     id="metadata369"><rdf:RDF><cc:Work
         rdf:about=""><dc:format>image/svg+xml</dc:format><dc:type
           rdf:resource="http://purl.org/dc/dcmitype/StillImage" /><dc:title /></cc:Work></rdf:RDF></metadata><defs
     id="defs367" /><sodipodi:namedview
     pagecolor="#ffffff"
     bordercolor="#666666"
     borderopacity="1"
     objecttolerance="10"
     gridtolerance="10"
     guidetolerance="10"
     inkscape:pageopacity="0"
     inkscape:pageshadow="2"
     inkscape:window-width="1920"
     inkscape:window-height="1017"
     id="namedview365"
     showgrid="false"
     inkscape:zoom="1.334501"
     inkscape:cx="276.76929"
     inkscape:cy="-1.0627883"
     inkscape:window-x="2552"
     inkscape:window-y="355"
     inkscape:window-maximized="1"
     inkscape:current-layer="Layer_1"
     fit-margin-top="0"
     fit-margin-left="0"
     fit-margin-right="0"
     fit-margin-bottom="0" /><g
     id="silkscreen"><path
       d="M 175.49692,3.4800006e-8 H 6.6655021 C 2.9837579,3.4800006e-8 0,3.018391 0,6.7440922 V 89.162413 c 0,3.723038 2.9837579,6.742761 6.6655021,6.742761 H 175.49692 c 3.68307,0 6.6695,-3.021055 6.6695,-6.742761 V 6.7427601 C 182.16642,3.018391 179.17999,3.4800006e-8 175.49692,3.4800006e-8 Z M 8.7021833,2.422971 c 3.1329457,0 5.6731357,2.5628352 5.6731357,5.7210897 0,3.1569223 -2.537526,5.7184253 -5.6731357,5.7184253 -3.1369419,0 -5.6758003,-2.560171 -5.6758003,-5.7184253 0,-3.1569224 2.5388584,-5.7210897 5.6758003,-5.7210897 z m 0,91.358939 c -3.1369419,0 -5.6758003,-2.557507 -5.6758003,-5.715761 0,-3.160919 2.5375263,-5.726418 5.6758003,-5.726418 3.1329457,0 5.6731357,2.565499 5.6731357,5.726418 0,3.158254 -2.54019,5.715761 -5.6731357,5.715761 z m 165.1949567,0 c -3.1356,0 -5.67446,-2.557507 -5.67446,-5.715761 0,-3.160919 2.53752,-5.726418 5.67446,-5.726418 3.13428,0 5.67314,2.565499 5.67314,5.726418 0,3.158254 -2.54019,5.715761 -5.67314,5.715761 z m 0,-79.919424 c -3.1356,0 -5.67446,-2.561503 -5.67446,-5.7184253 0,-3.1569224 2.53752,-5.7197577 5.67446,-5.7197577 3.13428,0 5.67314,2.5615032 5.67314,5.7197577 0,3.1555903 -2.54019,5.7184253 -5.67314,5.7184253 z"
       id="path2"
       inkscape:connector-curvature="0"
       style="fill:none;stroke:#000000;stroke-width:1.33203483;stroke-opacity:1" /><text
       y="14.34415"
       x="19.712515"
       font-size="2.5"
       id="text244"
       style="font-size:3.33008695px;font-family:OCRA;fill:#000000;stroke-width:1.33203483">D0</text>
<text
       y="14.341486"
       x="29.423849"
       font-size="2.5"
       id="text246"
       style="font-size:3.33008695px;font-family:OCRA;fill:#000000;stroke-width:1.33203483">D1</text>
<text
       y="14.341486"
       x="39.135715"
       font-size="2.5"
       id="text248"
       style="font-size:3.33008695px;font-family:OCRA;fill:#000000;stroke-width:1.33203483">D2</text>
<text
       y="14.341486"
       x="48.846916"
       font-size="2.5"
       id="text250"
       style="font-size:3.33008695px;font-family:OCRA;fill:#000000;stroke-width:1.33203483">D3</text>
<text
       y="14.341486"
       x="58.558113"
       font-size="2.5"
       id="text252"
       style="font-size:3.33008695px;font-family:OCRA;fill:#000000;stroke-width:1.33203483">D4</text>
<text
       y="14.341486"
       x="67.066093"
       font-size="2.5"
       id="text254"
       style="font-size:3.33008695px;font-family:OCRA;fill:#000000;stroke-width:1.33203483">3V3</text>
<text
       y="14.341486"
       x="76.77742"
       font-size="2.5"
       id="text256"
       style="font-size:3.33008695px;font-family:OCRA;fill:#000000;stroke-width:1.33203483">GND</text>
<text
       y="14.34415"
       x="87.692513"
       font-size="2.5"
       id="text258"
       style="font-size:3.33008695px;font-family:OCRA;fill:#000000;stroke-width:1.33203483">D5</text>
<text
       y="14.341486"
       x="97.403717"
       font-size="2.5"
       id="text260"
       style="font-size:3.33008695px;font-family:OCRA;fill:#000000;stroke-width:1.33203483">D6</text>
<text
       y="14.34415"
       x="107.11558"
       font-size="2.5"
       id="text262"
       style="font-size:3.33008695px;font-family:OCRA;fill:#000000;stroke-width:1.33203483">D7</text>
<text
       y="14.341486"
       x="116.82758"
       font-size="2.5"
       id="text264"
       style="font-size:3.33008695px;font-family:OCRA;fill:#000000;stroke-width:1.33203483">D8</text>
<text
       y="14.34415"
       x="126.53811"
       font-size="2.5"
       id="text266"
       style="font-size:3.33008695px;font-family:OCRA;fill:#000000;stroke-width:1.33203483">RX</text>
<text
       y="14.341486"
       x="136.24997"
       font-size="2.5"
       id="text268"
       style="font-size:3.33008695px;font-family:OCRA;fill:#000000;stroke-width:1.33203483">TX</text>
<text
       y="14.34415"
       x="144.75728"
       font-size="2.5"
       id="text270"
       style="font-size:3.33008695px;font-family:OCRA;fill:#000000;stroke-width:1.33203483">GND</text>
<text
       y="14.341486"
       x="154.46915"
       font-size="2.5"
       id="text272"
       style="font-size:3.33008695px;font-family:OCRA;fill:#000000;stroke-width:1.33203483">3V3</text>
<text
       y="-81.177399"
       x="-161.71892"
       transform="scale(-1)"
       font-size="2.5"
       id="text274"
       style="font-size:3.33008695px;font-family:OCRA;fill:#000000;stroke-width:1.33203483">Vin</text>
<text
       y="-81.177399"
       x="-152.19699"
       transform="scale(-1)"
       font-size="2.5"
       id="text276"
       style="font-size:3.33008695px;font-family:OCRA;fill:#000000;stroke-width:1.33203483">GND</text>
<text
       y="-81.177399"
       x="-142.67494"
       transform="scale(-1)"
       font-size="2.5"
       id="text278"
       style="font-size:3.33008695px;font-family:OCRA;fill:#000000;stroke-width:1.33203483">RST</text>
<text
       y="-81.177399"
       x="-131.70911"
       transform="scale(-1)"
       font-size="2.5"
       id="text280"
       style="font-size:3.33008695px;font-family:OCRA;fill:#000000;stroke-width:1.33203483">EN</text>
<text
       y="-81.177399"
       x="-123.63113"
       transform="scale(-1)"
       font-size="2.5"
       id="text282"
       style="font-size:3.33008695px;font-family:OCRA;fill:#000000;stroke-width:1.33203483">3V3</text>
<text
       y="-81.177399"
       x="-114.10909"
       transform="scale(-1)"
       font-size="2.5"
       id="text284"
       style="font-size:3.33008695px;font-family:OCRA;fill:#000000;stroke-width:1.33203483">GND</text>
<text
       y="-81.177399"
       x="-104.58716"
       transform="scale(-1)"
       font-size="2.5"
       id="text286"
       style="font-size:3.33008695px;font-family:OCRA;fill:#000000;stroke-width:1.33203483">CLK</text>
<text
       y="-81.177399"
       x="-95.065102"
       transform="scale(-1)"
       font-size="2.5"
       id="text288"
       style="font-size:3.33008695px;font-family:OCRA;fill:#000000;stroke-width:1.33203483">SD0</text>
<text
       y="-81.177399"
       x="-85.540657"
       transform="scale(-1)"
       font-size="2.5"
       id="text290"
       style="font-size:3.33008695px;font-family:OCRA;fill:#000000;stroke-width:1.33203483">CMD</text>
<text
       y="-81.177399"
       x="-76.0186"
       transform="scale(-1)"
       font-size="2.5"
       id="text292"
       style="font-size:3.33008695px;font-family:OCRA;fill:#000000;stroke-width:1.33203483">SD1</text>
<text
       y="-81.177399"
       x="-66.496689"
       transform="scale(-1)"
       font-size="2.5"
       id="text294"
       style="font-size:3.33008695px;font-family:OCRA;fill:#000000;stroke-width:1.33203483">SD2</text>
<text
       y="-81.177399"
       x="-56.974632"
       transform="scale(-1)"
       font-size="2.5"
       id="text296"
       style="font-size:3.33008695px;font-family:OCRA;fill:#000000;stroke-width:1.33203483">SD3</text>
<text
       y="-81.177399"
       x="-47.452713"
       transform="scale(-1)"
       font-size="2.5"
       id="text298"
       style="font-size:3.33008695px;font-family:OCRA;fill:#000000;stroke-width:1.33203483">RSV</text>
<text
       y="-81.177399"
       x="-37.930798"
       transform="scale(-1)"
       font-size="2.5"
       id="text300"
       style="font-size:3.33008695px;font-family:OCRA;fill:#000000;stroke-width:1.33203483">RSV</text>
<text
       y="-81.177399"
       x="-26.964819"
       transform="scale(-1)"
       font-size="2.5"
       id="text302"
       style="font-size:3.33008695px;font-family:OCRA;fill:#000000;stroke-width:1.33203483">A0</text>
<rect
       x="165.34947"
       y="33.434074"
       width="23.08816"
       height="29.082315"
       id="rect304"
       style="fill:none;stroke:#000000;stroke-width:1.33203483;stroke-opacity:1" /><circle
       cx="170.3446"
       cy="23.555704"
       r="3.6630957"
       id="circle308"
       style="fill:#231f20;stroke-width:1.33203483" /><circle
       cx="170.3446"
       cy="72.57325"
       r="3.6630957"
       id="circle312"
       style="fill:#231f20;stroke-width:1.33203483" /><text
       y="163.57228"
       x="-28.991339"
       transform="rotate(-90)"
       font-size="2.5"
       id="text314"
       style="font-size:3.33008695px;font-family:OCRA;fill:#000000;stroke-width:1.33203483">FLASH</text>
<text
       y="163.56975"
       x="-75.391434"
       transform="rotate(-90)"
       font-size="2.5"
       id="text316"
       style="font-size:3.33008695px;font-family:OCRA;fill:#000000;stroke-width:1.33203483">RST</text>
<rect
       x="28.149889"
       y="21.889326"
       width="57.943512"
       height="51.993317"
       id="rect318"
       style="fill:none;stroke:#000000;stroke-width:1.33203483;stroke-opacity:1" /><path
       inkscape:connector-curvature="0"
       id="rect320"
       d="M 3.1464844,25 V 40.763672 H 16.324219 v 3.511719 H 3.2871094 v 6.625 H 16.324219 v 3.511718 H 5.0351562 3.2871094 v 1.556641 3.513672 1.554687 0.0039 h 1.7480468 v -0.0039 H 16.324219 v 3.509766 c -4.287109,0 -8.5742189,0 -12.8613284,0 l 0,7.919922 H 5.2089844 28.771484 V 70.910156 H 23.71875 V 39.986328 H 21.972656 V 70.910156 H 5.2089844 v -4.80664 H 16.324219 v 0.002 h 1.748047 v -0.002 -6.621094 H 5.0351562 V 55.96875 H 18.072266 V 54.412109 49.34375 H 5.0351562 V 45.832031 H 18.072266 v -1.55664 -5.066407 H 4.8945312 V 25 Z"
       style="fill:#000000;stroke-width:1.33203483"
       sodipodi:nodetypes="ccccccccccccccccccccccccccccccccccccccccccccccc" /><text
       style="font-size:15.98441696px;fill:#000000;stroke-width:1.33203471"
       y="59.310982"
       x="34.328705"
       id="text360-4"><tspan
         style="font-size:9.32424355px;font-family:OCRA;fill:#000000;stroke-width:1.33203471"
         id="tspan356-0"
         font-size="7"
         y="59.310982"
         x="34.328705">NodeMCU</tspan><tspan
         style="font-size:9.32424355px;font-family:OCRA;fill:#000000;stroke-width:1.33203471"
         id="tspan358-8"
         font-size="7"
         y="70.500076"
         x="34.328705">V1.0</tspan></text>
<text
       style="font-size:5.32813883px;font-family:OCRA;fill:#000000;stroke-width:1.33203471"
       y="29.193943"
       x="33.01358"
       id="text362-9"
       font-size="4">blog.squix.ch</text>
</g><g
     id="g906"
     transform="matrix(0.08,0,0,0.08,-222.65767,-107.62168)"><g
       id="g908" /></g><g
     id="g912"
     transform="matrix(0.08,0,0,0.08,-222.65767,-107.62168)" /><g
     id="g920"
     transform="matrix(0.08,0,0,0.08,-222.65767,-107.62168)" /><g
     id="g926"
     transform="matrix(0.08,0,0,0.08,-222.65767,-107.62168)" /><g
     id="g932"
     transform="matrix(0.08,0,0,0.08,-222.65767,-107.62168)" /><g
     id="g938"
     transform="matrix(0.08,0,0,0.08,-222.65767,-107.62168)" /><g
     id="g944"
     transform="matrix(0.08,0,0,0.08,-222.65767,-107.62168)" /><g
     id="g950"
     transform="matrix(0.08,0,0,0.08,-222.65767,-107.62168)" /><g
     id="g956"
     transform="matrix(0.08,0,0,0.08,-222.65767,-107.62168)" /><g
     id="g962"
     transform="matrix(0.08,0,0,0.08,-222.65767,-107.62168)" /><g
     id="g968"
     transform="matrix(0.08,0,0,0.08,-222.65767,-107.62168)" /><g
     id="g974"
     transform="matrix(0.08,0,0,0.08,-222.65767,-107.62168)" /><g
     id="g980"
     transform="matrix(0.08,0,0,0.08,-222.65767,-107.62168)" /><g
     id="g986"
     transform="matrix(0.08,0,0,0.08,-222.65767,-107.62168)" /><g
     id="g992"
     transform="matrix(0.08,0,0,0.08,-222.65767,-107.62168)" /><g
     id="g998"
     transform="matrix(0.08,0,0,0.08,-222.65767,-107.62168)" /><g
     id="g1004"
     transform="matrix(0.08,0,0,0.08,-222.65767,-107.62168)" /><g
     id="g1010"
     transform="matrix(0.08,0,0,0.08,-222.65767,-107.62168)" /><g
     id="g1016"
     transform="matrix(0.08,0,0,0.08,-222.65767,-107.62168)" /><g
     id="g1022"
     transform="matrix(0.08,0,0,0.08,-222.65767,-107.62168)" /><g
     id="g1028"
     transform="matrix(0.08,0,0,0.08,-222.65767,-107.62168)" /><g
     id="g1034"
     transform="matrix(0.08,0,0,0.08,-222.65767,-107.62168)" /><g
     id="g1040"
     transform="matrix(0.08,0,0,0.08,-222.65767,-107.62168)" /><g
     id="g1046"
     transform="matrix(0.08,0,0,0.08,-222.65767,-107.62168)" /><g
     id="g1052"
     transform="matrix(0.08,0,0,0.08,-222.65767,-107.62168)" /><g
     id="g1058"
     transform="matrix(0.08,0,0,0.08,-222.65767,-107.62168)" /><g
     id="g1064"
     transform="matrix(0.08,0,0,0.08,-222.65767,-107.62168)" /><g
     id="g1070"
     transform="matrix(0.08,0,0,0.08,-222.65767,-107.62168)" /><g
     id="g1076"
     transform="matrix(0.08,0,0,0.08,-222.65767,-107.62168)" /><g
     id="g1082"
     transform="matrix(0.08,0,0,0.08,-222.65767,-107.62168)" /><g
     id="g1088"
     transform="matrix(0.08,0,0,0.08,-222.65767,-107.62168)" /><g
     id="g1102"
     transform="matrix(0.08,0,0,0.08,-222.65767,-107.62168)" /><g
     id="g1108"
     transform="matrix(0.08,0,0,0.08,-222.65767,-107.62168)" /><g
     id="g1114"
     transform="matrix(0.08,0,0,0.08,-222.65767,-107.62168)" /><g
     id="g1128"
     transform="matrix(0.08,0,0,0.08,-222.65767,-107.62168)" /><g
     id="g1134"
     transform="matrix(0.08,0,0,0.08,-222.65767,-107.62168)" /><g
     id="g1140"
     transform="matrix(0.08,0,0,0.08,-222.65767,-107.62168)" /><g
     id="g1146"
     transform="matrix(0.08,0,0,0.08,-222.65767,-107.62168)" /><g
     id="g1152"
     transform="matrix(0.08,0,0,0.08,-222.65767,-107.62168)" /><g
     id="g1158"
     transform="matrix(0.08,0,0,0.08,-222.65767,-107.62168)" /><g
     id="g1164"
     transform="matrix(0.08,0,0,0.08,-222.65767,-107.62168)" /><g
     id="g1170"
     transform="matrix(0.08,0,0,0.08,-222.65767,-107.62168)" /><g
     id="g1176"
     transform="matrix(0.08,0,0,0.08,-222.65767,-107.62168)" /><g
     id="g1182"
     transform="matrix(0.08,0,0,0.08,-222.65767,-107.62168)" /><g
     id="g1188"
     transform="matrix(0.08,0,0,0.08,-222.65767,-107.62168)" /><g
     id="g1194"
     transform="matrix(0.08,0,0,0.08,-222.65767,-107.62168)" /><g
     id="g1200"
     transform="matrix(0.08,0,0,0.08,-222.65767,-107.62168)" /><g
     id="g1206"
     transform="matrix(0.08,0,0,0.08,-222.65767,-107.62168)" /><g
     id="g1212"
     transform="matrix(0.08,0,0,0.08,-222.65767,-107.62168)" /><g
     id="g1218"
     transform="matrix(0.08,0,0,0.08,-222.65767,-107.62168)" /><g
     id="g1224"
     transform="matrix(0.08,0,0,0.08,-222.65767,-107.62168)" /><g
     id="g1230"
     transform="matrix(0.08,0,0,0.08,-222.65767,-107.62168)" /><g
     id="g1236"
     transform="matrix(0.08,0,0,0.08,-222.65767,-107.62168)" /><g
     id="g1242"
     transform="matrix(0.08,0,0,0.08,-222.65767,-107.62168)" /><g
     id="g1248"
     transform="matrix(0.08,0,0,0.08,-222.65767,-107.62168)" /><g
     id="g1254"
     transform="matrix(0.08,0,0,0.08,-222.65767,-107.62168)" /><g
     id="g1260"
     transform="matrix(0.08,0,0,0.08,-222.65767,-107.62168)" /><g
     id="g1266"
     transform="matrix(0.08,0,0,0.08,-222.65767,-107.62168)" /><g
     id="g1272"
     transform="matrix(0.08,0,0,0.08,-222.65767,-107.62168)" /><g
     id="g1278"
     transform="matrix(0.08,0,0,0.08,-222.65767,-107.62168)" /><g
     id="g1284"
     transform="matrix(0.08,0,0,0.08,-222.65767,-107.62168)" /><g
     id="g1290"
     transform="matrix(0.08,0,0,0.08,-222.65767,-107.62168)" /><g
     id="g1296"
     transform="matrix(0.08,0,0,0.08,-222.65767,-107.62168)" /><g
     id="g1302"
     transform="matrix(0.08,0,0,0.08,-222.65767,-107.62168)" /><g
     id="g1308"
     transform="matrix(0.08,0,0,0.08,-222.65767,-107.62168)" /><g
     id="g1314"
     transform="matrix(0.08,0,0,0.08,-222.65767,-107.62168)" /><g
     id="g1320"
     transform="matrix(0.08,0,0,0.08,-222.65767,-107.62168)" /><g
     id="g1326"
     transform="matrix(0.08,0,0,0.08,-222.65767,-107.62168)" /><g
     id="g1332"
     transform="matrix(0.08,0,0,0.08,-222.65767,-107.62168)" /><g
     id="g1338"
     transform="matrix(0.08,0,0,0.08,-222.65767,-107.62168)" /><g
     id="g1344"
     transform="matrix(0.08,0,0,0.08,-222.65767,-107.62168)" /><g
     id="g1350"
     transform="matrix(0.08,0,0,0.08,-222.65767,-107.62168)" /><g
     id="g1356"
     transform="matrix(0.08,0,0,0.08,-222.65767,-107.62168)" /><g
     id="g1362"
     transform="matrix(0.08,0,0,0.08,-222.65767,-107.62168)" /><g
     id="g1368"
     transform="matrix(0.08,0,0,0.08,-222.65767,-107.62168)" /><g
     id="g1374"
     transform="matrix(0.08,0,0,0.08,-222.65767,-107.62168)" /><g
     id="g1380"
     transform="matrix(0.08,0,0,0.08,-222.65767,-107.62168)" /><g
     id="g1386"
     transform="matrix(0.08,0,0,0.08,-222.65767,-107.62168)" /><g
     id="g1392"
     transform="matrix(0.08,0,0,0.08,-222.65767,-107.62168)" /><g
     id="g1398"
     transform="matrix(0.08,0,0,0.08,-222.65767,-107.62168)" /><g
     id="g1404"
     transform="matrix(0.08,0,0,0.08,-222.65767,-107.62168)" /><g
     id="g1410"
     transform="matrix(0.08,0,0,0.08,-222.65767,-107.62168)" /><g
     id="g1416"
     transform="matrix(0.08,0,0,0.08,-222.65767,-107.62168)" /><g
     id="g1422"
     transform="matrix(0.08,0,0,0.08,-222.65767,-107.62168)" /><g
     id="g1428"
     transform="matrix(0.08,0,0,0.08,-222.65767,-107.62168)" /><g
     id="g1434"
     transform="matrix(0.08,0,0,0.08,-222.65767,-107.62168)" /><g
     id="g1440"
     transform="matrix(0.08,0,0,0.08,-222.65767,-107.62168)" /><g
     id="g1446"
     transform="matrix(0.08,0,0,0.08,-222.65767,-107.62168)" /><g
     id="g1452"
     transform="matrix(0.08,0,0,0.08,-222.65767,-107.62168)" /><g
     id="g1458"
     transform="matrix(0.08,0,0,0.08,-222.65767,-107.62168)" /><g
     id="g1464"
     transform="matrix(0.08,0,0,0.08,-222.65767,-107.62168)" /><g
     id="g1470"
     transform="matrix(0.08,0,0,0.08,-222.65767,-107.62168)" /><g
     id="g1476"
     transform="matrix(0.08,0,0,0.08,-222.65767,-107.62168)" /><g
     id="g1482"
     transform="matrix(0.08,0,0,0.08,-222.65767,-107.62168)" /><g
     id="g1488"
     transform="matrix(0.08,0,0,0.08,-222.65767,-107.62168)" /><g
     id="g1494"
     transform="matrix(0.08,0,0,0.08,-222.65767,-107.62168)" /><g
     id="g1500"
     transform="matrix(0.08,0,0,0.08,-222.65767,-107.62168)" /><g
     id="g1506"
     transform="matrix(0.08,0,0,0.08,-222.65767,-107.62168)" /><g
     id="g1512"
     transform="matrix(0.08,0,0,0.08,-222.65767,-107.62168)" /><g
     id="g1518"
     transform="matrix(0.08,0,0,0.08,-222.65767,-107.62168)" /><g
     id="g1524"
     transform="matrix(0.08,0,0,0.08,-222.65767,-107.62168)" /><g
     id="g1530"
     transform="matrix(0.08,0,0,0.08,-222.65767,-107.62168)" /><g
     id="g1646"
     transform="matrix(0.08,0,0,0.08,-222.65767,-107.62168)" /><g
     id="copper1"><g
       style="stroke:#ffbf00;stroke-opacity:1"
       transform="translate(-0.00373153,0.11025045)"
       id="copper0"><path
         inkscape:connector-curvature="0"
         id="path3231"
         style="fill:none;stroke:#ffbf00;stroke-width:1.87200093;stroke-linecap:butt;stroke-linejoin:miter;stroke-miterlimit:4;stroke-dasharray:none;stroke-opacity:1"
         d="m 23.811738,88.477592 c 1.44478,0 2.616005,1.171224 2.616005,2.615994 0,1.44478 -1.171225,2.616 -2.616005,2.616 -1.44478,0 -2.616006,-1.17122 -2.616006,-2.616 0,-1.44477 1.171226,-2.615994 2.616006,-2.615994 z" /><path
         d="m 33.411738,88.477592 c 1.44478,0 2.616005,1.171224 2.616005,2.615994 0,1.44478 -1.171225,2.616 -2.616005,2.616 -1.44478,0 -2.616006,-1.17122 -2.616006,-2.616 0,-1.44477 1.171226,-2.615994 2.616006,-2.615994 z"
         style="fill:none;stroke:#ffbf00;stroke-width:1.87200093;stroke-linecap:butt;stroke-linejoin:miter;stroke-miterlimit:4;stroke-dasharray:none;stroke-opacity:1"
         id="path3233"
         inkscape:connector-curvature="0" /><path
         inkscape:connector-curvature="0"
         id="path3235"
         style="fill:none;stroke:#ffbf00;stroke-width:1.87200093;stroke-linecap:butt;stroke-linejoin:miter;stroke-miterlimit:4;stroke-dasharray:none;stroke-opacity:1"
         d="m 43.011738,88.477592 c 1.44478,0 2.616005,1.171224 2.616005,2.615994 0,1.44478 -1.171225,2.616 -2.616005,2.616 -1.44478,0 -2.616006,-1.17122 -2.616006,-2.616 0,-1.44477 1.171226,-2.615994 2.616006,-2.615994 z" /><path
         d="m 52.611738,88.477592 c 1.44478,0 2.616005,1.171224 2.616005,2.615994 0,1.44478 -1.171225,2.616 -2.616005,2.616 -1.44478,0 -2.616006,-1.17122 -2.616006,-2.616 0,-1.44477 1.171226,-2.615994 2.616006,-2.615994 z"
         style="fill:none;stroke:#ffbf00;stroke-width:1.87200093;stroke-linecap:butt;stroke-linejoin:miter;stroke-miterlimit:4;stroke-dasharray:none;stroke-opacity:1"
         id="path3237"
         inkscape:connector-curvature="0" /><path
         inkscape:connector-curvature="0"
         id="path3239"
         style="fill:none;stroke:#ffbf00;stroke-width:1.87200093;stroke-linecap:butt;stroke-linejoin:miter;stroke-miterlimit:4;stroke-dasharray:none;stroke-opacity:1"
         d="m 62.211738,88.477592 c 1.44478,0 2.616005,1.171224 2.616005,2.615994 0,1.44478 -1.171225,2.616 -2.616005,2.616 -1.44478,0 -2.616006,-1.17122 -2.616006,-2.616 0,-1.44477 1.171226,-2.615994 2.616006,-2.615994 z" /><path
         d="m 71.811738,88.477592 c 1.44478,0 2.616005,1.171224 2.616005,2.615994 0,1.44478 -1.171225,2.616 -2.616005,2.616 -1.44478,0 -2.616006,-1.17122 -2.616006,-2.616 0,-1.44477 1.171226,-2.615994 2.616006,-2.615994 z"
         style="fill:none;stroke:#ffbf00;stroke-width:1.87200093;stroke-linecap:butt;stroke-linejoin:miter;stroke-miterlimit:4;stroke-dasharray:none;stroke-opacity:1"
         id="path3241"
         inkscape:connector-curvature="0" /><path
         inkscape:connector-curvature="0"
         id="path3243"
         style="fill:none;stroke:#ffbf00;stroke-width:1.87200093;stroke-linecap:butt;stroke-linejoin:miter;stroke-miterlimit:4;stroke-dasharray:none;stroke-opacity:1"
         d="m 81.411738,88.477592 c 1.44478,0 2.616005,1.171224 2.616005,2.615994 0,1.44478 -1.171225,2.616 -2.616005,2.616 -1.44478,0 -2.616006,-1.17122 -2.616006,-2.616 0,-1.44477 1.171226,-2.615994 2.616006,-2.615994 z" /><path
         d="m 91.011738,88.477592 c 1.44478,0 2.616005,1.171224 2.616005,2.615994 0,1.44478 -1.171225,2.616 -2.616005,2.616 -1.44478,0 -2.616006,-1.17122 -2.616006,-2.616 0,-1.44477 1.171226,-2.615994 2.616006,-2.615994 z"
         style="fill:none;stroke:#ffbf00;stroke-width:1.87200093;stroke-linecap:butt;stroke-linejoin:miter;stroke-miterlimit:4;stroke-dasharray:none;stroke-opacity:1"
         id="path3245"
         inkscape:connector-curvature="0" /><path
         inkscape:connector-curvature="0"
         id="path3247"
         style="fill:none;stroke:#ffbf00;stroke-width:1.87200093;stroke-linecap:butt;stroke-linejoin:miter;stroke-miterlimit:4;stroke-dasharray:none;stroke-opacity:1"
         d="m 100.61174,88.477592 c 1.44478,0 2.616,1.171224 2.616,2.615994 0,1.44478 -1.17122,2.616 -2.616,2.616 -1.444782,0 -2.616008,-1.17122 -2.616008,-2.616 0,-1.44477 1.171226,-2.615994 2.616008,-2.615994 z" /><path
         d="m 110.21174,88.477592 c 1.44478,0 2.616,1.171224 2.616,2.615994 0,1.44478 -1.17122,2.616 -2.616,2.616 -1.44478,0 -2.61601,-1.17122 -2.61601,-2.616 0,-1.44477 1.17123,-2.615994 2.61601,-2.615994 z"
         style="fill:none;stroke:#ffbf00;stroke-width:1.87200093;stroke-linecap:butt;stroke-linejoin:miter;stroke-miterlimit:4;stroke-dasharray:none;stroke-opacity:1"
         id="path3249"
         inkscape:connector-curvature="0" /><path
         inkscape:connector-curvature="0"
         id="path3251"
         style="fill:none;stroke:#ffbf00;stroke-width:1.87200093;stroke-linecap:butt;stroke-linejoin:miter;stroke-miterlimit:4;stroke-dasharray:none;stroke-opacity:1"
         d="m 119.81174,88.477592 c 1.44478,0 2.616,1.171224 2.616,2.615994 0,1.44478 -1.17122,2.616 -2.616,2.616 -1.44478,0 -2.61601,-1.17122 -2.61601,-2.616 0,-1.44477 1.17123,-2.615994 2.61601,-2.615994 z" /><path
         d="m 129.41174,88.477592 c 1.44478,0 2.616,1.171224 2.616,2.615994 0,1.44478 -1.17122,2.616 -2.616,2.616 -1.44478,0 -2.61601,-1.17122 -2.61601,-2.616 0,-1.44477 1.17123,-2.615994 2.61601,-2.615994 z"
         style="fill:none;stroke:#ffbf00;stroke-width:1.87200093;stroke-linecap:butt;stroke-linejoin:miter;stroke-miterlimit:4;stroke-dasharray:none;stroke-opacity:1"
         id="path3253"
         inkscape:connector-curvature="0" /><path
         inkscape:connector-curvature="0"
         id="path3255"
         style="fill:none;stroke:#ffbf00;stroke-width:1.87200093;stroke-linecap:butt;stroke-linejoin:miter;stroke-miterlimit:4;stroke-dasharray:none;stroke-opacity:1"
         d="m 139.01174,88.477592 c 1.44478,0 2.616,1.171224 2.616,2.615994 0,1.44478 -1.17122,2.616 -2.616,2.616 -1.44478,0 -2.61601,-1.17122 -2.61601,-2.616 0,-1.44477 1.17123,-2.615994 2.61601,-2.615994 z" /><path
         d="m 148.61174,88.477592 c 1.44478,0 2.616,1.171224 2.616,2.615994 0,1.44478 -1.17122,2.616 -2.616,2.616 -1.44478,0 -2.61601,-1.17122 -2.61601,-2.616 0,-1.44477 1.17123,-2.615994 2.61601,-2.615994 z"
         style="fill:none;stroke:#ffbf00;stroke-width:1.87200093;stroke-linecap:butt;stroke-linejoin:miter;stroke-miterlimit:4;stroke-dasharray:none;stroke-opacity:1"
         id="path3257"
         inkscape:connector-curvature="0" /><path
         inkscape:connector-curvature="0"
         id="path3259"
         style="fill:none;stroke:#ffbf00;stroke-width:1.87200093;stroke-linecap:butt;stroke-linejoin:miter;stroke-miterlimit:4;stroke-dasharray:none;stroke-opacity:1"
         d="m 158.21174,88.477592 c 1.44478,0 2.616,1.171224 2.616,2.615994 0,1.44478 -1.17122,2.616 -2.616,2.616 -1.44478,0 -2.61601,-1.17122 -2.61601,-2.616 0,-1.44477 1.17123,-2.615994 2.61601,-2.615994 z" /><path
         d="m 23.811738,2.091842 c 1.44478,0 2.616005,1.171224 2.616005,2.615994 0,1.44478 -1.171225,2.616 -2.616005,2.616 -1.44478,0 -2.616006,-1.17122 -2.616006,-2.616 0,-1.44477 1.171226,-2.615994 2.616006,-2.615994 z"
         style="fill:none;stroke:#ffbf00;stroke-width:1.87200093;stroke-linecap:butt;stroke-linejoin:miter;stroke-miterlimit:4;stroke-dasharray:none;stroke-opacity:1"
         id="path3278"
         inkscape:connector-curvature="0" /><path
         inkscape:connector-curvature="0"
         id="path3280"
         style="fill:none;stroke:#ffbf00;stroke-width:1.87200093;stroke-linecap:butt;stroke-linejoin:miter;stroke-miterlimit:4;stroke-dasharray:none;stroke-opacity:1"
         d="m 33.411738,2.091842 c 1.44478,0 2.616005,1.171224 2.616005,2.615994 0,1.44478 -1.171225,2.616 -2.616005,2.616 -1.44478,0 -2.616006,-1.17122 -2.616006,-2.616 0,-1.44477 1.171226,-2.615994 2.616006,-2.615994 z" /><path
         d="m 43.011738,2.091842 c 1.44478,0 2.616005,1.171224 2.616005,2.615994 0,1.44478 -1.171225,2.616 -2.616005,2.616 -1.44478,0 -2.616006,-1.17122 -2.616006,-2.616 0,-1.44477 1.171226,-2.615994 2.616006,-2.615994 z"
         style="fill:none;stroke:#ffbf00;stroke-width:1.87200093;stroke-linecap:butt;stroke-linejoin:miter;stroke-miterlimit:4;stroke-dasharray:none;stroke-opacity:1"
         id="path3282"
         inkscape:connector-curvature="0" /><path
         inkscape:connector-curvature="0"
         id="path3284"
         style="fill:none;stroke:#ffbf00;stroke-width:1.87200093;stroke-linecap:butt;stroke-linejoin:miter;stroke-miterlimit:4;stroke-dasharray:none;stroke-opacity:1"
         d="m 52.611738,2.091842 c 1.44478,0 2.616005,1.171224 2.616005,2.615994 0,1.44478 -1.171225,2.616 -2.616005,2.616 -1.44478,0 -2.616006,-1.17122 -2.616006,-2.616 0,-1.44477 1.171226,-2.615994 2.616006,-2.615994 z" /><path
         d="m 62.211738,2.091842 c 1.44478,0 2.616005,1.171224 2.616005,2.615994 0,1.44478 -1.171225,2.616 -2.616005,2.616 -1.44478,0 -2.616006,-1.17122 -2.616006,-2.616 0,-1.44477 1.171226,-2.615994 2.616006,-2.615994 z"
         style="fill:none;stroke:#ffbf00;stroke-width:1.87200093;stroke-linecap:butt;stroke-linejoin:miter;stroke-miterlimit:4;stroke-dasharray:none;stroke-opacity:1"
         id="path3286"
         inkscape:connector-curvature="0" /><path
         inkscape:connector-curvature="0"
         id="path3288"
         style="fill:none;stroke:#ffbf00;stroke-width:1.87200093;stroke-linecap:butt;stroke-linejoin:miter;stroke-miterlimit:4;stroke-dasharray:none;stroke-opacity:1"
         d="m 71.811738,2.091842 c 1.44478,0 2.616005,1.171224 2.616005,2.615994 0,1.44478 -1.171225,2.616 -2.616005,2.616 -1.44478,0 -2.616006,-1.17122 -2.616006,-2.616 0,-1.44477 1.171226,-2.615994 2.616006,-2.615994 z" /><path
         d="m 81.411738,2.091842 c 1.44478,0 2.616005,1.171224 2.616005,2.615994 0,1.44478 -1.171225,2.616 -2.616005,2.616 -1.44478,0 -2.616006,-1.17122 -2.616006,-2.616 0,-1.44477 1.171226,-2.615994 2.616006,-2.615994 z"
         style="fill:none;stroke:#ffbf00;stroke-width:1.87200093;stroke-linecap:butt;stroke-linejoin:miter;stroke-miterlimit:4;stroke-dasharray:none;stroke-opacity:1"
         id="path3290"
         inkscape:connector-curvature="0" /><path
         inkscape:connector-curvature="0"
         id="path3292"
         style="fill:none;stroke:#ffbf00;stroke-width:1.87200093;stroke-linecap:butt;stroke-linejoin:miter;stroke-miterlimit:4;stroke-dasharray:none;stroke-opacity:1"
         d="m 91.011738,2.091842 c 1.44478,0 2.616005,1.171224 2.616005,2.615994 0,1.44478 -1.171225,2.616 -2.616005,2.616 -1.44478,0 -2.616006,-1.17122 -2.616006,-2.616 0,-1.44477 1.171226,-2.615994 2.616006,-2.615994 z" /><path
         d="m 100.61174,2.091842 c 1.44478,0 2.616,1.171224 2.616,2.615994 0,1.44478 -1.17122,2.616 -2.616,2.616 -1.444782,0 -2.616008,-1.17122 -2.616008,-2.616 0,-1.44477 1.171226,-2.615994 2.616008,-2.615994 z"
         style="fill:none;stroke:#ffbf00;stroke-width:1.87200093;stroke-linecap:butt;stroke-linejoin:miter;stroke-miterlimit:4;stroke-dasharray:none;stroke-opacity:1"
         id="path3294"
         inkscape:connector-curvature="0" /><path
         inkscape:connector-curvature="0"
         id="path3296"
         style="fill:none;stroke:#ffbf00;stroke-width:1.87200093;stroke-linecap:butt;stroke-linejoin:miter;stroke-miterlimit:4;stroke-dasharray:none;stroke-opacity:1"
         d="m 110.21174,2.091842 c 1.44478,0 2.616,1.171224 2.616,2.615994 0,1.44478 -1.17122,2.616 -2.616,2.616 -1.44478,0 -2.61601,-1.17122 -2.61601,-2.616 0,-1.44477 1.17123,-2.615994 2.61601,-2.615994 z" /><path
         d="m 119.81174,2.091842 c 1.44478,0 2.616,1.171224 2.616,2.615994 0,1.44478 -1.17122,2.616 -2.616,2.616 -1.44478,0 -2.61601,-1.17122 -2.61601,-2.616 0,-1.44477 1.17123,-2.615994 2.61601,-2.615994 z"
         style="fill:none;stroke:#ffbf00;stroke-width:1.87200093;stroke-linecap:butt;stroke-linejoin:miter;stroke-miterlimit:4;stroke-dasharray:none;stroke-opacity:1"
         id="path3298"
         inkscape:connector-curvature="0" /><path
         inkscape:connector-curvature="0"
         id="path3300"
         style="fill:none;stroke:#ffbf00;stroke-width:1.87200093;stroke-linecap:butt;stroke-linejoin:miter;stroke-miterlimit:4;stroke-dasharray:none;stroke-opacity:1"
         d="m 129.41174,2.091842 c 1.44478,0 2.616,1.171224 2.616,2.615994 0,1.44478 -1.17122,2.616 -2.616,2.616 -1.44478,0 -2.61601,-1.17122 -2.61601,-2.616 0,-1.44477 1.17123,-2.615994 2.61601,-2.615994 z" /><path
         d="m 139.01174,2.091842 c 1.44478,0 2.616,1.171224 2.616,2.615994 0,1.44478 -1.17122,2.616 -2.616,2.616 -1.44478,0 -2.61601,-1.17122 -2.61601,-2.616 0,-1.44477 1.17123,-2.615994 2.61601,-2.615994 z"
         style="fill:none;stroke:#ffbf00;stroke-width:1.87200093;stroke-linecap:butt;stroke-linejoin:miter;stroke-miterlimit:4;stroke-dasharray:none;stroke-opacity:1"
         id="path3302"
         inkscape:connector-curvature="0" /><path
         inkscape:connector-curvature="0"
         id="path3304"
         style="fill:none;stroke:#ffbf00;stroke-width:1.87200093;stroke-linecap:butt;stroke-linejoin:miter;stroke-miterlimit:4;stroke-dasharray:none;stroke-opacity:1"
         d="m 148.61174,2.091842 c 1.44478,0 2.616,1.171224 2.616,2.615994 0,1.44478 -1.17122,2.616 -2.616,2.616 -1.44478,0 -2.61601,-1.17122 -2.61601,-2.616 0,-1.44477 1.17123,-2.615994 2.61601,-2.615994 z" /><path
         d="m 158.21174,2.091842 c 1.44478,0 2.616,1.171224 2.616,2.615994 0,1.44478 -1.17122,2.616 -2.616,2.616 -1.44478,0 -2.61601,-1.17122 -2.61601,-2.616 0,-1.44477 1.17123,-2.615994 2.61601,-2.615994 z"
         style="fill:none;stroke:#ffbf00;stroke-width:1.87200093;stroke-linecap:butt;stroke-linejoin:miter;stroke-miterlimit:4;stroke-dasharray:none;stroke-opacity:1"
         id="path3306"
         inkscape:connector-curvature="0" /></g></g></svg>