<?xml version="1.0" encoding="UTF-8" standalone="no"?>
<!-- Generator: Adobe Illustrator 15.0.0, SVG Export Plug-In . SVG Version: 6.00 Build 0)  -->

<svg
   xmlns:dc="http://purl.org/dc/elements/1.1/"
   xmlns:cc="http://creativecommons.org/ns#"
   xmlns:rdf="http://www.w3.org/1999/02/22-rdf-syntax-ns#"
   xmlns:svg="http://www.w3.org/2000/svg"
   xmlns="http://www.w3.org/2000/svg"
   xmlns:sodipodi="http://sodipodi.sourceforge.net/DTD/sodipodi-0.dtd"
   xmlns:inkscape="http://www.inkscape.org/namespaces/inkscape"
   version="1.1"
   id="Layer_1"
   x="0px"
   y="0px"
   width="178.16512"
   height="91.291084"
   viewBox="0 0 178.16512 91.291084"
   enable-background="new 0 0 141 72"
   xml:space="preserve"
   sodipodi:docname="NodeMCU_Fritzing_PCB.svg"
   inkscape:version="0.92.2 (5c3e80d, 2017-08-06)"><metadata
     id="metadata369"><rdf:RDF><cc:Work
         rdf:about=""><dc:format>image/svg+xml</dc:format><dc:type
           rdf:resource="http://purl.org/dc/dcmitype/StillImage" /><dc:title></dc:title></cc:Work></rdf:RDF></metadata><defs
     id="defs367" /><sodipodi:namedview
     pagecolor="#ffffff"
     bordercolor="#666666"
     borderopacity="1"
     objecttolerance="10"
     gridtolerance="10"
     guidetolerance="10"
     inkscape:pageopacity="0"
     inkscape:pageshadow="2"
     inkscape:window-width="2560"
     inkscape:window-height="1377"
     id="namedview365"
     showgrid="false"
     inkscape:zoom="9.5973579"
     inkscape:cx="91.089755"
     inkscape:cy="45.571554"
     inkscape:window-x="-8"
     inkscape:window-y="-8"
     inkscape:window-maximized="1"
     inkscape:current-layer="Layer_1"
     fit-margin-top="0"
     fit-margin-left="0"
     fit-margin-right="0"
     fit-margin-bottom="0" /><g
     id="silkscreen"><path
       d="M 165.39044,0.62528995 H 6.8831916 c -3.4566028,0 -6.25790165,2.83381405 -6.25790165,6.33168585 V 84.335354 c 0,3.495372 2.80129885,6.330437 6.25790165,6.330437 H 165.39044 c 3.45785,0 6.26166,-2.836316 6.26166,-6.330437 V 6.9557252 c 0,-3.4966212 -2.80381,-6.33043525 -6.26166,-6.33043525 z M 8.7953282,2.9000944 c 2.9413638,0 5.3262188,2.4061159 5.3262188,5.3712408 0,2.9638738 -2.382354,5.3687398 -5.3262188,5.3687398 -2.9451155,0 -5.3287208,-2.403615 -5.3287208,-5.3687398 0,-2.9638742 2.3836053,-5.3712408 5.3287208,-5.3712408 z m 0,85.7722716 c -2.9451155,0 -5.3287208,-2.401114 -5.3287208,-5.366238 0,-2.967627 2.3823546,-5.376243 5.3287208,-5.376243 2.9413638,0 5.3262188,2.408616 5.3262188,5.376243 0,2.965124 -2.384855,5.366238 -5.3262188,5.366238 z m 155.0931618,0 c -2.94386,0 -5.32746,-2.401114 -5.32746,-5.366238 0,-2.967627 2.38235,-5.376243 5.32746,-5.376243 2.94262,0 5.32622,2.408616 5.32622,5.376243 0,2.965124 -2.38485,5.366238 -5.32622,5.366238 z m 0,-75.032291 c -2.94386,0 -5.32746,-2.404866 -5.32746,-5.3687398 0,-2.9638742 2.38235,-5.3699902 5.32746,-5.3699902 2.94262,0 5.32622,2.4048653 5.32622,5.3699902 0,2.9626238 -2.38485,5.3687398 -5.32622,5.3687398 z"
       id="path2"
       inkscape:connector-curvature="0"
       style="fill:none;stroke:#000000;stroke-width:1.25057995;stroke-opacity:1" /><text
       transform="rotate(90)"
       y="-21.355082"
       x="10.61152"
       font-size="2.5"
       id="text244"
       style="font-style:normal;font-variant:normal;font-weight:normal;font-stretch:normal;font-size:4.38129616px;font-family:OCRA;-inkscape-font-specification:'OCRA, Normal';font-variant-ligatures:normal;font-variant-caps:normal;font-variant-numeric:normal;font-feature-settings:normal;text-align:start;writing-mode:lr-tb;text-anchor:start;fill:#000000;stroke-width:1.25057995">D0</text>
<text
       transform="rotate(90)"
       y="-30.368032"
       x="10.60902"
       font-size="2.5"
       id="text246"
       style="font-style:normal;font-variant:normal;font-weight:normal;font-stretch:normal;font-size:4.38129616px;font-family:OCRA;-inkscape-font-specification:'OCRA, Normal';font-variant-ligatures:normal;font-variant-caps:normal;font-variant-numeric:normal;font-feature-settings:normal;text-align:start;writing-mode:lr-tb;text-anchor:start;fill:#000000;stroke-width:1.25057995">D1</text>
<text
       transform="rotate(90)"
       y="-39.380989"
       x="10.60902"
       font-size="2.5"
       id="text248"
       style="font-style:normal;font-variant:normal;font-weight:normal;font-stretch:normal;font-size:4.38129616px;font-family:OCRA;-inkscape-font-specification:'OCRA, Normal';font-variant-ligatures:normal;font-variant-caps:normal;font-variant-numeric:normal;font-feature-settings:normal;text-align:start;writing-mode:lr-tb;text-anchor:start;fill:#000000;stroke-width:1.25057995">D2</text>
<text
       transform="rotate(90)"
       y="-48.39394"
       x="10.60902"
       font-size="2.5"
       id="text250"
       style="font-style:normal;font-variant:normal;font-weight:normal;font-stretch:normal;font-size:4.38129616px;font-family:OCRA;-inkscape-font-specification:'OCRA, Normal';font-variant-ligatures:normal;font-variant-caps:normal;font-variant-numeric:normal;font-feature-settings:normal;text-align:start;writing-mode:lr-tb;text-anchor:start;fill:#000000;stroke-width:1.25057995">D3</text>
<text
       transform="rotate(90)"
       y="-57.406891"
       x="10.6481"
       font-size="2.5"
       id="text252"
       style="font-style:normal;font-variant:normal;font-weight:normal;font-stretch:normal;font-size:4.38129616px;font-family:OCRA;-inkscape-font-specification:'OCRA, Normal';font-variant-ligatures:normal;font-variant-caps:normal;font-variant-numeric:normal;font-feature-settings:normal;text-align:start;writing-mode:lr-tb;text-anchor:start;fill:#000000;stroke-width:1.25057995">D4</text>
<text
       transform="rotate(90)"
       y="-66.419838"
       x="9.4793453"
       font-size="2.5"
       id="text254"
       style="font-style:normal;font-variant:normal;font-weight:normal;font-stretch:normal;font-size:4.38129616px;font-family:OCRA;-inkscape-font-specification:'OCRA, Normal';font-variant-ligatures:normal;font-variant-caps:normal;font-variant-numeric:normal;font-feature-settings:normal;text-align:start;writing-mode:lr-tb;text-anchor:start;fill:#000000;stroke-width:1.25057995">3V3</text>
<text
       transform="rotate(90)"
       y="-75.4328"
       x="9.4793453"
       font-size="2.5"
       id="text256"
       style="font-style:normal;font-variant:normal;font-weight:normal;font-stretch:normal;font-size:4.38129616px;font-family:OCRA;-inkscape-font-specification:'OCRA, Normal';font-variant-ligatures:normal;font-variant-caps:normal;font-variant-numeric:normal;font-feature-settings:normal;text-align:start;writing-mode:lr-tb;text-anchor:start;fill:#000000;stroke-width:1.25057995">GND</text>
<text
       transform="rotate(90)"
       y="-84.445747"
       x="10.61152"
       font-size="2.5"
       id="text258"
       style="font-style:normal;font-variant:normal;font-weight:normal;font-stretch:normal;font-size:4.38129616px;font-family:OCRA;-inkscape-font-specification:'OCRA, Normal';font-variant-ligatures:normal;font-variant-caps:normal;font-variant-numeric:normal;font-feature-settings:normal;text-align:start;writing-mode:lr-tb;text-anchor:start;fill:#000000;stroke-width:1.25057995">D5</text>
<text
       transform="rotate(90)"
       y="-93.458702"
       x="10.60902"
       font-size="2.5"
       id="text260"
       style="font-style:normal;font-variant:normal;font-weight:normal;font-stretch:normal;font-size:4.38129616px;font-family:OCRA;-inkscape-font-specification:'OCRA, Normal';font-variant-ligatures:normal;font-variant-caps:normal;font-variant-numeric:normal;font-feature-settings:normal;text-align:start;writing-mode:lr-tb;text-anchor:start;fill:#000000;stroke-width:1.25057995">D6</text>
<text
       transform="rotate(90)"
       y="-102.47166"
       x="10.61152"
       font-size="2.5"
       id="text262"
       style="font-style:normal;font-variant:normal;font-weight:normal;font-stretch:normal;font-size:4.38129616px;font-family:OCRA;-inkscape-font-specification:'OCRA, Normal';font-variant-ligatures:normal;font-variant-caps:normal;font-variant-numeric:normal;font-feature-settings:normal;text-align:start;writing-mode:lr-tb;text-anchor:start;fill:#000000;stroke-width:1.25057995">D7</text>
<text
       transform="rotate(90)"
       y="-111.4846"
       x="10.60902"
       font-size="2.5"
       id="text264"
       style="font-style:normal;font-variant:normal;font-weight:normal;font-stretch:normal;font-size:4.38129616px;font-family:OCRA;-inkscape-font-specification:'OCRA, Normal';font-variant-ligatures:normal;font-variant-caps:normal;font-variant-numeric:normal;font-feature-settings:normal;text-align:start;writing-mode:lr-tb;text-anchor:start;fill:#000000;stroke-width:1.25057995">D8</text>
<text
       transform="rotate(90)"
       y="-120.49757"
       x="10.61152"
       font-size="2.5"
       id="text266"
       style="font-style:normal;font-variant:normal;font-weight:normal;font-stretch:normal;font-size:4.38129616px;font-family:OCRA;-inkscape-font-specification:'OCRA, Normal';font-variant-ligatures:normal;font-variant-caps:normal;font-variant-numeric:normal;font-feature-settings:normal;text-align:start;writing-mode:lr-tb;text-anchor:start;fill:#000000;stroke-width:1.25057995">RX</text>
<text
       transform="rotate(90)"
       y="-129.51051"
       x="10.60902"
       font-size="2.5"
       id="text268"
       style="font-style:normal;font-variant:normal;font-weight:normal;font-stretch:normal;font-size:4.38129616px;font-family:OCRA;-inkscape-font-specification:'OCRA, Normal';font-variant-ligatures:normal;font-variant-caps:normal;font-variant-numeric:normal;font-feature-settings:normal;text-align:start;writing-mode:lr-tb;text-anchor:start;fill:#000000;stroke-width:1.25057995">TX</text>
<text
       transform="rotate(90)"
       y="-138.52347"
       x="9.4818459"
       font-size="2.5"
       id="text270"
       style="font-style:normal;font-variant:normal;font-weight:normal;font-stretch:normal;font-size:4.38129616px;font-family:OCRA;-inkscape-font-specification:'OCRA, Normal';font-variant-ligatures:normal;font-variant-caps:normal;font-variant-numeric:normal;font-feature-settings:normal;text-align:start;writing-mode:lr-tb;text-anchor:start;fill:#000000;stroke-width:1.25057995">GND</text>
<text
       transform="rotate(90)"
       y="-147.53644"
       x="9.4793453"
       font-size="2.5"
       id="text272"
       style="font-style:normal;font-variant:normal;font-weight:normal;font-stretch:normal;font-size:4.38129616px;font-family:OCRA;-inkscape-font-specification:'OCRA, Normal';font-variant-ligatures:normal;font-variant-caps:normal;font-variant-numeric:normal;font-feature-settings:normal;text-align:start;writing-mode:lr-tb;text-anchor:start;fill:#000000;stroke-width:1.25057995">3V3</text>
<text
       y="-147.53644"
       x="72.650406"
       transform="rotate(90)"
       font-size="2.5"
       id="text274"
       style="font-style:normal;font-variant:normal;font-weight:normal;font-stretch:normal;font-size:4.38129616px;font-family:OCRA;-inkscape-font-specification:'OCRA, Normal';font-variant-ligatures:normal;font-variant-caps:normal;font-variant-numeric:normal;font-feature-settings:normal;text-align:start;writing-mode:lr-tb;text-anchor:start;fill:#000000;stroke-width:1.25057995">Vin</text>
<text
       y="-138.52347"
       x="72.583183"
       transform="rotate(90)"
       font-size="2.5"
       id="text276"
       style="font-style:normal;font-variant:normal;font-weight:normal;font-stretch:normal;font-size:4.38129616px;font-family:OCRA;-inkscape-font-specification:'OCRA, Normal';font-variant-ligatures:normal;font-variant-caps:normal;font-variant-numeric:normal;font-feature-settings:normal;text-align:start;writing-mode:lr-tb;text-anchor:start;fill:#000000;stroke-width:1.25057995">GND</text>
<text
       y="-129.51051"
       x="72.583183"
       transform="rotate(90)"
       font-size="2.5"
       id="text278"
       style="font-style:normal;font-variant:normal;font-weight:normal;font-stretch:normal;font-size:4.38129616px;font-family:OCRA;-inkscape-font-specification:'OCRA, Normal';font-variant-ligatures:normal;font-variant-caps:normal;font-variant-numeric:normal;font-feature-settings:normal;text-align:start;writing-mode:lr-tb;text-anchor:start;fill:#000000;stroke-width:1.25057995">RST</text>
<text
       y="-120.49757"
       x="73.71286"
       transform="rotate(90)"
       font-size="2.5"
       id="text280"
       style="font-style:normal;font-variant:normal;font-weight:normal;font-stretch:normal;font-size:4.38129616px;font-family:OCRA;-inkscape-font-specification:'OCRA, Normal';font-variant-ligatures:normal;font-variant-caps:normal;font-variant-numeric:normal;font-feature-settings:normal;text-align:start;writing-mode:lr-tb;text-anchor:start;fill:#000000;stroke-width:1.25057995">EN</text>
<text
       y="-111.4846"
       x="72.583183"
       transform="rotate(90)"
       font-size="2.5"
       id="text282"
       style="font-style:normal;font-variant:normal;font-weight:normal;font-stretch:normal;font-size:4.38129616px;font-family:OCRA;-inkscape-font-specification:'OCRA, Normal';font-variant-ligatures:normal;font-variant-caps:normal;font-variant-numeric:normal;font-feature-settings:normal;text-align:start;writing-mode:lr-tb;text-anchor:start;fill:#000000;stroke-width:1.25057995">3V3</text>
<text
       y="-102.47166"
       x="72.583183"
       transform="rotate(90)"
       font-size="2.5"
       id="text284"
       style="font-style:normal;font-variant:normal;font-weight:normal;font-stretch:normal;font-size:4.38129616px;font-family:OCRA;-inkscape-font-specification:'OCRA, Normal';font-variant-ligatures:normal;font-variant-caps:normal;font-variant-numeric:normal;font-feature-settings:normal;text-align:start;writing-mode:lr-tb;text-anchor:start;fill:#000000;stroke-width:1.25057995">GND</text>
<text
       y="-93.458702"
       x="72.583183"
       transform="rotate(90)"
       font-size="2.5"
       id="text286"
       style="font-style:normal;font-variant:normal;font-weight:normal;font-stretch:normal;font-size:4.38129616px;font-family:OCRA;-inkscape-font-specification:'OCRA, Normal';font-variant-ligatures:normal;font-variant-caps:normal;font-variant-numeric:normal;font-feature-settings:normal;text-align:start;writing-mode:lr-tb;text-anchor:start;fill:#000000;stroke-width:1.25057995">CLK</text>
<text
       y="-84.445747"
       x="72.583183"
       transform="rotate(90)"
       font-size="2.5"
       id="text288"
       style="font-style:normal;font-variant:normal;font-weight:normal;font-stretch:normal;font-size:4.38129616px;font-family:OCRA;-inkscape-font-specification:'OCRA, Normal';font-variant-ligatures:normal;font-variant-caps:normal;font-variant-numeric:normal;font-feature-settings:normal;text-align:start;writing-mode:lr-tb;text-anchor:start;fill:#000000;stroke-width:1.25057995">SD0</text>
<text
       y="-75.4328"
       x="72.583183"
       transform="rotate(90)"
       font-size="2.5"
       id="text290"
       style="font-style:normal;font-variant:normal;font-weight:normal;font-stretch:normal;font-size:4.38129616px;font-family:OCRA;-inkscape-font-specification:'OCRA, Normal';font-variant-ligatures:normal;font-variant-caps:normal;font-variant-numeric:normal;font-feature-settings:normal;text-align:start;writing-mode:lr-tb;text-anchor:start;fill:#000000;stroke-width:1.25057995">CMD</text>
<text
       y="-66.419838"
       x="72.583183"
       transform="rotate(90)"
       font-size="2.5"
       id="text292"
       style="font-style:normal;font-variant:normal;font-weight:normal;font-stretch:normal;font-size:4.38129616px;font-family:OCRA;-inkscape-font-specification:'OCRA, Normal';font-variant-ligatures:normal;font-variant-caps:normal;font-variant-numeric:normal;font-feature-settings:normal;text-align:start;writing-mode:lr-tb;text-anchor:start;fill:#000000;stroke-width:1.25057995">SD1</text>
<text
       y="-57.406891"
       x="72.583183"
       transform="rotate(90)"
       font-size="2.5"
       id="text294"
       style="font-style:normal;font-variant:normal;font-weight:normal;font-stretch:normal;font-size:4.38129616px;font-family:OCRA;-inkscape-font-specification:'OCRA, Normal';font-variant-ligatures:normal;font-variant-caps:normal;font-variant-numeric:normal;font-feature-settings:normal;text-align:start;writing-mode:lr-tb;text-anchor:start;fill:#000000;stroke-width:1.25057995">SD2</text>
<text
       y="-48.39394"
       x="72.583183"
       transform="rotate(90)"
       font-size="2.5"
       id="text296"
       style="font-style:normal;font-variant:normal;font-weight:normal;font-stretch:normal;font-size:4.38129616px;font-family:OCRA;-inkscape-font-specification:'OCRA, Normal';font-variant-ligatures:normal;font-variant-caps:normal;font-variant-numeric:normal;font-feature-settings:normal;text-align:start;writing-mode:lr-tb;text-anchor:start;fill:#000000;stroke-width:1.25057995">SD3</text>
<text
       y="-39.380989"
       x="72.583183"
       transform="rotate(90)"
       font-size="2.5"
       id="text298"
       style="font-style:normal;font-variant:normal;font-weight:normal;font-stretch:normal;font-size:4.38129616px;font-family:OCRA;-inkscape-font-specification:'OCRA, Normal';font-variant-ligatures:normal;font-variant-caps:normal;font-variant-numeric:normal;font-feature-settings:normal;text-align:start;writing-mode:lr-tb;text-anchor:start;fill:#000000;stroke-width:1.25057995">RSV</text>
<text
       y="-30.368032"
       x="72.583183"
       transform="rotate(90)"
       font-size="2.5"
       id="text300"
       style="font-style:normal;font-variant:normal;font-weight:normal;font-stretch:normal;font-size:4.38129616px;font-family:OCRA;-inkscape-font-specification:'OCRA, Normal';font-variant-ligatures:normal;font-variant-caps:normal;font-variant-numeric:normal;font-feature-settings:normal;text-align:start;writing-mode:lr-tb;text-anchor:start;fill:#000000;stroke-width:1.25057995">RSV</text>
<text
       y="-21.355082"
       x="73.717545"
       transform="rotate(90)"
       font-size="2.5"
       id="text302"
       style="font-style:normal;font-variant:normal;font-weight:normal;font-stretch:normal;font-size:4.38129616px;font-family:OCRA;-inkscape-font-specification:'OCRA, Normal';font-variant-ligatures:normal;font-variant-caps:normal;font-variant-numeric:normal;font-feature-settings:normal;text-align:start;writing-mode:lr-tb;text-anchor:start;fill:#000000;stroke-width:1.25057995">A0</text>
<rect
       x="155.86353"
       y="32.014847"
       width="21.676302"
       height="27.303909"
       id="rect304"
       style="fill:none;stroke:#000000;stroke-width:1.25057995;stroke-opacity:1" /><circle
       cx="160.55319"
       cy="22.740545"
       r="3.4390945"
       id="circle308"
       style="fill:#231f20;stroke-width:1.25057995" /><circle
       cx="160.55319"
       cy="68.760628"
       r="3.4390945"
       id="circle312"
       style="fill:#231f20;stroke-width:1.25057995" /><text
       y="168.47726"
       x="-29.311144"
       transform="rotate(-90)"
       font-size="2.5"
       id="text314"
       style="font-style:normal;font-variant:normal;font-weight:normal;font-stretch:normal;font-size:3.75539708px;font-family:OCRA;-inkscape-font-specification:'OCRA, Normal';font-variant-ligatures:normal;font-variant-caps:normal;font-variant-numeric:normal;font-feature-settings:normal;text-align:start;writing-mode:lr-tb;text-anchor:start;fill:#000000;stroke-width:1.25057995">FLASH</text>
<text
       y="168.4749"
       x="-72.873833"
       transform="rotate(-90)"
       font-size="2.5"
       id="text316"
       style="font-style:normal;font-variant:normal;font-weight:normal;font-stretch:normal;font-size:3.75539708px;font-family:OCRA;-inkscape-font-specification:'OCRA, Normal';font-variant-ligatures:normal;font-variant-caps:normal;font-variant-numeric:normal;font-feature-settings:normal;text-align:start;writing-mode:lr-tb;text-anchor:start;fill:#000000;stroke-width:1.25057995">RST</text>
<path
       id="rect318"
       d="m 26.428975,20.550165 v 0.625288 46.023784 H 22.893621 V 38.166424 H 21.254302 V 67.199237 H 5.515741 v -4.512711 h 10.43553 v 0.0019 h 1.641152 v -0.0019 -6.216209 H 5.3525426 V 53.171509 H 17.592423 V 51.710058 46.951633 H 5.3525426 V 43.654658 H 17.592423 v -1.46145 -4.756593 H 5.2205169 V 24.096521 H 3.5793645 V 38.896233 H 15.951271 v 3.296975 H 3.7113901 v 6.219876 H 15.951271 v 3.296974 H 5.3525426 3.7113901 v 1.461451 3.298808 1.459617 0.0037 h 1.6411525 v -0.0037 H 15.951271 v 3.295141 H 3.8764222 v 7.435613 H 5.515741 26.428975 v 1.954713 H 82.079631 V 20.550165 Z m 1.250576,1.250577 H 80.829054 V 69.364825 H 27.679551 Z"
       style="color:#000000;font-style:normal;font-variant:normal;font-weight:normal;font-stretch:normal;font-size:medium;line-height:normal;font-family:sans-serif;font-variant-ligatures:normal;font-variant-position:normal;font-variant-caps:normal;font-variant-numeric:normal;font-variant-alternates:normal;font-feature-settings:normal;text-indent:0;text-align:start;text-decoration:none;text-decoration-line:none;text-decoration-style:solid;text-decoration-color:#000000;letter-spacing:normal;word-spacing:normal;text-transform:none;writing-mode:lr-tb;direction:ltr;text-orientation:mixed;dominant-baseline:auto;baseline-shift:baseline;text-anchor:start;white-space:normal;shape-padding:0;clip-rule:nonzero;display:inline;overflow:visible;visibility:visible;opacity:1;isolation:auto;mix-blend-mode:normal;color-interpolation:sRGB;color-interpolation-filters:linearRGB;solid-color:#000000;solid-opacity:1;vector-effect:none;fill:#000000;fill-opacity:1;fill-rule:nonzero;stroke:none;stroke-width:1.25057995;stroke-linecap:butt;stroke-linejoin:miter;stroke-miterlimit:4;stroke-dasharray:none;stroke-dashoffset:0;stroke-opacity:1;color-rendering:auto;image-rendering:auto;shape-rendering:auto;text-rendering:auto;enable-background:accumulate"
       inkscape:connector-curvature="0" /><text
       style="font-size:15.00695801px;fill:#000000;stroke-width:1.25057983"
       y="56.309361"
       x="32.854767"
       id="text360-4"><tspan
         style="font-size:8.75405884px;font-family:OCRA;fill:#000000;stroke-width:1.25057983"
         id="tspan356-0"
         font-size="7"
         y="56.309361"
         x="32.854767">NodeMCU</tspan><tspan
         style="font-size:8.75405884px;font-family:OCRA;fill:#000000;stroke-width:1.25057983"
         id="tspan358-8"
         font-size="7"
         y="66.814232"
         x="32.854767">V1.0</tspan></text>
<text
       style="font-size:5.00231934px;font-family:OCRA;fill:#000000;stroke-width:1.25057983"
       y="28.034002"
       x="31.620066"
       id="text362-9"
       font-size="4">blog.squix.ch</text>
</g><g
     id="g906"
     transform="matrix(0.07510794,0,0,0.07510794,-208.4167,-100.41524)"><g
       id="g908" /></g><g
     id="g912"
     transform="matrix(0.07510794,0,0,0.07510794,-208.4167,-100.41524)" /><g
     id="g920"
     transform="matrix(0.07510794,0,0,0.07510794,-208.4167,-100.41524)" /><g
     id="g926"
     transform="matrix(0.07510794,0,0,0.07510794,-208.4167,-100.41524)" /><g
     id="g932"
     transform="matrix(0.07510794,0,0,0.07510794,-208.4167,-100.41524)" /><g
     id="g938"
     transform="matrix(0.07510794,0,0,0.07510794,-208.4167,-100.41524)" /><g
     id="g944"
     transform="matrix(0.07510794,0,0,0.07510794,-208.4167,-100.41524)" /><g
     id="g950"
     transform="matrix(0.07510794,0,0,0.07510794,-208.4167,-100.41524)" /><g
     id="g956"
     transform="matrix(0.07510794,0,0,0.07510794,-208.4167,-100.41524)" /><g
     id="g962"
     transform="matrix(0.07510794,0,0,0.07510794,-208.4167,-100.41524)" /><g
     id="g968"
     transform="matrix(0.07510794,0,0,0.07510794,-208.4167,-100.41524)" /><g
     id="g974"
     transform="matrix(0.07510794,0,0,0.07510794,-208.4167,-100.41524)" /><g
     id="g980"
     transform="matrix(0.07510794,0,0,0.07510794,-208.4167,-100.41524)" /><g
     id="g986"
     transform="matrix(0.07510794,0,0,0.07510794,-208.4167,-100.41524)" /><g
     id="g992"
     transform="matrix(0.07510794,0,0,0.07510794,-208.4167,-100.41524)" /><g
     id="g998"
     transform="matrix(0.07510794,0,0,0.07510794,-208.4167,-100.41524)" /><g
     id="g1004"
     transform="matrix(0.07510794,0,0,0.07510794,-208.4167,-100.41524)" /><g
     id="g1010"
     transform="matrix(0.07510794,0,0,0.07510794,-208.4167,-100.41524)" /><g
     id="g1016"
     transform="matrix(0.07510794,0,0,0.07510794,-208.4167,-100.41524)" /><g
     id="g1022"
     transform="matrix(0.07510794,0,0,0.07510794,-208.4167,-100.41524)" /><g
     id="g1028"
     transform="matrix(0.07510794,0,0,0.07510794,-208.4167,-100.41524)" /><g
     id="g1034"
     transform="matrix(0.07510794,0,0,0.07510794,-208.4167,-100.41524)" /><g
     id="g1040"
     transform="matrix(0.07510794,0,0,0.07510794,-208.4167,-100.41524)" /><g
     id="g1046"
     transform="matrix(0.07510794,0,0,0.07510794,-208.4167,-100.41524)" /><g
     id="g1052"
     transform="matrix(0.07510794,0,0,0.07510794,-208.4167,-100.41524)" /><g
     id="g1058"
     transform="matrix(0.07510794,0,0,0.07510794,-208.4167,-100.41524)" /><g
     id="g1064"
     transform="matrix(0.07510794,0,0,0.07510794,-208.4167,-100.41524)" /><g
     id="g1070"
     transform="matrix(0.07510794,0,0,0.07510794,-208.4167,-100.41524)" /><g
     id="g1076"
     transform="matrix(0.07510794,0,0,0.07510794,-208.4167,-100.41524)" /><g
     id="g1082"
     transform="matrix(0.07510794,0,0,0.07510794,-208.4167,-100.41524)" /><g
     id="g1088"
     transform="matrix(0.07510794,0,0,0.07510794,-208.4167,-100.41524)" /><g
     id="g1102"
     transform="matrix(0.07510794,0,0,0.07510794,-208.4167,-100.41524)" /><g
     id="g1108"
     transform="matrix(0.07510794,0,0,0.07510794,-208.4167,-100.41524)" /><g
     id="g1114"
     transform="matrix(0.07510794,0,0,0.07510794,-208.4167,-100.41524)" /><g
     id="g1128"
     transform="matrix(0.07510794,0,0,0.07510794,-208.4167,-100.41524)" /><g
     id="g1134"
     transform="matrix(0.07510794,0,0,0.07510794,-208.4167,-100.41524)" /><g
     id="g1140"
     transform="matrix(0.07510794,0,0,0.07510794,-208.4167,-100.41524)" /><g
     id="g1146"
     transform="matrix(0.07510794,0,0,0.07510794,-208.4167,-100.41524)" /><g
     id="g1152"
     transform="matrix(0.07510794,0,0,0.07510794,-208.4167,-100.41524)" /><g
     id="g1158"
     transform="matrix(0.07510794,0,0,0.07510794,-208.4167,-100.41524)" /><g
     id="g1164"
     transform="matrix(0.07510794,0,0,0.07510794,-208.4167,-100.41524)" /><g
     id="g1170"
     transform="matrix(0.07510794,0,0,0.07510794,-208.4167,-100.41524)" /><g
     id="g1176"
     transform="matrix(0.07510794,0,0,0.07510794,-208.4167,-100.41524)" /><g
     id="g1182"
     transform="matrix(0.07510794,0,0,0.07510794,-208.4167,-100.41524)" /><g
     id="g1188"
     transform="matrix(0.07510794,0,0,0.07510794,-208.4167,-100.41524)" /><g
     id="g1194"
     transform="matrix(0.07510794,0,0,0.07510794,-208.4167,-100.41524)" /><g
     id="g1200"
     transform="matrix(0.07510794,0,0,0.07510794,-208.4167,-100.41524)" /><g
     id="g1206"
     transform="matrix(0.07510794,0,0,0.07510794,-208.4167,-100.41524)" /><g
     id="g1212"
     transform="matrix(0.07510794,0,0,0.07510794,-208.4167,-100.41524)" /><g
     id="g1218"
     transform="matrix(0.07510794,0,0,0.07510794,-208.4167,-100.41524)" /><g
     id="g1224"
     transform="matrix(0.07510794,0,0,0.07510794,-208.4167,-100.41524)" /><g
     id="g1230"
     transform="matrix(0.07510794,0,0,0.07510794,-208.4167,-100.41524)" /><g
     id="g1236"
     transform="matrix(0.07510794,0,0,0.07510794,-208.4167,-100.41524)" /><g
     id="g1242"
     transform="matrix(0.07510794,0,0,0.07510794,-208.4167,-100.41524)" /><g
     id="g1248"
     transform="matrix(0.07510794,0,0,0.07510794,-208.4167,-100.41524)" /><g
     id="g1254"
     transform="matrix(0.07510794,0,0,0.07510794,-208.4167,-100.41524)" /><g
     id="g1260"
     transform="matrix(0.07510794,0,0,0.07510794,-208.4167,-100.41524)" /><g
     id="g1266"
     transform="matrix(0.07510794,0,0,0.07510794,-208.4167,-100.41524)" /><g
     id="g1272"
     transform="matrix(0.07510794,0,0,0.07510794,-208.4167,-100.41524)" /><g
     id="g1278"
     transform="matrix(0.07510794,0,0,0.07510794,-208.4167,-100.41524)" /><g
     id="g1284"
     transform="matrix(0.07510794,0,0,0.07510794,-208.4167,-100.41524)" /><g
     id="g1290"
     transform="matrix(0.07510794,0,0,0.07510794,-208.4167,-100.41524)" /><g
     id="g1296"
     transform="matrix(0.07510794,0,0,0.07510794,-208.4167,-100.41524)" /><g
     id="g1302"
     transform="matrix(0.07510794,0,0,0.07510794,-208.4167,-100.41524)" /><g
     id="g1308"
     transform="matrix(0.07510794,0,0,0.07510794,-208.4167,-100.41524)" /><g
     id="g1314"
     transform="matrix(0.07510794,0,0,0.07510794,-208.4167,-100.41524)" /><g
     id="g1320"
     transform="matrix(0.07510794,0,0,0.07510794,-208.4167,-100.41524)" /><g
     id="g1326"
     transform="matrix(0.07510794,0,0,0.07510794,-208.4167,-100.41524)" /><g
     id="g1332"
     transform="matrix(0.07510794,0,0,0.07510794,-208.4167,-100.41524)" /><g
     id="g1338"
     transform="matrix(0.07510794,0,0,0.07510794,-208.4167,-100.41524)" /><g
     id="g1344"
     transform="matrix(0.07510794,0,0,0.07510794,-208.4167,-100.41524)" /><g
     id="g1350"
     transform="matrix(0.07510794,0,0,0.07510794,-208.4167,-100.41524)" /><g
     id="g1356"
     transform="matrix(0.07510794,0,0,0.07510794,-208.4167,-100.41524)" /><g
     id="g1362"
     transform="matrix(0.07510794,0,0,0.07510794,-208.4167,-100.41524)" /><g
     id="g1368"
     transform="matrix(0.07510794,0,0,0.07510794,-208.4167,-100.41524)" /><g
     id="g1374"
     transform="matrix(0.07510794,0,0,0.07510794,-208.4167,-100.41524)" /><g
     id="g1380"
     transform="matrix(0.07510794,0,0,0.07510794,-208.4167,-100.41524)" /><g
     id="g1386"
     transform="matrix(0.07510794,0,0,0.07510794,-208.4167,-100.41524)" /><g
     id="g1392"
     transform="matrix(0.07510794,0,0,0.07510794,-208.4167,-100.41524)" /><g
     id="g1398"
     transform="matrix(0.07510794,0,0,0.07510794,-208.4167,-100.41524)" /><g
     id="g1404"
     transform="matrix(0.07510794,0,0,0.07510794,-208.4167,-100.41524)" /><g
     id="g1410"
     transform="matrix(0.07510794,0,0,0.07510794,-208.4167,-100.41524)" /><g
     id="g1416"
     transform="matrix(0.07510794,0,0,0.07510794,-208.4167,-100.41524)" /><g
     id="g1422"
     transform="matrix(0.07510794,0,0,0.07510794,-208.4167,-100.41524)" /><g
     id="g1428"
     transform="matrix(0.07510794,0,0,0.07510794,-208.4167,-100.41524)" /><g
     id="g1434"
     transform="matrix(0.07510794,0,0,0.07510794,-208.4167,-100.41524)" /><g
     id="g1440"
     transform="matrix(0.07510794,0,0,0.07510794,-208.4167,-100.41524)" /><g
     id="g1446"
     transform="matrix(0.07510794,0,0,0.07510794,-208.4167,-100.41524)" /><g
     id="g1452"
     transform="matrix(0.07510794,0,0,0.07510794,-208.4167,-100.41524)" /><g
     id="g1458"
     transform="matrix(0.07510794,0,0,0.07510794,-208.4167,-100.41524)" /><g
     id="g1464"
     transform="matrix(0.07510794,0,0,0.07510794,-208.4167,-100.41524)" /><g
     id="g1470"
     transform="matrix(0.07510794,0,0,0.07510794,-208.4167,-100.41524)" /><g
     id="g1476"
     transform="matrix(0.07510794,0,0,0.07510794,-208.4167,-100.41524)" /><g
     id="g1482"
     transform="matrix(0.07510794,0,0,0.07510794,-208.4167,-100.41524)" /><g
     id="g1488"
     transform="matrix(0.07510794,0,0,0.07510794,-208.4167,-100.41524)" /><g
     id="g1494"
     transform="matrix(0.07510794,0,0,0.07510794,-208.4167,-100.41524)" /><g
     id="g1500"
     transform="matrix(0.07510794,0,0,0.07510794,-208.4167,-100.41524)" /><g
     id="g1506"
     transform="matrix(0.07510794,0,0,0.07510794,-208.4167,-100.41524)" /><g
     id="g1512"
     transform="matrix(0.07510794,0,0,0.07510794,-208.4167,-100.41524)" /><g
     id="g1518"
     transform="matrix(0.07510794,0,0,0.07510794,-208.4167,-100.41524)" /><g
     id="g1524"
     transform="matrix(0.07510794,0,0,0.07510794,-208.4167,-100.41524)" /><g
     id="g1530"
     transform="matrix(0.07510794,0,0,0.07510794,-208.4167,-100.41524)" /><g
     id="g1646"
     transform="matrix(0.07510794,0,0,0.07510794,-208.4167,-100.41524)" /><g
     id="copper1"><g
       id="copper0"><path
         inkscape:connector-curvature="0"
         id="path3231"
         style="fill:none;stroke:#ffbf00;stroke-width:1.75752664;stroke-linecap:butt;stroke-linejoin:miter;stroke-miterlimit:4;stroke-dasharray:none;stroke-opacity:1"
         d="m 22.977419,83.795919 c 1.356431,0 2.456034,1.099603 2.456034,2.456024 0,1.356431 -1.099603,2.45603 -2.456034,2.45603 -1.356431,0 -2.456035,-1.099599 -2.456035,-2.45603 0,-1.356421 1.099604,-2.456024 2.456035,-2.456024 z" /><path
         d="m 31.990372,83.795919 c 1.35643,0 2.456034,1.099603 2.456034,2.456024 0,1.356431 -1.099604,2.45603 -2.456034,2.45603 -1.356431,0 -2.456035,-1.099599 -2.456035,-2.45603 0,-1.356421 1.099604,-2.456024 2.456035,-2.456024 z"
         style="fill:none;stroke:#ffbf00;stroke-width:1.75752664;stroke-linecap:butt;stroke-linejoin:miter;stroke-miterlimit:4;stroke-dasharray:none;stroke-opacity:1"
         id="path3233"
         inkscape:connector-curvature="0" /><path
         inkscape:connector-curvature="0"
         id="path3235"
         style="fill:none;stroke:#ffbf00;stroke-width:1.75752664;stroke-linecap:butt;stroke-linejoin:miter;stroke-miterlimit:4;stroke-dasharray:none;stroke-opacity:1"
         d="m 41.003325,83.795919 c 1.35643,0 2.456034,1.099603 2.456034,2.456024 0,1.356431 -1.099604,2.45603 -2.456034,2.45603 -1.356431,0 -2.456036,-1.099599 -2.456036,-2.45603 0,-1.356421 1.099605,-2.456024 2.456036,-2.456024 z" /><path
         d="m 50.016277,83.795919 c 1.356431,0 2.456035,1.099603 2.456035,2.456024 0,1.356431 -1.099604,2.45603 -2.456035,2.45603 -1.35643,0 -2.456035,-1.099599 -2.456035,-2.45603 0,-1.356421 1.099605,-2.456024 2.456035,-2.456024 z"
         style="fill:none;stroke:#ffbf00;stroke-width:1.75752664;stroke-linecap:butt;stroke-linejoin:miter;stroke-miterlimit:4;stroke-dasharray:none;stroke-opacity:1"
         id="path3237"
         inkscape:connector-curvature="0" /><path
         inkscape:connector-curvature="0"
         id="path3239"
         style="fill:none;stroke:#ffbf00;stroke-width:1.75752664;stroke-linecap:butt;stroke-linejoin:miter;stroke-miterlimit:4;stroke-dasharray:none;stroke-opacity:1"
         d="m 59.02923,83.795919 c 1.356431,0 2.456035,1.099603 2.456035,2.456024 0,1.356431 -1.099604,2.45603 -2.456035,2.45603 -1.35643,0 -2.456035,-1.099599 -2.456035,-2.45603 0,-1.356421 1.099605,-2.456024 2.456035,-2.456024 z" /><path
         d="m 68.042183,83.795919 c 1.356431,0 2.456034,1.099603 2.456034,2.456024 0,1.356431 -1.099603,2.45603 -2.456034,2.45603 -1.356431,0 -2.456035,-1.099599 -2.456035,-2.45603 0,-1.356421 1.099604,-2.456024 2.456035,-2.456024 z"
         style="fill:none;stroke:#ffbf00;stroke-width:1.75752664;stroke-linecap:butt;stroke-linejoin:miter;stroke-miterlimit:4;stroke-dasharray:none;stroke-opacity:1"
         id="path3241"
         inkscape:connector-curvature="0" /><path
         inkscape:connector-curvature="0"
         id="path3243"
         style="fill:none;stroke:#ffbf00;stroke-width:1.75752664;stroke-linecap:butt;stroke-linejoin:miter;stroke-miterlimit:4;stroke-dasharray:none;stroke-opacity:1"
         d="m 77.055136,83.795919 c 1.35643,0 2.456034,1.099603 2.456034,2.456024 0,1.356431 -1.099604,2.45603 -2.456034,2.45603 -1.356431,0 -2.456035,-1.099599 -2.456035,-2.45603 0,-1.356421 1.099604,-2.456024 2.456035,-2.456024 z" /><path
         d="m 86.068089,83.795919 c 1.35643,0 2.456034,1.099603 2.456034,2.456024 0,1.356431 -1.099604,2.45603 -2.456034,2.45603 -1.356431,0 -2.456036,-1.099599 -2.456036,-2.45603 0,-1.356421 1.099605,-2.456024 2.456036,-2.456024 z"
         style="fill:none;stroke:#ffbf00;stroke-width:1.75752664;stroke-linecap:butt;stroke-linejoin:miter;stroke-miterlimit:4;stroke-dasharray:none;stroke-opacity:1"
         id="path3245"
         inkscape:connector-curvature="0" /><path
         inkscape:connector-curvature="0"
         id="path3247"
         style="fill:none;stroke:#ffbf00;stroke-width:1.75752664;stroke-linecap:butt;stroke-linejoin:miter;stroke-miterlimit:4;stroke-dasharray:none;stroke-opacity:1"
         d="m 95.081043,83.795919 c 1.356431,0 2.45603,1.099603 2.45603,2.456024 0,1.356431 -1.099599,2.45603 -2.45603,2.45603 -1.356432,0 -2.456037,-1.099599 -2.456037,-2.45603 0,-1.356421 1.099605,-2.456024 2.456037,-2.456024 z" /><path
         d="m 104.094,83.795919 c 1.35643,0 2.45603,1.099603 2.45603,2.456024 0,1.356431 -1.0996,2.45603 -2.45603,2.45603 -1.35643,0 -2.45604,-1.099599 -2.45604,-2.45603 0,-1.356421 1.09961,-2.456024 2.45604,-2.456024 z"
         style="fill:none;stroke:#ffbf00;stroke-width:1.75752664;stroke-linecap:butt;stroke-linejoin:miter;stroke-miterlimit:4;stroke-dasharray:none;stroke-opacity:1"
         id="path3249"
         inkscape:connector-curvature="0" /><path
         inkscape:connector-curvature="0"
         id="path3251"
         style="fill:none;stroke:#ffbf00;stroke-width:1.75752664;stroke-linecap:butt;stroke-linejoin:miter;stroke-miterlimit:4;stroke-dasharray:none;stroke-opacity:1"
         d="m 113.10695,83.795919 c 1.35643,0 2.45603,1.099603 2.45603,2.456024 0,1.356431 -1.0996,2.45603 -2.45603,2.45603 -1.35643,0 -2.45604,-1.099599 -2.45604,-2.45603 0,-1.356421 1.09961,-2.456024 2.45604,-2.456024 z" /><path
         d="m 122.1199,83.795919 c 1.35643,0 2.45603,1.099603 2.45603,2.456024 0,1.356431 -1.0996,2.45603 -2.45603,2.45603 -1.35643,0 -2.45604,-1.099599 -2.45604,-2.45603 0,-1.356421 1.09961,-2.456024 2.45604,-2.456024 z"
         style="fill:none;stroke:#ffbf00;stroke-width:1.75752664;stroke-linecap:butt;stroke-linejoin:miter;stroke-miterlimit:4;stroke-dasharray:none;stroke-opacity:1"
         id="path3253"
         inkscape:connector-curvature="0" /><path
         inkscape:connector-curvature="0"
         id="path3255"
         style="fill:none;stroke:#ffbf00;stroke-width:1.75752664;stroke-linecap:butt;stroke-linejoin:miter;stroke-miterlimit:4;stroke-dasharray:none;stroke-opacity:1"
         d="m 131.13285,83.795919 c 1.35644,0 2.45603,1.099603 2.45603,2.456024 0,1.356431 -1.09959,2.45603 -2.45603,2.45603 -1.35643,0 -2.45603,-1.099599 -2.45603,-2.45603 0,-1.356421 1.0996,-2.456024 2.45603,-2.456024 z" /><path
         d="m 140.14581,83.795919 c 1.35643,0 2.45603,1.099603 2.45603,2.456024 0,1.356431 -1.0996,2.45603 -2.45603,2.45603 -1.35643,0 -2.45604,-1.099599 -2.45604,-2.45603 0,-1.356421 1.09961,-2.456024 2.45604,-2.456024 z"
         style="fill:none;stroke:#ffbf00;stroke-width:1.75752664;stroke-linecap:butt;stroke-linejoin:miter;stroke-miterlimit:4;stroke-dasharray:none;stroke-opacity:1"
         id="path3257"
         inkscape:connector-curvature="0" /><path
         inkscape:connector-curvature="0"
         id="path3259"
         style="fill:none;stroke:#ffbf00;stroke-width:1.75752664;stroke-linecap:butt;stroke-linejoin:miter;stroke-miterlimit:4;stroke-dasharray:none;stroke-opacity:1"
         d="m 149.15876,83.795919 c 1.35643,0 2.45603,1.099603 2.45603,2.456024 0,1.356431 -1.0996,2.45603 -2.45603,2.45603 -1.35643,0 -2.45604,-1.099599 -2.45604,-2.45603 0,-1.356421 1.09961,-2.456024 2.45604,-2.456024 z" /><path
         d="m 22.977419,2.6927228 c 1.356431,0 2.456034,1.0996027 2.456034,2.456024 0,1.3564306 -1.099603,2.4560296 -2.456034,2.4560296 -1.356431,0 -2.456035,-1.099599 -2.456035,-2.4560296 0,-1.3564213 1.099604,-2.456024 2.456035,-2.456024 z"
         style="fill:none;stroke:#ffbf00;stroke-width:1.75752664;stroke-linecap:butt;stroke-linejoin:miter;stroke-miterlimit:4;stroke-dasharray:none;stroke-opacity:1"
         id="path3278"
         inkscape:connector-curvature="0" /><path
         inkscape:connector-curvature="0"
         id="path3280"
         style="fill:none;stroke:#ffbf00;stroke-width:1.75752664;stroke-linecap:butt;stroke-linejoin:miter;stroke-miterlimit:4;stroke-dasharray:none;stroke-opacity:1"
         d="m 31.990372,2.6927228 c 1.35643,0 2.456034,1.0996027 2.456034,2.456024 0,1.3564306 -1.099604,2.4560296 -2.456034,2.4560296 -1.356431,0 -2.456035,-1.099599 -2.456035,-2.4560296 0,-1.3564213 1.099604,-2.456024 2.456035,-2.456024 z" /><path
         d="m 41.003325,2.6927228 c 1.35643,0 2.456034,1.0996027 2.456034,2.456024 0,1.3564306 -1.099604,2.4560296 -2.456034,2.4560296 -1.356431,0 -2.456036,-1.099599 -2.456036,-2.4560296 0,-1.3564213 1.099605,-2.456024 2.456036,-2.456024 z"
         style="fill:none;stroke:#ffbf00;stroke-width:1.75752664;stroke-linecap:butt;stroke-linejoin:miter;stroke-miterlimit:4;stroke-dasharray:none;stroke-opacity:1"
         id="path3282"
         inkscape:connector-curvature="0" /><path
         inkscape:connector-curvature="0"
         id="path3284"
         style="fill:none;stroke:#ffbf00;stroke-width:1.75752664;stroke-linecap:butt;stroke-linejoin:miter;stroke-miterlimit:4;stroke-dasharray:none;stroke-opacity:1"
         d="m 50.016277,2.6927228 c 1.356431,0 2.456035,1.0996027 2.456035,2.456024 0,1.3564306 -1.099604,2.4560296 -2.456035,2.4560296 -1.35643,0 -2.456035,-1.099599 -2.456035,-2.4560296 0,-1.3564213 1.099605,-2.456024 2.456035,-2.456024 z" /><path
         d="m 59.02923,2.6927228 c 1.356431,0 2.456035,1.0996027 2.456035,2.456024 0,1.3564306 -1.099604,2.4560296 -2.456035,2.4560296 -1.35643,0 -2.456035,-1.099599 -2.456035,-2.4560296 0,-1.3564213 1.099605,-2.456024 2.456035,-2.456024 z"
         style="fill:none;stroke:#ffbf00;stroke-width:1.75752664;stroke-linecap:butt;stroke-linejoin:miter;stroke-miterlimit:4;stroke-dasharray:none;stroke-opacity:1"
         id="path3286"
         inkscape:connector-curvature="0" /><path
         inkscape:connector-curvature="0"
         id="path3288"
         style="fill:none;stroke:#ffbf00;stroke-width:1.75752664;stroke-linecap:butt;stroke-linejoin:miter;stroke-miterlimit:4;stroke-dasharray:none;stroke-opacity:1"
         d="m 68.042183,2.6927228 c 1.356431,0 2.456034,1.0996027 2.456034,2.456024 0,1.3564306 -1.099603,2.4560296 -2.456034,2.4560296 -1.356431,0 -2.456035,-1.099599 -2.456035,-2.4560296 0,-1.3564213 1.099604,-2.456024 2.456035,-2.456024 z" /><path
         d="m 77.055136,2.6927228 c 1.35643,0 2.456034,1.0996027 2.456034,2.456024 0,1.3564306 -1.099604,2.4560296 -2.456034,2.4560296 -1.356431,0 -2.456035,-1.099599 -2.456035,-2.4560296 0,-1.3564213 1.099604,-2.456024 2.456035,-2.456024 z"
         style="fill:none;stroke:#ffbf00;stroke-width:1.75752664;stroke-linecap:butt;stroke-linejoin:miter;stroke-miterlimit:4;stroke-dasharray:none;stroke-opacity:1"
         id="path3290"
         inkscape:connector-curvature="0" /><path
         inkscape:connector-curvature="0"
         id="path3292"
         style="fill:none;stroke:#ffbf00;stroke-width:1.75752664;stroke-linecap:butt;stroke-linejoin:miter;stroke-miterlimit:4;stroke-dasharray:none;stroke-opacity:1"
         d="m 86.068089,2.6927228 c 1.35643,0 2.456034,1.0996027 2.456034,2.456024 0,1.3564306 -1.099604,2.4560296 -2.456034,2.4560296 -1.356431,0 -2.456036,-1.099599 -2.456036,-2.4560296 0,-1.3564213 1.099605,-2.456024 2.456036,-2.456024 z" /><path
         d="m 95.081043,2.6927228 c 1.356431,0 2.45603,1.0996027 2.45603,2.456024 0,1.3564306 -1.099599,2.4560296 -2.45603,2.4560296 -1.356432,0 -2.456037,-1.099599 -2.456037,-2.4560296 0,-1.3564213 1.099605,-2.456024 2.456037,-2.456024 z"
         style="fill:none;stroke:#ffbf00;stroke-width:1.75752664;stroke-linecap:butt;stroke-linejoin:miter;stroke-miterlimit:4;stroke-dasharray:none;stroke-opacity:1"
         id="path3294"
         inkscape:connector-curvature="0" /><path
         inkscape:connector-curvature="0"
         id="path3296"
         style="fill:none;stroke:#ffbf00;stroke-width:1.75752664;stroke-linecap:butt;stroke-linejoin:miter;stroke-miterlimit:4;stroke-dasharray:none;stroke-opacity:1"
         d="m 104.094,2.6927228 c 1.35643,0 2.45603,1.0996027 2.45603,2.456024 0,1.3564306 -1.0996,2.4560296 -2.45603,2.4560296 -1.35643,0 -2.45604,-1.099599 -2.45604,-2.4560296 0,-1.3564213 1.09961,-2.456024 2.45604,-2.456024 z" /><path
         d="m 113.10695,2.6927228 c 1.35643,0 2.45603,1.0996027 2.45603,2.456024 0,1.3564306 -1.0996,2.4560296 -2.45603,2.4560296 -1.35643,0 -2.45604,-1.099599 -2.45604,-2.4560296 0,-1.3564213 1.09961,-2.456024 2.45604,-2.456024 z"
         style="fill:none;stroke:#ffbf00;stroke-width:1.75752664;stroke-linecap:butt;stroke-linejoin:miter;stroke-miterlimit:4;stroke-dasharray:none;stroke-opacity:1"
         id="path3298"
         inkscape:connector-curvature="0" /><path
         inkscape:connector-curvature="0"
         id="path3300"
         style="fill:none;stroke:#ffbf00;stroke-width:1.75752664;stroke-linecap:butt;stroke-linejoin:miter;stroke-miterlimit:4;stroke-dasharray:none;stroke-opacity:1"
         d="m 122.1199,2.6927228 c 1.35643,0 2.45603,1.0996027 2.45603,2.456024 0,1.3564306 -1.0996,2.4560296 -2.45603,2.4560296 -1.35643,0 -2.45604,-1.099599 -2.45604,-2.4560296 0,-1.3564213 1.09961,-2.456024 2.45604,-2.456024 z" /><path
         d="m 131.13285,2.6927228 c 1.35644,0 2.45603,1.0996027 2.45603,2.456024 0,1.3564306 -1.09959,2.4560296 -2.45603,2.4560296 -1.35643,0 -2.45603,-1.099599 -2.45603,-2.4560296 0,-1.3564213 1.0996,-2.456024 2.45603,-2.456024 z"
         style="fill:none;stroke:#ffbf00;stroke-width:1.75752664;stroke-linecap:butt;stroke-linejoin:miter;stroke-miterlimit:4;stroke-dasharray:none;stroke-opacity:1"
         id="path3302"
         inkscape:connector-curvature="0" /><path
         inkscape:connector-curvature="0"
         id="path3304"
         style="fill:none;stroke:#ffbf00;stroke-width:1.75752664;stroke-linecap:butt;stroke-linejoin:miter;stroke-miterlimit:4;stroke-dasharray:none;stroke-opacity:1"
         d="m 140.14581,2.6927228 c 1.35643,0 2.45603,1.0996027 2.45603,2.456024 0,1.3564306 -1.0996,2.4560296 -2.45603,2.4560296 -1.35643,0 -2.45604,-1.099599 -2.45604,-2.4560296 0,-1.3564213 1.09961,-2.456024 2.45604,-2.456024 z" /><path
         d="m 149.15876,2.6927228 c 1.35643,0 2.45603,1.0996027 2.45603,2.456024 0,1.3564306 -1.0996,2.4560296 -2.45603,2.4560296 -1.35643,0 -2.45604,-1.099599 -2.45604,-2.4560296 0,-1.3564213 1.09961,-2.456024 2.45604,-2.456024 z"
         style="fill:none;stroke:#ffbf00;stroke-width:1.75752664;stroke-linecap:butt;stroke-linejoin:miter;stroke-miterlimit:4;stroke-dasharray:none;stroke-opacity:1"
         id="path3306"
         inkscape:connector-curvature="0" /></g></g></svg>