<?xml version="1.0" encoding="utf-8"?>
<!-- Generator: Adobe Illustrator 15.0.0, SVG Export Plug-In . SVG Version: 6.00 Build 0)  -->
<!DOCTYPE svg PUBLIC "-//W3C//DTD SVG 1.1//EN" "http://www.w3.org/Graphics/SVG/1.1/DTD/svg11.dtd">
<svg version="1.1" id="Layer_1" xmlns="http://www.w3.org/2000/svg" xmlns:xlink="http://www.w3.org/1999/xlink" x="0px" y="0px"
	 width="141px" height="72px" viewBox="0 0 141 72" enable-background="new 0 0 141 72" xml:space="preserve">
<g>
	<path fill="#1E2C5C" d="M131.751-0.001H5.004C2.24-0.001,0,2.265,0,5.062v61.874c0,2.795,2.24,5.062,5.004,5.062h126.747
		c2.765,0,5.007-2.268,5.007-5.062V5.061C136.758,2.265,134.516-0.001,131.751-0.001z M6.533,1.818c2.352,0,4.259,1.924,4.259,4.295
		c0,2.37-1.905,4.293-4.259,4.293c-2.355,0-4.261-1.922-4.261-4.293C2.272,3.743,4.178,1.818,6.533,1.818z M6.533,70.404
		c-2.355,0-4.261-1.92-4.261-4.291c0-2.373,1.905-4.299,4.261-4.299c2.352,0,4.259,1.926,4.259,4.299
		C10.792,68.484,8.885,70.404,6.533,70.404z M130.55,70.404c-2.354,0-4.26-1.92-4.26-4.291c0-2.373,1.905-4.299,4.26-4.299
		c2.353,0,4.259,1.926,4.259,4.299C134.809,68.484,132.902,70.404,130.55,70.404z M130.55,10.406c-2.354,0-4.26-1.923-4.26-4.293
		c0-2.37,1.905-4.294,4.26-4.294c2.353,0,4.259,1.923,4.259,4.294C134.809,8.482,132.902,10.406,130.55,10.406z"/>
	<rect x="16.258" y="64.572" fill="#454545" width="3.713" height="7.428"/>
	<polygon fill="#454545" points="14.4,66.428 16.258,64.572 16.258,71.998 14.4,70.141 	"/>
	<polygon fill="#454545" points="19.97,64.572 21.829,66.428 21.829,70.141 19.97,71.998 	"/>
	<rect x="17.458" y="67.449" fill="#B68B2D" width="1.312" height="1.668"/>
	<rect x="23.458" y="64.572" fill="#454545" width="3.713" height="7.428"/>
	<polygon fill="#454545" points="21.6,66.428 23.458,64.572 23.458,71.998 21.6,70.141 	"/>
	<polygon fill="#454545" points="27.17,64.572 29.029,66.428 29.029,70.141 27.17,71.998 	"/>
	<rect x="24.658" y="67.449" fill="#B68B2D" width="1.312" height="1.668"/>
	<rect x="30.658" y="64.572" fill="#454545" width="3.713" height="7.428"/>
	<polygon fill="#454545" points="28.8,66.428 30.658,64.572 30.658,71.998 28.8,70.141 	"/>
	<polygon fill="#454545" points="34.37,64.572 36.229,66.428 36.229,70.141 34.37,71.998 	"/>
	<rect x="31.858" y="67.449" fill="#B68B2D" width="1.312" height="1.668"/>
	<rect x="37.858" y="64.572" fill="#454545" width="3.713" height="7.428"/>
	<polygon fill="#454545" points="36,66.428 37.858,64.572 37.858,71.998 36,70.141 	"/>
	<polygon fill="#454545" points="41.57,64.572 43.429,66.428 43.429,70.141 41.57,71.998 	"/>
	<rect x="39.059" y="67.449" fill="#B68B2D" width="1.312" height="1.668"/>
	<rect x="45.058" y="64.572" fill="#454545" width="3.713" height="7.428"/>
	<polygon fill="#454545" points="43.2,66.428 45.058,64.572 45.058,71.998 43.2,70.141 	"/>
	<polygon fill="#454545" points="48.77,64.572 50.629,66.428 50.629,70.141 48.77,71.998 	"/>
	<rect x="46.258" y="67.449" fill="#B68B2D" width="1.312" height="1.668"/>
	<rect x="52.258" y="64.572" fill="#454545" width="3.713" height="7.428"/>
	<polygon fill="#454545" points="50.4,66.428 52.258,64.572 52.258,71.998 50.4,70.141 	"/>
	<polygon fill="#454545" points="55.97,64.572 57.829,66.428 57.829,70.141 55.97,71.998 	"/>
	<rect x="53.458" y="67.449" fill="#B68B2D" width="1.312" height="1.668"/>
	<rect x="59.458" y="64.572" fill="#454545" width="3.713" height="7.428"/>
	<polygon fill="#454545" points="57.601,66.428 59.458,64.572 59.458,71.998 57.601,70.141 	"/>
	<polygon fill="#454545" points="63.17,64.572 65.029,66.428 65.029,70.141 63.17,71.998 	"/>
	<rect x="60.659" y="67.449" fill="#B68B2D" width="1.312" height="1.668"/>
	<rect x="66.659" y="64.572" fill="#454545" width="3.713" height="7.428"/>
	<polygon fill="#454545" points="64.801,66.428 66.659,64.572 66.659,71.998 64.801,70.141 	"/>
	<polygon fill="#454545" points="70.371,64.572 72.229,66.428 72.229,70.141 70.371,71.998 	"/>
	<rect x="67.859" y="67.449" fill="#B68B2D" width="1.312" height="1.668"/>
	<rect x="73.857" y="64.572" fill="#454545" width="3.713" height="7.428"/>
	<polygon fill="#454545" points="72,66.428 73.857,64.572 73.857,71.998 72,70.141 	"/>
	<polygon fill="#454545" points="77.568,64.572 79.43,66.428 79.43,70.141 77.568,71.998 	"/>
	<rect x="75.059" y="67.449" fill="#B68B2D" width="1.312" height="1.668"/>
	<rect x="81.059" y="64.572" fill="#454545" width="3.713" height="7.428"/>
	<polygon fill="#454545" points="79.2,66.428 81.059,64.572 81.059,71.998 79.2,70.141 	"/>
	<polygon fill="#454545" points="84.771,64.572 86.63,66.428 86.63,70.141 84.771,71.998 	"/>
	<rect x="82.259" y="67.449" fill="#B68B2D" width="1.312" height="1.668"/>
	<rect x="88.259" y="64.572" fill="#454545" width="3.714" height="7.428"/>
	<polygon fill="#454545" points="86.4,66.428 88.259,64.572 88.259,71.998 86.4,70.141 	"/>
	<polygon fill="#454545" points="91.971,64.572 93.829,66.428 93.829,70.141 91.971,71.998 	"/>
	<rect x="89.458" y="67.449" fill="#B68B2D" width="1.312" height="1.668"/>
	<rect x="95.458" y="64.572" fill="#454545" width="3.713" height="7.428"/>
	<polygon fill="#454545" points="93.602,66.428 95.458,64.572 95.458,71.998 93.602,70.141 	"/>
	<polygon fill="#454545" points="99.171,64.572 101.029,66.428 101.029,70.141 99.171,71.998 	"/>
	<rect x="96.659" y="67.449" fill="#B68B2D" width="1.312" height="1.668"/>
	<rect x="102.659" y="64.572" fill="#454545" width="3.713" height="7.428"/>
	<polygon fill="#454545" points="100.8,66.428 102.659,64.572 102.659,71.998 100.8,70.141 	"/>
	<polygon fill="#454545" points="106.37,64.572 108.229,66.428 108.229,70.141 106.37,71.998 	"/>
	<rect x="103.857" y="67.449" fill="#B68B2D" width="1.312" height="1.668"/>
	<rect x="109.857" y="64.572" fill="#454545" width="3.713" height="7.428"/>
	<polygon fill="#454545" points="108.001,66.428 109.857,64.572 109.857,71.998 108.001,70.141 	"/>
	<polygon fill="#454545" points="113.57,64.572 115.43,66.428 115.43,70.141 113.57,71.998 	"/>
	<rect x="111.061" y="67.449" fill="#B68B2D" width="1.312" height="1.668"/>
	<rect x="117.061" y="64.572" fill="#454545" width="3.713" height="7.428"/>
	<polygon fill="#454545" points="115.2,66.428 117.061,64.572 117.061,71.998 115.2,70.141 	"/>
	<polygon fill="#454545" points="120.771,64.572 122.63,66.428 122.63,70.141 120.771,71.998 	"/>
	<rect x="118.259" y="67.449" fill="#B68B2D" width="1.312" height="1.668"/>
	<rect x="16.028" y="-0.001" fill="#454545" width="3.713" height="7.427"/>
	<polygon fill="#454545" points="14.17,1.854 16.028,-0.001 16.028,7.425 14.17,5.566 	"/>
	<polygon fill="#454545" points="19.74,-0.001 21.599,1.854 21.599,5.566 19.74,7.425 	"/>
	<rect x="17.228" y="2.875" fill="#B68B2D" width="1.312" height="1.668"/>
	<rect x="23.228" y="-0.001" fill="#454545" width="3.713" height="7.427"/>
	<polygon fill="#454545" points="21.37,1.854 23.228,-0.001 23.228,7.425 21.37,5.566 	"/>
	<polygon fill="#454545" points="26.94,-0.001 28.799,1.854 28.799,5.566 26.94,7.425 	"/>
	<rect x="24.428" y="2.875" fill="#B68B2D" width="1.312" height="1.668"/>
	<rect x="30.428" y="-0.001" fill="#454545" width="3.713" height="7.427"/>
	<polygon fill="#454545" points="28.57,1.854 30.428,-0.001 30.428,7.425 28.57,5.566 	"/>
	<polygon fill="#454545" points="34.14,-0.001 35.999,1.854 35.999,5.566 34.14,7.425 	"/>
	<rect x="31.628" y="2.875" fill="#B68B2D" width="1.312" height="1.668"/>
	<rect x="37.628" y="-0.001" fill="#454545" width="3.713" height="7.427"/>
	<polygon fill="#454545" points="35.771,1.854 37.628,-0.001 37.628,7.425 35.771,5.566 	"/>
	<polygon fill="#454545" points="41.34,-0.001 43.199,1.854 43.199,5.566 41.34,7.425 	"/>
	<rect x="38.829" y="2.875" fill="#B68B2D" width="1.312" height="1.668"/>
	<rect x="44.828" y="-0.001" fill="#454545" width="3.713" height="7.427"/>
	<polygon fill="#454545" points="42.97,1.854 44.828,-0.001 44.828,7.425 42.97,5.566 	"/>
	<polygon fill="#454545" points="48.54,-0.001 50.399,1.854 50.399,5.566 48.54,7.425 	"/>
	<rect x="46.028" y="2.875" fill="#B68B2D" width="1.312" height="1.668"/>
	<rect x="52.028" y="-0.001" fill="#454545" width="3.713" height="7.427"/>
	<polygon fill="#454545" points="50.17,1.854 52.028,-0.001 52.028,7.425 50.17,5.566 	"/>
	<polygon fill="#454545" points="55.74,-0.001 57.599,1.854 57.599,5.566 55.74,7.425 	"/>
	<rect x="53.229" y="2.875" fill="#B68B2D" width="1.312" height="1.668"/>
	<rect x="59.229" y="-0.001" fill="#454545" width="3.712" height="7.427"/>
	<polygon fill="#454545" points="57.371,1.854 59.229,-0.001 59.229,7.425 57.371,5.566 	"/>
	<polygon fill="#454545" points="62.939,-0.001 64.799,1.854 64.799,5.566 62.939,7.425 	"/>
	<rect x="60.43" y="2.875" fill="#B68B2D" width="1.312" height="1.668"/>
	<rect x="66.43" y="-0.001" fill="#454545" width="3.713" height="7.427"/>
	<polygon fill="#454545" points="64.57,1.854 66.43,-0.001 66.43,7.425 64.57,5.566 	"/>
	<polygon fill="#454545" points="70.141,-0.001 71.999,1.854 71.999,5.566 70.141,7.425 	"/>
	<rect x="67.629" y="2.875" fill="#B68B2D" width="1.312" height="1.668"/>
	<rect x="73.628" y="-0.001" fill="#454545" width="3.713" height="7.427"/>
	<polygon fill="#454545" points="71.771,1.854 73.628,-0.001 73.628,7.425 71.771,5.566 	"/>
	<polygon fill="#454545" points="77.34,-0.001 79.197,1.854 79.197,5.566 77.34,7.425 	"/>
	<rect x="74.828" y="2.875" fill="#B68B2D" width="1.312" height="1.668"/>
	<rect x="80.828" y="-0.001" fill="#454545" width="3.713" height="7.427"/>
	<polygon fill="#454545" points="78.971,1.854 80.828,-0.001 80.828,7.425 78.971,5.566 	"/>
	<polygon fill="#454545" points="84.54,-0.001 86.398,1.854 86.398,5.566 84.54,7.425 	"/>
	<rect x="82.027" y="2.875" fill="#B68B2D" width="1.312" height="1.668"/>
	<rect x="88.027" y="-0.001" fill="#454545" width="3.714" height="7.427"/>
	<polygon fill="#454545" points="86.171,1.854 88.027,-0.001 88.027,7.425 86.171,5.566 	"/>
	<polygon fill="#454545" points="91.74,-0.001 93.6,1.854 93.6,5.566 91.74,7.425 	"/>
	<rect x="89.229" y="2.875" fill="#B68B2D" width="1.312" height="1.668"/>
	<rect x="95.229" y="-0.001" fill="#454545" width="3.713" height="7.427"/>
	<polygon fill="#454545" points="93.37,1.854 95.229,-0.001 95.229,7.425 93.37,5.566 	"/>
	<polygon fill="#454545" points="98.939,-0.001 100.8,1.854 100.8,5.566 98.939,7.425 	"/>
	<rect x="96.43" y="2.875" fill="#B68B2D" width="1.312" height="1.668"/>
	<rect x="102.43" y="-0.001" fill="#454545" width="3.713" height="7.427"/>
	<polygon fill="#454545" points="100.57,1.854 102.43,-0.001 102.43,7.425 100.57,5.566 	"/>
	<polygon fill="#454545" points="106.141,-0.001 107.999,1.854 107.999,5.566 106.141,7.425 	"/>
	<rect x="103.628" y="2.875" fill="#B68B2D" width="1.312" height="1.668"/>
	<rect x="109.628" y="-0.001" fill="#454545" width="3.713" height="7.427"/>
	<polygon fill="#454545" points="107.771,1.854 109.628,-0.001 109.628,7.425 107.771,5.566 	"/>
	<polygon fill="#454545" points="113.341,-0.001 115.199,1.854 115.199,5.566 113.341,7.425 	"/>
	<rect x="110.829" y="2.875" fill="#B68B2D" width="1.312" height="1.668"/>
	<rect x="116.829" y="-0.001" fill="#454545" width="3.713" height="7.427"/>
	<polygon fill="#454545" points="114.971,1.854 116.829,-0.001 116.829,7.425 114.971,5.566 	"/>
	<polygon fill="#454545" points="120.54,-0.001 122.398,1.854 122.398,5.566 120.54,7.425 	"/>
	<rect x="118.027" y="2.875" fill="#B68B2D" width="1.312" height="1.668"/>
	<text transform="matrix(1 0 0 1 14.7988 10.7676)" fill="#FFFFFF" font-family="'OCRA'" font-size="2.5">D0</text>
	<text transform="matrix(1 0 0 1 22.0894 10.7656)" fill="#FFFFFF" font-family="'OCRA'" font-size="2.5">D1</text>
	<text transform="matrix(1 0 0 1 29.3804 10.7656)" fill="#FFFFFF" font-family="'OCRA'" font-size="2.5">D2</text>
	<text transform="matrix(1 0 0 1 36.6709 10.7656)" fill="#FFFFFF" font-family="'OCRA'" font-size="2.5">D3</text>
	<text transform="matrix(1 0 0 1 43.9614 10.7656)" fill="#FFFFFF" font-family="'OCRA'" font-size="2.5">D4</text>
	<text transform="matrix(1 0 0 1 50.3486 10.7656)" fill="#FFFFFF" font-family="'OCRA'" font-size="2.5">3V3</text>
	<text transform="matrix(1 0 0 1 57.6392 10.7656)" fill="#FFFFFF" font-family="'OCRA'" font-size="2.5">GND</text>
	<text transform="matrix(1 0 0 1 65.8335 10.7676)" fill="#FFFFFF" font-family="'OCRA'" font-size="2.5">D5</text>
	<text transform="matrix(1 0 0 1 73.124 10.7656)" fill="#FFFFFF" font-family="'OCRA'" font-size="2.5">D6</text>
	<text transform="matrix(1 0 0 1 80.415 10.7676)" fill="#FFFFFF" font-family="'OCRA'" font-size="2.5">D7</text>
	<text transform="matrix(1 0 0 1 87.7061 10.7656)" fill="#FFFFFF" font-family="'OCRA'" font-size="2.5">D8</text>
	<text transform="matrix(1 0 0 1 94.9961 10.7676)" fill="#FFFFFF" font-family="'OCRA'" font-size="2.5">RX</text>
	<text transform="matrix(1 0 0 1 102.2871 10.7656)" fill="#FFFFFF" font-family="'OCRA'" font-size="2.5">TX</text>
	<text transform="matrix(1 0 0 1 108.6738 10.7676)" fill="#FFFFFF" font-family="'OCRA'" font-size="2.5">GND</text>
	<text transform="matrix(1 0 0 1 115.9648 10.7656)" fill="#FFFFFF" font-family="'OCRA'" font-size="2.5">3V3</text>
	<text transform="matrix(-1 0 0 -1 121.6289 60.9414)" fill="#FFFFFF" font-family="'OCRA'" font-size="2.5">Vin</text>
	<text transform="matrix(-1 0 0 -1 114.4805 60.9414)" fill="#FFFFFF" font-family="'OCRA'" font-size="2.5">GND</text>
	<text transform="matrix(-1 0 0 -1 107.332 60.9414)" fill="#FFFFFF" font-family="'OCRA'" font-size="2.5">RST</text>
	<text transform="matrix(-1 0 0 -1 99.0996 60.9414)" fill="#FFFFFF" font-family="'OCRA'" font-size="2.5">EN</text>
	<text transform="matrix(-1 0 0 -1 93.0352 60.9414)" fill="#FFFFFF" font-family="'OCRA'" font-size="2.5">3V3</text>
	<text transform="matrix(-1 0 0 -1 85.8867 60.9414)" fill="#FFFFFF" font-family="'OCRA'" font-size="2.5">GND</text>
	<text transform="matrix(-1 0 0 -1 78.7383 60.9414)" fill="#FFFFFF" font-family="'OCRA'" font-size="2.5">CLK</text>
	<text transform="matrix(-1 0 0 -1 71.5898 60.9414)" fill="#FFFFFF" font-family="'OCRA'" font-size="2.5">SD0</text>
	<text transform="matrix(-1 0 0 -1 64.4395 60.9414)" fill="#FFFFFF" font-family="'OCRA'" font-size="2.5">CMD</text>
	<text transform="matrix(-1 0 0 -1 57.291 60.9414)" fill="#FFFFFF" font-family="'OCRA'" font-size="2.5">SD1</text>
	<text transform="matrix(-1 0 0 -1 50.1426 60.9414)" fill="#FFFFFF" font-family="'OCRA'" font-size="2.5">SD2</text>
	<text transform="matrix(-1 0 0 -1 42.9941 60.9414)" fill="#FFFFFF" font-family="'OCRA'" font-size="2.5">SD3</text>
	<text transform="matrix(-1 0 0 -1 35.8457 60.9414)" fill="#FFFFFF" font-family="'OCRA'" font-size="2.5">RSV</text>
	<text transform="matrix(-1 0 0 -1 28.6973 60.9414)" fill="#FFFFFF" font-family="'OCRA'" font-size="2.5">RSV</text>
	<text transform="matrix(-1 0 0 -1 20.4648 60.9414)" fill="#FFFFFF" font-family="'OCRA'" font-size="2.5">A0</text>
	<rect x="124.133" y="25.099" fill="#BEC0C2" width="17.333" height="21.833"/>
	<rect x="123.962" y="13.599" fill="#BEC0C2" width="7.833" height="8"/>
	<circle fill="#231F20" cx="127.883" cy="17.683" r="2.75"/>
	<rect x="123.962" y="50.398" fill="#BEC0C2" width="7.833" height="8"/>
	<circle fill="#231F20" cx="127.883" cy="54.482" r="2.75"/>
	<text transform="matrix(4.489659e-11 -1 1 4.489659e-11 122.7988 21.7637)" fill="#FFFFFF" font-family="'OCRA'" font-size="2.5">FLASH</text>
	<text transform="matrix(4.489659e-11 -1 1 4.489659e-11 122.7969 56.5977)" fill="#FFFFFF" font-family="'OCRA'" font-size="2.5">RST</text>
	<rect x="21.133" y="16.432" fill="#5F5758" width="43.5" height="39.033"/>
	<rect x="2.362" y="18.767" fill="#B68B2D" width="1.312" height="11.834"/>
	<rect x="2.468" y="29.434" fill="#B68B2D" width="11.099" height="1.168"/>
	<rect x="2.468" y="33.238" fill="#B68B2D" width="11.099" height="1.168"/>
	<rect x="2.468" y="37.043" fill="#B68B2D" width="11.099" height="1.168"/>
	<rect x="2.468" y="40.848" fill="#B68B2D" width="11.099" height="1.168"/>
	<rect x="2.468" y="44.654" fill="#B68B2D" width="11.099" height="1.168"/>
	<rect x="2.468" y="48.457" fill="#B68B2D" width="11.099" height="1.168"/>
	<rect x="12.255" y="29.434" fill="#B68B2D" width="1.312" height="4.973"/>
	<rect x="2.468" y="34.043" fill="#B68B2D" width="1.312" height="4.168"/>
	<rect x="12.255" y="37.043" fill="#B68B2D" width="1.312" height="4.973"/>
	<rect x="2.468" y="40.848" fill="#B68B2D" width="1.312" height="4.976"/>
	<rect x="12.255" y="44.654" fill="#B68B2D" width="1.312" height="4.973"/>
	<rect x="2.599" y="48.41" fill="#B68B2D" width="1.312" height="5.992"/>
	<rect x="3.018" y="53.234" fill="#B68B2D" width="18.582" height="1.168"/>
	<rect x="16.495" y="30.018" fill="#B68B2D" width="1.312" height="24.312"/>
	<rect x="107.766" y="25.857" fill="#524B4C" width="9.209" height="8.264"/>
	<rect x="70.453" y="23.773" fill="#4D4648" width="15.945" height="6.217"/>
</g>
<text transform="matrix(1 0 0 1 71.0703 41.374)"><tspan x="0" y="0" fill="#FFFFFF" font-family="'OCRA'" font-size="7">NodeMCU </tspan><tspan x="0" y="8.4" fill="#FFFFFF" font-family="'OCRA'" font-size="7">V1.0</tspan></text>
<text transform="matrix(1 0 0 1 70.083 18.7642)" fill="#FFFFFF" font-family="'OCRA'" font-size="4">blog.squix.ch</text>
</svg>
