<?xml version="1.0" encoding="UTF-8" standalone="no"?>
<!-- Generator: Adobe Illustrator 15.0.0, SVG Export Plug-In . SVG Version: 6.00 Build 0)  -->

<svg
   xmlns:dc="http://purl.org/dc/elements/1.1/"
   xmlns:cc="http://creativecommons.org/ns#"
   xmlns:rdf="http://www.w3.org/1999/02/22-rdf-syntax-ns#"
   xmlns:svg="http://www.w3.org/2000/svg"
   xmlns="http://www.w3.org/2000/svg"
   xmlns:sodipodi="http://sodipodi.sourceforge.net/DTD/sodipodi-0.dtd"
   xmlns:inkscape="http://www.inkscape.org/namespaces/inkscape"
   version="1.1"
   id="Layer_1"
   x="0px"
   y="0px"
   width="176.71184"
   height="89.939835"
   viewBox="0 0 176.71184 89.939835"
   enable-background="new 0 0 141 72"
   xml:space="preserve"
   sodipodi:docname="NodeMCU_Fritzing_Breadboard.svg"
   inkscape:version="0.92.2 (5c3e80d, 2017-08-06)"><metadata
     id="metadata369"><rdf:RDF><cc:Work
         rdf:about=""><dc:format>image/svg+xml</dc:format><dc:type
           rdf:resource="http://purl.org/dc/dcmitype/StillImage" /><dc:title></dc:title></cc:Work></rdf:RDF></metadata><defs
     id="defs367" /><sodipodi:namedview
     pagecolor="#ffffff"
     bordercolor="#666666"
     borderopacity="1"
     objecttolerance="10"
     gridtolerance="10"
     guidetolerance="10"
     inkscape:pageopacity="0"
     inkscape:pageshadow="2"
     inkscape:window-width="1920"
     inkscape:window-height="1017"
     id="namedview365"
     showgrid="false"
     inkscape:zoom="6.3394531"
     inkscape:cx="100.21338"
     inkscape:cy="41.634455"
     inkscape:window-x="-8"
     inkscape:window-y="-8"
     inkscape:window-maximized="1"
     inkscape:current-layer="Layer_1"
     fit-margin-top="0"
     fit-margin-left="0"
     fit-margin-right="0"
     fit-margin-bottom="0" /><g
     id="g1202"
     transform="matrix(0.93777358,0,0,0.93777358,-0.47061396,13.47847)"><path
       d="M 175.99876,-14.37284 H 7.1673439 c -3.6817442,0 -6.66550212,3.018391 -6.66550212,6.7440922 V 74.789573 c 0,3.723038 2.98375792,6.742761 6.66550212,6.742761 H 175.99876 c 3.68307,0 6.6695,-3.021055 6.6695,-6.742761 V -7.6300799 c 0,-3.7243691 -2.98643,-6.7427601 -6.6695,-6.7427601 z M 9.2040251,-11.949869 c 3.1329459,0 5.6731359,2.5628352 5.6731359,5.7210897 0,3.1569225 -2.537526,5.71842543 -5.6731359,5.71842543 -3.1369419,0 -5.6758003,-2.56017093 -5.6758003,-5.71842543 0,-3.1569224 2.5388584,-5.7210897 5.6758003,-5.7210897 z m 0,91.358939 c -3.1369419,0 -5.6758003,-2.557507 -5.6758003,-5.715761 0,-3.160919 2.5375263,-5.726418 5.6758003,-5.726418 3.1329459,0 5.6731359,2.565499 5.6731359,5.726418 0,3.158254 -2.54019,5.715761 -5.6731359,5.715761 z m 165.1949549,0 c -3.1356,0 -5.67446,-2.557507 -5.67446,-5.715761 0,-3.160919 2.53752,-5.726418 5.67446,-5.726418 3.13428,0 5.67314,2.565499 5.67314,5.726418 0,3.158254 -2.54019,5.715761 -5.67314,5.715761 z m 0,-79.91942387 c -3.1356,0 -5.67446,-2.56150293 -5.67446,-5.71842543 0,-3.1569224 2.53752,-5.7197577 5.67446,-5.7197577 3.13428,0 5.67314,2.5615032 5.67314,5.7197577 0,3.1555905 -2.54019,5.71842543 -5.67314,5.71842543 z"
       id="path2"
       inkscape:connector-curvature="0"
       style="fill:#1e2c5c;stroke-width:1.33203483" /><rect
       x="21.851696"
       y="-14.37284"
       width="4.9458451"
       height="9.8930225"
       id="rect124"
       style="fill:#454545;stroke-width:1.33203483" /><polygon
       transform="matrix(1.3320348,0,0,1.3320348,0.50184178,-14.371508)"
       points="16.028,-0.001 16.028,7.425 14.17,5.566 14.17,1.854 "
       id="polygon126"
       style="fill:#454545" /><polygon
       transform="matrix(1.3320348,0,0,1.3320348,0.50184178,-14.371508)"
       points="21.599,1.854 21.599,5.566 19.74,7.425 19.74,-0.001 "
       id="polygon128"
       style="fill:#454545" /><rect
       x="23.450138"
       y="-10.541908"
       width="1.7476298"
       height="2.2218339"
       id="rect130"
       style="fill:#b68b2d;stroke-width:1.33203483" /><rect
       x="31.442347"
       y="-14.37284"
       width="4.9458451"
       height="9.8930225"
       id="rect132"
       style="fill:#454545;stroke-width:1.33203483" /><polygon
       transform="matrix(1.3320348,0,0,1.3320348,0.50184178,-14.371508)"
       points="23.228,-0.001 23.228,7.425 21.37,5.566 21.37,1.854 "
       id="polygon134"
       style="fill:#454545" /><polygon
       transform="matrix(1.3320348,0,0,1.3320348,0.50184178,-14.371508)"
       points="28.799,1.854 28.799,5.566 26.94,7.425 26.94,-0.001 "
       id="polygon136"
       style="fill:#454545" /><rect
       x="33.040787"
       y="-10.541908"
       width="1.7476298"
       height="2.2218339"
       id="rect138"
       style="fill:#b68b2d;stroke-width:1.33203483" /><rect
       x="41.032997"
       y="-14.37284"
       width="4.9458451"
       height="9.8930225"
       id="rect140"
       style="fill:#454545;stroke-width:1.33203483" /><polygon
       transform="matrix(1.3320348,0,0,1.3320348,0.50184178,-14.371508)"
       points="30.428,-0.001 30.428,7.425 28.57,5.566 28.57,1.854 "
       id="polygon142"
       style="fill:#454545" /><polygon
       transform="matrix(1.3320348,0,0,1.3320348,0.50184178,-14.371508)"
       points="35.999,1.854 35.999,5.566 34.14,7.425 34.14,-0.001 "
       id="polygon144"
       style="fill:#454545" /><rect
       x="42.631439"
       y="-10.541908"
       width="1.7476298"
       height="2.2218339"
       id="rect146"
       style="fill:#b68b2d;stroke-width:1.33203483" /><rect
       x="50.623646"
       y="-14.37284"
       width="4.9458451"
       height="9.8930225"
       id="rect148"
       style="fill:#454545;stroke-width:1.33203483" /><polygon
       transform="matrix(1.3320348,0,0,1.3320348,0.50184178,-14.371508)"
       points="37.628,-0.001 37.628,7.425 35.771,5.566 35.771,1.854 "
       id="polygon150"
       style="fill:#454545" /><polygon
       transform="matrix(1.3320348,0,0,1.3320348,0.50184178,-14.371508)"
       points="43.199,1.854 43.199,5.566 41.34,7.425 41.34,-0.001 "
       id="polygon152"
       style="fill:#454545" /><rect
       x="52.223419"
       y="-10.541908"
       width="1.7476298"
       height="2.2218339"
       id="rect154"
       style="fill:#b68b2d;stroke-width:1.33203483" /><rect
       x="60.214298"
       y="-14.37284"
       width="4.9458451"
       height="9.8930225"
       id="rect156"
       style="fill:#454545;stroke-width:1.33203483" /><polygon
       transform="matrix(1.3320348,0,0,1.3320348,0.50184178,-14.371508)"
       points="44.828,-0.001 44.828,7.425 42.97,5.566 42.97,1.854 "
       id="polygon158"
       style="fill:#454545" /><polygon
       transform="matrix(1.3320348,0,0,1.3320348,0.50184178,-14.371508)"
       points="50.399,1.854 50.399,5.566 48.54,7.425 48.54,-0.001 "
       id="polygon160"
       style="fill:#454545" /><rect
       x="61.81274"
       y="-10.541908"
       width="1.7476298"
       height="2.2218339"
       id="rect162"
       style="fill:#b68b2d;stroke-width:1.33203483" /><rect
       x="69.804947"
       y="-14.37284"
       width="4.9458451"
       height="9.8930225"
       id="rect164"
       style="fill:#454545;stroke-width:1.33203483" /><polygon
       transform="matrix(1.3320348,0,0,1.3320348,0.50184178,-14.371508)"
       points="52.028,-0.001 52.028,7.425 50.17,5.566 50.17,1.854 "
       id="polygon166"
       style="fill:#454545" /><polygon
       transform="matrix(1.3320348,0,0,1.3320348,0.50184178,-14.371508)"
       points="57.599,1.854 57.599,5.566 55.74,7.425 55.74,-0.001 "
       id="polygon168"
       style="fill:#454545" /><rect
       x="71.404724"
       y="-10.541908"
       width="1.7476298"
       height="2.2218339"
       id="rect170"
       style="fill:#b68b2d;stroke-width:1.33203483" /><rect
       x="79.396935"
       y="-14.37284"
       width="4.9445128"
       height="9.8930225"
       id="rect172"
       style="fill:#454545;stroke-width:1.33203483" /><polygon
       transform="matrix(1.3320348,0,0,1.3320348,0.50184178,-14.371508)"
       points="59.229,-0.001 59.229,7.425 57.371,5.566 57.371,1.854 "
       id="polygon174"
       style="fill:#454545" /><polygon
       transform="matrix(1.3320348,0,0,1.3320348,0.50184178,-14.371508)"
       points="64.799,1.854 64.799,5.566 62.939,7.425 62.939,-0.001 "
       id="polygon176"
       style="fill:#454545" /><rect
       x="80.996704"
       y="-10.541908"
       width="1.7476298"
       height="2.2218339"
       id="rect178"
       style="fill:#b68b2d;stroke-width:1.33203483" /><rect
       x="88.988914"
       y="-14.37284"
       width="4.9458451"
       height="9.8930225"
       id="rect180"
       style="fill:#454545;stroke-width:1.33203483" /><polygon
       transform="matrix(1.3320348,0,0,1.3320348,0.50184178,-14.371508)"
       points="66.43,-0.001 66.43,7.425 64.57,5.566 64.57,1.854 "
       id="polygon182"
       style="fill:#454545" /><polygon
       transform="matrix(1.3320348,0,0,1.3320348,0.50184178,-14.371508)"
       points="71.999,1.854 71.999,5.566 70.141,7.425 70.141,-0.001 "
       id="polygon184"
       style="fill:#454545" /><rect
       x="90.586021"
       y="-10.541908"
       width="1.7476298"
       height="2.2218339"
       id="rect186"
       style="fill:#b68b2d;stroke-width:1.33203483" /><rect
       x="98.576897"
       y="-14.37284"
       width="4.9458451"
       height="9.8930225"
       id="rect188"
       style="fill:#454545;stroke-width:1.33203483" /><polygon
       transform="matrix(1.3320348,0,0,1.3320348,0.50184178,-14.371508)"
       points="73.628,-0.001 73.628,7.425 71.771,5.566 71.771,1.854 "
       id="polygon190"
       style="fill:#454545" /><polygon
       transform="matrix(1.3320348,0,0,1.3320348,0.50184178,-14.371508)"
       points="79.197,1.854 79.197,5.566 77.34,7.425 77.34,-0.001 "
       id="polygon192"
       style="fill:#454545" /><rect
       x="100.17535"
       y="-10.541908"
       width="1.7476298"
       height="2.2218339"
       id="rect194"
       style="fill:#b68b2d;stroke-width:1.33203483" /><rect
       x="108.16756"
       y="-14.37284"
       width="4.9458451"
       height="9.8930225"
       id="rect196"
       style="fill:#454545;stroke-width:1.33203483" /><polygon
       transform="matrix(1.3320348,0,0,1.3320348,0.50184178,-14.371508)"
       points="80.828,-0.001 80.828,7.425 78.971,5.566 78.971,1.854 "
       id="polygon198"
       style="fill:#454545" /><polygon
       transform="matrix(1.3320348,0,0,1.3320348,0.50184178,-14.371508)"
       points="86.398,1.854 86.398,5.566 84.54,7.425 84.54,-0.001 "
       id="polygon200"
       style="fill:#454545" /><rect
       x="109.76466"
       y="-10.541908"
       width="1.7476298"
       height="2.2218339"
       id="rect202"
       style="fill:#b68b2d;stroke-width:1.33203483" /><rect
       x="117.75687"
       y="-14.37284"
       width="4.9471774"
       height="9.8930225"
       id="rect204"
       style="fill:#454545;stroke-width:1.33203483" /><polygon
       transform="matrix(1.3320348,0,0,1.3320348,0.50184178,-14.371508)"
       points="88.027,-0.001 88.027,7.425 86.171,5.566 86.171,1.854 "
       id="polygon206"
       style="fill:#454545" /><polygon
       transform="matrix(1.3320348,0,0,1.3320348,0.50184178,-14.371508)"
       points="93.6,1.854 93.6,5.566 91.74,7.425 91.74,-0.001 "
       id="polygon208"
       style="fill:#454545" /><rect
       x="119.35797"
       y="-10.541908"
       width="1.7476298"
       height="2.2218339"
       id="rect210"
       style="fill:#b68b2d;stroke-width:1.33203483" /><rect
       x="127.35018"
       y="-14.37284"
       width="4.9458451"
       height="9.8930225"
       id="rect212"
       style="fill:#454545;stroke-width:1.33203483" /><polygon
       transform="matrix(1.3320348,0,0,1.3320348,0.50184178,-14.371508)"
       points="95.229,-0.001 95.229,7.425 93.37,5.566 93.37,1.854 "
       id="polygon214"
       style="fill:#454545" /><polygon
       transform="matrix(1.3320348,0,0,1.3320348,0.50184178,-14.371508)"
       points="100.8,1.854 100.8,5.566 98.939,7.425 98.939,-0.001 "
       id="polygon216"
       style="fill:#454545" /><rect
       x="128.94995"
       y="-10.541908"
       width="1.7476298"
       height="2.2218339"
       id="rect218"
       style="fill:#b68b2d;stroke-width:1.33203483" /><rect
       x="136.94217"
       y="-14.37284"
       width="4.9458451"
       height="9.8930225"
       id="rect220"
       style="fill:#454545;stroke-width:1.33203483" /><polygon
       transform="matrix(1.3320348,0,0,1.3320348,0.50184178,-14.371508)"
       points="102.43,-0.001 102.43,7.425 100.57,5.566 100.57,1.854 "
       id="polygon222"
       style="fill:#454545" /><polygon
       transform="matrix(1.3320348,0,0,1.3320348,0.50184178,-14.371508)"
       points="107.999,1.854 107.999,5.566 106.141,7.425 106.141,-0.001 "
       id="polygon224"
       style="fill:#454545" /><rect
       x="138.53795"
       y="-10.541908"
       width="1.7476298"
       height="2.2218339"
       id="rect226"
       style="fill:#b68b2d;stroke-width:1.33203483" /><rect
       x="146.53015"
       y="-14.37284"
       width="4.9458451"
       height="9.8930225"
       id="rect228"
       style="fill:#454545;stroke-width:1.33203483" /><polygon
       transform="matrix(1.3320348,0,0,1.3320348,0.50184178,-14.371508)"
       points="109.628,-0.001 109.628,7.425 107.771,5.566 107.771,1.854 "
       id="polygon230"
       style="fill:#454545" /><polygon
       transform="matrix(1.3320348,0,0,1.3320348,0.50184178,-14.371508)"
       points="115.199,1.854 115.199,5.566 113.341,7.425 113.341,-0.001 "
       id="polygon232"
       style="fill:#454545" /><rect
       x="148.12993"
       y="-10.541908"
       width="1.7476298"
       height="2.2218339"
       id="rect234"
       style="fill:#b68b2d;stroke-width:1.33203483" /><rect
       x="156.12213"
       y="-14.37284"
       width="4.9458451"
       height="9.8930225"
       id="rect236"
       style="fill:#454545;stroke-width:1.33203483" /><polygon
       transform="matrix(1.3320348,0,0,1.3320348,0.50184178,-14.371508)"
       points="116.829,-0.001 116.829,7.425 114.971,5.566 114.971,1.854 "
       id="polygon238"
       style="fill:#454545" /><polygon
       transform="matrix(1.3320348,0,0,1.3320348,0.50184178,-14.371508)"
       points="122.398,1.854 122.398,5.566 120.54,7.425 120.54,-0.001 "
       id="polygon240"
       style="fill:#454545" /><rect
       x="157.71791"
       y="-10.541908"
       width="1.7476298"
       height="2.2218339"
       id="rect242"
       style="fill:#b68b2d;stroke-width:1.33203483" /><text
       y="-0.02869009"
       x="20.214357"
       font-size="2.5"
       id="text244"
       style="font-size:3.33008695px;font-family:OCRA;fill:#ffffff;stroke-width:1.33203483">D0</text>
<text
       y="-0.031354159"
       x="29.925692"
       font-size="2.5"
       id="text246"
       style="font-size:3.33008695px;font-family:OCRA;fill:#ffffff;stroke-width:1.33203483">D1</text>
<text
       y="-0.031354159"
       x="39.637558"
       font-size="2.5"
       id="text248"
       style="font-size:3.33008695px;font-family:OCRA;fill:#ffffff;stroke-width:1.33203483">D2</text>
<text
       y="-0.031354159"
       x="49.348759"
       font-size="2.5"
       id="text250"
       style="font-size:3.33008695px;font-family:OCRA;fill:#ffffff;stroke-width:1.33203483">D3</text>
<text
       y="-0.031354159"
       x="59.059956"
       font-size="2.5"
       id="text252"
       style="font-size:3.33008695px;font-family:OCRA;fill:#ffffff;stroke-width:1.33203483">D4</text>
<text
       y="-0.031354159"
       x="67.567932"
       font-size="2.5"
       id="text254"
       style="font-size:3.33008695px;font-family:OCRA;fill:#ffffff;stroke-width:1.33203483">3V3</text>
<text
       y="-0.031354159"
       x="77.279259"
       font-size="2.5"
       id="text256"
       style="font-size:3.33008695px;font-family:OCRA;fill:#ffffff;stroke-width:1.33203483">GND</text>
<text
       y="-0.02869009"
       x="88.194351"
       font-size="2.5"
       id="text258"
       style="font-size:3.33008695px;font-family:OCRA;fill:#ffffff;stroke-width:1.33203483">D5</text>
<text
       y="-0.031354159"
       x="97.905556"
       font-size="2.5"
       id="text260"
       style="font-size:3.33008695px;font-family:OCRA;fill:#ffffff;stroke-width:1.33203483">D6</text>
<text
       y="-0.02869009"
       x="107.61742"
       font-size="2.5"
       id="text262"
       style="font-size:3.33008695px;font-family:OCRA;fill:#ffffff;stroke-width:1.33203483">D7</text>
<text
       y="-0.031354159"
       x="117.32942"
       font-size="2.5"
       id="text264"
       style="font-size:3.33008695px;font-family:OCRA;fill:#ffffff;stroke-width:1.33203483">D8</text>
<text
       y="-0.02869009"
       x="127.03995"
       font-size="2.5"
       id="text266"
       style="font-size:3.33008695px;font-family:OCRA;fill:#ffffff;stroke-width:1.33203483">RX</text>
<text
       y="-0.031354159"
       x="136.75182"
       font-size="2.5"
       id="text268"
       style="font-size:3.33008695px;font-family:OCRA;fill:#ffffff;stroke-width:1.33203483">TX</text>
<text
       y="-0.02869009"
       x="145.25912"
       font-size="2.5"
       id="text270"
       style="font-size:3.33008695px;font-family:OCRA;fill:#ffffff;stroke-width:1.33203483">GND</text>
<text
       y="-0.031354159"
       x="154.97099"
       font-size="2.5"
       id="text272"
       style="font-size:3.33008695px;font-family:OCRA;fill:#ffffff;stroke-width:1.33203483">3V3</text>
<rect
       x="21.863056"
       y="71.64064"
       width="4.9458451"
       height="9.8943548"
       id="rect4"
       style="fill:#454545;stroke-width:1.33203483" /><polygon
       transform="matrix(1.3320348,0,0,1.3320348,0.20683582,-14.371508)"
       points="16.258,71.998 14.4,70.141 14.4,66.428 16.258,64.572 "
       id="polygon6"
       style="fill:#454545" /><polygon
       transform="matrix(1.3320348,0,0,1.3320348,0.20683582,-14.371508)"
       points="21.829,70.141 19.97,71.998 19.97,64.572 21.829,66.428 "
       id="polygon8"
       style="fill:#454545" /><rect
       x="23.4615"
       y="75.4729"
       width="1.7476298"
       height="2.2218339"
       id="rect10"
       style="fill:#b68b2d;stroke-width:1.33203483" /><rect
       x="31.453709"
       y="71.64064"
       width="4.9458451"
       height="9.8943548"
       id="rect12"
       style="fill:#454545;stroke-width:1.33203483" /><polygon
       transform="matrix(1.3320348,0,0,1.3320348,0.20683582,-14.371508)"
       points="23.458,71.998 21.6,70.141 21.6,66.428 23.458,64.572 "
       id="polygon14"
       style="fill:#454545" /><polygon
       transform="matrix(1.3320348,0,0,1.3320348,0.20683582,-14.371508)"
       points="29.029,70.141 27.17,71.998 27.17,64.572 29.029,66.428 "
       id="polygon16"
       style="fill:#454545" /><rect
       x="33.052151"
       y="75.4729"
       width="1.7476298"
       height="2.2218339"
       id="rect18"
       style="fill:#b68b2d;stroke-width:1.33203483" /><rect
       x="41.044361"
       y="71.64064"
       width="4.9458451"
       height="9.8943548"
       id="rect20"
       style="fill:#454545;stroke-width:1.33203483" /><polygon
       transform="matrix(1.3320348,0,0,1.3320348,0.20683582,-14.371508)"
       points="30.658,71.998 28.8,70.141 28.8,66.428 30.658,64.572 "
       id="polygon22"
       style="fill:#454545" /><polygon
       transform="matrix(1.3320348,0,0,1.3320348,0.20683582,-14.371508)"
       points="36.229,70.141 34.37,71.998 34.37,64.572 36.229,66.428 "
       id="polygon24"
       style="fill:#454545" /><rect
       x="42.642799"
       y="75.4729"
       width="1.7476298"
       height="2.2218339"
       id="rect26"
       style="fill:#b68b2d;stroke-width:1.33203483" /><rect
       x="50.635014"
       y="71.64064"
       width="4.9458451"
       height="9.8943548"
       id="rect28"
       style="fill:#454545;stroke-width:1.33203483" /><polygon
       transform="matrix(1.3320348,0,0,1.3320348,0.20683582,-14.371508)"
       points="37.858,71.998 36,70.141 36,66.428 37.858,64.572 "
       id="polygon30"
       style="fill:#454545" /><polygon
       transform="matrix(1.3320348,0,0,1.3320348,0.20683582,-14.371508)"
       points="43.429,70.141 41.57,71.998 41.57,64.572 43.429,66.428 "
       id="polygon32"
       style="fill:#454545" /><rect
       x="52.234779"
       y="75.4729"
       width="1.7476298"
       height="2.2218339"
       id="rect34"
       style="fill:#b68b2d;stroke-width:1.33203483" /><rect
       x="60.225658"
       y="71.64064"
       width="4.9458451"
       height="9.8943548"
       id="rect36"
       style="fill:#454545;stroke-width:1.33203483" /><polygon
       transform="matrix(1.3320348,0,0,1.3320348,0.20683582,-14.371508)"
       points="45.058,71.998 43.2,70.141 43.2,66.428 45.058,64.572 "
       id="polygon38"
       style="fill:#454545" /><polygon
       transform="matrix(1.3320348,0,0,1.3320348,0.20683582,-14.371508)"
       points="50.629,70.141 48.77,71.998 48.77,64.572 50.629,66.428 "
       id="polygon40"
       style="fill:#454545" /><rect
       x="61.8241"
       y="75.4729"
       width="1.7476298"
       height="2.2218339"
       id="rect42"
       style="fill:#b68b2d;stroke-width:1.33203483" /><rect
       x="69.816307"
       y="71.64064"
       width="4.9458451"
       height="9.8943548"
       id="rect44"
       style="fill:#454545;stroke-width:1.33203483" /><polygon
       transform="matrix(1.3320348,0,0,1.3320348,0.20683582,-14.371508)"
       points="52.258,71.998 50.4,70.141 50.4,66.428 52.258,64.572 "
       id="polygon46"
       style="fill:#454545" /><polygon
       transform="matrix(1.3320348,0,0,1.3320348,0.20683582,-14.371508)"
       points="57.829,70.141 55.97,71.998 55.97,64.572 57.829,66.428 "
       id="polygon48"
       style="fill:#454545" /><rect
       x="71.414749"
       y="75.4729"
       width="1.7476298"
       height="2.2218339"
       id="rect50"
       style="fill:#b68b2d;stroke-width:1.33203483" /><rect
       x="79.40696"
       y="71.64064"
       width="4.9458451"
       height="9.8943548"
       id="rect52"
       style="fill:#454545;stroke-width:1.33203483" /><polygon
       transform="matrix(1.3320348,0,0,1.3320348,0.20683582,-14.371508)"
       points="59.458,71.998 57.601,70.141 57.601,66.428 59.458,64.572 "
       id="polygon54"
       style="fill:#454545" /><polygon
       transform="matrix(1.3320348,0,0,1.3320348,0.20683582,-14.371508)"
       points="65.029,70.141 63.17,71.998 63.17,64.572 65.029,66.428 "
       id="polygon56"
       style="fill:#454545" /><rect
       x="81.006737"
       y="75.4729"
       width="1.7476298"
       height="2.2218339"
       id="rect58"
       style="fill:#b68b2d;stroke-width:1.33203483" /><rect
       x="88.99894"
       y="71.64064"
       width="4.9458451"
       height="9.8943548"
       id="rect60"
       style="fill:#454545;stroke-width:1.33203483" /><polygon
       transform="matrix(1.3320348,0,0,1.3320348,0.20683582,-14.371508)"
       points="66.659,71.998 64.801,70.141 64.801,66.428 66.659,64.572 "
       id="polygon62"
       style="fill:#454545" /><polygon
       transform="matrix(1.3320348,0,0,1.3320348,0.20683582,-14.371508)"
       points="72.229,70.141 70.371,71.998 70.371,64.572 72.229,66.428 "
       id="polygon64"
       style="fill:#454545" /><rect
       x="90.597389"
       y="75.4729"
       width="1.7476298"
       height="2.2218339"
       id="rect66"
       style="fill:#b68b2d;stroke-width:1.33203483" /><rect
       x="98.586937"
       y="71.64064"
       width="4.9458451"
       height="9.8943548"
       id="rect68"
       style="fill:#454545;stroke-width:1.33203483" /><polygon
       transform="matrix(1.3320348,0,0,1.3320348,0.20683582,-14.371508)"
       points="73.857,71.998 72,70.141 72,66.428 73.857,64.572 "
       id="polygon70"
       style="fill:#454545" /><polygon
       transform="matrix(1.3320348,0,0,1.3320348,0.20683582,-14.371508)"
       points="79.43,70.141 77.568,71.998 77.568,64.572 79.43,66.428 "
       id="polygon72"
       style="fill:#454545" /><rect
       x="100.18803"
       y="75.4729"
       width="1.7476298"
       height="2.2218339"
       id="rect74"
       style="fill:#b68b2d;stroke-width:1.33203483" /><rect
       x="108.18024"
       y="71.64064"
       width="4.9458451"
       height="9.8943548"
       id="rect76"
       style="fill:#454545;stroke-width:1.33203483" /><polygon
       transform="matrix(1.3320348,0,0,1.3320348,0.20683582,-14.371508)"
       points="81.059,71.998 79.2,70.141 79.2,66.428 81.059,64.572 "
       id="polygon78"
       style="fill:#454545" /><polygon
       transform="matrix(1.3320348,0,0,1.3320348,0.20683582,-14.371508)"
       points="86.63,70.141 84.771,71.998 84.771,64.572 86.63,66.428 "
       id="polygon80"
       style="fill:#454545" /><rect
       x="109.77869"
       y="75.4729"
       width="1.7476298"
       height="2.2218339"
       id="rect82"
       style="fill:#b68b2d;stroke-width:1.33203483" /><rect
       x="117.7709"
       y="71.64064"
       width="4.9471774"
       height="9.8943548"
       id="rect84"
       style="fill:#454545;stroke-width:1.33203483" /><polygon
       transform="matrix(1.3320348,0,0,1.3320348,0.20683582,-14.371508)"
       points="88.259,71.998 86.4,70.141 86.4,66.428 88.259,64.572 "
       id="polygon86"
       style="fill:#454545" /><polygon
       transform="matrix(1.3320348,0,0,1.3320348,0.20683582,-14.371508)"
       points="93.829,70.141 91.971,71.998 91.971,64.572 93.829,66.428 "
       id="polygon88"
       style="fill:#454545" /><rect
       x="119.368"
       y="75.4729"
       width="1.7476298"
       height="2.2218339"
       id="rect90"
       style="fill:#b68b2d;stroke-width:1.33203483" /><rect
       x="127.36021"
       y="71.64064"
       width="4.9458451"
       height="9.8943548"
       id="rect92"
       style="fill:#454545;stroke-width:1.33203483" /><polygon
       transform="matrix(1.3320348,0,0,1.3320348,0.20683582,-14.371508)"
       points="95.458,71.998 93.602,70.141 93.602,66.428 95.458,64.572 "
       id="polygon94"
       style="fill:#454545" /><polygon
       transform="matrix(1.3320348,0,0,1.3320348,0.20683582,-14.371508)"
       points="101.029,70.141 99.171,71.998 99.171,64.572 101.029,66.428 "
       id="polygon96"
       style="fill:#454545" /><rect
       x="128.95998"
       y="75.4729"
       width="1.7476298"
       height="2.2218339"
       id="rect98"
       style="fill:#b68b2d;stroke-width:1.33203483" /><rect
       x="136.95218"
       y="71.64064"
       width="4.9458451"
       height="9.8943548"
       id="rect100"
       style="fill:#454545;stroke-width:1.33203483" /><polygon
       transform="matrix(1.3320348,0,0,1.3320348,0.20683582,-14.371508)"
       points="102.659,71.998 100.8,70.141 100.8,66.428 102.659,64.572 "
       id="polygon102"
       style="fill:#454545" /><polygon
       transform="matrix(1.3320348,0,0,1.3320348,0.20683582,-14.371508)"
       points="108.229,70.141 106.37,71.998 106.37,64.572 108.229,66.428 "
       id="polygon104"
       style="fill:#454545" /><rect
       x="138.54797"
       y="75.4729"
       width="1.7476298"
       height="2.2218339"
       id="rect106"
       style="fill:#b68b2d;stroke-width:1.33203483" /><rect
       x="146.54018"
       y="71.64064"
       width="4.9458451"
       height="9.8943548"
       id="rect108"
       style="fill:#454545;stroke-width:1.33203483" /><polygon
       transform="matrix(1.3320348,0,0,1.3320348,0.20683582,-14.371508)"
       points="109.857,71.998 108.001,70.141 108.001,66.428 109.857,64.572 "
       id="polygon110"
       style="fill:#454545" /><polygon
       transform="matrix(1.3320348,0,0,1.3320348,0.20683582,-14.371508)"
       points="115.43,70.141 113.57,71.998 113.57,64.572 115.43,66.428 "
       id="polygon112"
       style="fill:#454545" /><rect
       x="148.14394"
       y="75.4729"
       width="1.7476298"
       height="2.2218339"
       id="rect114"
       style="fill:#b68b2d;stroke-width:1.33203483" /><rect
       x="156.13615"
       y="71.64064"
       width="4.9458451"
       height="9.8943548"
       id="rect116"
       style="fill:#454545;stroke-width:1.33203483" /><polygon
       transform="matrix(1.3320348,0,0,1.3320348,0.20683582,-14.371508)"
       points="117.061,71.998 115.2,70.141 115.2,66.428 117.061,64.572 "
       id="polygon118"
       style="fill:#454545" /><polygon
       transform="matrix(1.3320348,0,0,1.3320348,0.20683582,-14.371508)"
       points="122.63,70.141 120.771,71.998 120.771,64.572 122.63,66.428 "
       id="polygon120"
       style="fill:#454545" /><rect
       x="157.73193"
       y="75.4729"
       width="1.7476298"
       height="2.2218339"
       id="rect122"
       style="fill:#b68b2d;stroke-width:1.33203483" /><text
       y="-66.804558"
       x="-162.22076"
       transform="scale(-1)"
       font-size="2.5"
       id="text274"
       style="font-size:3.33008695px;font-family:OCRA;fill:#ffffff;stroke-width:1.33203483">Vin</text>
<text
       y="-66.804558"
       x="-152.69884"
       transform="scale(-1)"
       font-size="2.5"
       id="text276"
       style="font-size:3.33008695px;font-family:OCRA;fill:#ffffff;stroke-width:1.33203483">GND</text>
<text
       y="-66.804558"
       x="-143.17679"
       transform="scale(-1)"
       font-size="2.5"
       id="text278"
       style="font-size:3.33008695px;font-family:OCRA;fill:#ffffff;stroke-width:1.33203483">RST</text>
<text
       y="-66.804558"
       x="-132.21095"
       transform="scale(-1)"
       font-size="2.5"
       id="text280"
       style="font-size:3.33008695px;font-family:OCRA;fill:#ffffff;stroke-width:1.33203483">EN</text>
<text
       y="-66.804558"
       x="-124.13297"
       transform="scale(-1)"
       font-size="2.5"
       id="text282"
       style="font-size:3.33008695px;font-family:OCRA;fill:#ffffff;stroke-width:1.33203483">3V3</text>
<text
       y="-66.804558"
       x="-114.61092"
       transform="scale(-1)"
       font-size="2.5"
       id="text284"
       style="font-size:3.33008695px;font-family:OCRA;fill:#ffffff;stroke-width:1.33203483">GND</text>
<text
       y="-66.804558"
       x="-105.089"
       transform="scale(-1)"
       font-size="2.5"
       id="text286"
       style="font-size:3.33008695px;font-family:OCRA;fill:#ffffff;stroke-width:1.33203483">CLK</text>
<text
       y="-66.804558"
       x="-95.56694"
       transform="scale(-1)"
       font-size="2.5"
       id="text288"
       style="font-size:3.33008695px;font-family:OCRA;fill:#ffffff;stroke-width:1.33203483">SD0</text>
<text
       y="-66.804558"
       x="-86.042496"
       transform="scale(-1)"
       font-size="2.5"
       id="text290"
       style="font-size:3.33008695px;font-family:OCRA;fill:#ffffff;stroke-width:1.33203483">CMD</text>
<text
       y="-66.804558"
       x="-76.520439"
       transform="scale(-1)"
       font-size="2.5"
       id="text292"
       style="font-size:3.33008695px;font-family:OCRA;fill:#ffffff;stroke-width:1.33203483">SD1</text>
<text
       y="-66.804558"
       x="-66.998528"
       transform="scale(-1)"
       font-size="2.5"
       id="text294"
       style="font-size:3.33008695px;font-family:OCRA;fill:#ffffff;stroke-width:1.33203483">SD2</text>
<text
       y="-66.804558"
       x="-57.476475"
       transform="scale(-1)"
       font-size="2.5"
       id="text296"
       style="font-size:3.33008695px;font-family:OCRA;fill:#ffffff;stroke-width:1.33203483">SD3</text>
<text
       y="-66.804558"
       x="-47.954556"
       transform="scale(-1)"
       font-size="2.5"
       id="text298"
       style="font-size:3.33008695px;font-family:OCRA;fill:#ffffff;stroke-width:1.33203483">RSV</text>
<text
       y="-66.804558"
       x="-38.43264"
       transform="scale(-1)"
       font-size="2.5"
       id="text300"
       style="font-size:3.33008695px;font-family:OCRA;fill:#ffffff;stroke-width:1.33203483">RSV</text>
<text
       y="-66.804558"
       x="-27.466661"
       transform="scale(-1)"
       font-size="2.5"
       id="text302"
       style="font-size:3.33008695px;font-family:OCRA;fill:#ffffff;stroke-width:1.33203483">A0</text>
<rect
       x="165.85132"
       y="19.061235"
       width="23.08816"
       height="29.082315"
       id="rect304"
       style="fill:#bec0c2;stroke-width:1.33203483" /><rect
       x="165.62354"
       y="3.7428331"
       width="10.433829"
       height="10.656279"
       id="rect306"
       style="fill:#bec0c2;stroke-width:1.33203483" /><circle
       cx="170.84645"
       cy="9.1828642"
       r="3.6630957"
       id="circle308"
       style="fill:#231f20;stroke-width:1.33203483" /><rect
       x="165.62354"
       y="52.76038"
       width="10.433829"
       height="10.656279"
       id="rect310"
       style="fill:#bec0c2;stroke-width:1.33203483" /><circle
       cx="170.84645"
       cy="58.200409"
       r="3.6630957"
       id="circle312"
       style="fill:#231f20;stroke-width:1.33203483" /><text
       y="164.07413"
       x="-14.618498"
       transform="rotate(-90)"
       font-size="2.5"
       id="text314"
       style="font-size:3.33008695px;font-family:OCRA;fill:#ffffff;stroke-width:1.33203483">FLASH</text>
<text
       y="164.07159"
       x="-61.018597"
       transform="rotate(-90)"
       font-size="2.5"
       id="text316"
       style="font-size:3.33008695px;font-family:OCRA;fill:#ffffff;stroke-width:1.33203483">RST</text>
<rect
       x="28.651731"
       y="7.5164866"
       width="57.943512"
       height="51.993317"
       id="rect318"
       style="fill:#5f5758;stroke-width:1.33203483" /><path
       id="rect320"
       d="m 3.6484375,10.626953 v 15.763672 h 0.140625 1.6074219 11.4296876 v 3.511719 H 3.7890625 v 1.55664 5.06836 H 5.5371094 16.826172 v 3.511718 H 5.5371094 3.7890625 v 1.556641 3.513672 1.554687 0.0039 h 1.7480469 v -0.0039 H 16.826172 v 3.511719 H 3.9667969 v 0.0059 h -0.00391 V 58.09375 H 5.7109375 29.273438 V 56.537109 H 24.220703 V 25.613281 H 22.474609 V 56.537109 H 5.7109375 v -4.80664 H 16.826172 v 0.002 h 1.748047 v -0.002 -6.621094 H 5.5371094 V 41.595703 H 18.574219 V 40.039062 34.970703 H 5.5371094 V 31.458984 H 18.574219 v -1.55664 -5.066406 H 5.3964844 V 10.626953 Z"
       style="fill:#b68b2d;stroke-width:1.33203483"
       inkscape:connector-curvature="0" /><rect
       x="144.0499"
       y="20.070917"
       width="12.266708"
       height="11.007936"
       id="rect350"
       style="fill:#524b4c;stroke-width:1.33203483" /><rect
       x="94.347694"
       y="17.294956"
       width="21.239294"
       height="8.2812605"
       id="rect352"
       style="fill:#4d4648;stroke-width:1.33203483" /><text
       style="font-size:15.98441696px;stroke-width:1.33203471"
       y="40.740097"
       x="95.169952"
       id="text360"><tspan
         style="font-size:9.32424355px;font-family:OCRA;fill:#ffffff;stroke-width:1.33203471"
         id="tspan356"
         font-size="7"
         y="40.740097"
         x="95.169952">NodeMCU </tspan><tspan
         style="font-size:9.32424355px;font-family:OCRA;fill:#ffffff;stroke-width:1.33203471"
         id="tspan358"
         font-size="7"
         y="51.929188"
         x="95.169952">V1.0</tspan></text>
<text
       style="font-size:5.32813883px;font-family:OCRA;fill:#ffffff;stroke-width:1.33203471"
       y="10.623058"
       x="93.854828"
       id="text362"
       font-size="4">blog.squix.ch</text>
</g></svg>