<?xml version="1.0" encoding="UTF-8" standalone="no"?>
<!-- Generator: Adobe Illustrator 15.0.0, SVG Export Plug-In . SVG Version: 6.00 Build 0)  -->

<svg
   xmlns:dc="http://purl.org/dc/elements/1.1/"
   xmlns:cc="http://creativecommons.org/ns#"
   xmlns:rdf="http://www.w3.org/1999/02/22-rdf-syntax-ns#"
   xmlns:svg="http://www.w3.org/2000/svg"
   xmlns="http://www.w3.org/2000/svg"
   xmlns:sodipodi="http://sodipodi.sourceforge.net/DTD/sodipodi-0.dtd"
   xmlns:inkscape="http://www.inkscape.org/namespaces/inkscape"
   version="1.1"
   id="Layer_1"
   x="0px"
   y="0px"
   width="178.16512"
   height="91.291084"
   viewBox="0 0 178.16512 91.291084"
   enable-background="new 0 0 141 72"
   xml:space="preserve"
   sodipodi:docname="NodeMCU_Fritzing_PCB.svg"
   inkscape:version="0.92.2 (5c3e80d, 2017-08-06)"><metadata
     id="metadata369"><rdf:RDF><cc:Work
         rdf:about=""><dc:format>image/svg+xml</dc:format><dc:type
           rdf:resource="http://purl.org/dc/dcmitype/StillImage" /><dc:title /></cc:Work></rdf:RDF></metadata><defs
     id="defs367" /><sodipodi:namedview
     pagecolor="#ffffff"
     bordercolor="#666666"
     borderopacity="1"
     objecttolerance="10"
     gridtolerance="10"
     guidetolerance="10"
     inkscape:pageopacity="0"
     inkscape:pageshadow="2"
     inkscape:window-width="2560"
     inkscape:window-height="1377"
     id="namedview365"
     showgrid="false"
     inkscape:zoom="3.7745387"
     inkscape:cx="89.376422"
     inkscape:cy="25.338149"
     inkscape:window-x="-8"
     inkscape:window-y="-8"
     inkscape:window-maximized="1"
     inkscape:current-layer="Layer_1"
     fit-margin-top="0"
     fit-margin-left="0"
     fit-margin-right="0"
     fit-margin-bottom="0" /><g
     id="g906"
     transform="matrix(0.08,0,0,0.08,-221.99165,-112.90179)"><g
       id="g908" /></g><g
     id="g912"
     transform="matrix(0.08,0,0,0.08,-221.99165,-112.90179)" /><g
     id="g920"
     transform="matrix(0.08,0,0,0.08,-221.99165,-112.90179)" /><g
     id="g926"
     transform="matrix(0.08,0,0,0.08,-221.99165,-112.90179)" /><g
     id="g932"
     transform="matrix(0.08,0,0,0.08,-221.99165,-112.90179)" /><g
     id="g938"
     transform="matrix(0.08,0,0,0.08,-221.99165,-112.90179)" /><g
     id="g944"
     transform="matrix(0.08,0,0,0.08,-221.99165,-112.90179)" /><g
     id="g950"
     transform="matrix(0.08,0,0,0.08,-221.99165,-112.90179)" /><g
     id="g956"
     transform="matrix(0.08,0,0,0.08,-221.99165,-112.90179)" /><g
     id="g962"
     transform="matrix(0.08,0,0,0.08,-221.99165,-112.90179)" /><g
     id="g968"
     transform="matrix(0.08,0,0,0.08,-221.99165,-112.90179)" /><g
     id="g974"
     transform="matrix(0.08,0,0,0.08,-221.99165,-112.90179)" /><g
     id="g980"
     transform="matrix(0.08,0,0,0.08,-221.99165,-112.90179)" /><g
     id="g986"
     transform="matrix(0.08,0,0,0.08,-221.99165,-112.90179)" /><g
     id="g992"
     transform="matrix(0.08,0,0,0.08,-221.99165,-112.90179)" /><g
     id="g998"
     transform="matrix(0.08,0,0,0.08,-221.99165,-112.90179)" /><g
     id="g1004"
     transform="matrix(0.08,0,0,0.08,-221.99165,-112.90179)" /><g
     id="g1010"
     transform="matrix(0.08,0,0,0.08,-221.99165,-112.90179)" /><g
     id="g1016"
     transform="matrix(0.08,0,0,0.08,-221.99165,-112.90179)" /><g
     id="g1022"
     transform="matrix(0.08,0,0,0.08,-221.99165,-112.90179)" /><g
     id="g1028"
     transform="matrix(0.08,0,0,0.08,-221.99165,-112.90179)" /><g
     id="g1034"
     transform="matrix(0.08,0,0,0.08,-221.99165,-112.90179)" /><g
     id="g1040"
     transform="matrix(0.08,0,0,0.08,-221.99165,-112.90179)" /><g
     id="g1046"
     transform="matrix(0.08,0,0,0.08,-221.99165,-112.90179)" /><g
     id="g1052"
     transform="matrix(0.08,0,0,0.08,-221.99165,-112.90179)" /><g
     id="g1058"
     transform="matrix(0.08,0,0,0.08,-221.99165,-112.90179)" /><g
     id="g1064"
     transform="matrix(0.08,0,0,0.08,-221.99165,-112.90179)" /><g
     id="g1070"
     transform="matrix(0.08,0,0,0.08,-221.99165,-112.90179)" /><g
     id="g1076"
     transform="matrix(0.08,0,0,0.08,-221.99165,-112.90179)" /><g
     id="g1082"
     transform="matrix(0.08,0,0,0.08,-221.99165,-112.90179)" /><g
     id="g1088"
     transform="matrix(0.08,0,0,0.08,-221.99165,-112.90179)" /><g
     id="g1102"
     transform="matrix(0.08,0,0,0.08,-221.99165,-112.90179)" /><g
     id="g1108"
     transform="matrix(0.08,0,0,0.08,-221.99165,-112.90179)" /><g
     id="g1114"
     transform="matrix(0.08,0,0,0.08,-221.99165,-112.90179)" /><g
     id="g1128"
     transform="matrix(0.08,0,0,0.08,-221.99165,-112.90179)" /><g
     id="g1134"
     transform="matrix(0.08,0,0,0.08,-221.99165,-112.90179)" /><g
     id="g1140"
     transform="matrix(0.08,0,0,0.08,-221.99165,-112.90179)" /><g
     id="g1146"
     transform="matrix(0.08,0,0,0.08,-221.99165,-112.90179)" /><g
     id="g1152"
     transform="matrix(0.08,0,0,0.08,-221.99165,-112.90179)" /><g
     id="g1158"
     transform="matrix(0.08,0,0,0.08,-221.99165,-112.90179)" /><g
     id="g1164"
     transform="matrix(0.08,0,0,0.08,-221.99165,-112.90179)" /><g
     id="g1170"
     transform="matrix(0.08,0,0,0.08,-221.99165,-112.90179)" /><g
     id="g1176"
     transform="matrix(0.08,0,0,0.08,-221.99165,-112.90179)" /><g
     id="g1182"
     transform="matrix(0.08,0,0,0.08,-221.99165,-112.90179)" /><g
     id="g1188"
     transform="matrix(0.08,0,0,0.08,-221.99165,-112.90179)" /><g
     id="g1194"
     transform="matrix(0.08,0,0,0.08,-221.99165,-112.90179)" /><g
     id="g1200"
     transform="matrix(0.08,0,0,0.08,-221.99165,-112.90179)" /><g
     id="g1206"
     transform="matrix(0.08,0,0,0.08,-221.99165,-112.90179)" /><g
     id="g1212"
     transform="matrix(0.08,0,0,0.08,-221.99165,-112.90179)" /><g
     id="g1218"
     transform="matrix(0.08,0,0,0.08,-221.99165,-112.90179)" /><g
     id="g1224"
     transform="matrix(0.08,0,0,0.08,-221.99165,-112.90179)" /><g
     id="g1230"
     transform="matrix(0.08,0,0,0.08,-221.99165,-112.90179)" /><g
     id="g1236"
     transform="matrix(0.08,0,0,0.08,-221.99165,-112.90179)" /><g
     id="g1242"
     transform="matrix(0.08,0,0,0.08,-221.99165,-112.90179)" /><g
     id="g1248"
     transform="matrix(0.08,0,0,0.08,-221.99165,-112.90179)" /><g
     id="g1254"
     transform="matrix(0.08,0,0,0.08,-221.99165,-112.90179)" /><g
     id="g1260"
     transform="matrix(0.08,0,0,0.08,-221.99165,-112.90179)" /><g
     id="g1266"
     transform="matrix(0.08,0,0,0.08,-221.99165,-112.90179)" /><g
     id="g1272"
     transform="matrix(0.08,0,0,0.08,-221.99165,-112.90179)" /><g
     id="g1278"
     transform="matrix(0.08,0,0,0.08,-221.99165,-112.90179)" /><g
     id="g1284"
     transform="matrix(0.08,0,0,0.08,-221.99165,-112.90179)" /><g
     id="g1290"
     transform="matrix(0.08,0,0,0.08,-221.99165,-112.90179)" /><g
     id="g1296"
     transform="matrix(0.08,0,0,0.08,-221.99165,-112.90179)" /><g
     id="g1302"
     transform="matrix(0.08,0,0,0.08,-221.99165,-112.90179)" /><g
     id="g1308"
     transform="matrix(0.08,0,0,0.08,-221.99165,-112.90179)" /><g
     id="g1314"
     transform="matrix(0.08,0,0,0.08,-221.99165,-112.90179)" /><g
     id="g1320"
     transform="matrix(0.08,0,0,0.08,-221.99165,-112.90179)" /><g
     id="g1326"
     transform="matrix(0.08,0,0,0.08,-221.99165,-112.90179)" /><g
     id="g1332"
     transform="matrix(0.08,0,0,0.08,-221.99165,-112.90179)" /><g
     id="g1338"
     transform="matrix(0.08,0,0,0.08,-221.99165,-112.90179)" /><g
     id="g1344"
     transform="matrix(0.08,0,0,0.08,-221.99165,-112.90179)" /><g
     id="g1350"
     transform="matrix(0.08,0,0,0.08,-221.99165,-112.90179)" /><g
     id="g1356"
     transform="matrix(0.08,0,0,0.08,-221.99165,-112.90179)" /><g
     id="g1362"
     transform="matrix(0.08,0,0,0.08,-221.99165,-112.90179)" /><g
     id="g1368"
     transform="matrix(0.08,0,0,0.08,-221.99165,-112.90179)" /><g
     id="g1374"
     transform="matrix(0.08,0,0,0.08,-221.99165,-112.90179)" /><g
     id="g1380"
     transform="matrix(0.08,0,0,0.08,-221.99165,-112.90179)" /><g
     id="g1386"
     transform="matrix(0.08,0,0,0.08,-221.99165,-112.90179)" /><g
     id="g1392"
     transform="matrix(0.08,0,0,0.08,-221.99165,-112.90179)" /><g
     id="g1398"
     transform="matrix(0.08,0,0,0.08,-221.99165,-112.90179)" /><g
     id="g1404"
     transform="matrix(0.08,0,0,0.08,-221.99165,-112.90179)" /><g
     id="g1410"
     transform="matrix(0.08,0,0,0.08,-221.99165,-112.90179)" /><g
     id="g1416"
     transform="matrix(0.08,0,0,0.08,-221.99165,-112.90179)" /><g
     id="g1422"
     transform="matrix(0.08,0,0,0.08,-221.99165,-112.90179)" /><g
     id="g1428"
     transform="matrix(0.08,0,0,0.08,-221.99165,-112.90179)" /><g
     id="g1434"
     transform="matrix(0.08,0,0,0.08,-221.99165,-112.90179)" /><g
     id="g1440"
     transform="matrix(0.08,0,0,0.08,-221.99165,-112.90179)" /><g
     id="g1446"
     transform="matrix(0.08,0,0,0.08,-221.99165,-112.90179)" /><g
     id="g1452"
     transform="matrix(0.08,0,0,0.08,-221.99165,-112.90179)" /><g
     id="g1458"
     transform="matrix(0.08,0,0,0.08,-221.99165,-112.90179)" /><g
     id="g1464"
     transform="matrix(0.08,0,0,0.08,-221.99165,-112.90179)" /><g
     id="g1470"
     transform="matrix(0.08,0,0,0.08,-221.99165,-112.90179)" /><g
     id="g1476"
     transform="matrix(0.08,0,0,0.08,-221.99165,-112.90179)" /><g
     id="g1482"
     transform="matrix(0.08,0,0,0.08,-221.99165,-112.90179)" /><g
     id="g1488"
     transform="matrix(0.08,0,0,0.08,-221.99165,-112.90179)" /><g
     id="g1494"
     transform="matrix(0.08,0,0,0.08,-221.99165,-112.90179)" /><g
     id="g1500"
     transform="matrix(0.08,0,0,0.08,-221.99165,-112.90179)" /><g
     id="g1506"
     transform="matrix(0.08,0,0,0.08,-221.99165,-112.90179)" /><g
     id="g1512"
     transform="matrix(0.08,0,0,0.08,-221.99165,-112.90179)" /><g
     id="g1518"
     transform="matrix(0.08,0,0,0.08,-221.99165,-112.90179)" /><g
     id="g1524"
     transform="matrix(0.08,0,0,0.08,-221.99165,-112.90179)" /><g
     id="g1530"
     transform="matrix(0.08,0,0,0.08,-221.99165,-112.90179)" /><g
     id="g1646"
     transform="matrix(0.08,0,0,0.08,-221.99165,-112.90179)" /><g
     id="g1318"><g
       transform="matrix(0.93884925,0,0,0.93884925,0.62528995,0.62528992)"
       id="silkscreen"><path
         style="fill:none;stroke:#000000;stroke-width:1.33203483;stroke-opacity:1"
         inkscape:connector-curvature="0"
         id="path2"
         d="M 175.49692,3.4800006e-8 H 6.6655021 C 2.9837579,3.4800006e-8 0,3.018391 0,6.7440922 V 89.162413 c 0,3.723038 2.9837579,6.742761 6.6655021,6.742761 H 175.49692 c 3.68307,0 6.6695,-3.021055 6.6695,-6.742761 V 6.7427601 C 182.16642,3.018391 179.17999,3.4800006e-8 175.49692,3.4800006e-8 Z M 8.7021833,2.422971 c 3.1329457,0 5.6731357,2.5628352 5.6731357,5.7210897 0,3.1569223 -2.537526,5.7184253 -5.6731357,5.7184253 -3.1369419,0 -5.6758003,-2.560171 -5.6758003,-5.7184253 0,-3.1569224 2.5388584,-5.7210897 5.6758003,-5.7210897 z m 0,91.358939 c -3.1369419,0 -5.6758003,-2.557507 -5.6758003,-5.715761 0,-3.160919 2.5375263,-5.726418 5.6758003,-5.726418 3.1329457,0 5.6731357,2.565499 5.6731357,5.726418 0,3.158254 -2.54019,5.715761 -5.6731357,5.715761 z m 165.1949567,0 c -3.1356,0 -5.67446,-2.557507 -5.67446,-5.715761 0,-3.160919 2.53752,-5.726418 5.67446,-5.726418 3.13428,0 5.67314,2.565499 5.67314,5.726418 0,3.158254 -2.54019,5.715761 -5.67314,5.715761 z m 0,-79.919424 c -3.1356,0 -5.67446,-2.561503 -5.67446,-5.7184253 0,-3.1569224 2.53752,-5.7197577 5.67446,-5.7197577 3.13428,0 5.67314,2.5615032 5.67314,5.7197577 0,3.1555903 -2.54019,5.7184253 -5.67314,5.7184253 z" /><text
         style="font-size:3.33008695px;font-family:OCRA;fill:#000000;stroke-width:1.33203483"
         id="text244"
         font-size="2.5"
         x="19.712515"
         y="14.34415">D0</text>
<text
         style="font-size:3.33008695px;font-family:OCRA;fill:#000000;stroke-width:1.33203483"
         id="text246"
         font-size="2.5"
         x="29.423849"
         y="14.341486">D1</text>
<text
         style="font-size:3.33008695px;font-family:OCRA;fill:#000000;stroke-width:1.33203483"
         id="text248"
         font-size="2.5"
         x="39.135715"
         y="14.341486">D2</text>
<text
         style="font-size:3.33008695px;font-family:OCRA;fill:#000000;stroke-width:1.33203483"
         id="text250"
         font-size="2.5"
         x="48.846916"
         y="14.341486">D3</text>
<text
         style="font-size:3.33008695px;font-family:OCRA;fill:#000000;stroke-width:1.33203483"
         id="text252"
         font-size="2.5"
         x="58.558113"
         y="14.341486">D4</text>
<text
         style="font-size:3.33008695px;font-family:OCRA;fill:#000000;stroke-width:1.33203483"
         id="text254"
         font-size="2.5"
         x="67.066093"
         y="14.341486">3V3</text>
<text
         style="font-size:3.33008695px;font-family:OCRA;fill:#000000;stroke-width:1.33203483"
         id="text256"
         font-size="2.5"
         x="76.77742"
         y="14.341486">GND</text>
<text
         style="font-size:3.33008695px;font-family:OCRA;fill:#000000;stroke-width:1.33203483"
         id="text258"
         font-size="2.5"
         x="87.692513"
         y="14.34415">D5</text>
<text
         style="font-size:3.33008695px;font-family:OCRA;fill:#000000;stroke-width:1.33203483"
         id="text260"
         font-size="2.5"
         x="97.403717"
         y="14.341486">D6</text>
<text
         style="font-size:3.33008695px;font-family:OCRA;fill:#000000;stroke-width:1.33203483"
         id="text262"
         font-size="2.5"
         x="107.11558"
         y="14.34415">D7</text>
<text
         style="font-size:3.33008695px;font-family:OCRA;fill:#000000;stroke-width:1.33203483"
         id="text264"
         font-size="2.5"
         x="116.82758"
         y="14.341486">D8</text>
<text
         style="font-size:3.33008695px;font-family:OCRA;fill:#000000;stroke-width:1.33203483"
         id="text266"
         font-size="2.5"
         x="126.53811"
         y="14.34415">RX</text>
<text
         style="font-size:3.33008695px;font-family:OCRA;fill:#000000;stroke-width:1.33203483"
         id="text268"
         font-size="2.5"
         x="136.24997"
         y="14.341486">TX</text>
<text
         style="font-size:3.33008695px;font-family:OCRA;fill:#000000;stroke-width:1.33203483"
         id="text270"
         font-size="2.5"
         x="144.75728"
         y="14.34415">GND</text>
<text
         style="font-size:3.33008695px;font-family:OCRA;fill:#000000;stroke-width:1.33203483"
         id="text272"
         font-size="2.5"
         x="154.46915"
         y="14.341486">3V3</text>
<text
         style="font-size:3.33008695px;font-family:OCRA;fill:#000000;stroke-width:1.33203483"
         id="text274"
         font-size="2.5"
         transform="scale(-1)"
         x="-161.71892"
         y="-81.177399">Vin</text>
<text
         style="font-size:3.33008695px;font-family:OCRA;fill:#000000;stroke-width:1.33203483"
         id="text276"
         font-size="2.5"
         transform="scale(-1)"
         x="-152.19699"
         y="-81.177399">GND</text>
<text
         style="font-size:3.33008695px;font-family:OCRA;fill:#000000;stroke-width:1.33203483"
         id="text278"
         font-size="2.5"
         transform="scale(-1)"
         x="-142.67494"
         y="-81.177399">RST</text>
<text
         style="font-size:3.33008695px;font-family:OCRA;fill:#000000;stroke-width:1.33203483"
         id="text280"
         font-size="2.5"
         transform="scale(-1)"
         x="-131.70911"
         y="-81.177399">EN</text>
<text
         style="font-size:3.33008695px;font-family:OCRA;fill:#000000;stroke-width:1.33203483"
         id="text282"
         font-size="2.5"
         transform="scale(-1)"
         x="-123.63113"
         y="-81.177399">3V3</text>
<text
         style="font-size:3.33008695px;font-family:OCRA;fill:#000000;stroke-width:1.33203483"
         id="text284"
         font-size="2.5"
         transform="scale(-1)"
         x="-114.10909"
         y="-81.177399">GND</text>
<text
         style="font-size:3.33008695px;font-family:OCRA;fill:#000000;stroke-width:1.33203483"
         id="text286"
         font-size="2.5"
         transform="scale(-1)"
         x="-104.58716"
         y="-81.177399">CLK</text>
<text
         style="font-size:3.33008695px;font-family:OCRA;fill:#000000;stroke-width:1.33203483"
         id="text288"
         font-size="2.5"
         transform="scale(-1)"
         x="-95.065102"
         y="-81.177399">SD0</text>
<text
         style="font-size:3.33008695px;font-family:OCRA;fill:#000000;stroke-width:1.33203483"
         id="text290"
         font-size="2.5"
         transform="scale(-1)"
         x="-85.540657"
         y="-81.177399">CMD</text>
<text
         style="font-size:3.33008695px;font-family:OCRA;fill:#000000;stroke-width:1.33203483"
         id="text292"
         font-size="2.5"
         transform="scale(-1)"
         x="-76.0186"
         y="-81.177399">SD1</text>
<text
         style="font-size:3.33008695px;font-family:OCRA;fill:#000000;stroke-width:1.33203483"
         id="text294"
         font-size="2.5"
         transform="scale(-1)"
         x="-66.496689"
         y="-81.177399">SD2</text>
<text
         style="font-size:3.33008695px;font-family:OCRA;fill:#000000;stroke-width:1.33203483"
         id="text296"
         font-size="2.5"
         transform="scale(-1)"
         x="-56.974632"
         y="-81.177399">SD3</text>
<text
         style="font-size:3.33008695px;font-family:OCRA;fill:#000000;stroke-width:1.33203483"
         id="text298"
         font-size="2.5"
         transform="scale(-1)"
         x="-47.452713"
         y="-81.177399">RSV</text>
<text
         style="font-size:3.33008695px;font-family:OCRA;fill:#000000;stroke-width:1.33203483"
         id="text300"
         font-size="2.5"
         transform="scale(-1)"
         x="-37.930798"
         y="-81.177399">RSV</text>
<text
         style="font-size:3.33008695px;font-family:OCRA;fill:#000000;stroke-width:1.33203483"
         id="text302"
         font-size="2.5"
         transform="scale(-1)"
         x="-26.964819"
         y="-81.177399">A0</text>
<rect
         style="fill:none;stroke:#000000;stroke-width:1.33203483;stroke-opacity:1"
         id="rect304"
         height="29.082315"
         width="23.08816"
         y="33.434074"
         x="165.34947" /><circle
         style="fill:#231f20;stroke-width:1.33203483"
         id="circle308"
         r="3.6630957"
         cy="23.555704"
         cx="170.3446" /><circle
         style="fill:#231f20;stroke-width:1.33203483"
         id="circle312"
         r="3.6630957"
         cy="72.57325"
         cx="170.3446" /><text
         style="font-size:3.33008695px;font-family:OCRA;fill:#000000;stroke-width:1.33203483"
         id="text314"
         font-size="2.5"
         transform="rotate(-90)"
         x="-28.991339"
         y="163.57228">FLASH</text>
<text
         style="font-size:3.33008695px;font-family:OCRA;fill:#000000;stroke-width:1.33203483"
         id="text316"
         font-size="2.5"
         transform="rotate(-90)"
         x="-75.391434"
         y="163.56975">RST</text>
<rect
         style="fill:none;stroke:#000000;stroke-width:1.33203483;stroke-opacity:1"
         id="rect318"
         height="51.993317"
         width="57.943512"
         y="21.889326"
         x="28.149889" /><path
         sodipodi:nodetypes="ccccccccccccccccccccccccccccccccccccccccccccccc"
         style="fill:#000000;stroke-width:1.33203483"
         d="M 3.1464844,25 V 40.763672 H 16.324219 v 3.511719 H 3.2871094 v 6.625 H 16.324219 v 3.511718 H 5.0351562 3.2871094 v 1.556641 3.513672 1.554687 0.0039 h 1.7480468 v -0.0039 H 16.324219 v 3.509766 c -4.287109,0 -8.5742189,0 -12.8613284,0 v 7.919922 H 5.2089844 28.771484 V 70.910156 H 23.71875 V 39.986328 H 21.972656 V 70.910156 H 5.2089844 v -4.80664 H 16.324219 v 0.002 h 1.748047 v -0.002 -6.621094 H 5.0351562 V 55.96875 H 18.072266 V 54.412109 49.34375 H 5.0351562 V 45.832031 H 18.072266 v -1.55664 -5.066407 H 4.8945312 V 25 Z"
         id="rect320"
         inkscape:connector-curvature="0" /><text
         id="text360-4"
         x="34.328705"
         y="59.310982"
         style="font-size:15.98441696px;fill:#000000;stroke-width:1.33203471"><tspan
           x="34.328705"
           y="59.310982"
           font-size="7"
           id="tspan356-0"
           style="font-size:9.32424355px;font-family:OCRA;fill:#000000;stroke-width:1.33203471">NodeMCU</tspan><tspan
           x="34.328705"
           y="70.500076"
           font-size="7"
           id="tspan358-8"
           style="font-size:9.32424355px;font-family:OCRA;fill:#000000;stroke-width:1.33203471">V1.0</tspan></text>
<text
         font-size="4"
         id="text362-9"
         x="33.01358"
         y="29.193943"
         style="font-size:5.32813883px;font-family:OCRA;fill:#000000;stroke-width:1.33203471">blog.squix.ch</text>
</g><g
       id="copper1"><g
         id="copper0"><path
           d="m 22.977419,83.795919 c 1.356431,0 2.456034,1.099603 2.456034,2.456024 0,1.356431 -1.099603,2.45603 -2.456034,2.45603 -1.356431,0 -2.456035,-1.099599 -2.456035,-2.45603 0,-1.356421 1.099604,-2.456024 2.456035,-2.456024 z"
           style="fill:none;stroke:#ffbf00;stroke-width:1.75752664;stroke-linecap:butt;stroke-linejoin:miter;stroke-miterlimit:4;stroke-dasharray:none;stroke-opacity:1"
           id="path3231"
           inkscape:connector-curvature="0" /><path
           inkscape:connector-curvature="0"
           id="path3233"
           style="fill:none;stroke:#ffbf00;stroke-width:1.75752664;stroke-linecap:butt;stroke-linejoin:miter;stroke-miterlimit:4;stroke-dasharray:none;stroke-opacity:1"
           d="m 31.990372,83.795919 c 1.35643,0 2.456034,1.099603 2.456034,2.456024 0,1.356431 -1.099604,2.45603 -2.456034,2.45603 -1.356431,0 -2.456035,-1.099599 -2.456035,-2.45603 0,-1.356421 1.099604,-2.456024 2.456035,-2.456024 z" /><path
           d="m 41.003325,83.795919 c 1.35643,0 2.456034,1.099603 2.456034,2.456024 0,1.356431 -1.099604,2.45603 -2.456034,2.45603 -1.356431,0 -2.456036,-1.099599 -2.456036,-2.45603 0,-1.356421 1.099605,-2.456024 2.456036,-2.456024 z"
           style="fill:none;stroke:#ffbf00;stroke-width:1.75752664;stroke-linecap:butt;stroke-linejoin:miter;stroke-miterlimit:4;stroke-dasharray:none;stroke-opacity:1"
           id="path3235"
           inkscape:connector-curvature="0" /><path
           inkscape:connector-curvature="0"
           id="path3237"
           style="fill:none;stroke:#ffbf00;stroke-width:1.75752664;stroke-linecap:butt;stroke-linejoin:miter;stroke-miterlimit:4;stroke-dasharray:none;stroke-opacity:1"
           d="m 50.016277,83.795919 c 1.356431,0 2.456035,1.099603 2.456035,2.456024 0,1.356431 -1.099604,2.45603 -2.456035,2.45603 -1.35643,0 -2.456035,-1.099599 -2.456035,-2.45603 0,-1.356421 1.099605,-2.456024 2.456035,-2.456024 z" /><path
           d="m 59.02923,83.795919 c 1.356431,0 2.456035,1.099603 2.456035,2.456024 0,1.356431 -1.099604,2.45603 -2.456035,2.45603 -1.35643,0 -2.456035,-1.099599 -2.456035,-2.45603 0,-1.356421 1.099605,-2.456024 2.456035,-2.456024 z"
           style="fill:none;stroke:#ffbf00;stroke-width:1.75752664;stroke-linecap:butt;stroke-linejoin:miter;stroke-miterlimit:4;stroke-dasharray:none;stroke-opacity:1"
           id="path3239"
           inkscape:connector-curvature="0" /><path
           inkscape:connector-curvature="0"
           id="path3241"
           style="fill:none;stroke:#ffbf00;stroke-width:1.75752664;stroke-linecap:butt;stroke-linejoin:miter;stroke-miterlimit:4;stroke-dasharray:none;stroke-opacity:1"
           d="m 68.042183,83.795919 c 1.356431,0 2.456034,1.099603 2.456034,2.456024 0,1.356431 -1.099603,2.45603 -2.456034,2.45603 -1.356431,0 -2.456035,-1.099599 -2.456035,-2.45603 0,-1.356421 1.099604,-2.456024 2.456035,-2.456024 z" /><path
           d="m 77.055136,83.795919 c 1.35643,0 2.456034,1.099603 2.456034,2.456024 0,1.356431 -1.099604,2.45603 -2.456034,2.45603 -1.356431,0 -2.456035,-1.099599 -2.456035,-2.45603 0,-1.356421 1.099604,-2.456024 2.456035,-2.456024 z"
           style="fill:none;stroke:#ffbf00;stroke-width:1.75752664;stroke-linecap:butt;stroke-linejoin:miter;stroke-miterlimit:4;stroke-dasharray:none;stroke-opacity:1"
           id="path3243"
           inkscape:connector-curvature="0" /><path
           inkscape:connector-curvature="0"
           id="path3245"
           style="fill:none;stroke:#ffbf00;stroke-width:1.75752664;stroke-linecap:butt;stroke-linejoin:miter;stroke-miterlimit:4;stroke-dasharray:none;stroke-opacity:1"
           d="m 86.068089,83.795919 c 1.35643,0 2.456034,1.099603 2.456034,2.456024 0,1.356431 -1.099604,2.45603 -2.456034,2.45603 -1.356431,0 -2.456036,-1.099599 -2.456036,-2.45603 0,-1.356421 1.099605,-2.456024 2.456036,-2.456024 z" /><path
           d="m 95.081043,83.795919 c 1.356431,0 2.45603,1.099603 2.45603,2.456024 0,1.356431 -1.099599,2.45603 -2.45603,2.45603 -1.356432,0 -2.456037,-1.099599 -2.456037,-2.45603 0,-1.356421 1.099605,-2.456024 2.456037,-2.456024 z"
           style="fill:none;stroke:#ffbf00;stroke-width:1.75752664;stroke-linecap:butt;stroke-linejoin:miter;stroke-miterlimit:4;stroke-dasharray:none;stroke-opacity:1"
           id="path3247"
           inkscape:connector-curvature="0" /><path
           inkscape:connector-curvature="0"
           id="path3249"
           style="fill:none;stroke:#ffbf00;stroke-width:1.75752664;stroke-linecap:butt;stroke-linejoin:miter;stroke-miterlimit:4;stroke-dasharray:none;stroke-opacity:1"
           d="m 104.094,83.795919 c 1.35643,0 2.45603,1.099603 2.45603,2.456024 0,1.356431 -1.0996,2.45603 -2.45603,2.45603 -1.35643,0 -2.45604,-1.099599 -2.45604,-2.45603 0,-1.356421 1.09961,-2.456024 2.45604,-2.456024 z" /><path
           d="m 113.10695,83.795919 c 1.35643,0 2.45603,1.099603 2.45603,2.456024 0,1.356431 -1.0996,2.45603 -2.45603,2.45603 -1.35643,0 -2.45604,-1.099599 -2.45604,-2.45603 0,-1.356421 1.09961,-2.456024 2.45604,-2.456024 z"
           style="fill:none;stroke:#ffbf00;stroke-width:1.75752664;stroke-linecap:butt;stroke-linejoin:miter;stroke-miterlimit:4;stroke-dasharray:none;stroke-opacity:1"
           id="path3251"
           inkscape:connector-curvature="0" /><path
           inkscape:connector-curvature="0"
           id="path3253"
           style="fill:none;stroke:#ffbf00;stroke-width:1.75752664;stroke-linecap:butt;stroke-linejoin:miter;stroke-miterlimit:4;stroke-dasharray:none;stroke-opacity:1"
           d="m 122.1199,83.795919 c 1.35643,0 2.45603,1.099603 2.45603,2.456024 0,1.356431 -1.0996,2.45603 -2.45603,2.45603 -1.35643,0 -2.45604,-1.099599 -2.45604,-2.45603 0,-1.356421 1.09961,-2.456024 2.45604,-2.456024 z" /><path
           d="m 131.13285,83.795919 c 1.35644,0 2.45603,1.099603 2.45603,2.456024 0,1.356431 -1.09959,2.45603 -2.45603,2.45603 -1.35643,0 -2.45603,-1.099599 -2.45603,-2.45603 0,-1.356421 1.0996,-2.456024 2.45603,-2.456024 z"
           style="fill:none;stroke:#ffbf00;stroke-width:1.75752664;stroke-linecap:butt;stroke-linejoin:miter;stroke-miterlimit:4;stroke-dasharray:none;stroke-opacity:1"
           id="path3255"
           inkscape:connector-curvature="0" /><path
           inkscape:connector-curvature="0"
           id="path3257"
           style="fill:none;stroke:#ffbf00;stroke-width:1.75752664;stroke-linecap:butt;stroke-linejoin:miter;stroke-miterlimit:4;stroke-dasharray:none;stroke-opacity:1"
           d="m 140.14581,83.795919 c 1.35643,0 2.45603,1.099603 2.45603,2.456024 0,1.356431 -1.0996,2.45603 -2.45603,2.45603 -1.35643,0 -2.45604,-1.099599 -2.45604,-2.45603 0,-1.356421 1.09961,-2.456024 2.45604,-2.456024 z" /><path
           d="m 149.15876,83.795919 c 1.35643,0 2.45603,1.099603 2.45603,2.456024 0,1.356431 -1.0996,2.45603 -2.45603,2.45603 -1.35643,0 -2.45604,-1.099599 -2.45604,-2.45603 0,-1.356421 1.09961,-2.456024 2.45604,-2.456024 z"
           style="fill:none;stroke:#ffbf00;stroke-width:1.75752664;stroke-linecap:butt;stroke-linejoin:miter;stroke-miterlimit:4;stroke-dasharray:none;stroke-opacity:1"
           id="path3259"
           inkscape:connector-curvature="0" /><path
           inkscape:connector-curvature="0"
           id="path3278"
           style="fill:none;stroke:#ffbf00;stroke-width:1.75752664;stroke-linecap:butt;stroke-linejoin:miter;stroke-miterlimit:4;stroke-dasharray:none;stroke-opacity:1"
           d="m 22.977419,2.6927228 c 1.356431,0 2.456034,1.0996027 2.456034,2.456024 0,1.3564306 -1.099603,2.4560296 -2.456034,2.4560296 -1.356431,0 -2.456035,-1.099599 -2.456035,-2.4560296 0,-1.3564213 1.099604,-2.456024 2.456035,-2.456024 z" /><path
           d="m 31.990372,2.6927228 c 1.35643,0 2.456034,1.0996027 2.456034,2.456024 0,1.3564306 -1.099604,2.4560296 -2.456034,2.4560296 -1.356431,0 -2.456035,-1.099599 -2.456035,-2.4560296 0,-1.3564213 1.099604,-2.456024 2.456035,-2.456024 z"
           style="fill:none;stroke:#ffbf00;stroke-width:1.75752664;stroke-linecap:butt;stroke-linejoin:miter;stroke-miterlimit:4;stroke-dasharray:none;stroke-opacity:1"
           id="path3280"
           inkscape:connector-curvature="0" /><path
           inkscape:connector-curvature="0"
           id="path3282"
           style="fill:none;stroke:#ffbf00;stroke-width:1.75752664;stroke-linecap:butt;stroke-linejoin:miter;stroke-miterlimit:4;stroke-dasharray:none;stroke-opacity:1"
           d="m 41.003325,2.6927228 c 1.35643,0 2.456034,1.0996027 2.456034,2.456024 0,1.3564306 -1.099604,2.4560296 -2.456034,2.4560296 -1.356431,0 -2.456036,-1.099599 -2.456036,-2.4560296 0,-1.3564213 1.099605,-2.456024 2.456036,-2.456024 z" /><path
           d="m 50.016277,2.6927228 c 1.356431,0 2.456035,1.0996027 2.456035,2.456024 0,1.3564306 -1.099604,2.4560296 -2.456035,2.4560296 -1.35643,0 -2.456035,-1.099599 -2.456035,-2.4560296 0,-1.3564213 1.099605,-2.456024 2.456035,-2.456024 z"
           style="fill:none;stroke:#ffbf00;stroke-width:1.75752664;stroke-linecap:butt;stroke-linejoin:miter;stroke-miterlimit:4;stroke-dasharray:none;stroke-opacity:1"
           id="path3284"
           inkscape:connector-curvature="0" /><path
           inkscape:connector-curvature="0"
           id="path3286"
           style="fill:none;stroke:#ffbf00;stroke-width:1.75752664;stroke-linecap:butt;stroke-linejoin:miter;stroke-miterlimit:4;stroke-dasharray:none;stroke-opacity:1"
           d="m 59.02923,2.6927228 c 1.356431,0 2.456035,1.0996027 2.456035,2.456024 0,1.3564306 -1.099604,2.4560296 -2.456035,2.4560296 -1.35643,0 -2.456035,-1.099599 -2.456035,-2.4560296 0,-1.3564213 1.099605,-2.456024 2.456035,-2.456024 z" /><path
           d="m 68.042183,2.6927228 c 1.356431,0 2.456034,1.0996027 2.456034,2.456024 0,1.3564306 -1.099603,2.4560296 -2.456034,2.4560296 -1.356431,0 -2.456035,-1.099599 -2.456035,-2.4560296 0,-1.3564213 1.099604,-2.456024 2.456035,-2.456024 z"
           style="fill:none;stroke:#ffbf00;stroke-width:1.75752664;stroke-linecap:butt;stroke-linejoin:miter;stroke-miterlimit:4;stroke-dasharray:none;stroke-opacity:1"
           id="path3288"
           inkscape:connector-curvature="0" /><path
           inkscape:connector-curvature="0"
           id="path3290"
           style="fill:none;stroke:#ffbf00;stroke-width:1.75752664;stroke-linecap:butt;stroke-linejoin:miter;stroke-miterlimit:4;stroke-dasharray:none;stroke-opacity:1"
           d="m 77.055136,2.6927228 c 1.35643,0 2.456034,1.0996027 2.456034,2.456024 0,1.3564306 -1.099604,2.4560296 -2.456034,2.4560296 -1.356431,0 -2.456035,-1.099599 -2.456035,-2.4560296 0,-1.3564213 1.099604,-2.456024 2.456035,-2.456024 z" /><path
           d="m 86.068089,2.6927228 c 1.35643,0 2.456034,1.0996027 2.456034,2.456024 0,1.3564306 -1.099604,2.4560296 -2.456034,2.4560296 -1.356431,0 -2.456036,-1.099599 -2.456036,-2.4560296 0,-1.3564213 1.099605,-2.456024 2.456036,-2.456024 z"
           style="fill:none;stroke:#ffbf00;stroke-width:1.75752664;stroke-linecap:butt;stroke-linejoin:miter;stroke-miterlimit:4;stroke-dasharray:none;stroke-opacity:1"
           id="path3292"
           inkscape:connector-curvature="0" /><path
           inkscape:connector-curvature="0"
           id="path3294"
           style="fill:none;stroke:#ffbf00;stroke-width:1.75752664;stroke-linecap:butt;stroke-linejoin:miter;stroke-miterlimit:4;stroke-dasharray:none;stroke-opacity:1"
           d="m 95.081043,2.6927228 c 1.356431,0 2.45603,1.0996027 2.45603,2.456024 0,1.3564306 -1.099599,2.4560296 -2.45603,2.4560296 -1.356432,0 -2.456037,-1.099599 -2.456037,-2.4560296 0,-1.3564213 1.099605,-2.456024 2.456037,-2.456024 z" /><path
           d="m 104.094,2.6927228 c 1.35643,0 2.45603,1.0996027 2.45603,2.456024 0,1.3564306 -1.0996,2.4560296 -2.45603,2.4560296 -1.35643,0 -2.45604,-1.099599 -2.45604,-2.4560296 0,-1.3564213 1.09961,-2.456024 2.45604,-2.456024 z"
           style="fill:none;stroke:#ffbf00;stroke-width:1.75752664;stroke-linecap:butt;stroke-linejoin:miter;stroke-miterlimit:4;stroke-dasharray:none;stroke-opacity:1"
           id="path3296"
           inkscape:connector-curvature="0" /><path
           inkscape:connector-curvature="0"
           id="path3298"
           style="fill:none;stroke:#ffbf00;stroke-width:1.75752664;stroke-linecap:butt;stroke-linejoin:miter;stroke-miterlimit:4;stroke-dasharray:none;stroke-opacity:1"
           d="m 113.10695,2.6927228 c 1.35643,0 2.45603,1.0996027 2.45603,2.456024 0,1.3564306 -1.0996,2.4560296 -2.45603,2.4560296 -1.35643,0 -2.45604,-1.099599 -2.45604,-2.4560296 0,-1.3564213 1.09961,-2.456024 2.45604,-2.456024 z" /><path
           d="m 122.1199,2.6927228 c 1.35643,0 2.45603,1.0996027 2.45603,2.456024 0,1.3564306 -1.0996,2.4560296 -2.45603,2.4560296 -1.35643,0 -2.45604,-1.099599 -2.45604,-2.4560296 0,-1.3564213 1.09961,-2.456024 2.45604,-2.456024 z"
           style="fill:none;stroke:#ffbf00;stroke-width:1.75752664;stroke-linecap:butt;stroke-linejoin:miter;stroke-miterlimit:4;stroke-dasharray:none;stroke-opacity:1"
           id="path3300"
           inkscape:connector-curvature="0" /><path
           inkscape:connector-curvature="0"
           id="path3302"
           style="fill:none;stroke:#ffbf00;stroke-width:1.75752664;stroke-linecap:butt;stroke-linejoin:miter;stroke-miterlimit:4;stroke-dasharray:none;stroke-opacity:1"
           d="m 131.13285,2.6927228 c 1.35644,0 2.45603,1.0996027 2.45603,2.456024 0,1.3564306 -1.09959,2.4560296 -2.45603,2.4560296 -1.35643,0 -2.45603,-1.099599 -2.45603,-2.4560296 0,-1.3564213 1.0996,-2.456024 2.45603,-2.456024 z" /><path
           d="m 140.14581,2.6927228 c 1.35643,0 2.45603,1.0996027 2.45603,2.456024 0,1.3564306 -1.0996,2.4560296 -2.45603,2.4560296 -1.35643,0 -2.45604,-1.099599 -2.45604,-2.4560296 0,-1.3564213 1.09961,-2.456024 2.45604,-2.456024 z"
           style="fill:none;stroke:#ffbf00;stroke-width:1.75752664;stroke-linecap:butt;stroke-linejoin:miter;stroke-miterlimit:4;stroke-dasharray:none;stroke-opacity:1"
           id="path3304"
           inkscape:connector-curvature="0" /><path
           inkscape:connector-curvature="0"
           id="path3306"
           style="fill:none;stroke:#ffbf00;stroke-width:1.75752664;stroke-linecap:butt;stroke-linejoin:miter;stroke-miterlimit:4;stroke-dasharray:none;stroke-opacity:1"
           d="m 149.15876,2.6927228 c 1.35643,0 2.45603,1.0996027 2.45603,2.456024 0,1.3564306 -1.0996,2.4560296 -2.45603,2.4560296 -1.35643,0 -2.45604,-1.099599 -2.45604,-2.4560296 0,-1.3564213 1.09961,-2.456024 2.45604,-2.456024 z" /></g></g></g></svg>