<?xml version="1.0" encoding="UTF-8" standalone="no"?>
<!-- Generator: Adobe Illustrator 15.0.0, SVG Export Plug-In . SVG Version: 6.00 Build 0)  -->

<svg
   xmlns:dc="http://purl.org/dc/elements/1.1/"
   xmlns:cc="http://creativecommons.org/ns#"
   xmlns:rdf="http://www.w3.org/1999/02/22-rdf-syntax-ns#"
   xmlns:svg="http://www.w3.org/2000/svg"
   xmlns="http://www.w3.org/2000/svg"
   xmlns:sodipodi="http://sodipodi.sourceforge.net/DTD/sodipodi-0.dtd"
   xmlns:inkscape="http://www.inkscape.org/namespaces/inkscape"
   version="1.1"
   id="Layer_1"
   x="0px"
   y="0px"
   width="125.61729"
   height="118.85441"
   viewBox="0 0 125.61729 118.85441"
   enable-background="new 0 0 82 82"
   xml:space="preserve"
   sodipodi:docname="SSH1106_I2C_128x64_Fritzing_BB.svg"
   inkscape:version="0.92.2 (5c3e80d, 2017-08-06)"><metadata
     id="metadata65"><rdf:RDF><cc:Work
         rdf:about=""><dc:format>image/svg+xml</dc:format><dc:type
           rdf:resource="http://purl.org/dc/dcmitype/StillImage" /><dc:title></dc:title></cc:Work></rdf:RDF></metadata><defs
     id="defs63" /><sodipodi:namedview
     pagecolor="#ffffff"
     bordercolor="#666666"
     borderopacity="1"
     objecttolerance="10"
     gridtolerance="10"
     guidetolerance="10"
     inkscape:pageopacity="0"
     inkscape:pageshadow="2"
     inkscape:window-width="1920"
     inkscape:window-height="1017"
     id="namedview61"
     showgrid="false"
     inkscape:zoom="4.5022975"
     inkscape:cx="105.59543"
     inkscape:cy="73.554402"
     inkscape:window-x="-8"
     inkscape:window-y="-8"
     inkscape:window-maximized="1"
     inkscape:current-layer="Layer_1"
     fit-margin-top="0"
     fit-margin-left="0"
     fit-margin-right="0"
     fit-margin-bottom="0" /><g
     id="g4765"
     transform="matrix(0.9388825,0,0,0.9388825,-85.674153,-1.8147083)"><path
       id="rect4553"
       d="M 91.337891,2.0195312 V 128.4375 h 40.517579 v -15.48438 h 52.76367 v 15.48438 h 40.33984 V 2.0195312 Z M 101.24023,3.09375 a 8.4691334,8.4691334 0 0 1 8.47071,8.46875 8.4691334,8.4691334 0 0 1 -8.47071,8.470703 8.4691334,8.4691334 0 0 1 -8.468746,-8.470703 8.4691334,8.4691334 0 0 1 8.468746,-8.46875 z m 114.17383,0 a 8.4691334,8.4691334 0 0 1 8.47071,8.46875 8.4691334,8.4691334 0 0 1 -8.47071,8.470703 8.4691334,8.4691334 0 0 1 -8.46875,-8.470703 8.4691334,8.4691334 0 0 1 8.46875,-8.46875 z M 101.24023,110.24609 a 8.4691334,8.4691334 0 0 1 8.47071,8.47071 8.4691334,8.4691334 0 0 1 -8.47071,8.46875 8.4691334,8.4691334 0 0 1 -8.468746,-8.46875 8.4691334,8.4691334 0 0 1 8.468746,-8.47071 z m 114.17383,0 a 8.4691334,8.4691334 0 0 1 8.47071,8.47071 8.4691334,8.4691334 0 0 1 -8.47071,8.46875 8.4691334,8.4691334 0 0 1 -8.46875,-8.46875 8.4691334,8.4691334 0 0 1 8.46875,-8.47071 z"
       style="fill:#006699;fill-opacity:1;stroke:#373737;stroke-width:0.17338538;stroke-miterlimit:4;stroke-dasharray:none;stroke-opacity:1"
       inkscape:connector-curvature="0" /><rect
       transform="scale(-1,1)"
       y="22.203602"
       x="-222.72427"
       height="85.690437"
       width="129.155"
       id="rect4555"
       style="fill:#000000;fill-opacity:1;stroke:none;stroke-width:1.23869288;stroke-miterlimit:4;stroke-dasharray:none;stroke-opacity:1" /><circle
       transform="scale(-1,1)"
       r="8.4691334"
       cy="11.563323"
       cx="-215.41492"
       id="path4561"
       style="fill:none;fill-opacity:1;stroke:#373737;stroke-width:0.16308147;stroke-miterlimit:4;stroke-dasharray:none;stroke-opacity:1" /><circle
       transform="scale(-1,1)"
       style="fill:none;fill-opacity:1;stroke:#373737;stroke-width:0.16308147;stroke-miterlimit:4;stroke-dasharray:none;stroke-opacity:1"
       id="circle4565"
       cx="-101.24117"
       cy="11.563323"
       r="8.4691334" /><circle
       transform="scale(-1,1)"
       style="fill:none;fill-opacity:1;stroke:#373737;stroke-width:0.16308147;stroke-miterlimit:4;stroke-dasharray:none;stroke-opacity:1"
       id="circle4569"
       cx="-215.41492"
       cy="118.71601"
       r="8.4691334" /><circle
       transform="scale(-1,1)"
       r="8.4691334"
       cy="118.71601"
       cx="-101.24117"
       id="circle4573"
       style="fill:none;fill-opacity:1;stroke:#373737;stroke-width:0.16308147;stroke-miterlimit:4;stroke-dasharray:none;stroke-opacity:1" /><rect
       style="fill:#00435e;fill-opacity:1;stroke:none;stroke-width:0.91403925;stroke-miterlimit:4;stroke-dasharray:none;stroke-opacity:1"
       id="rect4629"
       width="110.27966"
       height="54.645016"
       x="-213.28661"
       y="30.023634"
       transform="scale(-1,1)" /><g
       transform="matrix(1.3328669,0,0,1.3328669,103.92996,3.0240856)"
       id="g4721"><rect
         x="28.021"
         y="1.473"
         width="3.7130001"
         height="7.427"
         id="rect4681"
         style="fill:#454545" /><polygon
         points="26.163,3.328 28.021,1.473 28.021,8.899 26.163,7.041 "
         id="polygon4683"
         style="fill:#454545" /><polygon
         points="31.732,1.473 33.593,3.328 33.593,7.041 31.732,8.899 "
         id="polygon4685"
         style="fill:#454545" /><rect
         x="29.223"
         y="4.349"
         width="1.312"
         height="1.668"
         id="rect4687"
         style="fill:#b68b2d" /><rect
         x="35.223"
         y="1.473"
         width="3.7130001"
         height="7.427"
         id="rect4689"
         style="fill:#454545" /><polygon
         points="33.363,3.328 35.223,1.473 35.223,8.899 33.363,7.041 "
         id="polygon4691"
         style="fill:#454545" /><polygon
         points="38.934,1.473 40.792,3.328 40.792,7.041 38.934,8.899 "
         id="polygon4693"
         style="fill:#454545" /><rect
         x="36.421001"
         y="4.349"
         width="1.312"
         height="1.668"
         id="rect4695"
         style="fill:#b68b2d" /><rect
         x="42.421001"
         y="1.473"
         width="3.7130001"
         height="7.427"
         id="rect4697"
         style="fill:#454545" /><polygon
         points="40.564,3.328 42.421,1.473 42.421,8.899 40.564,7.041 "
         id="polygon4699"
         style="fill:#454545" /><polygon
         points="46.134,1.473 47.992,3.328 47.992,7.041 46.134,8.899 "
         id="polygon4701"
         style="fill:#454545" /><rect
         x="43.622002"
         y="4.349"
         width="1.312"
         height="1.668"
         id="rect4703"
         style="fill:#b68b2d" /><rect
         x="49.622002"
         y="1.473"
         width="3.7130001"
         height="7.427"
         id="rect4705"
         style="fill:#454545" /><polygon
         points="47.764,3.328 49.622,1.473 49.622,8.899 47.764,7.041 "
         id="polygon4707"
         style="fill:#454545" /><polygon
         points="53.333,1.473 55.191,3.328 55.191,7.041 53.333,8.899 "
         id="polygon4709"
         style="fill:#454545" /><rect
         x="50.82"
         y="4.349"
         width="1.312"
         height="1.668"
         id="rect4711"
         style="fill:#b68b2d" /><text
         y="12.1396"
         x="27.165001"
         font-size="2.5"
         id="text4713"
         style="font-size:2.5px;font-family:OCRA;fill:#ffffff">GND</text>
<text
         y="12.1377"
         x="34.4883"
         font-size="2.5"
         id="text4715"
         style="font-size:2.5px;font-family:OCRA;fill:#ffffff">VCC</text>
<text
         y="12.1396"
         x="41.811501"
         font-size="2.5"
         id="text4717"
         style="font-size:2.5px;font-family:OCRA;fill:#ffffff">SCL</text>
<text
         y="12.1377"
         x="49.1348"
         font-size="2.5"
         id="text4719"
         style="font-size:2.5px;font-family:OCRA;fill:#ffffff">SDA</text>
</g><text
       style="font-size:2.5px;font-family:OCRA;fill:#ffffff"
       id="text4725"
       font-size="2.5"
       x="149.55251"
       y="90.53141">OLED 128x64 </text>
<text
       style="font-size:2.5px;font-family:OCRA;fill:#ffffff"
       id="text4727"
       font-size="2.5"
       x="153.12669"
       y="93.53141">SSH1106</text>
<text
       style="font-size:2.5px;font-family:OCRA;fill:#ffffff"
       id="text4729"
       font-size="2.5"
       x="156.7014"
       y="96.53141">I2C</text>
<text
       style="font-size:2.5px;font-family:OCRA;fill:#ffffff"
       id="text4731"
       font-size="2.5"
       x="152.04181"
       y="103.02941">TD-er.nl</text>
</g></svg>