<?xml version="1.0" encoding="UTF-8" standalone="no"?>
<!-- Generator: Adobe Illustrator 15.0.0, SVG Export Plug-In . SVG Version: 6.00 Build 0)  -->

<svg
   xmlns:dc="http://purl.org/dc/elements/1.1/"
   xmlns:cc="http://creativecommons.org/ns#"
   xmlns:rdf="http://www.w3.org/1999/02/22-rdf-syntax-ns#"
   xmlns:svg="http://www.w3.org/2000/svg"
   xmlns="http://www.w3.org/2000/svg"
   xmlns:sodipodi="http://sodipodi.sourceforge.net/DTD/sodipodi-0.dtd"
   xmlns:inkscape="http://www.inkscape.org/namespaces/inkscape"
   version="1.1"
   id="Layer_1"
   x="0px"
   y="0px"
   width="134.52998"
   height="127.31834"
   viewBox="0 0 134.52998 127.31835"
   enable-background="new 0 0 82 82"
   xml:space="preserve"
   sodipodi:docname="SSH1106_I2C_128x64PCB.svg"
   inkscape:version="0.92.2 (5c3e80d, 2017-08-06)"><metadata
     id="metadata65"><rdf:RDF><cc:Work
         rdf:about=""><dc:format>image/svg+xml</dc:format><dc:type
           rdf:resource="http://purl.org/dc/dcmitype/StillImage" /><dc:title /></cc:Work></rdf:RDF></metadata><defs
     id="defs63" /><sodipodi:namedview
     pagecolor="#ffffff"
     bordercolor="#666666"
     borderopacity="1"
     objecttolerance="10"
     gridtolerance="10"
     guidetolerance="10"
     inkscape:pageopacity="0"
     inkscape:pageshadow="2"
     inkscape:window-width="1920"
     inkscape:window-height="1017"
     id="namedview61"
     showgrid="false"
     inkscape:zoom="3.1116563"
     inkscape:cx="152.06851"
     inkscape:cy="29.046508"
     inkscape:window-x="2552"
     inkscape:window-y="355"
     inkscape:window-maximized="1"
     inkscape:current-layer="Layer_1"
     fit-margin-top="0"
     fit-margin-left="0"
     fit-margin-right="0"
     fit-margin-bottom="0" /><g
     id="g1023"><g
       transform="matrix(1.0011825,0,0,1.0011825,0.28864792,0.28864822)"
       id="silkscreen"><path
         inkscape:connector-curvature="0"
         style="fill:none;fill-opacity:1;stroke:#000000;stroke-width:0.75;stroke-miterlimit:4;stroke-dasharray:none;stroke-opacity:1"
         d="M 0.086693,0.0866927 V 126.50466 h 40.517579 v -15.48438 h 52.76367 v 15.48438 H 133.70778 V 0.0866927 Z m 9.902339,1.0742188 a 8.4691334,8.4691334 0 0 1 8.47071,8.46875 8.4691334,8.4691334 0 0 1 -8.47071,8.4707035 8.4691334,8.4691334 0 0 1 -8.468746,-8.4707035 8.4691334,8.4691334 0 0 1 8.468746,-8.46875 z m 114.173828,0 a 8.4691334,8.4691334 0 0 1 8.47071,8.46875 8.4691334,8.4691334 0 0 1 -8.47071,8.4707035 8.4691334,8.4691334 0 0 1 -8.46875,-8.4707035 8.4691334,8.4691334 0 0 1 8.46875,-8.46875 z M 9.989032,108.31325 a 8.4691334,8.4691334 0 0 1 8.47071,8.47071 8.4691334,8.4691334 0 0 1 -8.47071,8.46875 8.4691334,8.4691334 0 0 1 -8.468746,-8.46875 8.4691334,8.4691334 0 0 1 8.468746,-8.47071 z m 114.173828,0 a 8.4691334,8.4691334 0 0 1 8.47071,8.47071 8.4691334,8.4691334 0 0 1 -8.47071,8.46875 8.4691334,8.4691334 0 0 1 -8.46875,-8.46875 8.4691334,8.4691334 0 0 1 8.46875,-8.47071 z"
         id="rect4553" /><rect
         style="fill:none;fill-opacity:1;stroke:#000000;stroke-width:0.75;stroke-miterlimit:4;stroke-dasharray:none;stroke-opacity:1"
         id="rect4555"
         width="129.155"
         height="85.690437"
         x="-131.47307"
         y="20.270763"
         transform="scale(-1,1)" /><circle
         style="fill:none;fill-opacity:1;stroke:#373737;stroke-width:0.16308147;stroke-miterlimit:4;stroke-dasharray:none;stroke-opacity:1"
         id="path4561"
         cx="-124.16372"
         cy="9.6304846"
         r="8.4691334"
         transform="scale(-1,1)" /><circle
         r="8.4691334"
         cy="9.6304846"
         cx="-9.989975"
         id="circle4565"
         style="fill:none;fill-opacity:1;stroke:#373737;stroke-width:0.16308147;stroke-miterlimit:4;stroke-dasharray:none;stroke-opacity:1"
         transform="scale(-1,1)" /><circle
         r="8.4691334"
         cy="116.78317"
         cx="-124.16372"
         id="circle4569"
         style="fill:none;fill-opacity:1;stroke:#373737;stroke-width:0.16308147;stroke-miterlimit:4;stroke-dasharray:none;stroke-opacity:1"
         transform="scale(-1,1)" /><circle
         style="fill:none;fill-opacity:1;stroke:#373737;stroke-width:0.16308147;stroke-miterlimit:4;stroke-dasharray:none;stroke-opacity:1"
         id="circle4573"
         cx="-9.989975"
         cy="116.78317"
         r="8.4691334"
         transform="scale(-1,1)" /><rect
         transform="scale(-1,1)"
         y="28.090796"
         x="-122.03541"
         height="54.645016"
         width="110.27966"
         id="rect4629"
         style="fill:none;fill-opacity:1;stroke:#000000;stroke-width:0.75;stroke-miterlimit:4;stroke-dasharray:none;stroke-opacity:1" /><text
         y="17.271717"
         x="48.886093"
         font-size="2.5"
         id="text4713"
         style="font-size:3.33216715px;font-family:OCRA;fill:#000000;stroke-width:1.33286691">GND</text>
<text
         y="17.269186"
         x="58.647076"
         font-size="2.5"
         id="text4715"
         style="font-size:3.33216715px;font-family:OCRA;fill:#000000;stroke-width:1.33286691">VCC</text>
<text
         y="17.271717"
         x="68.407928"
         font-size="2.5"
         id="text4717"
         style="font-size:3.33216715px;font-family:OCRA;fill:#000000;stroke-width:1.33286691">SCL</text>
<text
         y="17.269186"
         x="78.168907"
         font-size="2.5"
         id="text4719"
         style="font-size:3.33216715px;font-family:OCRA;fill:#000000;stroke-width:1.33286691">SDA</text>
<text
         y="88.598572"
         x="58.301308"
         font-size="2.5"
         id="text4725"
         style="font-size:2.5px;font-family:OCRA;fill:#000000">OLED 128x64 </text>
<text
         y="91.598572"
         x="61.875496"
         font-size="2.5"
         id="text4727"
         style="font-size:2.5px;font-family:OCRA;fill:#000000">SSH1106</text>
<text
         y="94.598572"
         x="65.450203"
         font-size="2.5"
         id="text4729"
         style="font-size:2.5px;font-family:OCRA;fill:#000000">I2C</text>
<text
         y="101.09657"
         x="60.790611"
         font-size="2.5"
         id="text4731"
         style="font-size:2.5px;font-family:OCRA;fill:#000000">TD-er.nl</text>
</g><g
       id="copper1"><g
         id="copper0"
         transform="translate(-99.853851,-26.112308)"><path
           inkscape:connector-curvature="0"
           id="path3278"
           style="fill:none;stroke:#ffbf00;stroke-width:1.87200093;stroke-linecap:butt;stroke-linejoin:miter;stroke-miterlimit:4;stroke-dasharray:none;stroke-opacity:1"
           d="m 152.73387,31.828235 c 1.44478,0 2.616,1.171224 2.616,2.615994 0,1.44478 -1.17122,2.616 -2.616,2.616 -1.44478,0 -2.61601,-1.17122 -2.61601,-2.616 0,-1.44477 1.17123,-2.615994 2.61601,-2.615994 z" /><path
           d="m 162.33387,31.828235 c 1.44478,0 2.616,1.171224 2.616,2.615994 0,1.44478 -1.17122,2.616 -2.616,2.616 -1.44478,0 -2.61601,-1.17122 -2.61601,-2.616 0,-1.44477 1.17123,-2.615994 2.61601,-2.615994 z"
           style="fill:none;stroke:#ffbf00;stroke-width:1.87200093;stroke-linecap:butt;stroke-linejoin:miter;stroke-miterlimit:4;stroke-dasharray:none;stroke-opacity:1"
           id="path3280"
           inkscape:connector-curvature="0" /><path
           inkscape:connector-curvature="0"
           id="path3282"
           style="fill:none;stroke:#ffbf00;stroke-width:1.87200093;stroke-linecap:butt;stroke-linejoin:miter;stroke-miterlimit:4;stroke-dasharray:none;stroke-opacity:1"
           d="m 171.93387,31.828235 c 1.44478,0 2.616,1.171224 2.616,2.615994 0,1.44478 -1.17122,2.616 -2.616,2.616 -1.44478,0 -2.61601,-1.17122 -2.61601,-2.616 0,-1.44477 1.17123,-2.615994 2.61601,-2.615994 z" /><path
           d="m 181.53387,31.828235 c 1.44478,0 2.616,1.171224 2.616,2.615994 0,1.44478 -1.17122,2.616 -2.616,2.616 -1.44478,0 -2.61601,-1.17122 -2.61601,-2.616 0,-1.44477 1.17123,-2.615994 2.61601,-2.615994 z"
           style="fill:none;stroke:#ffbf00;stroke-width:1.87200093;stroke-linecap:butt;stroke-linejoin:miter;stroke-miterlimit:4;stroke-dasharray:none;stroke-opacity:1"
           id="path3284"
           inkscape:connector-curvature="0" /></g></g></g></svg>