<?xml version="1.0" encoding="UTF-8" standalone="no"?>
<!-- Generator: Adobe Illustrator 15.0.0, SVG Export Plug-In . SVG Version: 6.00 Build 0)  -->

<svg
   xmlns:dc="http://purl.org/dc/elements/1.1/"
   xmlns:cc="http://creativecommons.org/ns#"
   xmlns:rdf="http://www.w3.org/1999/02/22-rdf-syntax-ns#"
   xmlns:svg="http://www.w3.org/2000/svg"
   xmlns="http://www.w3.org/2000/svg"
   xmlns:sodipodi="http://sodipodi.sourceforge.net/DTD/sodipodi-0.dtd"
   xmlns:inkscape="http://www.inkscape.org/namespaces/inkscape"
   version="1.1"
   id="Layer_1"
   x="0px"
   y="0px"
   width="45.871807"
   height="144.13951"
   viewBox="0 0 45.871807 144.13951"
   enable-background="new 0 0 82 82"
   xml:space="preserve"
   sodipodi:docname="SSD1306_I2C_GND_VCC_128x32PCB.svg"
   inkscape:version="0.92.1 r15371"><metadata
     id="metadata65"><rdf:RDF><cc:Work
         rdf:about=""><dc:format>image/svg+xml</dc:format><dc:type
           rdf:resource="http://purl.org/dc/dcmitype/StillImage" /><dc:title /></cc:Work></rdf:RDF></metadata><defs
     id="defs63" /><sodipodi:namedview
     pagecolor="#ffffff"
     bordercolor="#666666"
     borderopacity="1"
     objecttolerance="10"
     gridtolerance="10"
     guidetolerance="10"
     inkscape:pageopacity="0"
     inkscape:pageshadow="2"
     inkscape:window-width="1920"
     inkscape:window-height="1017"
     id="namedview61"
     showgrid="false"
     inkscape:zoom="5.7172552"
     inkscape:cx="27.320205"
     inkscape:cy="71.794957"
     inkscape:window-x="-8"
     inkscape:window-y="-8"
     inkscape:window-maximized="1"
     inkscape:current-layer="Layer_1"
     fit-margin-top="0"
     fit-margin-left="0"
     fit-margin-right="0"
     fit-margin-bottom="0" /><g
     id="silkscreen"><rect
       y="0.25873852"
       x="0.25873712"
       height="143.62204"
       width="45.354332"
       id="rect4611"
       style="fill:none;fill-opacity:1;stroke:#040404;stroke-width:0.75;stroke-opacity:1;stroke-miterlimit:4;stroke-dasharray:none" /><path
       id="rect4628"
       d="M 3.1386719 22.138672 L 3.1386719 118.70703 L 42.638672 118.70703 L 42.638672 22.138672 L 3.1386719 22.138672 z M 16.373047 28.105469 L 36.904297 28.105469 L 36.904297 112.13281 L 16.373047 112.13281 L 16.373047 28.105469 z M 9.4667969 29.681641 C 9.636367 29.681641 9.8009656 29.720089 9.9609375 29.796875 L 10.992188 30.310547 C 11.091367 30.361738 11.172339 30.435974 11.236328 30.535156 C 11.303516 30.637538 11.337891 30.749515 11.337891 30.871094 C 11.337891 30.995872 11.303516 31.107849 11.236328 31.207031 C 11.172339 31.309413 11.09137 31.386309 10.992188 31.4375 L 9.9609375 31.951172 C 9.7945668 32.031158 9.6299682 32.072266 9.4667969 32.072266 C 9.3036256 32.072266 9.139027 32.031158 8.9726562 31.951172 L 7.9394531 31.4375 C 7.8402706 31.386309 7.7585944 31.309413 7.6914062 31.207031 C 7.6274175 31.107849 7.59375 30.995872 7.59375 30.871094 C 7.59375 30.749515 7.6274176 30.637538 7.6914062 30.535156 C 7.7585944 30.435974 7.8402706 30.361738 7.9394531 30.310547 L 8.9726562 29.796875 C 9.1198307 29.720089 9.284429 29.681641 9.4667969 29.681641 z M 9.4667969 30.166016 C 9.3708138 30.166016 9.2770842 30.186923 9.1875 30.228516 L 8.1601562 30.746094 C 8.105766 30.771689 8.0800781 30.813504 8.0800781 30.871094 C 8.0800781 30.935082 8.105059 30.980264 8.15625 31.005859 L 9.1875 31.519531 C 9.2962809 31.564323 9.3900104 31.585938 9.4667969 31.585938 C 9.56278 31.585938 9.6545564 31.564323 9.7441406 31.519531 L 10.767578 31.001953 C 10.825168 30.976358 10.853516 30.931883 10.853516 30.871094 C 10.853516 30.816703 10.825168 30.774889 10.767578 30.746094 L 9.7441406 30.228516 C 9.6545564 30.186923 9.56278 30.166016 9.4667969 30.166016 z M 7.59375 33.150391 L 11.097656 33.150391 C 11.161645 33.150391 11.217633 33.172005 11.265625 33.216797 C 11.313617 33.264788 11.337891 33.321484 11.337891 33.388672 C 11.337891 33.45586 11.313617 33.514508 11.265625 33.5625 C 11.217633 33.610492 11.161645 33.634766 11.097656 33.634766 L 8.0800781 33.634766 L 8.0800781 35.294922 C 8.0800781 35.36211 8.0558041 35.418805 8.0078125 35.466797 C 7.9598209 35.514788 7.9038324 35.539062 7.8398438 35.539062 C 7.7726556 35.539062 7.7140072 35.514788 7.6660156 35.466797 C 7.6180241 35.418805 7.59375 35.36211 7.59375 35.294922 L 7.59375 33.150391 z M 7.59375 36.617188 L 11.337891 36.617188 L 11.337891 38.763672 C 11.337891 38.83086 11.313617 38.887555 11.265625 38.935547 C 11.217633 38.983538 11.161645 39.007812 11.097656 39.007812 C 11.030468 39.007812 10.973773 38.983538 10.925781 38.935547 C 10.87779 38.887555 10.853516 38.83086 10.853516 38.763672 L 10.853516 37.101562 L 9.7109375 37.101562 L 9.7109375 37.8125 C 9.7109375 37.876489 9.6866634 37.932477 9.6386719 37.980469 C 9.5906803 38.02846 9.5339851 38.052734 9.4667969 38.052734 C 9.3996087 38.052734 9.3409601 38.02846 9.2929688 37.980469 C 9.2481766 37.932477 9.2265625 37.876489 9.2265625 37.8125 L 9.2265625 37.101562 L 8.0800781 37.101562 L 8.0800781 38.763672 C 8.0800781 38.83086 8.0558041 38.887555 8.0078125 38.935547 C 7.9598209 38.983538 7.9038324 39.007812 7.8398438 39.007812 C 7.7726556 39.007812 7.7140072 38.983538 7.6660156 38.935547 C 7.6180241 38.887555 7.59375 38.83086 7.59375 38.763672 L 7.59375 36.617188 z M 7.8398438 40.085938 C 7.9038325 40.085938 7.9598209 40.107552 8.0078125 40.152344 C 8.0558041 40.200335 8.0800781 40.258984 8.0800781 40.326172 L 8.0800781 40.560547 L 10.853516 40.560547 L 10.853516 40.326172 C 10.853516 40.258984 10.87779 40.200335 10.925781 40.152344 C 10.973773 40.107552 11.030468 40.085938 11.097656 40.085938 C 11.161645 40.085938 11.217633 40.107552 11.265625 40.152344 C 11.313617 40.200335 11.337891 40.258984 11.337891 40.326172 L 11.337891 41.21875 C 11.337891 41.359525 11.299443 41.486383 11.222656 41.601562 C 11.14587 41.719943 11.050727 41.809598 10.935547 41.867188 L 9.9609375 42.355469 C 9.7945668 42.435455 9.6299682 42.476562 9.4667969 42.476562 C 9.3036256 42.476562 9.139027 42.435455 8.9726562 42.355469 L 7.9921875 41.871094 C 7.8770078 41.819903 7.7818646 41.732907 7.7050781 41.611328 C 7.6314911 41.492949 7.59375 41.362725 7.59375 41.21875 L 7.59375 40.326172 C 7.59375 40.258984 7.6180241 40.200335 7.6660156 40.152344 C 7.7140072 40.107552 7.7726555 40.085938 7.8398438 40.085938 z M 8.0800781 41.044922 L 8.0800781 41.21875 C 8.0800781 41.317933 8.1233064 41.388095 8.2128906 41.429688 L 9.1875 41.923828 C 9.2962809 41.96862 9.3900104 41.990234 9.4667969 41.990234 C 9.56278 41.990234 9.6545564 41.96862 9.7441406 41.923828 L 10.71875 41.429688 C 10.808334 41.388095 10.853516 41.317933 10.853516 41.21875 L 10.853516 41.044922 L 8.0800781 41.044922 z M 7.8398438 47.021484 C 7.9038325 47.021484 7.9598209 47.045052 8.0078125 47.089844 C 8.0558041 47.137835 8.0800781 47.194531 8.0800781 47.261719 L 8.0800781 47.972656 L 10.853516 47.972656 L 10.853516 47.261719 C 10.853516 47.194531 10.87779 47.137835 10.925781 47.089844 C 10.973773 47.045052 11.030468 47.021484 11.097656 47.021484 C 11.161645 47.021484 11.217633 47.045052 11.265625 47.089844 C 11.313617 47.137835 11.337891 47.194531 11.337891 47.261719 L 11.337891 48.457031 L 8.0800781 48.457031 L 8.0800781 48.927734 L 9.0585938 48.927734 C 9.1257816 48.927734 9.1824772 48.949349 9.2304688 48.994141 C 9.2784603 49.042132 9.3027344 49.100781 9.3027344 49.167969 C 9.3027344 49.235157 9.2784601 49.291852 9.2304688 49.339844 C 9.1824769 49.387835 9.1257816 49.412109 9.0585938 49.412109 L 7.8398438 49.412109 C 7.7726556 49.412109 7.7140072 49.387835 7.6660156 49.339844 C 7.6180241 49.291852 7.59375 49.235157 7.59375 49.167969 L 7.59375 47.261719 C 7.59375 47.194531 7.6180241 47.137835 7.6660156 47.089844 C 7.7140072 47.045052 7.7726555 47.021484 7.8398438 47.021484 z M 7.59375 50.490234 L 9.2265625 50.490234 C 9.3577394 50.490234 9.4697163 50.538783 9.5625 50.634766 C 9.6584831 50.730749 9.7070312 50.843432 9.7070312 50.974609 L 9.7070312 52.396484 L 10.853516 52.396484 L 10.853516 50.730469 C 10.853516 50.663281 10.87779 50.604632 10.925781 50.556641 C 10.973773 50.511849 11.030468 50.490234 11.097656 50.490234 C 11.161645 50.490234 11.217633 50.511849 11.265625 50.556641 C 11.313617 50.604632 11.337891 50.663281 11.337891 50.730469 L 11.337891 52.396484 C 11.337891 52.524462 11.289342 52.636439 11.193359 52.732422 C 11.097376 52.831604 10.984693 52.880859 10.853516 52.880859 L 9.7070312 52.880859 C 9.579054 52.880859 9.4670769 52.832311 9.3710938 52.736328 C 9.2751104 52.640345 9.2265625 52.527661 9.2265625 52.396484 L 9.2265625 50.974609 L 8.0800781 50.974609 L 8.0800781 52.634766 C 8.0800781 52.701954 8.0558041 52.760602 8.0078125 52.808594 C 7.9598209 52.856585 7.9038324 52.880859 7.8398438 52.880859 C 7.7726556 52.880859 7.7140072 52.856585 7.6660156 52.808594 C 7.6180241 52.760602 7.59375 52.701954 7.59375 52.634766 L 7.59375 50.490234 z M 8.0800781 53.958984 L 9.2265625 53.958984 C 9.3577394 53.958984 9.4704231 54.004873 9.5664062 54.097656 C 9.6623896 54.193639 9.7109375 54.306323 9.7109375 54.4375 L 11.097656 54.4375 C 11.164844 54.4375 11.220833 54.461067 11.265625 54.505859 C 11.313617 54.550651 11.337891 54.60664 11.337891 54.673828 L 11.337891 55.628906 C 11.337891 55.696094 11.313617 55.752083 11.265625 55.796875 C 11.220833 55.841667 11.164844 55.863281 11.097656 55.863281 L 9.7109375 55.863281 C 9.7109375 55.991259 9.6616826 56.103236 9.5625 56.199219 C 9.4665169 56.298401 9.35454 56.347656 9.2265625 56.347656 L 8.0800781 56.347656 C 7.9489012 56.347656 7.8342644 56.298401 7.7382812 56.199219 C 7.6422981 56.103236 7.59375 55.991259 7.59375 55.863281 L 7.59375 54.4375 C 7.59375 54.306323 7.6422981 54.193639 7.7382812 54.097656 C 7.8342645 54.004873 7.9489012 53.958984 8.0800781 53.958984 z M 8.0800781 54.4375 L 8.0800781 55.863281 L 9.2265625 55.863281 L 9.2265625 54.4375 L 8.0800781 54.4375 z M 9.7109375 54.917969 L 9.7109375 55.382812 L 10.853516 55.382812 L 10.853516 54.917969 L 9.7109375 54.917969 z M 7.8398438 57.425781 C 7.9006331 57.425781 7.9505948 57.442615 7.9921875 57.474609 L 8.9902344 58.304688 L 9.921875 57.53125 C 9.9698666 57.492857 10.021781 57.474609 10.076172 57.474609 C 10.14336 57.474609 10.200055 57.498883 10.248047 57.546875 C 10.296038 57.594867 10.320315 57.651562 10.320312 57.71875 C 10.320312 57.792337 10.289305 57.855059 10.228516 57.90625 L 9.3710938 58.621094 L 10.228516 59.332031 C 10.289305 59.383222 10.320315 59.445944 10.320312 59.519531 C 10.320312 59.586719 10.296038 59.643415 10.248047 59.691406 C 10.200055 59.739398 10.14336 59.763672 10.076172 59.763672 C 10.021781 59.763672 9.9698666 59.745424 9.921875 59.707031 L 8.9902344 58.933594 L 7.9921875 59.763672 C 7.9473954 59.798866 7.8974336 59.816406 7.8398438 59.816406 C 7.7726556 59.816406 7.7140072 59.792132 7.6660156 59.744141 C 7.6180241 59.696149 7.59375 59.639454 7.59375 59.572266 C 7.59375 59.495479 7.6240508 59.432757 7.6816406 59.384766 L 8.6074219 58.621094 L 7.6816406 57.853516 C 7.6240508 57.805524 7.59375 57.742802 7.59375 57.666016 C 7.59375 57.598827 7.6180241 57.542132 7.6660156 57.494141 C 7.7140072 57.449349 7.7726555 57.425781 7.8398438 57.425781 z M 7.8398438 60.894531 C 7.9038325 60.894531 7.9598209 60.916145 8.0078125 60.960938 C 8.0558041 61.008929 8.0800781 61.067577 8.0800781 61.134766 L 8.0800781 62.800781 L 8.9804688 62.800781 C 9.0444574 62.800781 9.1004459 62.773847 9.1484375 62.722656 C 9.1996285 62.674665 9.2265625 62.618676 9.2265625 62.554688 L 9.2265625 61.609375 C 9.2265625 61.542187 9.2481766 61.485492 9.2929688 61.4375 C 9.3409603 61.392708 9.3996087 61.369141 9.4667969 61.369141 C 9.5339851 61.369141 9.5906803 61.392708 9.6386719 61.4375 C 9.6866634 61.485492 9.7109375 61.542187 9.7109375 61.609375 L 9.7109375 62.554688 C 9.7109375 62.621876 9.7352116 62.680524 9.7832031 62.728516 C 9.8311947 62.776507 9.8871831 62.800781 9.9511719 62.800781 L 10.853516 62.800781 L 10.853516 61.134766 C 10.853516 61.067577 10.87779 61.008926 10.925781 60.960938 C 10.973773 60.916145 11.030468 60.894531 11.097656 60.894531 C 11.161645 60.894531 11.217633 60.916145 11.265625 60.960938 C 11.313617 61.008929 11.337891 61.067577 11.337891 61.134766 L 11.337891 62.800781 C 11.337891 62.928759 11.289342 63.040736 11.193359 63.136719 C 11.097376 63.235901 10.984693 63.285156 10.853516 63.285156 L 9.9511719 63.285156 C 9.7656045 63.285156 9.6043727 63.219774 9.4667969 63.091797 C 9.3292211 63.219774 9.1660361 63.285156 8.9804688 63.285156 L 8.0800781 63.285156 C 7.9489012 63.285156 7.8342644 63.235901 7.7382812 63.136719 C 7.6422981 63.040736 7.59375 62.928759 7.59375 62.800781 L 7.59375 61.134766 C 7.59375 61.067577 7.6180241 61.008926 7.6660156 60.960938 C 7.7140072 60.916145 7.7726555 60.894531 7.8398438 60.894531 z M 7.59375 64.363281 L 9.2265625 64.363281 C 9.3577394 64.363281 9.4697163 64.409876 9.5625 64.505859 C 9.6584831 64.601842 9.7070312 64.716479 9.7070312 64.847656 L 9.7070312 66.267578 L 10.853516 66.267578 L 10.853516 64.603516 C 10.853516 64.536327 10.87779 64.477676 10.925781 64.429688 C 10.973773 64.384895 11.030468 64.363281 11.097656 64.363281 C 11.161645 64.363281 11.217633 64.384895 11.265625 64.429688 C 11.313617 64.477677 11.337891 64.536327 11.337891 64.603516 L 11.337891 66.267578 C 11.337891 66.395556 11.289342 66.507533 11.193359 66.603516 C 11.097376 66.702698 10.984693 66.751953 10.853516 66.751953 L 9.7070312 66.751953 C 9.579054 66.751953 9.4670769 66.705358 9.3710938 66.609375 C 9.2751104 66.513392 9.2265625 66.398755 9.2265625 66.267578 L 9.2265625 64.847656 L 8.0800781 64.847656 L 8.0800781 66.507812 C 8.0800781 66.575001 8.0558041 66.633649 8.0078125 66.681641 C 7.9598209 66.729632 7.9038324 66.751953 7.8398438 66.751953 C 7.7726556 66.751953 7.7140072 66.729632 7.6660156 66.681641 C 7.6180241 66.633649 7.59375 66.575001 7.59375 66.507812 L 7.59375 64.363281 z M 7.8398438 71.648438 C 7.9038325 71.648438 7.9598209 71.672005 8.0078125 71.716797 C 8.0558041 71.764788 8.0800781 71.821484 8.0800781 71.888672 L 8.0800781 72.599609 L 10.853516 72.599609 L 10.853516 71.888672 C 10.853516 71.821484 10.87779 71.764788 10.925781 71.716797 C 10.973773 71.672005 11.030468 71.648438 11.097656 71.648438 C 11.161645 71.648438 11.217633 71.672005 11.265625 71.716797 C 11.313617 71.764788 11.337891 71.821484 11.337891 71.888672 L 11.337891 73.794922 C 11.337891 73.86211 11.313617 73.918805 11.265625 73.966797 C 11.217633 74.014788 11.161645 74.039064 11.097656 74.039062 C 11.030468 74.039062 10.973773 74.014788 10.925781 73.966797 C 10.87779 73.918805 10.853516 73.86211 10.853516 73.794922 L 10.853516 73.083984 L 8.0800781 73.083984 L 8.0800781 73.794922 C 8.0800781 73.86211 8.0558041 73.918805 8.0078125 73.966797 C 7.9598209 74.014788 7.9038324 74.039064 7.8398438 74.039062 C 7.7726556 74.039062 7.7140072 74.014788 7.6660156 73.966797 C 7.6180241 73.918805 7.59375 73.86211 7.59375 73.794922 L 7.59375 71.888672 C 7.59375 71.821484 7.6180241 71.764788 7.6660156 71.716797 C 7.7140072 71.672005 7.7726555 71.648438 7.8398438 71.648438 z M 7.59375 75.117188 L 9.2265625 75.117188 C 9.3577394 75.117188 9.4697163 75.165736 9.5625 75.261719 C 9.6584831 75.357702 9.7070312 75.470388 9.7070312 75.601562 L 9.7070312 77.023438 L 10.853516 77.023438 L 10.853516 75.357422 C 10.853516 75.290234 10.87779 75.233538 10.925781 75.185547 C 10.973773 75.140755 11.030468 75.117188 11.097656 75.117188 C 11.161645 75.117188 11.217633 75.140755 11.265625 75.185547 C 11.313617 75.233538 11.337891 75.290234 11.337891 75.357422 L 11.337891 77.023438 C 11.337891 77.151415 11.289342 77.263392 11.193359 77.359375 C 11.097376 77.458558 10.984693 77.507812 10.853516 77.507812 L 9.7070312 77.507812 C 9.579054 77.507812 9.4670769 77.459264 9.3710938 77.363281 C 9.2751104 77.267298 9.2265625 77.154612 9.2265625 77.023438 L 9.2265625 75.601562 L 8.0800781 75.601562 L 8.0800781 77.261719 C 8.0800781 77.328907 8.0558041 77.387555 8.0078125 77.435547 C 7.9598209 77.483538 7.9038324 77.507814 7.8398438 77.507812 C 7.7726556 77.507812 7.7140072 77.483538 7.6660156 77.435547 C 7.6180241 77.387555 7.59375 77.328907 7.59375 77.261719 L 7.59375 75.117188 z M 9.4667969 78.585938 C 9.636367 78.585938 9.8009656 78.624385 9.9609375 78.701172 L 10.939453 79.185547 C 11.054633 79.236738 11.149069 79.321074 11.222656 79.439453 C 11.299443 79.561032 11.337891 79.693916 11.337891 79.837891 L 11.337891 80.730469 C 11.337891 80.797657 11.313617 80.856305 11.265625 80.904297 C 11.217633 80.952288 11.161645 80.974609 11.097656 80.974609 C 11.030468 80.974609 10.973773 80.952288 10.925781 80.904297 C 10.87779 80.856305 10.853516 80.797657 10.853516 80.730469 L 10.853516 79.837891 C 10.853516 79.738708 10.808334 79.668546 10.71875 79.626953 L 9.7441406 79.132812 C 9.6545564 79.091222 9.56278 79.070312 9.4667969 79.070312 C 9.3708138 79.070312 9.2770842 79.091222 9.1875 79.132812 L 8.2128906 79.626953 C 8.1233064 79.668546 8.0800781 79.738708 8.0800781 79.837891 L 8.0800781 80.730469 C 8.0800781 80.797657 8.0558041 80.856305 8.0078125 80.904297 C 7.9598209 80.952288 7.9038324 80.974609 7.8398438 80.974609 C 7.7726556 80.974609 7.7140072 80.952288 7.6660156 80.904297 C 7.6180241 80.856305 7.59375 80.797657 7.59375 80.730469 L 7.59375 79.837891 C 7.59375 79.697115 7.6321979 79.567598 7.7089844 79.449219 C 7.7857709 79.334039 7.8828671 79.247043 7.9980469 79.189453 C 8.4491675 78.952695 8.7742913 78.790756 8.9726562 78.701172 C 9.1358277 78.624385 9.3004261 78.585938 9.4667969 78.585938 z M 8.2421875 87.800781 C 8.3093757 87.800781 8.3680241 87.822395 8.4160156 87.867188 C 8.4640072 87.915178 8.4863281 87.973827 8.4863281 88.041016 C 8.4863281 88.108204 8.4640072 88.164899 8.4160156 88.212891 C 8.3680241 88.260882 8.3093757 88.285156 8.2421875 88.285156 C 8.1973954 88.285156 8.1589475 88.300037 8.1269531 88.332031 C 8.0949588 88.364026 8.0800781 88.402474 8.0800781 88.447266 L 8.0800781 89.642578 C 8.0800781 89.684171 8.0990323 89.705078 8.140625 89.705078 L 10.455078 87.910156 C 10.55746 87.836569 10.669437 87.800781 10.791016 87.800781 L 10.804688 87.800781 C 10.948662 87.800781 11.074106 87.853403 11.179688 87.958984 C 11.285268 88.067765 11.337891 88.194623 11.337891 88.341797 L 11.337891 89.537109 C 11.337891 89.713078 11.274462 89.866163 11.146484 89.994141 C 11.018507 90.125318 10.865422 90.189453 10.689453 90.189453 C 10.622265 90.189453 10.56557 90.165178 10.517578 90.117188 C 10.469587 90.069196 10.445313 90.012501 10.445312 89.945312 C 10.445312 89.878124 10.469587 89.821428 10.517578 89.773438 C 10.56557 89.728645 10.622265 89.705078 10.689453 89.705078 C 10.731046 89.705078 10.768787 89.687538 10.800781 89.652344 C 10.835975 89.620349 10.853516 89.581901 10.853516 89.537109 L 10.853516 88.341797 C 10.853516 88.303404 10.836681 88.285156 10.804688 88.285156 L 10.791016 88.285156 L 10.771484 88.285156 L 8.4765625 90.070312 C 8.3805794 90.150299 8.2686025 90.189453 8.140625 90.189453 C 7.9902515 90.183054 7.860734 90.127066 7.7519531 90.021484 C 7.6463717 89.919102 7.59375 89.792952 7.59375 89.642578 L 7.59375 88.447266 C 7.59375 88.271297 7.6591319 88.120165 7.7871094 87.992188 C 7.9150869 87.86421 8.0662185 87.800781 8.2421875 87.800781 z M 8.2421875 91.267578 C 8.3093757 91.267578 8.3680241 91.291145 8.4160156 91.335938 C 8.4640072 91.383928 8.4863281 91.440624 8.4863281 91.507812 C 8.4863281 91.575001 8.4640072 91.633649 8.4160156 91.681641 C 8.3680241 91.729632 8.3093757 91.753906 8.2421875 91.753906 C 8.1973954 91.753906 8.1589475 91.768787 8.1269531 91.800781 C 8.0949588 91.832776 8.0800781 91.871224 8.0800781 91.916016 L 8.0800781 93.111328 C 8.0800781 93.152921 8.0990323 93.173828 8.140625 93.173828 L 10.455078 91.378906 C 10.55746 91.305319 10.669437 91.267578 10.791016 91.267578 L 10.804688 91.267578 C 10.948662 91.267578 11.074106 91.3202 11.179688 91.425781 C 11.285268 91.534562 11.337891 91.663373 11.337891 91.810547 L 11.337891 93.005859 C 11.337891 93.181828 11.274462 93.332959 11.146484 93.460938 C 11.018507 93.592113 10.865422 93.658203 10.689453 93.658203 C 10.622265 93.658203 10.56557 93.633928 10.517578 93.585938 C 10.469587 93.537946 10.445313 93.481251 10.445312 93.414062 C 10.445312 93.346874 10.469587 93.288226 10.517578 93.240234 C 10.56557 93.195442 10.622265 93.173828 10.689453 93.173828 C 10.731046 93.173828 10.768787 93.156288 10.800781 93.121094 C 10.835975 93.089099 10.853516 93.050651 10.853516 93.005859 L 10.853516 91.810547 C 10.853516 91.772154 10.836681 91.753906 10.804688 91.753906 L 10.791016 91.753906 L 10.771484 91.753906 L 8.4765625 93.539062 C 8.3805794 93.619049 8.2686025 93.658203 8.140625 93.658203 C 7.9902515 93.651804 7.860734 93.595816 7.7519531 93.490234 C 7.6463717 93.387852 7.59375 93.261702 7.59375 93.111328 L 7.59375 91.916016 C 7.59375 91.740047 7.6591319 91.588915 7.7871094 91.460938 C 7.9150869 91.33296 8.0662185 91.267578 8.2421875 91.267578 z M 7.8398438 94.736328 C 7.9038325 94.736328 7.9598209 94.757942 8.0078125 94.802734 C 8.0558041 94.850726 8.0800781 94.909374 8.0800781 94.976562 L 8.0800781 95.210938 L 10.853516 95.210938 L 10.853516 94.976562 C 10.853516 94.909374 10.87779 94.850726 10.925781 94.802734 C 10.973773 94.757942 11.030468 94.736328 11.097656 94.736328 C 11.161645 94.736328 11.217633 94.757942 11.265625 94.802734 C 11.313617 94.850726 11.337891 94.909374 11.337891 94.976562 L 11.337891 95.869141 C 11.337891 96.009916 11.299443 96.138727 11.222656 96.253906 C 11.14587 96.372285 11.050727 96.459988 10.935547 96.517578 L 9.9609375 97.005859 C 9.7945668 97.085845 9.6299682 97.126953 9.4667969 97.126953 C 9.3036256 97.126953 9.139027 97.085845 8.9726562 97.005859 L 7.9921875 96.521484 C 7.8770078 96.470293 7.7818646 96.383297 7.7050781 96.261719 C 7.6314911 96.14334 7.59375 96.013115 7.59375 95.869141 L 7.59375 94.976562 C 7.59375 94.909374 7.6180241 94.850726 7.6660156 94.802734 C 7.7140072 94.757942 7.7726555 94.736328 7.8398438 94.736328 z M 8.0800781 95.695312 L 8.0800781 95.869141 C 8.0800781 95.968323 8.1233064 96.038485 8.2128906 96.080078 L 9.1875 96.574219 C 9.2962809 96.619011 9.3900104 96.642578 9.4667969 96.642578 C 9.56278 96.642578 9.6545564 96.619011 9.7441406 96.574219 L 10.71875 96.080078 C 10.808334 96.038485 10.853516 95.968323 10.853516 95.869141 L 10.853516 95.695312 L 8.0800781 95.695312 z M 7.8398438 98.205078 C 7.9038325 98.205078 7.9598209 98.226692 8.0078125 98.271484 C 8.0558041 98.319476 8.0800781 98.378124 8.0800781 98.445312 L 8.0800781 99.154297 L 10.853516 99.154297 L 10.853516 98.445312 C 10.853516 98.378124 10.87779 98.319476 10.925781 98.271484 C 10.973773 98.226692 11.030468 98.205078 11.097656 98.205078 C 11.161645 98.205078 11.217633 98.226692 11.265625 98.271484 C 11.313617 98.319476 11.337891 98.378124 11.337891 98.445312 L 11.337891 99.638672 L 8.0800781 99.638672 L 8.0800781 100.10938 L 9.0585938 100.10938 C 9.1257818 100.10938 9.1824772 100.13294 9.2304688 100.17773 C 9.2784603 100.22573 9.3027344 100.28242 9.3027344 100.34961 C 9.3027344 100.4168 9.2784602 100.47545 9.2304688 100.52344 C 9.1824771 100.57143 9.1257818 100.59375 9.0585938 100.59375 L 7.8398438 100.59375 C 7.7726556 100.59375 7.7140072 100.57143 7.6660156 100.52344 C 7.6180241 100.47545 7.59375 100.4168 7.59375 100.34961 L 7.59375 98.445312 C 7.59375 98.378124 7.6180241 98.319476 7.6660156 98.271484 C 7.7140072 98.226692 7.7726555 98.205078 7.8398438 98.205078 z M 7.8398438 101.67188 C 7.9038325 101.67188 7.9598209 101.69544 8.0078125 101.74023 C 8.0558041 101.78823 8.0800781 101.84492 8.0800781 101.91211 L 8.0800781 103.57812 L 8.9804688 103.57812 C 9.0444574 103.57812 9.1004459 103.55314 9.1484375 103.50195 C 9.1996285 103.45396 9.2265625 103.39797 9.2265625 103.33398 L 9.2265625 102.38867 C 9.2265625 102.32148 9.2481766 102.26284 9.2929688 102.21484 C 9.3409603 102.17005 9.3996087 102.14844 9.4667969 102.14844 C 9.5339851 102.14844 9.5906803 102.17005 9.6386719 102.21484 C 9.6866634 102.26284 9.7109375 102.32148 9.7109375 102.38867 L 9.7109375 103.33398 C 9.7109375 103.40117 9.7352116 103.45787 9.7832031 103.50586 C 9.8311947 103.55385 9.8871831 103.57813 9.9511719 103.57812 L 10.853516 103.57812 L 10.853516 101.91211 C 10.853516 101.84492 10.87779 101.78823 10.925781 101.74023 C 10.973773 101.69544 11.030468 101.67188 11.097656 101.67188 C 11.161645 101.67188 11.217633 101.69544 11.265625 101.74023 C 11.313617 101.78823 11.337891 101.84492 11.337891 101.91211 L 11.337891 103.57812 C 11.337891 103.70611 11.289342 103.81808 11.193359 103.91406 C 11.097376 104.01325 10.984693 104.0625 10.853516 104.0625 L 9.9511719 104.0625 C 9.7656045 104.0625 9.6043727 103.99907 9.4667969 103.87109 C 9.3292211 103.99907 9.1660361 104.0625 8.9804688 104.0625 L 8.0800781 104.0625 C 7.9489012 104.0625 7.8342644 104.01325 7.7382812 103.91406 C 7.6422981 103.81808 7.59375 103.70611 7.59375 103.57812 L 7.59375 101.91211 C 7.59375 101.84492 7.6180241 101.78823 7.6660156 101.74023 C 7.7140072 101.69544 7.7726555 101.67188 7.8398438 101.67188 z M 8.0800781 105.14062 L 10.853516 105.14062 C 10.984693 105.14064 11.097376 105.18917 11.193359 105.28516 C 11.289342 105.38114 11.337891 105.49382 11.337891 105.625 L 11.337891 107.04688 C 11.337891 107.17485 11.289342 107.28683 11.193359 107.38281 C 11.097376 107.482 10.984693 107.53125 10.853516 107.53125 L 8.0800781 107.53125 C 7.9489012 107.53125 7.8342644 107.482 7.7382812 107.38281 C 7.6422981 107.28683 7.59375 107.17485 7.59375 107.04688 L 7.59375 105.625 C 7.59375 105.49382 7.6422981 105.38114 7.7382812 105.28516 C 7.8342645 105.18917 7.9489012 105.14064 8.0800781 105.14062 z M 8.0800781 105.625 L 8.0800781 107.04688 L 10.853516 107.04688 L 10.853516 105.625 L 8.0800781 105.625 z M 7.8398438 108.60938 L 11.097656 108.60938 C 11.161645 108.60938 11.217633 108.63099 11.265625 108.67578 C 11.313617 108.72377 11.337891 108.78242 11.337891 108.84961 L 11.337891 109.08984 C 11.337891 109.15703 11.313617 109.21302 11.265625 109.25781 C 11.217633 109.3058 11.161645 109.32814 11.097656 109.32812 C 11.030468 109.32812 10.973773 109.3058 10.925781 109.25781 C 10.87779 109.21302 10.853516 109.15703 10.853516 109.08984 L 9.3027344 109.08984 L 9.3027344 110.75391 C 9.3027344 110.82109 9.2784602 110.87974 9.2304688 110.92773 C 9.1824771 110.97573 9.1257818 110.99805 9.0585938 110.99805 L 7.8398438 110.99805 C 7.7726556 110.99805 7.7140072 110.97573 7.6660156 110.92773 C 7.6180241 110.87974 7.59375 110.82109 7.59375 110.75391 L 7.59375 108.84961 C 7.59375 108.78242 7.6180241 108.72377 7.6660156 108.67578 C 7.7140072 108.63099 7.7726555 108.60937 7.8398438 108.60938 z M 8.0800781 109.08984 L 8.0800781 110.51367 L 8.8183594 110.51367 L 8.8183594 109.08984 L 8.0800781 109.08984 z M 28.375 113.68555 L 28.574219 113.68555 C 28.627719 113.68555 28.674719 113.70597 28.714844 113.74609 C 28.754969 113.78354 28.775391 113.83054 28.775391 113.88672 L 28.775391 114.05469 C 28.775391 114.11086 28.754969 114.15909 28.714844 114.19922 C 28.674719 114.23934 28.627719 114.25977 28.574219 114.25977 L 28.375 114.25977 C 28.318825 114.25977 28.270594 114.23934 28.230469 114.19922 C 28.190344 114.15909 28.169922 114.11086 28.169922 114.05469 L 28.169922 113.88672 C 28.169922 113.83054 28.190344 113.78354 28.230469 113.74609 C 28.270594 113.70597 28.318825 113.68555 28.375 113.68555 z M 4.578125 113.85352 C 4.6342999 113.85352 4.6825313 113.87394 4.7226562 113.91406 C 4.7627812 113.95419 4.7832031 114.00119 4.7832031 114.05469 L 4.7832031 114.96094 C 4.9651029 114.78974 5.1469471 114.70508 5.3261719 114.70508 L 5.6269531 114.70508 C 5.6617281 114.70508 5.6944625 114.70754 5.7265625 114.71289 C 5.7586625 114.71557 5.7901657 114.72418 5.8222656 114.74023 C 5.8543656 114.75361 5.8797125 114.76541 5.8984375 114.77344 C 5.9171625 114.77879 5.9425094 114.79356 5.9746094 114.82031 C 6.0067093 114.84439 6.0271313 114.86112 6.0351562 114.86914 C 6.0458562 114.87449 6.0687407 114.89368 6.1035156 114.92578 C 6.1409656 114.95521 6.1613875 114.96998 6.1640625 114.97266 C 6.3058373 115.09571 6.3769531 115.24974 6.3769531 115.43164 L 6.3769531 116.25781 C 6.3769531 116.30061 6.3744906 116.3395 6.3691406 116.37695 C 6.3637906 116.41173 6.3507562 116.44765 6.3320312 116.48242 C 6.3133063 116.5172 6.2997625 116.54501 6.2890625 116.56641 C 6.2810375 116.58513 6.2593843 116.61171 6.2246094 116.64648 L 6.1601562 116.71094 C 6.1548063 116.71896 6.1294593 116.74308 6.0839844 116.7832 L 6.015625 116.83984 C 5.9059502 116.93614 5.7767529 116.98437 5.6269531 116.98438 L 5.3261719 116.98438 C 5.248597 116.98438 5.1737874 116.96888 5.1015625 116.93945 C 5.0293376 116.91003 4.9717656 116.88099 4.9316406 116.85156 C 4.8941907 116.81946 4.844728 116.77492 4.7832031 116.71875 L 4.7832031 116.7793 C 4.7832031 116.83547 4.7627812 116.8837 4.7226562 116.92383 C 4.6825313 116.96395 4.6342999 116.98437 4.578125 116.98438 C 4.5219501 116.98438 4.4756718 116.96395 4.4355469 116.92383 C 4.3980969 116.8837 4.3789063 116.83547 4.3789062 116.7793 L 4.3789062 114.05469 C 4.3789062 114.00119 4.3980969 113.95419 4.4355469 113.91406 C 4.4756718 113.87394 4.5219501 113.85352 4.578125 113.85352 z M 7.6796875 113.85352 L 8.2773438 113.85352 C 8.3308437 113.85352 8.3778438 113.87394 8.4179688 113.91406 C 8.4580937 113.95419 8.4785156 114.00119 8.4785156 114.05469 L 8.4785156 116.57812 L 8.8710938 116.57812 C 8.9272687 116.57813 8.9755001 116.59855 9.015625 116.63867 C 9.0557499 116.6788 9.0761719 116.7258 9.0761719 116.7793 C 9.0761719 116.83547 9.0557499 116.8837 9.015625 116.92383 C 8.9755001 116.96395 8.9272687 116.98437 8.8710938 116.98438 L 7.6796875 116.98438 C 7.6235126 116.98438 7.5752812 116.96395 7.5351562 116.92383 C 7.4950313 116.8837 7.4746094 116.83547 7.4746094 116.7793 C 7.4746094 116.7258 7.4950313 116.6788 7.5351562 116.63867 C 7.5752812 116.59855 7.6235126 116.57813 7.6796875 116.57812 L 8.0722656 116.57812 L 8.0722656 114.25977 L 7.6796875 114.25977 C 7.6235126 114.25977 7.5752812 114.23934 7.5351562 114.19922 C 7.4950313 114.15909 7.4746094 114.11086 7.4746094 114.05469 C 7.4746094 114.00119 7.4950313 113.95419 7.5351562 113.91406 C 7.5752812 113.87394 7.6235126 113.85352 7.6796875 113.85352 z M 39.375 113.85352 C 39.431175 113.85352 39.479406 113.87394 39.519531 113.91406 C 39.559656 113.95419 39.580078 114.00119 39.580078 114.05469 L 39.580078 115.04492 L 39.964844 114.80078 C 40.066494 114.73658 40.174038 114.70508 40.289062 114.70508 L 40.517578 114.70508 C 40.680753 114.70508 40.820522 114.76193 40.935547 114.87695 C 41.053247 114.9893 41.115744 115.12661 41.121094 115.28711 L 41.167969 116.7793 C 41.167969 116.83547 41.147547 116.8837 41.107422 116.92383 C 41.069972 116.96395 41.024925 116.98437 40.96875 116.98438 C 40.91525 116.98438 40.86825 116.96518 40.828125 116.92773 C 40.788 116.88761 40.767578 116.84061 40.767578 116.78711 L 40.714844 115.29883 C 40.709494 115.248 40.687841 115.20347 40.650391 115.16602 C 40.615616 115.12857 40.571078 115.10938 40.517578 115.10938 L 40.234375 115.10938 L 39.580078 115.53125 L 39.580078 116.7793 C 39.580078 116.83547 39.559656 116.8837 39.519531 116.92383 C 39.479406 116.96395 39.431175 116.98437 39.375 116.98438 C 39.318825 116.98438 39.270594 116.96395 39.230469 116.92383 C 39.193019 116.8837 39.173828 116.83547 39.173828 116.7793 L 39.173828 114.05469 C 39.173828 114.00119 39.193019 113.95419 39.230469 113.91406 C 39.270594 113.87394 39.318825 113.85352 39.375 113.85352 z M 10.923828 114.70508 L 11.425781 114.70508 C 11.460556 114.70508 11.493291 114.70754 11.525391 114.71289 C 11.557491 114.71557 11.590947 114.72418 11.623047 114.74023 C 11.655147 114.75361 11.680494 114.76541 11.699219 114.77344 C 11.717944 114.77879 11.743291 114.79356 11.775391 114.82031 C 11.807491 114.84439 11.825959 114.86112 11.833984 114.86914 C 11.844684 114.87449 11.867569 114.89368 11.902344 114.92578 C 11.939794 114.95521 11.960216 114.96998 11.962891 114.97266 C 12.104665 115.09571 12.175781 115.24974 12.175781 115.43164 L 12.175781 116.25781 C 12.175781 116.30061 12.173319 116.3395 12.167969 116.37695 C 12.162619 116.41173 12.149584 116.44765 12.130859 116.48242 C 12.112134 116.5172 12.098591 116.54501 12.087891 116.56641 C 12.079866 116.58513 12.058212 116.61171 12.023438 116.64648 L 11.958984 116.71094 C 11.953634 116.71896 11.928287 116.74308 11.882812 116.7832 L 11.814453 116.83984 C 11.704778 116.93614 11.575581 116.98437 11.425781 116.98438 L 10.923828 116.98438 C 10.881028 116.98438 10.838953 116.97873 10.798828 116.9707 C 10.761378 116.96 10.729875 116.95138 10.703125 116.94336 C 10.676375 116.93266 10.644872 116.9147 10.607422 116.89062 C 10.572647 116.86655 10.5473 116.85054 10.53125 116.83984 C 10.517875 116.82914 10.492528 116.80749 10.455078 116.77539 C 10.420303 116.74329 10.397419 116.72287 10.386719 116.71484 C 10.247619 116.59982 10.177734 116.44774 10.177734 116.25781 L 10.177734 115.43164 C 10.177734 115.33802 10.199388 115.25017 10.242188 115.16992 C 10.284987 115.08967 10.322647 115.03405 10.357422 115.00195 C 10.392197 114.96985 10.452231 114.91916 10.535156 114.84961 C 10.644831 114.75331 10.774028 114.70508 10.923828 114.70508 z M 13.824219 114.70508 L 14.125 114.70508 C 14.1678 114.70508 14.209875 114.71 14.25 114.7207 C 14.290125 114.72873 14.321628 114.73735 14.345703 114.74805 C 14.372453 114.75607 14.405188 114.77403 14.445312 114.80078 C 14.485437 114.82753 14.510784 114.84549 14.521484 114.85352 C 14.532184 114.86154 14.557531 114.88443 14.597656 114.92188 C 14.640456 114.95932 14.664572 114.97975 14.669922 114.98242 L 14.669922 114.91016 C 14.669922 114.85398 14.689113 114.80575 14.726562 114.76562 C 14.766687 114.7255 14.814919 114.70508 14.871094 114.70508 C 14.927269 114.70508 14.9755 114.7255 15.015625 114.76562 C 15.05575 114.80575 15.076172 114.85398 15.076172 114.91016 L 15.076172 117.10742 C 15.076172 117.15022 15.073709 117.18983 15.068359 117.22461 C 15.063009 117.26206 15.049975 117.29726 15.03125 117.33203 C 15.012525 117.36681 14.998981 117.39338 14.988281 117.41211 C 14.980256 117.43351 14.958603 117.46327 14.923828 117.49805 L 14.859375 117.56055 C 14.854025 117.56857 14.828678 117.59269 14.783203 117.63281 L 14.714844 117.68945 C 14.605169 117.78575 14.475972 117.83398 14.326172 117.83398 L 13.478516 117.83398 C 13.422341 117.83398 13.374109 117.81356 13.333984 117.77344 C 13.293859 117.73599 13.273437 117.68899 13.273438 117.63281 C 13.273438 117.57664 13.293859 117.52841 13.333984 117.48828 C 13.374109 117.44816 13.422341 117.42969 13.478516 117.42969 L 14.326172 117.42969 C 14.363622 117.42969 14.396356 117.41912 14.425781 117.40039 C 14.457881 117.38167 14.491847 117.35509 14.529297 117.32031 C 14.566747 117.28554 14.589631 117.26388 14.597656 117.25586 C 14.645806 117.21841 14.669922 117.16895 14.669922 117.10742 L 14.669922 116.54297 C 14.608397 116.59914 14.557703 116.64173 14.517578 116.67383 C 14.477453 116.70593 14.421834 116.73938 14.349609 116.77148 C 14.277384 116.80091 14.202575 116.81445 14.125 116.81445 L 13.824219 116.81445 C 13.784094 116.81445 13.742019 116.81076 13.699219 116.80273 C 13.659094 116.79203 13.627591 116.78342 13.603516 116.77539 C 13.579441 116.76737 13.545984 116.74941 13.505859 116.72266 C 13.465734 116.69323 13.440387 116.67527 13.429688 116.66992 C 13.421663 116.6619 13.396316 116.63778 13.353516 116.59766 L 13.285156 116.54297 C 13.146056 116.42259 13.078125 116.26856 13.078125 116.08398 L 13.078125 115.43164 C 13.078125 115.40222 13.079356 115.37122 13.082031 115.3418 C 13.087381 115.31237 13.091075 115.28702 13.09375 115.26562 C 13.0991 115.24423 13.107719 115.22011 13.121094 115.19336 C 13.137144 115.16661 13.148947 115.14814 13.154297 115.13477 C 13.159647 115.12139 13.171959 115.1022 13.193359 115.07812 C 13.214759 115.05138 13.229025 115.03342 13.234375 115.02539 C 13.239725 115.01737 13.2545 115.00064 13.28125 114.97656 C 13.310675 114.95249 13.327403 114.94017 13.330078 114.9375 C 13.335428 114.93215 13.353388 114.91665 13.382812 114.89258 C 13.414912 114.86583 13.430919 114.85228 13.433594 114.84961 C 13.543269 114.75331 13.674419 114.70508 13.824219 114.70508 z M 19.4375 114.70508 L 20.296875 114.70508 C 20.4975 114.70508 20.662616 114.78851 20.791016 114.95703 C 20.817766 114.99181 20.830078 115.03265 20.830078 115.07812 C 20.830078 115.1343 20.811609 115.18253 20.771484 115.22266 C 20.731359 115.26278 20.683128 115.2832 20.626953 115.2832 C 20.578803 115.2832 20.522462 115.25344 20.460938 115.19727 C 20.402088 115.13842 20.3477 115.10938 20.296875 115.10938 L 19.4375 115.10938 C 19.402725 115.10938 19.374916 115.12241 19.353516 115.14648 C 19.334791 115.17056 19.326172 115.19714 19.326172 115.22656 C 19.326172 115.27471 19.347825 115.30622 19.390625 115.32227 L 20.505859 115.80469 C 20.607509 115.85016 20.692169 115.92497 20.761719 116.0293 C 20.833944 116.13095 20.871094 116.24218 20.871094 116.36523 L 20.871094 116.37305 C 20.868419 116.54157 20.805922 116.68627 20.685547 116.80664 C 20.565172 116.92434 20.422431 116.98438 20.253906 116.98438 L 19.494141 116.98438 C 19.298866 116.98438 19.118975 116.91326 18.953125 116.77148 C 18.9023 116.72868 18.876953 116.67553 18.876953 116.61133 C 18.876953 116.55515 18.896144 116.50815 18.933594 116.4707 C 18.971044 116.43058 19.018044 116.41016 19.074219 116.41016 C 19.122369 116.41016 19.171831 116.43058 19.222656 116.4707 C 19.273481 116.50815 19.309909 116.53104 19.333984 116.53906 L 19.382812 116.5625 C 19.409562 116.5732 19.4268 116.57812 19.4375 116.57812 L 20.253906 116.57812 C 20.318106 116.57813 20.367569 116.55647 20.402344 116.51367 C 20.439794 116.47087 20.457031 116.42018 20.457031 116.36133 C 20.457031 116.27038 20.419372 116.2086 20.341797 116.17383 L 19.230469 115.69141 C 19.139519 115.65128 19.065941 115.58827 19.009766 115.5 C 18.953591 115.40905 18.925781 115.31136 18.925781 115.20703 C 18.925781 115.07061 18.975244 114.95372 19.074219 114.85742 C 19.175869 114.75577 19.295725 114.70508 19.4375 114.70508 z M 22.523438 114.70508 L 22.824219 114.70508 C 22.867019 114.70508 22.907141 114.71 22.947266 114.7207 C 22.987391 114.72873 23.020847 114.73735 23.044922 114.74805 C 23.071672 114.75607 23.104406 114.77403 23.144531 114.80078 C 23.184656 114.82753 23.210003 114.84549 23.220703 114.85352 C 23.231403 114.86154 23.25675 114.88443 23.296875 114.92188 C 23.339675 114.95932 23.363791 114.97975 23.369141 114.98242 L 23.369141 114.91016 C 23.369141 114.85398 23.388331 114.80575 23.425781 114.76562 C 23.465906 114.7255 23.514138 114.70508 23.570312 114.70508 C 23.626487 114.70508 23.674719 114.7255 23.714844 114.76562 C 23.754969 114.80575 23.775391 114.85398 23.775391 114.91016 L 23.775391 117.63281 C 23.775391 117.68899 23.754969 117.73599 23.714844 117.77344 C 23.674719 117.81356 23.626487 117.83398 23.570312 117.83398 C 23.514138 117.83398 23.465906 117.81356 23.425781 117.77344 C 23.388331 117.73599 23.369141 117.68899 23.369141 117.63281 L 23.369141 116.71484 C 23.307616 116.77369 23.256922 116.81946 23.216797 116.85156 C 23.179347 116.88099 23.124959 116.91003 23.052734 116.93945 C 22.980509 116.96888 22.904469 116.98437 22.824219 116.98438 L 22.523438 116.98438 C 22.494013 116.98438 22.46425 116.98314 22.4375 116.98047 C 22.413425 116.97779 22.388078 116.97092 22.361328 116.96289 C 22.337253 116.95487 22.317553 116.94871 22.298828 116.94336 C 22.280103 116.93533 22.25845 116.92548 22.234375 116.91211 C 22.212975 116.89873 22.195016 116.88693 22.181641 116.87891 C 22.168266 116.87088 22.149075 116.85857 22.125 116.83984 C 22.1036 116.82112 22.090056 116.80808 22.082031 116.80273 C 22.074006 116.79471 22.056047 116.78117 22.029297 116.75977 L 21.984375 116.71484 C 21.845275 116.59982 21.775391 116.44774 21.775391 116.25781 L 21.775391 115.43164 C 21.775391 115.30324 21.805153 115.19867 21.861328 115.12109 C 21.917503 115.04084 21.997238 114.95865 22.101562 114.87305 C 22.114937 114.86235 22.124788 114.85496 22.132812 114.84961 C 22.242487 114.75331 22.373638 114.70508 22.523438 114.70508 z M 24.876953 114.70508 C 24.930453 114.70508 24.977453 114.7255 25.017578 114.76562 C 25.057703 114.80307 25.078125 114.84689 25.078125 114.90039 L 25.128906 116.39062 C 25.134256 116.44412 25.154678 116.48794 25.189453 116.52539 C 25.226903 116.56017 25.272672 116.57813 25.326172 116.57812 L 25.611328 116.57812 L 26.269531 116.16016 L 26.269531 114.91016 C 26.269531 114.85398 26.286769 114.80575 26.324219 114.76562 C 26.364344 114.7255 26.412575 114.70508 26.46875 114.70508 C 26.524925 114.70508 26.573156 114.7255 26.613281 114.76562 C 26.653406 114.80575 26.673828 114.85398 26.673828 114.91016 L 26.673828 116.7793 C 26.673828 116.83547 26.653406 116.8837 26.613281 116.92383 C 26.573156 116.96395 26.524925 116.98437 26.46875 116.98438 C 26.412575 116.98438 26.364344 116.96395 26.324219 116.92383 C 26.286769 116.8837 26.269531 116.83547 26.269531 116.7793 L 26.269531 116.63867 L 25.878906 116.88672 C 25.777256 116.95092 25.669712 116.98438 25.554688 116.98438 L 25.326172 116.98438 C 25.165672 116.98438 25.025903 116.9268 24.908203 116.81445 C 24.790503 116.69943 24.729959 116.56407 24.724609 116.40625 L 24.675781 114.91016 C 24.675781 114.85398 24.694972 114.80575 24.732422 114.76562 C 24.772547 114.7255 24.820778 114.70508 24.876953 114.70508 z M 27.976562 114.70508 L 28.574219 114.70508 C 28.627719 114.70508 28.674719 114.7255 28.714844 114.76562 C 28.754969 114.80575 28.775391 114.85398 28.775391 114.91016 L 28.775391 116.57812 L 29.167969 116.57812 C 29.224144 116.57813 29.272375 116.59855 29.3125 116.63867 C 29.352625 116.6788 29.373047 116.7258 29.373047 116.7793 C 29.373047 116.83547 29.352625 116.8837 29.3125 116.92383 C 29.272375 116.96395 29.224144 116.98437 29.167969 116.98438 L 27.976562 116.98438 C 27.920388 116.98438 27.872156 116.96395 27.832031 116.92383 C 27.791906 116.8837 27.771484 116.83547 27.771484 116.7793 C 27.771484 116.7258 27.791906 116.6788 27.832031 116.63867 C 27.872156 116.59855 27.920388 116.57813 27.976562 116.57812 L 28.375 116.57812 L 28.375 115.10938 L 27.976562 115.10938 C 27.920388 115.10937 27.872156 115.09018 27.832031 115.05273 C 27.791906 115.01261 27.771484 114.96633 27.771484 114.91016 C 27.771484 114.85398 27.791906 114.80575 27.832031 114.76562 C 27.872156 114.7255 27.920388 114.70508 27.976562 114.70508 z M 30.720703 114.70508 C 30.782228 114.70508 30.834153 114.73043 30.876953 114.78125 L 31.474609 115.5 L 32.068359 114.78125 C 32.111159 114.73043 32.163084 114.70508 32.224609 114.70508 C 32.280784 114.70508 32.329016 114.7255 32.369141 114.76562 C 32.409266 114.80575 32.429688 114.85398 32.429688 114.91016 C 32.429688 114.95563 32.412959 114.99698 32.380859 115.03711 L 31.734375 115.81641 L 32.429688 116.65039 C 32.459112 116.68784 32.472656 116.73115 32.472656 116.7793 C 32.472656 116.83547 32.454187 116.8837 32.414062 116.92383 C 32.373938 116.96395 32.325706 116.98437 32.269531 116.98438 C 32.205331 116.98438 32.153406 116.96026 32.113281 116.91211 L 31.474609 116.13672 L 30.832031 116.91211 C 30.791906 116.96026 30.739981 116.98437 30.675781 116.98438 C 30.619606 116.98438 30.571375 116.96395 30.53125 116.92383 C 30.4938 116.8837 30.474609 116.83547 30.474609 116.7793 C 30.474609 116.72847 30.488875 116.68517 30.515625 116.65039 L 31.208984 115.81641 L 30.564453 115.03711 C 30.532353 114.99698 30.515625 114.95563 30.515625 114.91016 C 30.515625 114.85398 30.536047 114.80575 30.576172 114.76562 C 30.616297 114.7255 30.664528 114.70508 30.720703 114.70508 z M 37.220703 114.70508 L 38.068359 114.70508 C 38.124534 114.70508 38.172766 114.7255 38.212891 114.76562 C 38.253016 114.80575 38.273437 114.85398 38.273438 114.91016 C 38.273437 114.96633 38.253016 115.01261 38.212891 115.05273 C 38.172766 115.09018 38.124534 115.10937 38.068359 115.10938 L 37.220703 115.10938 C 37.167203 115.10938 37.12585 115.1261 37.09375 115.1582 L 36.748047 115.45508 C 36.702572 115.4845 36.679688 115.53397 36.679688 115.60352 L 36.679688 116.08398 C 36.679688 116.14551 36.702572 116.19816 36.748047 116.23828 L 37.09375 116.5293 C 37.12585 116.5614 37.167203 116.57813 37.220703 116.57812 L 38.068359 116.57812 C 38.124534 116.57813 38.172766 116.59855 38.212891 116.63867 C 38.253016 116.6788 38.273437 116.7258 38.273438 116.7793 C 38.273437 116.83547 38.253016 116.8837 38.212891 116.92383 C 38.172766 116.96395 38.124534 116.98437 38.068359 116.98438 L 37.220703 116.98438 C 37.068228 116.98438 36.9378 116.93614 36.828125 116.83984 L 36.482422 116.54297 C 36.343322 116.42259 36.275391 116.26856 36.275391 116.08398 L 36.275391 115.60352 C 36.275391 115.41894 36.343322 115.26686 36.482422 115.14648 C 36.511847 115.12241 36.560078 115.07787 36.626953 115.01367 C 36.696503 114.9468 36.754075 114.8961 36.796875 114.86133 C 36.84235 114.82388 36.902894 114.78796 36.980469 114.75586 C 37.058044 114.72108 37.137778 114.70508 37.220703 114.70508 z M 5.3261719 115.10938 C 5.272672 115.10938 5.2293656 115.1261 5.1972656 115.1582 L 4.8515625 115.45508 C 4.8060876 115.4845 4.7832031 115.53397 4.7832031 115.60352 L 4.7832031 116.08398 C 4.7832031 116.14551 4.8060876 116.19497 4.8515625 116.23242 L 5.1972656 116.5293 C 5.2293656 116.5614 5.272672 116.57813 5.3261719 116.57812 L 5.6269531 116.57812 C 5.6644031 116.57813 5.6971375 116.57074 5.7265625 116.55469 C 5.7559875 116.53864 5.7899532 116.51083 5.8300781 116.4707 C 5.8702031 116.43058 5.8930875 116.40892 5.8984375 116.40625 C 5.9465874 116.3688 5.9707031 116.31934 5.9707031 116.25781 L 5.9707031 115.43164 C 5.9707031 115.39419 5.9620843 115.36073 5.9433594 115.33398 C 5.9273094 115.30723 5.8982687 115.27696 5.8554688 115.24219 C 5.8153438 115.20741 5.7936906 115.18822 5.7910156 115.18555 C 5.7348407 115.13472 5.680453 115.10937 5.6269531 115.10938 L 5.3261719 115.10938 z M 10.923828 115.10938 C 10.886378 115.10938 10.853644 115.11872 10.824219 115.13477 C 10.794794 115.15082 10.758875 115.17863 10.71875 115.21875 C 10.678625 115.25887 10.655741 115.28053 10.650391 115.2832 C 10.604916 115.32065 10.582031 115.37012 10.582031 115.43164 L 10.582031 116.25781 C 10.582031 116.28991 10.591372 116.32018 10.607422 116.34961 C 10.623472 116.37903 10.638247 116.40192 10.654297 116.41797 C 10.673022 116.43402 10.700322 116.45567 10.732422 116.48242 L 10.794922 116.5293 C 10.835047 116.5614 10.878353 116.57813 10.923828 116.57812 L 11.425781 116.57812 C 11.463231 116.57813 11.495966 116.57074 11.525391 116.55469 C 11.554816 116.53864 11.590734 116.51083 11.630859 116.4707 C 11.670984 116.43058 11.693869 116.40892 11.699219 116.40625 C 11.747369 116.3688 11.771484 116.31934 11.771484 116.25781 L 11.771484 115.43164 C 11.771484 115.36209 11.730641 115.29097 11.650391 115.21875 C 11.570141 115.14653 11.495331 115.10937 11.425781 115.10938 L 10.923828 115.10938 z M 13.824219 115.10938 C 13.784094 115.10938 13.746944 115.11995 13.714844 115.13867 C 13.685419 115.1574 13.655147 115.18274 13.623047 115.21484 C 13.590947 115.24694 13.566831 115.2686 13.550781 115.2793 C 13.502631 115.32745 13.478516 115.37814 13.478516 115.43164 L 13.478516 116.08398 C 13.478516 116.15621 13.518128 116.22856 13.595703 116.30078 C 13.675953 116.37301 13.751994 116.41016 13.824219 116.41016 L 14.125 116.41016 C 14.1785 116.41016 14.221806 116.39343 14.253906 116.36133 L 14.597656 116.06445 C 14.645806 116.027 14.669922 115.97754 14.669922 115.91602 L 14.669922 115.60352 C 14.669922 115.54734 14.645806 115.49788 14.597656 115.45508 L 14.253906 115.1582 C 14.221806 115.1261 14.1785 115.10937 14.125 115.10938 L 13.824219 115.10938 z M 22.523438 115.10938 C 22.485988 115.10938 22.450069 115.11995 22.417969 115.13867 C 22.388544 115.15472 22.357041 115.18007 22.322266 115.21484 C 22.287491 115.24962 22.264606 115.27127 22.253906 115.2793 C 22.205756 115.3221 22.181641 115.37279 22.181641 115.43164 L 22.181641 116.25781 C 22.181641 116.28991 22.189028 116.32018 22.205078 116.34961 C 22.221128 116.37903 22.237856 116.40192 22.253906 116.41797 C 22.272631 116.43402 22.297978 116.45567 22.330078 116.48242 L 22.394531 116.5293 C 22.434656 116.5614 22.477963 116.57813 22.523438 116.57812 L 22.824219 116.57812 C 22.872369 116.57813 22.913722 116.5614 22.951172 116.5293 L 23.296875 116.23242 C 23.345025 116.19765 23.369141 116.14818 23.369141 116.08398 L 23.369141 115.60352 C 23.369141 115.54734 23.345025 115.49788 23.296875 115.45508 L 22.951172 115.1582 C 22.919072 115.1261 22.877719 115.10937 22.824219 115.10938 L 22.523438 115.10938 z M 16.775391 115.72852 L 17.171875 115.72852 C 17.22805 115.72852 17.276281 115.74698 17.316406 115.78711 C 17.356531 115.82456 17.376953 115.87156 17.376953 115.92773 L 17.376953 116.26953 C 17.376953 116.32571 17.356531 116.37394 17.316406 116.41406 C 17.276281 116.45419 17.22805 116.47461 17.171875 116.47461 L 16.775391 116.47461 C 16.719216 116.47461 16.670984 116.45419 16.630859 116.41406 C 16.590734 116.37394 16.570312 116.32571 16.570312 116.26953 L 16.570312 115.92773 C 16.570312 115.87156 16.590734 115.82456 16.630859 115.78711 C 16.670984 115.74698 16.719216 115.72852 16.775391 115.72852 z M 34.173828 115.72852 L 34.570312 115.72852 C 34.626487 115.72852 34.674719 115.74698 34.714844 115.78711 C 34.754969 115.82456 34.775391 115.87156 34.775391 115.92773 L 34.775391 116.26953 C 34.775391 116.32571 34.754969 116.37394 34.714844 116.41406 C 34.674719 116.45419 34.626487 116.47461 34.570312 116.47461 L 34.173828 116.47461 C 34.117653 116.47461 34.069422 116.45419 34.029297 116.41406 C 33.989172 116.37394 33.96875 116.32571 33.96875 116.26953 L 33.96875 115.92773 C 33.96875 115.87156 33.989172 115.82456 34.029297 115.78711 C 34.069422 115.74698 34.117653 115.72852 34.173828 115.72852 z "
       style="fill:#231f20;fill-opacity:1;stroke:#000000;stroke-width:0.18598518;stroke-miterlimit:4;stroke-dasharray:none;stroke-opacity:1" /><text
       style="font-size:3.28262997px;font-family:OCRA;fill:#000000;stroke-width:1.31305206;"
       id="text4705"
       font-size="2.5"
       x="4.7943892"
       y="15.168906">GND</text>
<text
       style="font-size:3.28262997px;font-family:OCRA;fill:#000000;stroke-width:1.31305206;"
       id="text4707"
       font-size="2.5"
       x="14.41028"
       y="15.166411">VCC</text>
<text
       style="font-size:3.28262997px;font-family:OCRA;fill:#000000;stroke-width:1.31305206;"
       id="text4709"
       font-size="2.5"
       x="24.025995"
       y="15.168906">SCL</text>
<text
       style="font-size:3.28262997px;font-family:OCRA;fill:#000000;stroke-width:1.31305206;"
       id="text4711"
       font-size="2.5"
       x="33.641861"
       y="15.166411">SDA</text>
</g><g
     id="g4867"
     transform="matrix(1.3119497,0,0,1.3119497,235.02034,18.357965)"
     inkscape:label="#copper0"><g
       id="copper0"
       transform="translate(-156.69347,-32.289247)"><g
         id="copper1"><circle
           r="1.584"
           cy="22.916"
           cx="5.5840001"
           id="connector1pin_3_"
           style="fill:none;stroke:#ffbf00;stroke-width:1.15199995" /><circle
           r="1.584"
           cy="22.908001"
           cx="-1.584"
           id="connector2pin_5_"
           style="fill:none;stroke:#ffbf00;stroke-width:1.15199995" /><circle
           r="1.584"
           cy="22.916"
           cx="-8.816"
           id="connector3pin_5_"
           style="fill:none;stroke:#ffbf00;stroke-width:1.15199995" /><circle
           r="1.584"
           cy="22.916"
           cx="-16.016001"
           id="connector4pin_7_"
           style="fill:none;stroke:#ffbf00;stroke-width:1.15199995" /></g></g></g></svg>