<?xml version="1.0" encoding="UTF-8" standalone="no"?>
<!-- Generator: Adobe Illustrator 15.0.0, SVG Export Plug-In . SVG Version: 6.00 Build 0)  -->

<svg
   xmlns:dc="http://purl.org/dc/elements/1.1/"
   xmlns:cc="http://creativecommons.org/ns#"
   xmlns:rdf="http://www.w3.org/1999/02/22-rdf-syntax-ns#"
   xmlns:svg="http://www.w3.org/2000/svg"
   xmlns="http://www.w3.org/2000/svg"
   xmlns:sodipodi="http://sodipodi.sourceforge.net/DTD/sodipodi-0.dtd"
   xmlns:inkscape="http://www.inkscape.org/namespaces/inkscape"
   version="1.1"
   id="Layer_1"
   x="0px"
   y="0px"
   width="46.420074"
   height="145.8623"
   viewBox="0 0 46.420074 145.8623"
   enable-background="new 0 0 82 82"
   xml:space="preserve"
   sodipodi:docname="SSD1306_I2C_GND_VCC_128x32BB.svg"
   inkscape:version="0.92.1 r15371"><metadata
     id="metadata65"><rdf:RDF><cc:Work
         rdf:about=""><dc:format>image/svg+xml</dc:format><dc:type
           rdf:resource="http://purl.org/dc/dcmitype/StillImage" /><dc:title></dc:title></cc:Work></rdf:RDF></metadata><defs
     id="defs63" /><sodipodi:namedview
     pagecolor="#ffffff"
     bordercolor="#666666"
     borderopacity="1"
     objecttolerance="10"
     gridtolerance="10"
     guidetolerance="10"
     inkscape:pageopacity="0"
     inkscape:pageshadow="2"
     inkscape:window-width="1920"
     inkscape:window-height="1017"
     id="namedview61"
     showgrid="false"
     inkscape:zoom="3.1284509"
     inkscape:cx="106.52535"
     inkscape:cy="69.055746"
     inkscape:window-x="-8"
     inkscape:window-y="-8"
     inkscape:window-maximized="1"
     inkscape:current-layer="Layer_1"
     fit-margin-top="0"
     fit-margin-left="0"
     fit-margin-right="0"
     fit-margin-bottom="0" /><g
     id="g4843"
     transform="matrix(1.0119522,0,0,1.0119522,-99.442229,0.37824449)"><rect
       y="-0.11503962"
       x="98.526451"
       height="143.62204"
       width="45.354332"
       id="rect4611"
       style="fill:#006699;fill-opacity:1;stroke:#000000;stroke-width:0.51747483;stroke-opacity:1" /><rect
       y="19.783245"
       x="98.768364"
       height="100.46472"
       width="44.353027"
       id="rect4624"
       style="fill:#00435e;fill-opacity:1;stroke:#000000;stroke-width:0.20101686;stroke-miterlimit:4;stroke-dasharray:none;stroke-opacity:1" /><rect
       style="fill:#231f20;fill-opacity:1;stroke:#000000;stroke-width:0.18598518;stroke-miterlimit:4;stroke-dasharray:none;stroke-opacity:1"
       id="rect4628"
       width="39.499054"
       height="96.569916"
       x="101.40701"
       y="21.764177" /><rect
       style="fill:#00435e;fill-opacity:1;stroke:#000000;stroke-width:0.27399999;stroke-miterlimit:4;stroke-dasharray:none;stroke-opacity:1"
       id="rect4626"
       width="20.530937"
       height="84.027"
       x="114.64156"
       y="27.732063" /><rect
       style="fill:#454545;stroke-width:1.31305206"
       id="rect4673"
       height="9.752037"
       width="4.8753619"
       y="0.78932756"
       x="104.18606" /><polygon
       transform="matrix(1.313052,0,0,1.313052,67.39304,-1.1447981)"
       style="fill:#454545"
       id="polygon4675"
       points="26.163,3.328 28.021,1.473 28.021,8.899 26.163,7.041 " /><polygon
       transform="matrix(1.313052,0,0,1.313052,67.39304,-1.1447981)"
       style="fill:#454545"
       id="polygon4677"
       points="31.732,1.473 33.593,3.328 33.593,7.041 31.732,8.899 " /><rect
       style="fill:#b68b2d;stroke-width:1.31305206"
       id="rect4679"
       height="2.1901708"
       width="1.7227243"
       y="4.5656652"
       x="105.76435" /><rect
       style="fill:#454545;stroke-width:1.31305206"
       id="rect4681"
       height="9.752037"
       width="4.8753619"
       y="0.78932756"
       x="113.64267" /><polygon
       transform="matrix(1.313052,0,0,1.313052,67.39304,-1.1447981)"
       style="fill:#454545"
       id="polygon4683"
       points="33.363,3.328 35.223,1.473 35.223,8.899 33.363,7.041 " /><polygon
       transform="matrix(1.313052,0,0,1.313052,67.39304,-1.1447981)"
       style="fill:#454545"
       id="polygon4685"
       points="38.934,1.473 40.792,3.328 40.792,7.041 38.934,8.899 " /><rect
       style="fill:#b68b2d;stroke-width:1.31305206"
       id="rect4687"
       height="2.1901708"
       width="1.7227243"
       y="4.5656652"
       x="115.21571" /><rect
       style="fill:#454545;stroke-width:1.31305206"
       id="rect4689"
       height="9.752037"
       width="4.8753619"
       y="0.78932756"
       x="123.09402" /><polygon
       transform="matrix(1.313052,0,0,1.313052,67.39304,-1.1447981)"
       style="fill:#454545"
       id="polygon4691"
       points="40.564,3.328 42.421,1.473 42.421,8.899 40.564,7.041 " /><polygon
       transform="matrix(1.313052,0,0,1.313052,67.39304,-1.1447981)"
       style="fill:#454545"
       id="polygon4693"
       points="46.134,1.473 47.992,3.328 47.992,7.041 46.134,8.899 " /><rect
       style="fill:#b68b2d;stroke-width:1.31305206"
       id="rect4695"
       height="2.1901708"
       width="1.7227243"
       y="4.5656652"
       x="124.67099" /><rect
       style="fill:#454545;stroke-width:1.31305206"
       id="rect4697"
       height="9.752037"
       width="4.8753619"
       y="0.78932756"
       x="132.54932" /><polygon
       transform="matrix(1.313052,0,0,1.313052,67.39304,-1.1447981)"
       style="fill:#454545"
       id="polygon4699"
       points="47.764,3.328 49.622,1.473 49.622,8.899 47.764,7.041 " /><polygon
       transform="matrix(1.313052,0,0,1.313052,67.39304,-1.1447981)"
       style="fill:#454545"
       id="polygon4701"
       points="53.333,1.473 55.191,3.328 55.191,7.041 53.333,8.899 " /><rect
       style="fill:#b68b2d;stroke-width:1.31305206"
       id="rect4703"
       height="2.1901708"
       width="1.7227243"
       y="4.5656652"
       x="134.12234" /><text
       style="font-size:3.28262997px;font-family:OCRA;fill:#ffffff;stroke-width:1.31305206"
       id="text4705"
       font-size="2.5"
       x="103.0621"
       y="14.795128">GND</text>
<text
       style="font-size:3.28262997px;font-family:OCRA;fill:#ffffff;stroke-width:1.31305206"
       id="text4707"
       font-size="2.5"
       x="112.67799"
       y="14.792633">VCC</text>
<text
       style="font-size:3.28262997px;font-family:OCRA;fill:#ffffff;stroke-width:1.31305206"
       id="text4709"
       font-size="2.5"
       x="122.29371"
       y="14.795128">SCL</text>
<text
       style="font-size:3.28262997px;font-family:OCRA;fill:#ffffff;stroke-width:1.31305206"
       id="text4711"
       font-size="2.5"
       x="131.90958"
       y="14.792633">SDA</text>
<text
       transform="rotate(90)"
       y="-105.86217"
       x="28.930973"
       font-size="2.5"
       id="text50"
       style="font-size:3.33333325px;font-family:OCRA;fill:#ffffff">OLED 128x32</text>
<text
       transform="rotate(90)"
       y="-105.86217"
       x="69.298294"
       font-size="2.5"
       id="text52"
       style="font-size:3.33333325px;font-family:OCRA;fill:#ffffff">SSD1306</text>
<text
       transform="rotate(90)"
       y="-105.86217"
       x="58.080421"
       font-size="2.5"
       id="text54"
       style="font-size:3.33333325px;font-family:OCRA;fill:#ffffff">I2C</text>
<text
       transform="rotate(90)"
       y="-106.34679"
       x="88.535088"
       font-size="2.5"
       id="text56"
       style="font-size:3.33333325px;font-family:OCRA;fill:#ffffff">blog.squix.ch</text>
</g></svg>