<?xml version="1.0" encoding="UTF-8" standalone="no"?>
<!-- Generator: Adobe Illustrator 15.0.0, SVG Export Plug-In . SVG Version: 6.00 Build 0)  -->

<svg
   xmlns:dc="http://purl.org/dc/elements/1.1/"
   xmlns:cc="http://creativecommons.org/ns#"
   xmlns:rdf="http://www.w3.org/1999/02/22-rdf-syntax-ns#"
   xmlns:svg="http://www.w3.org/2000/svg"
   xmlns="http://www.w3.org/2000/svg"
   xmlns:sodipodi="http://sodipodi.sourceforge.net/DTD/sodipodi-0.dtd"
   xmlns:inkscape="http://www.inkscape.org/namespaces/inkscape"
   version="1.1"
   id="Layer_1"
   x="0px"
   y="0px"
   width="46.568798"
   height="145.82648"
   viewBox="0 0 46.568798 145.82648"
   enable-background="new 0 0 82 82"
   xml:space="preserve"
   sodipodi:docname="SSD1306_I2C_GND_VCC_128x32PCB.svg"
   inkscape:version="0.92.2 (5c3e80d, 2017-08-06)"><metadata
     id="metadata65"><rdf:RDF><cc:Work
         rdf:about=""><dc:format>image/svg+xml</dc:format><dc:type
           rdf:resource="http://purl.org/dc/dcmitype/StillImage" /><dc:title /></cc:Work></rdf:RDF></metadata><defs
     id="defs63" /><sodipodi:namedview
     pagecolor="#ffffff"
     bordercolor="#666666"
     borderopacity="1"
     objecttolerance="10"
     gridtolerance="10"
     guidetolerance="10"
     inkscape:pageopacity="0"
     inkscape:pageshadow="2"
     inkscape:window-width="1920"
     inkscape:window-height="1017"
     id="namedview61"
     showgrid="false"
     inkscape:zoom="3.9979143"
     inkscape:cx="50.010696"
     inkscape:cy="72.904738"
     inkscape:window-x="2552"
     inkscape:window-y="355"
     inkscape:window-maximized="1"
     inkscape:current-layer="Layer_1"
     fit-margin-top="0"
     fit-margin-left="0"
     fit-margin-right="0"
     fit-margin-bottom="0" /><g
     id="g983"><g
       transform="matrix(1.0100742,0,0,1.0100742,0.11743414,0.11743272)"
       id="silkscreen"><rect
         style="fill:none;fill-opacity:1;stroke:#040404;stroke-width:0.75;stroke-miterlimit:4;stroke-dasharray:none;stroke-opacity:1"
         id="rect4611"
         width="45.354332"
         height="143.62204"
         x="0.25873712"
         y="0.25873852" /><path
         inkscape:connector-curvature="0"
         style="fill:#231f20;fill-opacity:1;stroke:#000000;stroke-width:0.18598518;stroke-miterlimit:4;stroke-dasharray:none;stroke-opacity:1"
         d="M 3.1386719,22.138672 V 118.70703 H 42.638672 V 22.138672 Z m 13.2343751,5.966797 h 20.53125 v 84.027341 h -20.53125 z m -6.9062501,1.576172 c 0.1695701,0 0.3341687,0.03845 0.4941406,0.115234 l 1.0312505,0.513672 c 0.09918,0.05119 0.180151,0.125427 0.24414,0.224609 0.06719,0.102382 0.101563,0.214359 0.101563,0.335938 0,0.124778 -0.03438,0.236755 -0.101563,0.335937 -0.06399,0.102382 -0.144958,0.179278 -0.24414,0.230469 l -1.0312505,0.513672 c -0.1663707,0.07999 -0.3309693,0.121094 -0.4941406,0.121094 -0.1631713,0 -0.3277699,-0.04111 -0.4941407,-0.121094 L 7.9394531,31.4375 C 7.8402706,31.386309 7.7585944,31.309413 7.6914062,31.207031 7.6274175,31.107849 7.59375,30.995872 7.59375,30.871094 c 0,-0.121579 0.033668,-0.233556 0.097656,-0.335938 0.067188,-0.09918 0.1488644,-0.173418 0.2480469,-0.224609 L 8.972656,29.796875 c 0.1471745,-0.07679 0.3117728,-0.115234 0.4941409,-0.115234 z m 0,0.484375 c -0.095983,0 -0.1897127,0.02091 -0.2792969,0.0625 l -1.0273438,0.517578 c -0.05439,0.02559 -0.080078,0.06741 -0.080078,0.125 0,0.06399 0.024981,0.10917 0.076172,0.134765 l 1.03125,0.513672 c 0.1087809,0.04479 0.2025104,0.06641 0.2792969,0.06641 0.095983,0 0.1877595,-0.02161 0.2773437,-0.06641 l 1.0234372,-0.517578 c 0.05759,-0.02559 0.08594,-0.07007 0.08594,-0.130859 0,-0.05439 -0.02835,-0.0962 -0.08594,-0.125 L 9.7441406,30.228516 c -0.089584,-0.04159 -0.1813606,-0.0625 -0.2773437,-0.0625 z M 7.59375,33.150391 h 3.503906 c 0.06399,0 0.119977,0.02161 0.167969,0.06641 0.04799,0.04799 0.07227,0.104687 0.07227,0.171875 0,0.06719 -0.02427,0.125836 -0.07227,0.173828 -0.04799,0.04799 -0.10398,0.07227 -0.167969,0.07227 H 8.0800781 v 1.660156 c 0,0.06719 -0.024274,0.123883 -0.072266,0.171875 -0.047992,0.04799 -0.1039801,0.07227 -0.1679687,0.07227 -0.067188,0 -0.1258366,-0.02427 -0.1738282,-0.07227 -0.047991,-0.048 -0.072265,-0.104695 -0.072265,-0.171883 z m 0,3.466797 h 3.744141 v 2.146484 c 0,0.06719 -0.02427,0.123883 -0.07227,0.171875 -0.04799,0.04799 -0.10398,0.07227 -0.167969,0.07227 -0.06719,0 -0.123883,-0.02427 -0.171875,-0.07227 -0.04799,-0.04799 -0.07226,-0.104687 -0.07226,-0.171875 v -1.66211 H 9.7109375 V 37.8125 c 0,0.06399 -0.024274,0.119977 -0.072266,0.167969 -0.047992,0.04799 -0.1046868,0.07227 -0.171875,0.07227 -0.067188,0 -0.1258368,-0.02427 -0.1738281,-0.07227 -0.044792,-0.04799 -0.066406,-0.10398 -0.066406,-0.167969 V 37.101562 H 8.0800781 v 1.66211 c 0,0.06719 -0.024274,0.123883 -0.072266,0.171875 -0.047992,0.04799 -0.1039801,0.07227 -0.1679687,0.07227 -0.067188,0 -0.1258366,-0.02427 -0.1738282,-0.07227 C 7.6180241,38.887555 7.59375,38.83086 7.59375,38.763672 Z m 0.2460938,3.46875 c 0.063989,0 0.1199771,0.02161 0.1679687,0.06641 0.047992,0.04799 0.072266,0.10664 0.072266,0.173828 v 0.234375 h 2.7734375 v -0.234375 c 0,-0.06719 0.02427,-0.125837 0.07226,-0.173828 0.04799,-0.04479 0.104687,-0.06641 0.171875,-0.06641 0.06399,0 0.119977,0.02161 0.167969,0.06641 0.04799,0.04799 0.07227,0.10664 0.07227,0.173828 v 0.892578 c 0,0.140775 -0.03845,0.267633 -0.115235,0.382812 -0.07679,0.118381 -0.171929,0.208036 -0.287109,0.265626 l -0.9746091,0.488281 c -0.1663707,0.07999 -0.3309693,0.121093 -0.4941406,0.121093 -0.1631713,0 -0.3277699,-0.04111 -0.4941407,-0.121093 L 7.9921875,41.871094 C 7.8770078,41.819903 7.7818646,41.732907 7.7050781,41.611328 7.6314911,41.492949 7.59375,41.362725 7.59375,41.21875 v -0.892578 c 0,-0.06719 0.024274,-0.125837 0.072266,-0.173828 0.047992,-0.04479 0.1066399,-0.06641 0.1738282,-0.06641 z m 0.2402343,0.958984 v 0.173828 c 0,0.09918 0.043228,0.169345 0.1328125,0.210938 L 9.1875,41.923828 c 0.1087809,0.04479 0.2025104,0.06641 0.2792969,0.06641 0.095983,0 0.1877595,-0.02161 0.2773437,-0.06641 l 0.9746094,-0.49414 c 0.08958,-0.04159 0.134766,-0.111755 0.134766,-0.210938 v -0.173828 z m -0.2402343,5.976562 c 0.063989,0 0.1199771,0.02357 0.1679687,0.06836 0.047992,0.04799 0.072266,0.104687 0.072266,0.171875 v 0.710937 h 2.7734375 v -0.710937 c 0,-0.06719 0.02427,-0.123884 0.07226,-0.171875 0.04799,-0.04479 0.104687,-0.06836 0.171875,-0.06836 0.06399,0 0.119977,0.02357 0.167969,0.06836 0.04799,0.04799 0.07227,0.104687 0.07227,0.171875 v 1.195312 H 8.0800781 v 0.470703 h 0.9785157 c 0.067188,0 0.1238834,0.02161 0.171875,0.06641 0.047992,0.04799 0.072266,0.10664 0.072266,0.173828 0,0.06719 -0.024274,0.123883 -0.072266,0.171875 -0.047992,0.04799 -0.1046872,0.07227 -0.171875,0.07227 h -1.21875 c -0.067188,0 -0.1258366,-0.02427 -0.1738282,-0.07227 -0.047991,-0.048 -0.072266,-0.10469 -0.072266,-0.171878 v -1.90625 c 0,-0.06719 0.024274,-0.123884 0.072266,-0.171875 0.047992,-0.04479 0.1066399,-0.06836 0.1738282,-0.06836 z M 7.59375,50.490234 h 1.6328125 c 0.1311769,0 0.2431538,0.04855 0.3359375,0.144532 0.095983,0.09598 0.1445312,0.208666 0.1445312,0.339843 v 1.421875 h 1.1464848 v -1.666015 c 0,-0.06719 0.02427,-0.125837 0.07226,-0.173828 0.04799,-0.04479 0.104687,-0.06641 0.171875,-0.06641 0.06399,0 0.119977,0.02161 0.167969,0.06641 0.04799,0.04799 0.07227,0.10664 0.07227,0.173828 v 1.666015 c 0,0.127978 -0.04855,0.239955 -0.144532,0.335938 -0.09598,0.09918 -0.208666,0.148437 -0.339843,0.148437 H 9.7070312 c -0.1279772,0 -0.2399543,-0.04855 -0.3359374,-0.144531 -0.095983,-0.09598 -0.1445313,-0.208667 -0.1445313,-0.339844 V 50.974609 H 8.0800781 v 1.660157 c 0,0.06719 -0.024274,0.125836 -0.072266,0.173828 -0.047992,0.04799 -0.1039801,0.07227 -0.1679687,0.07227 -0.067188,0 -0.1258366,-0.02427 -0.1738282,-0.07227 -0.047991,-0.04799 -0.072266,-0.10664 -0.072266,-0.173828 z m 0.4863281,3.46875 h 1.1464844 c 0.1311769,0 0.2438606,0.04589 0.3398437,0.138672 0.095983,0.09598 0.1445313,0.208667 0.1445313,0.339844 h 1.3867185 c 0.06719,0 0.123177,0.02357 0.167969,0.06836 0.04799,0.04479 0.07227,0.100781 0.07227,0.167969 v 0.955078 c 0,0.06719 -0.02427,0.123177 -0.07227,0.167969 -0.04479,0.04479 -0.100781,0.06641 -0.167969,0.06641 H 9.7109375 c 0,0.127978 -0.049255,0.239955 -0.1484375,0.335938 -0.095983,0.09918 -0.20796,0.148437 -0.3359375,0.148437 H 8.0800781 c -0.1311769,0 -0.2458137,-0.04926 -0.3417969,-0.148437 C 7.6422981,56.103236 7.59375,55.991259 7.59375,55.863281 V 54.4375 c 0,-0.131177 0.048548,-0.243861 0.1445312,-0.339844 0.095983,-0.09278 0.21062,-0.138672 0.3417969,-0.138672 z m 0,0.478516 v 1.425781 H 9.2265625 V 54.4375 Z m 1.6308594,0.480469 v 0.464843 h 1.1425785 v -0.464843 z m -1.8710937,2.507812 c 0.060789,0 0.110751,0.01683 0.1523437,0.04883 L 8.9902344,58.304688 9.921875,57.53125 c 0.047992,-0.03839 0.099906,-0.05664 0.154297,-0.05664 0.06719,0 0.123883,0.02427 0.171875,0.07227 0.04799,0.04799 0.07227,0.104687 0.07226,0.171875 0,0.07359 -0.03101,0.136309 -0.0918,0.1875 l -0.8574222,0.714844 0.8574222,0.710937 c 0.06079,0.05119 0.0918,0.113913 0.0918,0.1875 0,0.06719 -0.02427,0.123884 -0.07226,0.171875 -0.04799,0.04799 -0.104687,0.07227 -0.171875,0.07227 -0.05439,0 -0.1063054,-0.01825 -0.154297,-0.05664 L 8.9902344,58.933594 7.9921875,59.763672 c -0.044792,0.03519 -0.094754,0.05273 -0.1523437,0.05273 -0.067188,0 -0.1258366,-0.02427 -0.1738282,-0.07227 -0.047991,-0.04799 -0.072266,-0.104687 -0.072266,-0.171875 0,-0.07679 0.030301,-0.139509 0.087891,-0.1875 L 8.6074219,58.621094 7.6816406,57.853516 c -0.05759,-0.04799 -0.087891,-0.110714 -0.087891,-0.1875 0,-0.06719 0.024274,-0.123884 0.072266,-0.171875 0.047992,-0.04479 0.1066399,-0.06836 0.1738282,-0.06836 z m 0,3.46875 c 0.063989,0 0.1199771,0.02161 0.1679687,0.06641 0.047992,0.04799 0.072266,0.106639 0.072266,0.173828 v 1.666015 h 0.9003907 c 0.063989,0 0.1199771,-0.02693 0.1679687,-0.07813 0.051191,-0.04799 0.078125,-0.10398 0.078125,-0.167968 v -0.945313 c 0,-0.06719 0.021614,-0.123883 0.066406,-0.171875 0.047992,-0.04479 0.1066399,-0.06836 0.1738281,-0.06836 0.067188,0 0.1238834,0.02357 0.171875,0.06836 0.047992,0.04799 0.072266,0.104687 0.072266,0.171875 v 0.945313 c 0,0.06719 0.024274,0.125836 0.072266,0.173828 0.047992,0.04799 0.10398,0.07227 0.1679688,0.07227 h 0.9023442 v -1.666015 c 0,-0.06719 0.02427,-0.12584 0.07226,-0.173828 0.04799,-0.04479 0.104687,-0.06641 0.171875,-0.06641 0.06399,0 0.119977,0.02161 0.167969,0.06641 0.04799,0.04799 0.07227,0.106639 0.07227,0.173828 v 1.666015 c 0,0.127978 -0.04855,0.239955 -0.144532,0.335938 -0.09598,0.09918 -0.208666,0.148437 -0.339843,0.148437 H 9.9511719 c -0.1855674,0 -0.3467992,-0.06538 -0.484375,-0.193359 -0.1375758,0.127977 -0.3007608,0.193359 -0.4863281,0.193359 H 8.0800781 c -0.1311769,0 -0.2458137,-0.04926 -0.3417969,-0.148437 C 7.6422981,63.040736 7.59375,62.928759 7.59375,62.800781 v -1.666015 c 0,-0.06719 0.024274,-0.12584 0.072266,-0.173828 0.047992,-0.04479 0.1066399,-0.06641 0.1738282,-0.06641 z M 7.59375,64.363281 h 1.6328125 c 0.1311769,0 0.2431538,0.04659 0.3359375,0.142578 0.095983,0.09598 0.1445312,0.21062 0.1445312,0.341797 v 1.419922 h 1.1464848 v -1.664062 c 0,-0.06719 0.02427,-0.12584 0.07226,-0.173828 0.04799,-0.04479 0.104687,-0.06641 0.171875,-0.06641 0.06399,0 0.119977,0.02161 0.167969,0.06641 0.04799,0.04799 0.07227,0.106639 0.07227,0.173828 v 1.664062 c 0,0.127978 -0.04855,0.239955 -0.144532,0.335938 -0.09598,0.09918 -0.208666,0.148437 -0.339843,0.148437 H 9.7070312 c -0.1279772,0 -0.2399543,-0.04659 -0.3359374,-0.142578 -0.095983,-0.09598 -0.1445313,-0.21062 -0.1445313,-0.341797 V 64.847656 H 8.0800781 v 1.660156 c 0,0.06719 -0.024274,0.125837 -0.072266,0.173829 -0.047992,0.04799 -0.1039801,0.07031 -0.1679687,0.07031 -0.067188,0 -0.1258366,-0.02232 -0.1738282,-0.07031 -0.047991,-0.04799 -0.072266,-0.10664 -0.072266,-0.173829 z m 0.2460938,7.285157 c 0.063989,0 0.1199771,0.02357 0.1679687,0.06836 0.047992,0.04799 0.072266,0.104687 0.072266,0.171875 v 0.710937 h 2.7734375 v -0.710937 c 0,-0.06719 0.02427,-0.123884 0.07226,-0.171875 0.04799,-0.04479 0.104687,-0.06836 0.171875,-0.06836 0.06399,0 0.119977,0.02357 0.167969,0.06836 0.04799,0.04799 0.07227,0.104687 0.07227,0.171875 v 1.90625 c 0,0.06719 -0.02427,0.123883 -0.07227,0.171875 -0.04799,0.04799 -0.10398,0.07227 -0.167969,0.07227 -0.06719,0 -0.123883,-0.02427 -0.171875,-0.07227 -0.04799,-0.04799 -0.07226,-0.104687 -0.07226,-0.171875 V 73.083984 H 8.0800781 v 0.710938 c 0,0.06719 -0.024274,0.123883 -0.072266,0.171875 -0.047992,0.04799 -0.1039801,0.07227 -0.1679687,0.07227 -0.067188,0 -0.1258366,-0.02427 -0.1738282,-0.07227 C 7.6180241,73.918805 7.59375,73.86211 7.59375,73.794922 v -1.90625 c 0,-0.06719 0.024274,-0.123884 0.072266,-0.171875 0.047992,-0.04479 0.1066399,-0.06836 0.1738282,-0.06836 z M 7.59375,75.117188 h 1.6328125 c 0.1311769,0 0.2431538,0.04855 0.3359375,0.144531 0.095983,0.09598 0.1445312,0.208669 0.1445312,0.339843 v 1.421876 h 1.1464848 v -1.666016 c 0,-0.06719 0.02427,-0.123884 0.07226,-0.171875 0.04799,-0.04479 0.104687,-0.06836 0.171875,-0.06836 0.06399,0 0.119977,0.02357 0.167969,0.06836 0.04799,0.04799 0.07227,0.104687 0.07227,0.171875 v 1.666016 c 0,0.127977 -0.04855,0.239954 -0.144532,0.335937 -0.09598,0.09918 -0.208666,0.148437 -0.339843,0.148437 H 9.7070312 c -0.1279772,0 -0.2399543,-0.04855 -0.3359374,-0.144531 -0.095983,-0.09598 -0.1445313,-0.208669 -0.1445313,-0.339843 V 75.601562 H 8.0800781 v 1.660157 c 0,0.06719 -0.024274,0.125836 -0.072266,0.173828 -0.047992,0.04799 -0.1039801,0.07227 -0.1679687,0.07227 -0.067188,0 -0.1258366,-0.02427 -0.1738282,-0.07227 -0.047991,-0.04799 -0.072266,-0.10664 -0.072266,-0.173828 z m 1.8730469,3.46875 c 0.1695701,0 0.3341687,0.03845 0.4941406,0.115234 l 0.9785155,0.484375 c 0.11518,0.05119 0.209616,0.135527 0.283203,0.253906 0.07679,0.121579 0.115235,0.254463 0.115235,0.398438 v 0.892578 c 0,0.06719 -0.02427,0.125836 -0.07227,0.173828 -0.04799,0.04799 -0.10398,0.07031 -0.167969,0.07031 -0.06719,0 -0.123883,-0.02232 -0.171875,-0.07031 -0.04799,-0.04799 -0.07226,-0.10664 -0.07226,-0.173828 v -0.892578 c 0,-0.09918 -0.04518,-0.169345 -0.134766,-0.210938 L 9.7441406,79.132812 c -0.089584,-0.04159 -0.1813606,-0.0625 -0.2773437,-0.0625 -0.095983,0 -0.1897127,0.02091 -0.2792969,0.0625 l -0.9746094,0.494141 c -0.089584,0.04159 -0.1328125,0.111755 -0.1328125,0.210938 v 0.892578 c 0,0.06719 -0.024274,0.125836 -0.072266,0.173828 -0.047992,0.04799 -0.1039801,0.07031 -0.1679687,0.07031 -0.067188,0 -0.1258366,-0.02232 -0.1738282,-0.07031 -0.047991,-0.04799 -0.072266,-0.10664 -0.072266,-0.173828 v -0.892578 c 0,-0.140776 0.038448,-0.270293 0.1152344,-0.388672 0.076786,-0.11518 0.1738827,-0.202176 0.2890625,-0.259766 0.4511206,-0.236758 0.7762444,-0.398697 0.9746093,-0.488281 0.1631715,-0.07679 0.3277699,-0.115234 0.4941415,-0.115234 z m -1.2246094,9.214843 c 0.067188,0 0.1258366,0.02161 0.1738281,0.06641 0.047992,0.04799 0.070312,0.106639 0.070312,0.173828 0,0.06719 -0.022321,0.123883 -0.070312,0.171875 -0.047992,0.04799 -0.1066399,0.07227 -0.1738281,0.07227 -0.044792,0 -0.08324,0.01488 -0.1152344,0.04687 -0.031994,0.03199 -0.046875,0.07044 -0.046875,0.115235 v 1.195312 c 0,0.04159 0.018954,0.0625 0.060547,0.0625 l 2.3144529,-1.794922 c 0.102382,-0.07359 0.214359,-0.109375 0.335938,-0.109375 h 0.01367 c 0.143974,0 0.269418,0.05262 0.375,0.158203 0.10558,0.108781 0.158203,0.235639 0.158203,0.382813 v 1.195312 c 0,0.175969 -0.06343,0.329054 -0.191407,0.457032 -0.127977,0.131177 -0.281062,0.195312 -0.457031,0.195312 -0.06719,0 -0.123883,-0.02428 -0.171875,-0.07227 -0.04799,-0.04799 -0.07226,-0.104687 -0.07227,-0.171876 0,-0.06719 0.02428,-0.123884 0.07227,-0.171874 0.04799,-0.04479 0.104687,-0.06836 0.171875,-0.06836 0.04159,0 0.07933,-0.01754 0.111328,-0.05273 0.03519,-0.03199 0.05274,-0.07044 0.05274,-0.115235 v -1.195312 c 0,-0.03839 -0.01684,-0.05664 -0.04883,-0.05664 h -0.01367 -0.01953 l -2.2949214,1.785156 c -0.095983,0.07999 -0.20796,0.119141 -0.3359375,0.119141 C 7.9902515,90.183054 7.860734,90.127066 7.7519531,90.021484 7.6463717,89.919102 7.59375,89.792952 7.59375,89.642578 v -1.195312 c 0,-0.175969 0.065382,-0.327101 0.1933594,-0.455078 0.1279775,-0.127978 0.2791091,-0.191407 0.4550781,-0.191407 z m 0,3.466797 c 0.067188,0 0.1258366,0.02357 0.1738281,0.06836 0.047992,0.04799 0.070312,0.104686 0.070312,0.171874 0,0.06719 -0.022321,0.125837 -0.070312,0.173829 -0.047992,0.04799 -0.1066399,0.07227 -0.1738281,0.07227 -0.044792,0 -0.08324,0.01488 -0.1152344,0.04687 -0.031994,0.03199 -0.046875,0.07044 -0.046875,0.115235 v 1.195312 c 0,0.04159 0.018954,0.0625 0.060547,0.0625 l 2.3144529,-1.794922 c 0.102382,-0.07359 0.214359,-0.111328 0.335938,-0.111328 h 0.01367 c 0.143974,0 0.269418,0.05262 0.375,0.158203 0.10558,0.108781 0.158203,0.237592 0.158203,0.384766 v 1.195312 c 0,0.175969 -0.06343,0.3271 -0.191407,0.455079 -0.127977,0.131175 -0.281062,0.197265 -0.457031,0.197265 -0.06719,0 -0.123883,-0.02428 -0.171875,-0.07227 -0.04799,-0.04799 -0.07226,-0.104687 -0.07227,-0.171876 0,-0.06719 0.02428,-0.125836 0.07227,-0.173828 0.04799,-0.04479 0.104687,-0.06641 0.171875,-0.06641 0.04159,0 0.07933,-0.01754 0.111328,-0.05273 0.03519,-0.03199 0.05274,-0.07044 0.05274,-0.115235 v -1.195312 c 0,-0.03839 -0.01684,-0.05664 -0.04883,-0.05664 h -0.01367 -0.01953 l -2.2949214,1.785156 c -0.095983,0.07999 -0.20796,0.119141 -0.3359375,0.119141 C 7.9902515,93.651804 7.860734,93.595816 7.7519531,93.490234 7.6463717,93.387852 7.59375,93.261702 7.59375,93.111328 v -1.195312 c 0,-0.175969 0.065382,-0.327101 0.1933594,-0.455078 0.1279775,-0.127978 0.2791091,-0.19336 0.4550781,-0.19336 z m -0.4023437,3.46875 c 0.063989,0 0.1199771,0.02161 0.1679687,0.06641 0.047992,0.04799 0.072266,0.10664 0.072266,0.173828 v 0.234376 h 2.7734375 v -0.234376 c 0,-0.06719 0.02427,-0.125836 0.07226,-0.173828 0.04799,-0.04479 0.104687,-0.06641 0.171875,-0.06641 0.06399,0 0.119977,0.02161 0.167969,0.06641 0.04799,0.04799 0.07227,0.10664 0.07227,0.173828 v 0.892579 c 0,0.140775 -0.03845,0.269586 -0.115235,0.384765 -0.07679,0.118379 -0.171929,0.206082 -0.287109,0.263672 l -0.9746091,0.488281 c -0.1663707,0.07999 -0.3309693,0.121094 -0.4941406,0.121094 -0.1631713,0 -0.3277699,-0.04111 -0.4941407,-0.121094 L 7.9921875,96.521484 C 7.8770078,96.470293 7.7818646,96.383297 7.7050781,96.261719 7.6314911,96.14334 7.59375,96.013115 7.59375,95.869141 v -0.892579 c 0,-0.06719 0.024274,-0.125836 0.072266,-0.173828 0.047992,-0.04479 0.1066399,-0.06641 0.1738282,-0.06641 z m 0.2402343,0.958984 v 0.173829 c 0,0.09918 0.043228,0.169344 0.1328125,0.210937 L 9.1875,96.574219 c 0.1087809,0.04479 0.2025104,0.06836 0.2792969,0.06836 0.095983,0 0.1877595,-0.02357 0.2773437,-0.06836 L 10.71875,96.080078 c 0.08958,-0.04159 0.134766,-0.111755 0.134766,-0.210937 v -0.173829 z m -0.2402343,2.509766 c 0.063989,0 0.1199771,0.02161 0.1679687,0.06641 0.047992,0.04799 0.072266,0.10664 0.072266,0.173828 v 0.708985 h 2.7734375 v -0.708985 c 0,-0.06719 0.02427,-0.125836 0.07226,-0.173828 0.04799,-0.04479 0.104687,-0.06641 0.171875,-0.06641 0.06399,0 0.119977,0.02161 0.167969,0.06641 0.04799,0.04799 0.07227,0.10664 0.07227,0.173828 v 1.19336 H 8.0800781 v 0.470704 h 0.9785157 c 0.067188,0 0.1238834,0.0236 0.171875,0.0683 0.047992,0.048 0.072266,0.10469 0.072266,0.17188 0,0.0672 -0.024274,0.12584 -0.072266,0.17383 -0.047992,0.048 -0.104687,0.0703 -0.171875,0.0703 h -1.21875 c -0.067188,0 -0.1258366,-0.0223 -0.1738282,-0.0703 -0.047991,-0.048 -0.072266,-0.10664 -0.072266,-0.17383 v -1.904294 c 0,-0.06719 0.024274,-0.125836 0.072266,-0.173828 0.047992,-0.04479 0.1066399,-0.06641 0.1738282,-0.06641 z m 0,3.466802 c 0.063989,0 0.1199771,0.0236 0.1679687,0.0683 0.047992,0.048 0.072266,0.10469 0.072266,0.17188 v 1.66601 h 0.9003907 c 0.063989,0 0.1199771,-0.025 0.1679687,-0.0762 0.051191,-0.048 0.078125,-0.10398 0.078125,-0.16797 v -0.94531 c 0,-0.0672 0.021614,-0.12583 0.066406,-0.17383 0.047992,-0.0448 0.1066399,-0.0664 0.1738281,-0.0664 0.067188,0 0.1238834,0.0216 0.171875,0.0664 0.047992,0.048 0.072266,0.10664 0.072266,0.17383 v 0.94531 c 0,0.0672 0.024274,0.12389 0.072266,0.17188 0.047992,0.048 0.10398,0.0723 0.1679688,0.0723 h 0.9023442 v -1.66601 c 0,-0.0672 0.02427,-0.12388 0.07226,-0.17188 0.04799,-0.0448 0.104687,-0.0683 0.171875,-0.0683 0.06399,0 0.119977,0.0236 0.167969,0.0683 0.04799,0.048 0.07227,0.10469 0.07227,0.17188 v 1.66601 c 0,0.12799 -0.04855,0.23996 -0.144532,0.33594 -0.09598,0.0992 -0.208666,0.14844 -0.339843,0.14844 H 9.9511719 c -0.1855674,0 -0.3467992,-0.0634 -0.484375,-0.19141 -0.1375758,0.12798 -0.3007608,0.19141 -0.4863281,0.19141 H 8.0800781 c -0.1311769,0 -0.2458137,-0.0493 -0.3417969,-0.14844 -0.095983,-0.096 -0.1445312,-0.20795 -0.1445312,-0.33594 v -1.66601 c 0,-0.0672 0.024274,-0.12388 0.072266,-0.17188 0.047992,-0.0448 0.1066399,-0.0683 0.1738282,-0.0683 z m 0.2402343,3.46874 h 2.7734379 c 0.131177,2e-5 0.24386,0.0486 0.339843,0.14454 0.09598,0.096 0.144532,0.20866 0.144532,0.33984 v 1.42188 c 0,0.12797 -0.04855,0.23995 -0.144532,0.33593 -0.09598,0.0992 -0.208666,0.14844 -0.339843,0.14844 H 8.0800781 c -0.1311769,0 -0.2458137,-0.0493 -0.3417969,-0.14844 -0.095983,-0.096 -0.1445312,-0.20796 -0.1445312,-0.33593 V 105.625 c 0,-0.13118 0.048548,-0.24386 0.1445312,-0.33984 0.095983,-0.096 0.21062,-0.14452 0.3417969,-0.14454 z m 0,0.48438 v 1.42188 H 10.853516 V 105.625 Z m -0.2402343,2.98438 h 3.2578122 c 0.06399,0 0.119977,0.0216 0.167969,0.0664 0.04799,0.048 0.07227,0.10664 0.07227,0.17383 v 0.24023 c 0,0.0672 -0.02427,0.12318 -0.07227,0.16797 -0.04799,0.048 -0.10398,0.0703 -0.167969,0.0703 -0.06719,0 -0.123883,-0.0223 -0.171875,-0.0703 -0.04799,-0.0448 -0.07226,-0.10078 -0.07226,-0.16797 H 9.3027344 v 1.66407 c 0,0.0672 -0.024274,0.12583 -0.072266,0.17382 -0.047992,0.048 -0.104687,0.0703 -0.171875,0.0703 h -1.21875 c -0.067188,0 -0.1258366,-0.0223 -0.1738282,-0.0703 -0.047991,-0.048 -0.072266,-0.10664 -0.072266,-0.17382 v -1.9043 c 0,-0.0672 0.024274,-0.12584 0.072266,-0.17383 0.047992,-0.0448 0.1066399,-0.0664 0.1738286,-0.0664 z m 0.2402343,0.48046 v 1.42383 h 0.7382813 v -1.42383 z M 28.375,113.68555 h 0.199219 c 0.0535,0 0.1005,0.0204 0.140625,0.0605 0.04012,0.0375 0.06055,0.0845 0.06055,0.14063 v 0.16797 c 0,0.0562 -0.02042,0.1044 -0.06055,0.14453 -0.04012,0.0401 -0.08713,0.0606 -0.140625,0.0606 H 28.375 c -0.05617,0 -0.104406,-0.0204 -0.144531,-0.0606 -0.04012,-0.0401 -0.06055,-0.0884 -0.06055,-0.14453 v -0.16797 c 0,-0.0562 0.02042,-0.10318 0.06055,-0.14063 0.04012,-0.0401 0.08836,-0.0605 0.144531,-0.0605 z m -23.796875,0.16797 c 0.056175,0 0.1044063,0.0204 0.1445312,0.0605 0.040125,0.0401 0.060547,0.0871 0.060547,0.14063 v 0.90625 c 0.1818998,-0.1712 0.363744,-0.25586 0.5429688,-0.25586 h 0.3007812 c 0.034775,0 0.067509,0.002 0.099609,0.008 0.0321,0.003 0.063603,0.0113 0.095703,0.0273 0.0321,0.0134 0.057447,0.0252 0.076172,0.0332 0.018725,0.005 0.044072,0.0201 0.076172,0.0469 0.0321,0.0241 0.052522,0.0408 0.060547,0.0488 0.0107,0.005 0.033584,0.0245 0.068359,0.0566 0.03745,0.0294 0.057872,0.0442 0.060547,0.0469 0.1417748,0.12305 0.2128906,0.27708 0.2128906,0.45898 v 0.82617 c 0,0.0428 -0.00246,0.0817 -0.00781,0.11914 -0.00535,0.0348 -0.018384,0.0707 -0.037109,0.10547 -0.018725,0.0348 -0.032269,0.0626 -0.042969,0.084 -0.00802,0.0187 -0.029678,0.0453 -0.064453,0.0801 l -0.064453,0.0645 c -0.00535,0.008 -0.030697,0.0321 -0.076172,0.0723 l -0.068359,0.0566 c -0.1096748,0.0963 -0.2388721,0.14453 -0.3886719,0.14454 h -0.300784 c -0.077575,0 -0.1523845,-0.0155 -0.2246094,-0.0449 -0.072225,-0.0294 -0.1297969,-0.0585 -0.1699219,-0.0879 -0.03745,-0.0321 -0.086913,-0.0766 -0.1484375,-0.13281 v 0.0606 c 0,0.0562 -0.020422,0.1044 -0.060547,0.14453 -0.040125,0.0401 -0.088356,0.0605 -0.1445312,0.0606 -0.056175,0 -0.1024532,-0.0204 -0.1425781,-0.0606 -0.03745,-0.0401 -0.056641,-0.0884 -0.056641,-0.14453 v -2.72461 c 0,-0.0535 0.019191,-0.1005 0.056641,-0.14063 0.040125,-0.0401 0.086403,-0.0605 0.1425781,-0.0605 z m 3.1015625,0 h 0.5976563 c 0.0535,0 0.1005,0.0204 0.140625,0.0605 0.040125,0.0401 0.060547,0.0871 0.060547,0.14063 v 2.52343 H 8.871094 c 0.056175,1e-5 0.1044063,0.0204 0.1445312,0.0606 0.040125,0.0401 0.060547,0.0871 0.060547,0.14063 0,0.0562 -0.020422,0.1044 -0.060547,0.14453 -0.040125,0.0401 -0.088356,0.0605 -0.1445312,0.0606 H 7.6796875 c -0.056175,0 -0.1044063,-0.0204 -0.1445313,-0.0606 -0.040125,-0.0401 -0.060547,-0.0884 -0.060547,-0.14453 0,-0.0535 0.020422,-0.1005 0.060547,-0.14063 0.040125,-0.0401 0.088356,-0.0605 0.1445313,-0.0606 h 0.3925781 v -2.31835 H 7.6796875 c -0.056175,0 -0.1044063,-0.0204 -0.1445313,-0.0606 -0.040125,-0.0401 -0.060547,-0.0884 -0.060547,-0.14453 0,-0.0535 0.020422,-0.1005 0.060547,-0.14063 0.040125,-0.0401 0.088356,-0.0605 0.1445313,-0.0605 z m 31.6953125,0 c 0.05618,0 0.104406,0.0204 0.144531,0.0605 0.04012,0.0401 0.06055,0.0871 0.06055,0.14063 v 0.99023 l 0.384766,-0.24414 c 0.10165,-0.0642 0.209194,-0.0957 0.324218,-0.0957 h 0.228516 c 0.163175,0 0.302944,0.0569 0.417969,0.17187 0.1177,0.11235 0.180197,0.24966 0.185547,0.41016 l 0.04687,1.49219 c 0,0.0562 -0.02042,0.1044 -0.06055,0.14453 -0.03745,0.0401 -0.0825,0.0605 -0.138672,0.0606 -0.0535,0 -0.1005,-0.0192 -0.140625,-0.0567 -0.04013,-0.0401 -0.06055,-0.0871 -0.06055,-0.14062 l -0.05273,-1.48828 c -0.0053,-0.0508 -0.027,-0.0954 -0.06445,-0.13281 -0.03477,-0.0375 -0.07931,-0.0566 -0.132813,-0.0566 h -0.283203 l -0.654297,0.42187 v 1.24805 c 0,0.0562 -0.02042,0.1044 -0.06055,0.14453 -0.04013,0.0401 -0.08836,0.0605 -0.144531,0.0606 -0.05618,0 -0.104406,-0.0204 -0.144531,-0.0606 -0.03745,-0.0401 -0.05664,-0.0884 -0.05664,-0.14453 v -2.72461 c 0,-0.0535 0.01919,-0.1005 0.05664,-0.14063 0.04013,-0.0401 0.08836,-0.0605 0.144531,-0.0605 z m -28.451172,0.85156 h 0.501953 c 0.03477,0 0.06751,0.002 0.09961,0.008 0.0321,0.003 0.06556,0.0113 0.09766,0.0273 0.0321,0.0134 0.05745,0.0252 0.07617,0.0332 0.01872,0.005 0.04407,0.0201 0.07617,0.0469 0.0321,0.0241 0.05057,0.0408 0.05859,0.0488 0.0107,0.005 0.03359,0.0245 0.06836,0.0566 0.03745,0.0294 0.05787,0.0442 0.06055,0.0469 0.141774,0.12305 0.21289,0.27708 0.21289,0.45898 v 0.82617 c 0,0.0428 -0.0025,0.0817 -0.0078,0.11914 -0.0053,0.0348 -0.01838,0.0707 -0.03711,0.10547 -0.01872,0.0348 -0.03227,0.0626 -0.04297,0.084 -0.008,0.0187 -0.02968,0.0453 -0.06445,0.0801 l -0.06445,0.0645 c -0.0053,0.008 -0.0307,0.0321 -0.07617,0.0723 l -0.06836,0.0566 c -0.109675,0.0963 -0.238872,0.14453 -0.388672,0.14454 h -0.501953 c -0.0428,0 -0.08488,-0.006 -0.125,-0.0137 -0.03745,-0.0107 -0.06895,-0.0193 -0.0957,-0.0273 -0.02675,-0.0107 -0.05825,-0.0287 -0.0957,-0.0527 -0.03477,-0.0241 -0.06012,-0.0401 -0.07617,-0.0508 -0.01337,-0.0107 -0.03872,-0.0323 -0.07617,-0.0644 -0.03477,-0.0321 -0.05766,-0.0525 -0.06836,-0.0606 -0.1391,-0.11502 -0.208985,-0.2671 -0.208985,-0.45703 v -0.82617 c 0,-0.0936 0.02165,-0.18147 0.06445,-0.26172 0.0428,-0.0803 0.08046,-0.13587 0.115234,-0.16797 0.03477,-0.0321 0.09481,-0.0828 0.177734,-0.15234 0.109675,-0.0963 0.238872,-0.14453 0.388672,-0.14453 z m 2.900391,0 H 14.125 c 0.0428,0 0.08488,0.005 0.125,0.0156 0.04012,0.008 0.07163,0.0167 0.0957,0.0274 0.02675,0.008 0.05949,0.026 0.09961,0.0527 0.04012,0.0267 0.06547,0.0447 0.07617,0.0527 0.0107,0.008 0.03605,0.0309 0.07617,0.0684 0.0428,0.0374 0.06692,0.0579 0.07227,0.0605 v -0.0723 c 0,-0.0562 0.01919,-0.10441 0.05664,-0.14454 0.04012,-0.0401 0.08836,-0.0605 0.144532,-0.0605 0.05618,0 0.104406,0.0204 0.144531,0.0605 0.04012,0.0401 0.06055,0.0884 0.06055,0.14454 v 2.19726 c 0,0.0428 -0.0025,0.0824 -0.0078,0.11719 -0.0053,0.0375 -0.01838,0.0726 -0.03711,0.10742 -0.01872,0.0348 -0.03227,0.0613 -0.04297,0.0801 -0.008,0.0214 -0.02968,0.0512 -0.06445,0.0859 l -0.06445,0.0625 c -0.0053,0.008 -0.0307,0.0321 -0.07617,0.0723 l -0.06836,0.0566 c -0.109675,0.0963 -0.238872,0.14453 -0.388672,0.14453 h -0.847656 c -0.05618,0 -0.104407,-0.0204 -0.144532,-0.0605 -0.04012,-0.0374 -0.06055,-0.0844 -0.06055,-0.14063 0,-0.0562 0.02042,-0.1044 0.06055,-0.14453 0.04013,-0.0401 0.08836,-0.0586 0.144532,-0.0586 h 0.847656 c 0.03745,0 0.07018,-0.0106 0.09961,-0.0293 0.0321,-0.0187 0.06607,-0.0453 0.103516,-0.0801 0.03745,-0.0348 0.06033,-0.0564 0.06836,-0.0645 0.04815,-0.0374 0.07227,-0.0869 0.07227,-0.14844 v -0.56445 c -0.06152,0.0562 -0.112219,0.0988 -0.152344,0.13086 -0.04012,0.0321 -0.09574,0.0656 -0.167969,0.0977 -0.07222,0.0294 -0.147034,0.043 -0.224609,0.043 h -0.300781 c -0.04012,0 -0.0822,-0.004 -0.125,-0.0117 -0.04012,-0.0107 -0.07163,-0.0193 -0.0957,-0.0273 -0.02408,-0.008 -0.05753,-0.026 -0.09766,-0.0527 -0.04012,-0.0294 -0.06547,-0.0474 -0.07617,-0.0527 -0.008,-0.008 -0.03337,-0.0321 -0.07617,-0.0723 l -0.06836,-0.0547 c -0.1391,-0.12038 -0.207031,-0.27441 -0.207031,-0.45899 v -0.65234 c 0,-0.0294 0.0012,-0.0604 0.0039,-0.0898 0.0053,-0.0294 0.009,-0.0548 0.01172,-0.0762 0.0053,-0.0214 0.01397,-0.0455 0.02734,-0.0723 0.01605,-0.0267 0.02785,-0.0452 0.0332,-0.0586 0.0053,-0.0134 0.01766,-0.0326 0.03906,-0.0567 0.0214,-0.0267 0.03567,-0.0447 0.04102,-0.0527 0.0053,-0.008 0.02013,-0.0247 0.04687,-0.0488 0.02942,-0.0241 0.04615,-0.0364 0.04883,-0.0391 0.0053,-0.005 0.02331,-0.0208 0.05273,-0.0449 0.0321,-0.0267 0.04811,-0.0403 0.05078,-0.043 0.109675,-0.0963 0.240825,-0.14453 0.390625,-0.14453 z m 5.613281,0 h 0.859375 c 0.200625,0 0.365741,0.0834 0.494141,0.25195 0.02675,0.0348 0.03906,0.0756 0.03906,0.12109 0,0.0562 -0.01847,0.10441 -0.05859,0.14454 -0.04012,0.0401 -0.08836,0.0605 -0.144531,0.0605 -0.04815,0 -0.104491,-0.0298 -0.166015,-0.0859 -0.05885,-0.0589 -0.113238,-0.0879 -0.164063,-0.0879 H 19.4375 c -0.03477,0 -0.06258,0.013 -0.08398,0.0371 -0.01872,0.0241 -0.02734,0.0507 -0.02734,0.0801 0,0.0481 0.02165,0.0797 0.06445,0.0957 l 1.115234,0.48242 c 0.10165,0.0455 0.18631,0.12028 0.25586,0.22461 0.07222,0.10165 0.109375,0.21288 0.109375,0.33593 v 0.008 c -0.0027,0.16852 -0.06517,0.31322 -0.185547,0.43359 -0.120375,0.1177 -0.263116,0.17774 -0.431641,0.17774 h -0.759765 c -0.195275,0 -0.375166,-0.0711 -0.541016,-0.2129 -0.05082,-0.0428 -0.07617,-0.096 -0.07617,-0.16015 0,-0.0562 0.01919,-0.10318 0.05664,-0.14063 0.03745,-0.0401 0.08445,-0.0605 0.140625,-0.0605 0.04815,0 0.09761,0.0204 0.148437,0.0605 0.05082,0.0375 0.08725,0.0603 0.111328,0.0684 l 0.04883,0.0234 c 0.02675,0.0107 0.04399,0.0156 0.05469,0.0156 h 0.816406 c 0.0642,1e-5 0.113663,-0.0216 0.148438,-0.0644 0.03745,-0.0428 0.05469,-0.0935 0.05469,-0.15234 0,-0.0909 -0.03766,-0.15273 -0.115234,-0.1875 l -1.111328,-0.48242 c -0.09095,-0.0401 -0.164528,-0.10314 -0.220703,-0.19141 -0.05617,-0.091 -0.08398,-0.18864 -0.08398,-0.29297 0,-0.13642 0.04946,-0.25331 0.148438,-0.34961 0.10165,-0.10165 0.221506,-0.15234 0.363281,-0.15234 z m 3.085938,0 h 0.300781 c 0.0428,0 0.08292,0.005 0.123047,0.0156 0.04012,0.008 0.07358,0.0167 0.09766,0.0274 0.02675,0.008 0.05948,0.026 0.09961,0.0527 0.04012,0.0267 0.06547,0.0447 0.07617,0.0527 0.0107,0.008 0.03605,0.0309 0.07617,0.0684 0.0428,0.0374 0.06692,0.0579 0.07227,0.0605 v -0.0723 c 0,-0.0562 0.01919,-0.10441 0.05664,-0.14454 0.04012,-0.0401 0.08836,-0.0605 0.144531,-0.0605 0.05617,0 0.104407,0.0204 0.144532,0.0605 0.04012,0.0401 0.06055,0.0884 0.06055,0.14454 v 2.72265 c 0,0.0562 -0.02042,0.10318 -0.06055,0.14063 -0.04012,0.0401 -0.08836,0.0605 -0.144532,0.0605 -0.05617,0 -0.104406,-0.0204 -0.144531,-0.0605 -0.03745,-0.0374 -0.05664,-0.0844 -0.05664,-0.14063 v -0.91797 c -0.06152,0.0589 -0.112219,0.10462 -0.152344,0.13672 -0.03745,0.0294 -0.09184,0.0585 -0.164063,0.0879 -0.07222,0.0294 -0.148265,0.0449 -0.228515,0.0449 h -0.300781 c -0.02942,0 -0.05919,-0.001 -0.08594,-0.004 -0.02407,-0.003 -0.04942,-0.01 -0.07617,-0.0176 -0.02407,-0.008 -0.04378,-0.0142 -0.0625,-0.0195 -0.01872,-0.008 -0.04038,-0.0179 -0.06445,-0.0312 -0.0214,-0.0134 -0.03936,-0.0252 -0.05273,-0.0332 -0.01337,-0.008 -0.03257,-0.0203 -0.05664,-0.0391 -0.0214,-0.0187 -0.03494,-0.0318 -0.04297,-0.0371 -0.008,-0.008 -0.02598,-0.0216 -0.05273,-0.043 l -0.04492,-0.0449 c -0.1391,-0.11502 -0.208984,-0.2671 -0.208984,-0.45703 v -0.82617 c 0,-0.1284 0.02976,-0.23297 0.08594,-0.31055 0.05617,-0.0802 0.13591,-0.16244 0.240234,-0.24804 0.01337,-0.0107 0.02323,-0.0181 0.03125,-0.0234 0.109675,-0.0963 0.240826,-0.14453 0.390626,-0.14453 z m 2.353515,0 c 0.0535,0 0.1005,0.0204 0.140625,0.0605 0.04012,0.0375 0.06055,0.0813 0.06055,0.13477 l 0.05078,1.49023 c 0.0053,0.0535 0.02577,0.0973 0.06055,0.13477 0.03745,0.0348 0.08322,0.0527 0.136719,0.0527 h 0.285156 l 0.658203,-0.41796 v -1.25 c 0,-0.0562 0.01724,-0.10441 0.05469,-0.14454 0.04012,-0.0401 0.08836,-0.0605 0.144531,-0.0605 0.05617,0 0.104406,0.0204 0.144531,0.0605 0.04012,0.0401 0.06055,0.0884 0.06055,0.14454 v 1.86914 c 0,0.0562 -0.02042,0.1044 -0.06055,0.14453 -0.04012,0.0401 -0.08836,0.0605 -0.144531,0.0606 -0.05617,0 -0.104406,-0.0204 -0.144531,-0.0606 -0.03745,-0.0401 -0.05469,-0.0884 -0.05469,-0.14453 v -0.14063 l -0.390625,0.24805 c -0.10165,0.0642 -0.209194,0.0977 -0.324218,0.0977 h -0.228516 c -0.1605,0 -0.300269,-0.0576 -0.417969,-0.16993 -0.1177,-0.11502 -0.178244,-0.25038 -0.183594,-0.4082 l -0.04883,-1.49609 c 0,-0.0562 0.01919,-0.10441 0.05664,-0.14454 0.04012,-0.0401 0.08836,-0.0605 0.144531,-0.0605 z m 3.099609,0 h 0.597657 c 0.0535,0 0.1005,0.0204 0.140625,0.0605 0.04012,0.0401 0.06055,0.0884 0.06055,0.14454 v 1.66796 h 0.392578 c 0.05617,1e-5 0.104406,0.0204 0.144531,0.0606 0.04012,0.0401 0.06055,0.0871 0.06055,0.14063 0,0.0562 -0.02042,0.1044 -0.06055,0.14453 -0.04012,0.0401 -0.08836,0.0605 -0.144531,0.0606 h -1.191407 c -0.05617,0 -0.104406,-0.0204 -0.144531,-0.0606 -0.04012,-0.0401 -0.06055,-0.0884 -0.06055,-0.14453 0,-0.0535 0.02042,-0.1005 0.06055,-0.14063 0.04012,-0.0401 0.08836,-0.0605 0.144531,-0.0606 H 28.375 v -1.46874 h -0.398438 c -0.05617,-1e-5 -0.104406,-0.0192 -0.144531,-0.0567 -0.04012,-0.0401 -0.06055,-0.0864 -0.06055,-0.14257 0,-0.0562 0.02042,-0.10441 0.06055,-0.14454 0.04012,-0.0401 0.08836,-0.0605 0.144531,-0.0605 z m 2.744141,0 c 0.06152,0 0.11345,0.0254 0.15625,0.0762 l 0.597656,0.71875 0.59375,-0.71875 c 0.0428,-0.0508 0.09472,-0.0762 0.15625,-0.0762 0.05617,0 0.104407,0.0204 0.144532,0.0605 0.04013,0.0401 0.06055,0.0884 0.06055,0.14454 0,0.0455 -0.01673,0.0868 -0.04883,0.12695 l -0.646484,0.7793 0.695313,0.83398 c 0.02942,0.0374 0.04297,0.0808 0.04297,0.12891 0,0.0562 -0.01847,0.1044 -0.05859,0.14453 -0.04012,0.0401 -0.08836,0.0605 -0.144531,0.0606 -0.0642,0 -0.116125,-0.0241 -0.15625,-0.0723 l -0.638672,-0.77539 -0.642578,0.77539 c -0.04012,0.0482 -0.09205,0.0723 -0.15625,0.0723 -0.05617,0 -0.104406,-0.0204 -0.144531,-0.0606 -0.03745,-0.0401 -0.05664,-0.0884 -0.05664,-0.14453 0,-0.0508 0.01427,-0.0941 0.04102,-0.12891 l 0.693359,-0.83398 -0.644531,-0.7793 c -0.0321,-0.0401 -0.04883,-0.0815 -0.04883,-0.12695 0,-0.0562 0.02042,-0.10441 0.06055,-0.14454 0.04012,-0.0401 0.08836,-0.0605 0.144531,-0.0605 z m 6.5,0 h 0.847656 c 0.05617,0 0.104407,0.0204 0.144532,0.0605 0.04013,0.0401 0.06055,0.0884 0.06055,0.14454 -10e-7,0.0562 -0.02042,0.10245 -0.06055,0.14257 -0.04012,0.0375 -0.08836,0.0566 -0.144532,0.0567 h -0.847656 c -0.0535,0 -0.09485,0.0167 -0.126953,0.0488 l -0.345703,0.29688 c -0.04547,0.0294 -0.06836,0.0789 -0.06836,0.14844 v 0.48046 c 0,0.0615 0.02288,0.11418 0.06836,0.1543 l 0.345703,0.29102 c 0.0321,0.0321 0.07345,0.0488 0.126953,0.0488 h 0.847656 c 0.05617,1e-5 0.104407,0.0204 0.144532,0.0606 0.04013,0.0401 0.06055,0.0871 0.06055,0.14063 -10e-7,0.0562 -0.02042,0.1044 -0.06055,0.14453 -0.04012,0.0401 -0.08836,0.0605 -0.144532,0.0606 h -0.847656 c -0.152475,0 -0.282903,-0.0482 -0.392578,-0.14454 l -0.345703,-0.29687 c -0.1391,-0.12038 -0.207031,-0.27441 -0.207031,-0.45899 v -0.48046 c 0,-0.18458 0.06793,-0.33666 0.207031,-0.45704 0.02943,-0.0241 0.07766,-0.0686 0.144531,-0.13281 0.06955,-0.0669 0.127122,-0.11757 0.169922,-0.15234 0.04548,-0.0374 0.106019,-0.0734 0.183594,-0.10547 0.07758,-0.0348 0.157309,-0.0508 0.240234,-0.0508 z m -31.8945311,0.4043 c -0.0535,0 -0.096806,0.0167 -0.1289063,0.0488 l -0.3457031,0.29688 c -0.045475,0.0294 -0.068359,0.0789 -0.068359,0.14844 v 0.48046 c 0,0.0615 0.022884,0.11099 0.068359,0.14844 l 0.3457031,0.29688 c 0.0321,0.0321 0.075406,0.0488 0.1289063,0.0488 h 0.3007812 c 0.03745,1e-5 0.070184,-0.007 0.099609,-0.0234 0.029425,-0.016 0.063391,-0.0439 0.1035156,-0.084 0.040125,-0.0401 0.063009,-0.0618 0.068359,-0.0644 0.04815,-0.0375 0.072266,-0.0869 0.072266,-0.14844 v -0.82617 c 0,-0.0375 -0.00862,-0.0709 -0.027344,-0.0977 -0.01605,-0.0267 -0.045091,-0.057 -0.087891,-0.0918 -0.040125,-0.0348 -0.061778,-0.054 -0.064453,-0.0566 -0.056175,-0.0508 -0.1105626,-0.0762 -0.1640625,-0.0762 z m 5.5976561,0 c -0.03745,0 -0.07018,0.009 -0.09961,0.0254 -0.02942,0.016 -0.06534,0.0439 -0.105469,0.084 -0.04012,0.0401 -0.06301,0.0618 -0.06836,0.0644 -0.04548,0.0375 -0.06836,0.0869 -0.06836,0.14844 v 0.82617 c 0,0.0321 0.0093,0.0624 0.02539,0.0918 0.01605,0.0294 0.03083,0.0523 0.04687,0.0684 0.01872,0.0161 0.04603,0.0377 0.07813,0.0645 l 0.0625,0.0469 c 0.04012,0.0321 0.08343,0.0488 0.128906,0.0488 h 0.501953 c 0.03745,10e-6 0.07018,-0.007 0.09961,-0.0234 0.02942,-0.016 0.06534,-0.0439 0.105468,-0.084 0.04013,-0.0401 0.06301,-0.0618 0.06836,-0.0644 0.04815,-0.0375 0.07226,-0.0869 0.07226,-0.14844 v -0.82617 c 0,-0.0696 -0.04084,-0.14067 -0.121093,-0.21289 -0.08025,-0.0722 -0.15506,-0.10938 -0.22461,-0.10937 z m 2.900391,0 c -0.04012,0 -0.07728,0.0106 -0.109375,0.0293 -0.02942,0.0187 -0.0597,0.0441 -0.0918,0.0762 -0.0321,0.0321 -0.05622,0.0538 -0.07227,0.0645 -0.04815,0.0481 -0.07226,0.0988 -0.07226,0.15234 v 0.65234 c 0,0.0722 0.03961,0.14458 0.117187,0.2168 0.08025,0.0722 0.156291,0.10938 0.228516,0.10938 H 14.125 c 0.0535,0 0.09681,-0.0167 0.128906,-0.0488 l 0.34375,-0.29688 c 0.04815,-0.0374 0.07227,-0.0869 0.07227,-0.14843 v -0.3125 c 0,-0.0562 -0.02412,-0.10564 -0.07227,-0.14844 l -0.34375,-0.29688 c -0.0321,-0.0321 -0.07541,-0.0488 -0.128906,-0.0488 z m 8.699219,0 c -0.03745,0 -0.07337,0.0106 -0.105469,0.0293 -0.02942,0.016 -0.06093,0.0414 -0.0957,0.0762 -0.03477,0.0348 -0.05766,0.0564 -0.06836,0.0645 -0.04815,0.0428 -0.07227,0.0935 -0.07227,0.15234 v 0.82617 c 0,0.0321 0.0074,0.0624 0.02344,0.0918 0.01605,0.0294 0.03278,0.0523 0.04883,0.0684 0.01872,0.0161 0.04407,0.0377 0.07617,0.0645 l 0.06445,0.0469 c 0.04012,0.0321 0.08343,0.0488 0.128907,0.0488 h 0.300781 c 0.04815,1e-5 0.0895,-0.0167 0.126953,-0.0488 l 0.345703,-0.29688 c 0.04815,-0.0348 0.07227,-0.0842 0.07227,-0.14844 v -0.48046 c 0,-0.0562 -0.02412,-0.10564 -0.07227,-0.14844 l -0.345703,-0.29688 c -0.0321,-0.0321 -0.07345,-0.0488 -0.126953,-0.0488 z m -5.748047,0.61914 h 0.396484 c 0.05617,0 0.104406,0.0185 0.144531,0.0586 0.04012,0.0375 0.06055,0.0845 0.06055,0.14062 v 0.3418 c 0,0.0562 -0.02042,0.10441 -0.06055,0.14453 -0.04012,0.0401 -0.08836,0.0605 -0.144531,0.0605 h -0.396484 c -0.05617,0 -0.104407,-0.0204 -0.144532,-0.0605 -0.04012,-0.0401 -0.06055,-0.0884 -0.06055,-0.14453 v -0.3418 c 0,-0.0562 0.02042,-0.10317 0.06055,-0.14062 0.04012,-0.0401 0.08836,-0.0586 0.144532,-0.0586 z m 17.398437,0 h 0.396484 c 0.05617,0 0.104407,0.0185 0.144532,0.0586 0.04013,0.0375 0.06055,0.0845 0.06055,0.14062 v 0.3418 c 0,0.0562 -0.02042,0.10441 -0.06055,0.14453 -0.04012,0.0401 -0.08836,0.0605 -0.144532,0.0605 h -0.396484 c -0.05618,0 -0.104406,-0.0204 -0.144531,-0.0605 -0.04012,-0.0401 -0.06055,-0.0884 -0.06055,-0.14453 v -0.3418 c 0,-0.0562 0.02042,-0.10317 0.06055,-0.14062 0.04013,-0.0401 0.08836,-0.0586 0.144531,-0.0586 z"
         id="rect4628" /><text
         y="15.168906"
         x="4.7943892"
         font-size="2.5"
         id="text4705"
         style="font-size:3.28262997px;font-family:OCRA;fill:#000000;stroke-width:1.31305206">GND</text>
<text
         y="15.166411"
         x="14.41028"
         font-size="2.5"
         id="text4707"
         style="font-size:3.28262997px;font-family:OCRA;fill:#000000;stroke-width:1.31305206">VCC</text>
<text
         y="15.168906"
         x="24.025995"
         font-size="2.5"
         id="text4709"
         style="font-size:3.28262997px;font-family:OCRA;fill:#000000;stroke-width:1.31305206">SCL</text>
<text
         y="15.166411"
         x="33.641861"
         font-size="2.5"
         id="text4711"
         style="font-size:3.28262997px;font-family:OCRA;fill:#000000;stroke-width:1.31305206">SDA</text>
</g><g
       id="copper1"><g
         id="copper0"
         transform="translate(-71.402629,27.604128)"><path
           inkscape:connector-curvature="0"
           id="path3278"
           style="fill:none;stroke:#ffbf00;stroke-width:1.87200093;stroke-linecap:butt;stroke-linejoin:miter;stroke-miterlimit:4;stroke-dasharray:none;stroke-opacity:1"
           d="m 79.943763,-23.9856 c 1.44478,0 2.616005,1.171224 2.616005,2.615994 0,1.44478 -1.171225,2.616 -2.616005,2.616 -1.44478,0 -2.616006,-1.17122 -2.616006,-2.616 0,-1.44477 1.171226,-2.615994 2.616006,-2.615994 z" /><path
           d="m 89.543763,-23.9856 c 1.44478,0 2.616005,1.171224 2.616005,2.615994 0,1.44478 -1.171225,2.616 -2.616005,2.616 -1.44478,0 -2.616006,-1.17122 -2.616006,-2.616 0,-1.44477 1.171226,-2.615994 2.616006,-2.615994 z"
           style="fill:none;stroke:#ffbf00;stroke-width:1.87200093;stroke-linecap:butt;stroke-linejoin:miter;stroke-miterlimit:4;stroke-dasharray:none;stroke-opacity:1"
           id="path3280"
           inkscape:connector-curvature="0" /><path
           inkscape:connector-curvature="0"
           id="path3282"
           style="fill:none;stroke:#ffbf00;stroke-width:1.87200093;stroke-linecap:butt;stroke-linejoin:miter;stroke-miterlimit:4;stroke-dasharray:none;stroke-opacity:1"
           d="m 99.143763,-23.9856 c 1.444777,0 2.616007,1.171224 2.616007,2.615994 0,1.44478 -1.17123,2.616 -2.616007,2.616 -1.44478,0 -2.616006,-1.17122 -2.616006,-2.616 0,-1.44477 1.171226,-2.615994 2.616006,-2.615994 z" /><path
           d="m 108.74376,-23.9856 c 1.44478,0 2.61601,1.171224 2.61601,2.615994 0,1.44478 -1.17123,2.616 -2.61601,2.616 -1.44478,0 -2.616,-1.17122 -2.616,-2.616 0,-1.44477 1.17122,-2.615994 2.616,-2.615994 z"
           style="fill:none;stroke:#ffbf00;stroke-width:1.87200093;stroke-linecap:butt;stroke-linejoin:miter;stroke-miterlimit:4;stroke-dasharray:none;stroke-opacity:1"
           id="path3284"
           inkscape:connector-curvature="0" /></g></g></g></svg>